<svg width="200" height="60" viewBox="0 0 200 60" fill="none" xmlns="http://www.w3.org/2000/svg">
<rect x="0.5" y="0.5" width="199" height="58.32" rx="9.5" fill="black" stroke="#B7B7B7"/>
<path d="M66.2936 10.2962C67.5028 10.1962 68.8324 10.148 69.8879 10.8499C70.7879 11.4572 71.086 12.6035 71.0934 13.6349C71.099 14.7385 70.8675 15.9681 69.9897 16.7255C68.9954 17.6143 67.5399 17.6532 66.2881 17.481C66.2992 15.0867 66.2862 12.6905 66.2936 10.2962Z" fill="black"/>
<path d="M77.4017 12.8497C77.9165 12.6738 78.5387 12.7257 78.959 13.0979C79.5979 13.6293 79.7942 14.5126 79.7683 15.3089C79.7571 16.094 79.5146 16.9421 78.8739 17.4458C78.3813 17.8606 77.6165 17.9106 77.0925 17.5217C76.3407 16.9866 76.1092 15.9977 76.137 15.1237C76.1703 14.2312 76.5406 13.2423 77.4017 12.8497Z" fill="black"/>
<path d="M110.527 12.8497C111.216 12.5849 112.06 12.859 112.43 13.5053C113.058 14.5293 113.034 15.9163 112.43 16.9477C112.032 17.6402 111.09 18.0384 110.36 17.6162C109.486 17.1384 109.21 16.0477 109.255 15.1219C109.273 14.2312 109.645 13.2127 110.527 12.8497Z" fill="black"/>
<path d="M140.164 12.8461C140.805 12.6109 141.585 12.8201 141.981 13.3886C142.67 14.3793 142.673 15.7626 142.135 16.8199C141.779 17.5365 140.875 18.0328 140.103 17.6699C139.211 17.2773 138.868 16.2181 138.881 15.3107C138.857 14.3608 139.212 13.2349 140.164 12.8461Z" fill="black"/>
<path d="M126.816 13.0201C127.467 12.6775 128.391 12.7627 128.847 13.3905C129.358 14.0404 129.252 14.9071 129.252 15.6811C129.262 16.2959 129.041 16.9495 128.543 17.3366C127.797 17.8976 126.599 17.6477 126.156 16.8181C125.432 15.6441 125.553 13.7793 126.816 13.0201Z" fill="black"/>
<path d="M118.38 15.6459C118.975 15.2589 119.712 15.2385 120.401 15.2367C120.473 15.7829 120.501 16.3514 120.317 16.881C119.98 17.5884 119.008 18.018 118.299 17.5995C117.636 17.1662 117.727 16.0477 118.38 15.6459Z" fill="black"/>
<path d="M71.1146 28.6175C71.9942 31.5007 72.8812 34.382 73.7737 37.2633C72.0145 37.2818 70.2554 37.2763 68.498 37.2652C69.4017 34.3931 70.2146 31.4914 71.1146 28.6175Z" fill="black"/>
<path d="M172.884 33.8746C174 32.8561 175.909 32.8635 176.996 33.919C177.761 34.6986 177.969 35.8412 178.009 36.893C175.819 36.8967 173.626 36.9022 171.436 36.8893C171.613 35.7782 172.032 34.6449 172.884 33.8746Z" fill="black"/>
<path d="M87.9554 33.6172C88.9831 33.3894 90.1627 33.4783 90.9941 34.1838C92.2163 35.1486 92.6626 36.7707 92.7181 38.2651C92.7163 39.7521 92.3311 41.3501 91.2349 42.4186C90.0423 43.5852 87.9536 43.6722 86.6814 42.5945C85.7851 41.7946 85.4333 40.5391 85.4852 39.3688C85.5278 38.1299 85.3259 36.83 85.8259 35.656C86.1722 34.6968 86.9536 33.8801 87.9554 33.6172Z" fill="black"/>
<path d="M104.416 33.5987C105.361 33.4098 106.42 33.4802 107.207 34.0857C108.512 35.0394 108.983 36.7374 109.033 38.2818C109.029 39.765 108.647 41.3631 107.557 42.4334C106.483 43.4871 104.698 43.6315 103.424 42.8686C102.331 42.1723 101.829 40.8224 101.844 39.5706C101.881 38.1151 101.644 36.5633 102.387 35.2338C102.787 34.432 103.533 33.7913 104.416 33.5987Z" fill="black"/>
<path d="M148.797 33.4746C150.04 33.0746 151.464 33.5857 152.254 34.6042C153.164 35.7282 153.423 37.2355 153.386 38.6466C153.345 40.0465 152.967 41.5335 151.934 42.539C151.129 43.3704 149.853 43.7445 148.738 43.3926C147.579 43.0649 146.736 42.0538 146.331 40.9539C145.799 39.4391 145.773 37.7485 146.249 36.2152C146.625 34.9857 147.527 33.845 148.797 33.4746Z" fill="black"/>
<path d="M34.3716 16.744C33.9568 12.4164 37.6659 8.39998 41.9027 8C42.4138 12.2831 38.838 16.8792 34.3716 16.744Z" fill="white"/>
<path d="M103.842 8.53145C104.364 8.52775 104.886 8.52775 105.408 8.53145C105.397 11.9387 105.399 15.3459 105.407 18.755C104.884 18.755 104.362 18.755 103.842 18.7531C103.851 15.3459 103.851 11.9387 103.842 8.53145Z" fill="white"/>
<path d="M129.248 8.53331C129.759 8.5296 130.27 8.52775 130.785 8.53145C130.82 11.9387 130.755 15.3459 130.878 18.755C130.404 18.7532 129.931 18.7532 129.461 18.7513C129.435 18.3976 129.417 18.0476 129.392 17.6977C128.552 19.118 126.328 19.3198 125.208 18.1328C124.232 17.1384 124.032 15.6255 124.282 14.3052C124.526 13.1812 125.237 12.0516 126.385 11.6961C127.393 11.3461 128.568 11.6665 129.263 12.4775C129.239 11.1628 129.261 9.84805 129.248 8.53331ZM126.815 13.0201C125.552 13.7793 125.432 15.6441 126.156 16.8181C126.598 17.6477 127.796 17.8976 128.543 17.3366C129.041 16.9495 129.261 16.2959 129.252 15.6811C129.252 14.9071 129.357 14.0404 128.846 13.3905C128.391 12.7627 127.467 12.6775 126.815 13.0201Z" fill="white"/>
<path d="M165.09 8.53145C165.61 8.52775 166.132 8.52775 166.656 8.53145C166.638 9.93138 166.666 11.3313 166.64 12.7294C167.301 11.622 168.851 11.2109 169.958 11.8887C170.854 12.4479 171.154 13.5812 171.169 14.5774C171.188 15.9718 171.178 17.3643 171.164 18.7587C170.645 18.755 170.127 18.755 169.61 18.7513C169.616 17.3569 169.616 15.9607 169.612 14.5663C169.628 13.946 169.38 13.246 168.767 12.9942C168.251 12.8812 167.643 12.8646 167.216 13.222C166.825 13.5497 166.647 14.0738 166.651 14.5737C166.647 15.9663 166.647 17.3606 166.656 18.7531C166.132 18.755 165.61 18.755 165.09 18.7531C165.101 15.3459 165.099 11.9387 165.09 8.53145Z" fill="white"/>
<path d="M64.8188 9.16846C66.7391 8.97772 68.8186 8.71107 70.6037 9.63695C71.7092 10.1795 72.4388 11.3035 72.6314 12.5035C72.9795 14.4256 72.5129 16.7292 70.7852 17.8662C69.0297 19.0568 66.8169 18.818 64.8151 18.7013C64.8133 15.5237 64.804 12.3461 64.8188 9.16846ZM66.2947 10.2962C66.2872 12.6905 66.3002 15.0867 66.2891 17.481C67.5409 17.6532 68.9964 17.6143 69.9908 16.7255C70.8685 15.9681 71.1 14.7385 71.0944 13.6349C71.087 12.6035 70.7889 11.4572 69.8889 10.8499C68.8334 10.148 67.5039 10.1962 66.2947 10.2962Z" fill="white"/>
<path d="M159.662 10.4758C160.189 10.3184 160.717 10.1592 161.245 9.99435C161.247 10.5665 161.245 11.1406 161.245 11.7165C161.812 11.7128 162.38 11.7109 162.949 11.7109C162.945 12.0979 162.947 12.4868 162.947 12.8757C162.382 12.8738 161.819 12.8738 161.258 12.872C161.236 13.933 161.249 14.9959 161.245 16.0589C161.263 16.5014 161.217 17.0107 161.545 17.3643C161.895 17.6606 162.376 17.5328 162.795 17.5625C162.828 17.9439 162.854 18.3254 162.889 18.7106C161.971 18.9791 160.741 19.0865 160.134 18.1847C159.488 17.1699 159.721 15.8885 159.701 14.7478C159.649 14.1534 159.712 13.559 159.738 12.9664C159.375 12.9331 159.014 12.8775 158.654 12.8498C158.658 12.4701 158.66 12.0905 158.662 11.7128C159.017 11.7128 159.371 11.7072 159.732 11.7035C159.715 11.2924 159.701 10.8832 159.662 10.4758Z" fill="white"/>
<path d="M96.4256 12.7442C97.1052 11.8091 98.3718 11.2832 99.4884 11.6998C100.535 12.0405 101.012 13.2053 101.09 14.2201C101.131 15.7292 101.086 17.2421 101.111 18.7532C100.592 18.755 100.074 18.755 99.555 18.7532C99.5458 17.231 99.6032 15.7052 99.5291 14.1867C99.4717 13.4571 98.8736 12.9405 98.1718 12.8553C97.4589 12.9275 96.7182 13.346 96.633 14.1275C96.5497 15.6644 96.6182 17.2088 96.6015 18.7495C96.0756 18.755 95.5515 18.755 95.0275 18.7495C95.0219 16.4033 95.0775 14.0552 94.959 11.7109C95.4275 11.7109 95.8978 11.7128 96.37 11.7146C96.3867 12.0553 96.4071 12.3998 96.4256 12.7442Z" fill="white"/>
<path d="M116.793 12.135C117.956 11.6017 119.345 11.3109 120.565 11.8331C121.419 12.185 121.867 13.122 121.88 14.0071C121.981 15.5866 121.843 17.1773 122.056 18.7531C121.583 18.7531 121.113 18.755 120.641 18.7476C120.591 18.4809 120.55 18.2217 120.504 17.9606C119.691 19.005 118.021 19.2494 116.993 18.3939C116.034 17.6162 116.069 15.9903 116.989 15.1959C117.9 14.3571 119.206 14.2293 120.389 14.2404C120.332 13.759 120.293 13.1905 119.852 12.8923C118.965 12.4461 117.928 12.7646 117.089 13.1664C116.991 12.822 116.891 12.4775 116.793 12.135ZM118.38 15.6459C117.726 16.0477 117.635 17.1662 118.298 17.5995C119.008 18.018 119.98 17.5884 120.317 16.881C120.5 16.3514 120.472 15.7829 120.4 15.2367C119.711 15.2385 118.974 15.2589 118.38 15.6459Z" fill="white"/>
<path d="M147.804 12.759C148.562 11.698 150.095 11.1869 151.263 11.8702C152.126 12.3813 152.445 13.4368 152.498 14.383C152.519 15.8385 152.493 17.2958 152.508 18.7513C151.982 18.755 151.458 18.755 150.936 18.7495C150.93 17.2495 150.962 15.7496 150.923 14.2515C150.917 13.5127 150.262 12.8053 149.491 12.9275C148.675 12.8442 148.025 13.6016 147.989 14.37C147.956 15.8311 147.98 17.2921 147.982 18.7531C147.462 18.755 146.943 18.755 146.427 18.7531C146.43 16.4051 146.454 14.0571 146.388 11.7109C146.847 11.7128 147.308 11.7109 147.771 11.7109C147.782 12.0591 147.789 12.4072 147.804 12.759Z" fill="white"/>
<path d="M174.303 12.7016C175.277 11.4424 177.309 11.148 178.536 12.2016C179.505 13.0386 179.746 14.4238 179.573 15.6385C177.992 15.6533 176.412 15.6385 174.833 15.6478C174.94 16.3514 175.248 17.1088 175.946 17.4125C176.925 17.8125 178.023 17.6069 179.022 17.3754C179.096 17.7402 179.173 18.105 179.249 18.4717C177.953 18.8328 176.487 19.0068 175.209 18.505C173.063 17.5217 172.909 14.3775 174.303 12.7016ZM175.488 13.1368C175.109 13.4979 174.994 14.0275 174.844 14.5089C175.953 14.5237 177.064 14.5237 178.175 14.5089C178.116 14.0978 178.085 13.6627 177.842 13.3108C177.353 12.5275 176.096 12.4664 175.488 13.1368Z" fill="white"/>
<path d="M175.489 13.1368C176.097 12.4664 177.354 12.5275 177.843 13.3108C178.085 13.6627 178.117 14.0978 178.176 14.5089C177.065 14.5237 175.954 14.5237 174.845 14.5089C174.995 14.0275 175.11 13.4979 175.489 13.1368Z" fill="black"/>
<path d="M77.0082 11.7461C77.9637 11.4961 79.0451 11.5868 79.8803 12.1479C82.0209 13.5275 81.8857 17.2199 79.6673 18.4606C78.4322 19.1939 76.7026 19.0531 75.6638 18.0328C73.7861 16.2625 74.3824 12.459 77.0082 11.7461ZM77.4008 12.8497C76.5397 13.2423 76.1693 14.2312 76.136 15.1237C76.1082 15.9977 76.3397 16.9866 77.0915 17.5217C77.6156 17.9106 78.3803 17.8606 78.8729 17.4458C79.5136 16.9421 79.7562 16.094 79.7673 15.3089C79.7932 14.5126 79.5969 13.6293 78.9581 13.0979C78.5377 12.7257 77.9155 12.6738 77.4008 12.8497Z" fill="white"/>
<path d="M110.149 11.7368C111.407 11.3924 112.871 11.7498 113.705 12.7886C114.358 13.5164 114.545 14.5274 114.479 15.4792C114.503 16.8051 113.671 18.0865 112.464 18.6235C111.114 19.2457 109.347 18.8809 108.442 17.6754C107.699 16.7533 107.61 15.4885 107.783 14.3626C107.992 13.1312 108.944 12.0702 110.149 11.7368ZM110.527 12.8498C109.646 13.2127 109.273 14.2312 109.255 15.1219C109.21 16.0477 109.486 17.1384 110.36 17.6162C111.09 18.0384 112.032 17.6402 112.431 16.9477C113.034 15.9163 113.058 14.5293 112.431 13.5053C112.06 12.859 111.216 12.585 110.527 12.8498Z" fill="white"/>
<path d="M139.782 11.7368C140.952 11.4257 142.305 11.6924 143.154 12.5905C143.876 13.2886 144.176 14.3163 144.111 15.3033C144.159 16.3718 143.702 17.4477 142.876 18.1291C141.713 19.1383 139.835 19.1939 138.63 18.2328C137.352 17.2736 137.115 15.47 137.495 14.0126C137.8 12.9257 138.695 12.0387 139.782 11.7368ZM140.165 12.846C139.213 13.2349 138.858 14.3608 138.882 15.3107C138.869 16.2181 139.211 17.2773 140.104 17.6699C140.876 18.0328 141.78 17.5365 142.135 16.8199C142.674 15.7626 142.67 14.3793 141.981 13.3886C141.585 12.8201 140.806 12.6109 140.165 12.846Z" fill="white"/>
<path d="M82.9512 11.7128C83.4715 11.7128 83.9937 11.7109 84.5178 11.7146C84.9251 13.5571 85.3418 15.3978 85.7695 17.2347C86.338 15.4015 86.8528 13.5516 87.4009 11.7128C87.8139 11.7128 88.2305 11.7109 88.6472 11.7091C89.1453 13.5423 89.6638 15.3737 90.099 17.2255C90.6693 15.4144 91.0656 13.5553 91.5396 11.7183C92.034 11.7109 92.5303 11.7109 93.0284 11.7165C92.3137 14.0627 91.6026 16.4107 90.8767 18.755C90.386 18.7532 89.8953 18.7532 89.4064 18.7569C88.9305 17.031 88.462 15.3033 88.0028 13.5738C87.4824 15.2941 87.0176 17.0292 86.5084 18.7532C86.0121 18.755 85.5159 18.755 85.0214 18.7532C84.3455 16.4033 83.6474 14.0571 82.9512 11.7128Z" fill="white"/>
<path d="M40.2707 17.2162C43.515 16.7384 46.8796 18.2735 48.8166 20.8864C47.0092 22.0382 45.526 23.7862 44.9631 25.8824C44.3038 28.2508 44.7779 30.8896 46.1815 32.9024C47.0481 34.2135 48.3518 35.1764 49.7739 35.8134C48.7592 38.6595 47.3703 41.4427 45.2964 43.6722C44.1872 44.8352 42.7058 45.9166 41.0133 45.7684C39.4819 45.7425 38.1912 44.8203 36.7338 44.5C35.008 44.0685 33.1877 44.4148 31.5989 45.1555C30.2823 45.7462 28.6769 46.1943 27.3158 45.4796C25.2585 44.4018 23.8382 42.4593 22.6346 40.5335C20.7402 37.3596 19.4403 33.795 19.0662 30.1081C18.7625 26.6824 19.4755 22.9974 21.7809 20.3438C23.9623 17.7421 27.7658 16.5477 30.9934 17.7365C32.3804 18.1402 33.7007 19.1235 35.2061 18.8346C36.9135 18.3643 38.4912 17.4421 40.2707 17.2162Z" fill="white"/>
<path d="M122.646 25.888C123.84 25.4621 125.127 25.4973 126.375 25.5547C127.553 25.6084 128.686 25.9806 129.771 26.4231C129.503 27.2731 129.234 28.1212 128.96 28.9693C127.516 28.299 125.886 27.9397 124.298 28.1675C123.377 28.3119 122.42 28.773 122.003 29.6526C121.594 30.5359 121.738 31.6877 122.438 32.3895C123.29 33.2968 124.501 33.6968 125.611 34.1894C127.051 34.7894 128.494 35.5504 129.483 36.793C130.749 38.417 130.794 40.765 129.918 42.5779C129.068 44.2685 127.27 45.2814 125.455 45.5925C123.05 45.9832 120.426 45.8073 118.281 44.5629C118.518 43.6926 118.781 42.8297 119.024 41.9631C120.646 42.8927 122.553 43.363 124.422 43.1426C125.379 43.0038 126.359 42.5834 126.914 41.7575C127.59 40.6446 127.429 39.0669 126.475 38.1614C125.412 37.0985 123.883 36.7985 122.568 36.1763C121.318 35.5727 120.085 34.7875 119.327 33.595C118.402 32.1876 118.385 30.3081 119.076 28.8008C119.757 27.3583 121.142 26.3472 122.646 25.888Z" fill="white"/>
<path d="M62.8828 45.4722C65.0253 38.9132 67.1159 32.3376 69.2677 25.7806C70.5732 25.7954 71.8805 25.775 73.186 25.7935C75.2655 32.358 77.471 38.8892 79.5005 45.4684C78.8301 45.6073 78.1487 45.4259 77.4728 45.474C77.0191 45.5036 76.5636 45.5147 76.1155 45.4499C75.5581 43.526 74.934 41.6223 74.3637 39.7021C72.2231 39.6947 70.0843 39.7095 67.9437 39.6947C67.3215 41.602 66.7456 43.526 66.1641 45.4481C65.0716 45.5444 63.9772 45.4333 62.8828 45.4722ZM71.1139 28.6175C70.2139 31.4914 69.401 34.3931 68.4973 37.2652C70.2547 37.2763 72.0138 37.2818 73.773 37.2633C72.8804 34.382 71.9935 31.5006 71.1139 28.6175Z" fill="white"/>
<path d="M134.378 28.6712C135.426 28.3804 136.444 27.9749 137.509 27.7471C137.429 28.9267 137.457 30.1081 137.511 31.2896C138.661 31.2803 139.811 31.284 140.961 31.2877C140.938 32.0747 140.99 32.8635 140.927 33.6487C139.761 33.7709 138.585 33.4931 137.426 33.7061C137.555 34.9801 137.424 36.2578 137.501 37.5337C137.477 38.8818 137.401 40.2354 137.563 41.5798C137.659 42.2557 138.077 42.9464 138.774 43.1315C139.42 43.2686 140.083 43.1519 140.733 43.0871C140.716 43.8741 140.849 44.6685 140.748 45.4518C139.437 45.8036 138.005 45.9425 136.692 45.5296C135.776 45.2203 135.083 44.4444 134.763 43.5463C134.3 42.2779 134.387 40.9039 134.374 39.578C134.378 37.6115 134.366 35.6449 134.381 33.6802C133.668 33.6635 132.955 33.682 132.248 33.5894C132.257 33.358 132.263 33.1302 132.267 32.9006C132.265 32.3654 132.252 31.8303 132.267 31.2951C132.968 31.2784 133.67 31.2859 134.372 31.2821C134.378 30.4118 134.37 29.5415 134.378 28.6712Z" fill="white"/>
<path d="M148.69 30.9951C150.875 30.6674 153.23 31.4044 154.745 33.0358C156.964 35.4412 157.188 39.254 155.797 42.1279C154.917 43.8648 153.251 45.1703 151.356 45.6129C149.112 46.1777 146.566 45.6259 144.875 44.0093C143.416 42.6427 142.729 40.6057 142.735 38.6373C142.69 36.593 143.318 34.4561 144.773 32.9728C145.805 31.8914 147.22 31.221 148.69 30.9951ZM148.797 33.4746C147.527 33.845 146.625 34.9857 146.249 36.2152C145.773 37.7485 145.799 39.4391 146.331 40.9539C146.736 42.0538 147.579 43.0649 148.738 43.3926C149.853 43.7445 151.129 43.3704 151.934 42.539C152.967 41.5335 153.345 40.0465 153.386 38.6466C153.423 37.2356 153.164 35.7282 152.255 34.6042C151.464 33.5857 150.04 33.0746 148.797 33.4746Z" fill="white"/>
<path d="M85.1161 33.6172C86.6956 30.7877 90.938 30.1081 93.3971 32.1654C94.9693 33.4691 95.6989 35.5264 95.8637 37.5115C96.01 39.7817 95.4285 42.2075 93.8768 43.9259C92.238 45.7814 89.3437 46.2943 87.1197 45.2666C86.4475 44.9574 85.916 44.4296 85.479 43.8463C85.4957 46.324 85.4846 48.8035 85.4846 51.2811C84.4235 51.2848 83.3625 51.2811 82.3014 51.2848C82.2662 48.1202 82.3107 44.9555 82.2829 41.7927C82.2773 38.2892 82.3551 34.7838 82.1348 31.284C83.0736 31.2821 84.0143 31.2877 84.9531 31.2803C84.992 32.0599 85.0272 32.8413 85.1161 33.6172ZM87.9548 33.6172C86.953 33.8802 86.1716 34.6968 85.8253 35.656C85.3253 36.83 85.5272 38.1299 85.4846 39.3688C85.4327 40.5391 85.7846 41.7946 86.6808 42.5945C87.953 43.6722 90.0418 43.5852 91.2343 42.4186C92.3305 41.3502 92.7157 39.7521 92.7176 38.2651C92.662 36.7707 92.2157 35.1486 90.9936 34.1838C90.1621 33.4783 88.9826 33.3894 87.9548 33.6172Z" fill="white"/>
<path d="M101.459 33.6209C102.98 30.9785 106.792 30.1785 109.313 31.8284C110.92 32.8821 111.794 34.7431 112.12 36.5874C112.516 39.1577 112.007 42.0186 110.2 43.9759C108.62 45.7277 105.922 46.2295 103.759 45.3888C102.98 45.074 102.306 44.5278 101.856 43.8185C101.833 46.3073 101.858 48.7961 101.843 51.2867C100.784 51.2811 99.7262 51.2811 98.6688 51.2848C98.6577 45.9573 98.667 40.6317 98.6651 35.3042C98.6799 33.9616 98.5559 32.6247 98.5059 31.2858C99.441 31.284 100.374 31.2858 101.309 31.284C101.389 32.0599 101.424 32.8395 101.459 33.6209ZM104.417 33.5987C103.533 33.7913 102.787 34.432 102.387 35.2338C101.645 36.5633 101.882 38.1151 101.845 39.5706C101.83 40.8224 102.332 42.1723 103.424 42.8686C104.698 43.6315 106.483 43.4871 107.557 42.4334C108.648 41.3631 109.029 39.765 109.033 38.2818C108.983 36.7374 108.513 35.0394 107.207 34.0857C106.42 33.4802 105.361 33.4098 104.417 33.5987Z" fill="white"/>
<path d="M164.001 31.6081C164.834 31.0322 165.889 30.8914 166.878 31.0248C166.884 32.0136 166.875 33.0043 166.886 33.9931C166.012 33.9042 165.069 33.8802 164.288 34.3468C163.188 34.9894 162.686 36.306 162.593 37.5244C162.573 40.1706 162.588 42.8186 162.586 45.4648C161.523 45.4648 160.462 45.4648 159.401 45.4648C159.373 40.7391 159.473 36.0115 159.321 31.2877C160.229 31.2803 161.136 31.2877 162.045 31.2821C162.134 32.2117 162.151 33.1469 162.201 34.0802C162.601 33.1339 163.119 32.1877 164.001 31.6081Z" fill="white"/>
<path d="M171.914 31.7543C174.308 30.4803 177.723 30.6877 179.517 32.8895C180.897 34.619 181.182 36.9837 180.943 39.1225C177.778 39.1132 174.612 39.1206 171.445 39.1188C171.444 40.7705 172.351 42.5038 173.992 43.0371C175.867 43.6185 177.928 43.3278 179.754 42.6908C179.908 43.4297 180.071 44.1685 180.208 44.9129C178.341 45.6055 176.317 45.924 174.33 45.7129C172.729 45.5425 171.157 44.8314 170.112 43.5834C168.777 42.0334 168.329 39.9021 168.466 37.9022C168.601 35.493 169.733 32.9617 171.914 31.7543ZM172.882 33.8746C172.031 34.6449 171.612 35.7782 171.434 36.8893C173.625 36.9022 175.817 36.8967 178.008 36.893C177.967 35.8412 177.76 34.6986 176.995 33.919C175.908 32.8635 173.999 32.8561 172.882 33.8746Z" fill="white"/>
</svg>
