<svg width="155" height="298" viewBox="0 0 155 298" fill="none" xmlns="http://www.w3.org/2000/svg">
<g clip-path="url(#clip0_2157_1369)">
<path opacity="0.43" d="M257.196 116.326C257.68 118.106 257.799 119.967 257.546 121.795L234.376 222.084C233.933 223.591 233.145 224.974 232.076 226.123C230.815 227.239 229.346 228.094 227.754 228.642L130.265 258.466C128.383 259.213 126.329 259.418 124.336 259.057C122.303 258.367 120.468 257.192 118.99 255.634L45.0145 186.651C43.5066 185.513 42.3341 183.988 41.6206 182.239C41.2089 180.414 41.3097 178.511 41.9118 176.74L65.0998 76.383C65.6333 74.8551 66.4782 73.4547 67.5812 72.2704C68.8546 71.1075 70.3256 70.1816 71.9248 69.5363L169.763 39.6075C171.719 39.1095 173.753 39.0036 175.75 39.2959C177.359 39.7308 178.792 40.6579 179.849 41.9475L254.3 111.375C255.559 112.835 256.541 114.513 257.196 116.326V116.326Z" fill="#191919"/>
</g>
<defs>
<clipPath id="clip0_2157_1369">
<rect width="155" height="298" fill="white"/>
</clipPath>
</defs>
</svg>
