<svg xmlns="http://www.w3.org/2000/svg" xmlns:xlink="http://www.w3.org/1999/xlink" width="99.758" height="99.758" viewBox="0 0 99.758 99.758">
  <defs>
    <linearGradient id="linear-gradient" x1="0.024" y1="0.057" x2="1.031" y2="1" gradientUnits="objectBoundingBox">
      <stop offset="0" stop-color="#f29500"/>
      <stop offset="1" stop-color="#794b00"/>
    </linearGradient>
    <linearGradient id="linear-gradient-2" x1="-0.107" x2="1.094" y2="1.049" gradientUnits="objectBoundingBox">
      <stop offset="0" stop-color="#eb9100"/>
      <stop offset="1" stop-color="#764900"/>
    </linearGradient>
  </defs>
  <g id="Group_3766" data-name="Group 3766" transform="translate(-863.25 -337.5)">
    <g id="Group_3477" data-name="Group 3477" transform="translate(863.25 337.5)">
      <path id="Path_159" data-name="Path 159" d="M49.879,0A49.879,49.879,0,1,1,0,49.879,49.879,49.879,0,0,1,49.879,0Z" transform="translate(0 0)" fill="url(#linear-gradient)"/>
      <g id="Path_160" data-name="Path 160" transform="translate(5.521 5.365)" fill="#171717">
        <path d="M 44.34382247924805 83.98995971679688 C 39.03235626220703 83.98995971679688 33.88225555419922 82.94721221923828 29.03658866882324 80.89069366455078 C 24.35260581970215 78.90277862548828 20.14463996887207 76.05558013916016 16.52955627441406 72.42816162109375 C 12.91330623626709 68.79959869384766 10.07455539703369 64.5751953125 8.092155456542969 59.87229537963867 C 6.040355682373047 55.00474548339844 5.000005722045898 49.83108139038086 5.000005722045898 44.49497985839844 C 5.000005722045898 39.15887832641602 6.040355682373047 33.98521423339844 8.092155456542969 29.11766242980957 C 10.07455539703369 24.41476249694824 12.91330623626709 20.19036293029785 16.52955627441406 16.56179618835449 C 20.14463996887207 12.93437957763672 24.35260581970215 10.08718013763428 29.03658866882324 8.099263191223145 C 33.88225555419922 6.042746543884277 39.03235626220703 4.999996662139893 44.34382247924805 4.999996662139893 C 49.65528869628906 4.999996662139893 54.80538940429688 6.042746543884277 59.65105438232422 8.099263191223145 C 64.33503723144531 10.08718013763428 68.54300689697266 12.93437957763672 72.15808868408203 16.56179618835449 C 75.77433776855469 20.19036293029785 78.61309051513672 24.41476249694824 80.59548950195312 29.11766242980957 C 82.64728546142578 33.98521423339844 83.68763732910156 39.15887832641602 83.68763732910156 44.49497985839844 C 83.68763732910156 49.83108139038086 82.64728546142578 55.00474548339844 80.59548950195312 59.87229537963867 C 78.61309051513672 64.5751953125 75.77433776855469 68.79959869384766 72.15808868408203 72.42816162109375 C 68.54300689697266 76.05558013916016 64.33503723144531 78.90277862548828 59.65105438232422 80.89069366455078 C 54.80538940429688 82.94721221923828 49.65528869628906 83.98995971679688 44.34382247924805 83.98995971679688 Z" stroke="none"/>
        <path d="M 44.34382247924805 10 C 25.40657424926758 10 9.999992370605469 25.4743766784668 9.999992370605469 44.49497985839844 C 9.999992370605469 63.51558685302734 25.40657424926758 78.98995971679688 44.34382247924805 78.98995971679688 C 63.28107452392578 78.98995971679688 78.68763732910156 63.51558685302734 78.68763732910156 44.49497985839844 C 78.68763732910156 25.4743766784668 63.28107452392578 10 44.34382247924805 10 M 44.34382247924805 0 C 68.83424377441406 0 88.68763732910156 19.92108154296875 88.68763732910156 44.49497985839844 C 88.68763732910156 69.06887817382812 68.83424377441406 88.98995971679688 44.34382247924805 88.98995971679688 C 19.85340881347656 88.98995971679688 -7.62939453125e-06 69.06887817382812 -7.62939453125e-06 44.49497985839844 C -7.62939453125e-06 19.92108154296875 19.85340881347656 0 44.34382247924805 0 Z" stroke="none" fill="#171717"/>
      </g>
    </g>
    <g id="Group_3478" data-name="Group 3478" transform="translate(886.817 359.141)">
      <path id="Union_14" data-name="Union 14" d="M43.383,56.272V51.31H40.377v4.962H37.371V51.31H32.1l-5.957-8.486L20.189,51.31H15.034v4.962H12.028V51.31H9.021v4.962H6.015V51.31H0L16.052,28.448,0,5.586H6.015V0H9.021V5.586h3.006V0h3.007V5.586h5.155l5.958,8.484L32.1,5.586h5.267V0h3.006V5.586h3.006V0h3.008V5.586h5.9L36.241,28.448,52.293,51.31h-5.9v4.962Z" transform="translate(0 0)" fill="url(#linear-gradient-2)"/>
    </g>
  </g>
</svg>
