<svg width="200" height="60" viewBox="0 0 200 60" fill="none" xmlns="http://www.w3.org/2000/svg">
<rect x="0.5" y="0.5" width="199" height="58.32" rx="9.5" fill="black" stroke="#B7B7B7"/>
<path d="M92.1557 10.2633C93.7649 9.55966 95.7482 10.4985 96.4112 12.0781C97.0112 13.3744 96.7612 15.0188 95.7575 16.0428C94.8334 17.015 93.2964 17.3428 92.0631 16.8058C91.0521 16.415 90.328 15.4595 90.1002 14.4151C89.6891 12.7855 90.5613 10.88 92.1557 10.2633Z" fill="black"/>
<path d="M141.567 28.1166C142.915 28.1073 144.265 28.0759 145.613 28.124C146.884 28.1592 148.015 29.1092 148.38 30.3091C148.943 32.0109 147.665 34.0053 145.867 34.1535C144.436 34.2239 142.999 34.1664 141.565 34.1813C141.573 32.1591 141.569 30.1369 141.567 28.1166Z" fill="black"/>
<path d="M77.4582 34.2146C78.5563 34.0739 79.747 34.4072 80.5174 35.2275C81.9525 36.7367 82.0173 39.3441 80.6007 40.8885C79.7433 41.8662 78.3341 42.3329 77.0693 41.994C75.7249 41.6737 74.6823 40.5126 74.3546 39.1904C73.7509 37.0682 75.162 34.4516 77.4582 34.2146Z" fill="black"/>
<path d="M91.8748 34.2053C93.0285 34.0794 94.2785 34.472 95.0303 35.3831C96.3988 36.9997 96.321 39.6922 94.7285 41.1348C93.6803 42.1496 91.9841 42.4033 90.6952 41.7126C89.2008 40.957 88.3675 39.1663 88.649 37.5312C88.8508 35.8812 90.1712 34.3572 91.8748 34.2053Z" fill="black"/>
<path d="M106.331 34.2164C107.464 34.0498 108.701 34.4775 109.4 35.409C110.757 37.1775 110.587 40.0756 108.766 41.47C107.348 42.5514 105.105 42.1959 104.052 40.7663C102.787 39.1348 102.935 36.5405 104.439 35.1072C104.95 34.6109 105.627 34.3127 106.331 34.2164Z" fill="black"/>
<path d="M122.353 37.9701C122.323 36.3219 123.418 34.7072 125.022 34.2516C126.244 33.8387 127.688 34.3813 128.327 35.5053C126.335 36.3238 124.342 37.1404 122.353 37.9701Z" fill="black"/>
<path d="M164.023 38.2608C165.497 37.8441 167.199 37.9497 168.488 38.8348C168.002 40.6422 166.212 42.1718 164.277 41.9274C163.393 41.8903 162.317 41.3348 162.319 40.3367C162.206 39.3052 163.112 38.5182 164.023 38.2608Z" fill="black"/>
<path d="M52.3848 10.4467C54.0125 8.59674 57.2217 8.4949 58.9124 10.3134C58.6661 10.5597 58.4217 10.8059 58.1809 11.0541C57.5606 10.5078 56.8032 10.0689 55.9569 10.0412C54.1255 9.88005 52.4533 11.4763 52.3218 13.2688C52.17 14.7021 53.0181 16.1817 54.3421 16.7576C55.6292 17.3576 57.3273 17.0669 58.2661 15.978C58.6717 15.5243 58.8087 14.9207 58.9124 14.341C57.8439 14.3244 56.7754 14.3355 55.7069 14.3299C55.7069 13.9892 55.7069 13.6466 55.7051 13.3059C57.1402 13.2837 58.5772 13.2855 60.0124 13.3022C60.0809 14.4244 59.9309 15.6169 59.2198 16.528C58.3846 17.6298 56.9643 18.1669 55.6051 18.0798C53.9384 18.1317 52.2996 17.1095 51.62 15.5873C50.8552 13.9244 51.1237 11.8004 52.3848 10.4467Z" fill="white"/>
<path d="M92.824 9.03007C94.1184 8.87822 95.4869 9.30599 96.4276 10.2189C97.3257 11.0504 97.8183 12.267 97.8628 13.48C97.9054 15.1521 96.9795 16.8447 95.4647 17.5984C94.5425 18.115 93.4444 18.1521 92.4203 18.0169C90.6611 17.6817 89.1834 16.191 88.8963 14.417C88.3667 11.93 90.2759 9.25414 92.824 9.03007ZM92.1555 10.2634C90.5611 10.88 89.6889 12.7855 90.1 14.4151C90.3278 15.4595 91.0518 16.4151 92.0629 16.8058C93.2962 17.3428 94.8332 17.0151 95.7573 16.0429C96.7609 15.0188 97.0109 13.3744 96.4109 12.0781C95.748 10.4986 93.7647 9.55969 92.1555 10.2634Z" fill="white"/>
<path d="M61.4102 9.25229C62.3731 9.11155 63.3379 9.29488 64.3045 9.24118C65.0453 9.19858 65.786 9.24673 66.5285 9.25414C66.5248 9.58561 66.523 9.91894 66.5193 10.2504C65.1878 10.2504 63.8545 10.256 62.5212 10.2467C62.5157 11.1856 62.5212 12.1226 62.5175 13.0596C63.712 13.0522 64.9064 13.0652 66.1008 13.0522C66.136 13.4022 66.1693 13.7503 66.2008 14.1022C64.973 14.1207 63.7453 14.1096 62.5175 14.1077C62.5175 15.0188 62.5249 15.9299 62.512 16.841C63.8508 16.8502 65.1897 16.841 66.5304 16.8484C66.5211 17.2243 66.5137 17.5984 66.5063 17.9743C64.8101 17.9706 63.1157 17.9706 61.4194 17.9743C61.4046 15.067 61.4231 12.1596 61.4102 9.25229Z" fill="white"/>
<path d="M67.4932 9.2597C69.2061 9.10229 70.919 9.30044 72.6338 9.24118C72.9171 9.24673 73.2041 9.25044 73.4893 9.25044C73.4875 9.58376 73.4856 9.91894 73.4856 10.2541C72.6708 10.2486 71.8579 10.2523 71.0449 10.2504C71.0394 12.8244 71.0468 15.3966 71.0412 17.9706C70.6709 17.9724 70.3005 17.9743 69.9338 17.978C69.9172 15.4003 69.9301 12.8244 69.9264 10.2486C69.1153 10.2541 68.3061 10.2504 67.4969 10.2523C67.495 9.92079 67.495 9.58932 67.4932 9.2597Z" fill="white"/>
<path d="M77.34 9.20785C77.7085 9.19859 78.077 9.19859 78.4473 9.22081C78.4529 12.1374 78.4529 15.054 78.4492 17.9724C78.077 17.9724 77.7085 17.9743 77.34 17.9761C77.3307 15.054 77.3307 12.13 77.34 9.20785Z" fill="white"/>
<path d="M79.6172 9.26339C80.0653 9.23747 80.5153 9.19858 80.9653 9.18562C82.5208 9.22821 84.0745 9.18932 85.63 9.25414C85.6281 9.58746 85.6281 9.92079 85.63 10.2541C84.8282 10.2486 84.0263 10.2541 83.2245 10.2486C83.0023 12.8207 83.3634 15.404 83.1486 17.9761C82.7949 17.9743 82.4412 17.9724 82.0893 17.9724C82.0375 15.3984 82.1005 12.8226 82.0653 10.2486C81.2486 10.2523 80.4338 10.2541 79.6172 10.2467C79.6172 9.91893 79.6172 9.59116 79.6172 9.26339Z" fill="white"/>
<path d="M99.1997 9.26525C99.6663 9.19118 100.142 9.24303 100.614 9.25414C102.044 11.53 103.42 13.8429 104.885 16.0984C104.75 13.8262 104.825 11.5485 104.796 9.27266C105.164 9.23747 105.533 9.19488 105.903 9.16525C105.962 12.0985 105.918 15.0355 105.925 17.9724C105.542 17.9724 105.159 17.9743 104.777 17.9798C103.25 15.6151 101.827 13.1818 100.303 10.8134C100.283 13.2003 100.305 15.5892 100.292 17.9761C99.9256 17.9743 99.5608 17.9724 99.196 17.9743C99.1904 15.0707 99.183 12.167 99.1997 9.26525Z" fill="white"/>
<path d="M59.3049 24.4315C62.3214 23.9612 65.4195 25.1093 67.6343 27.1537C66.9621 27.8129 66.3028 28.487 65.6306 29.1481C64.5566 28.1166 63.1751 27.4018 61.6918 27.2111C59.4104 26.8778 56.9697 27.6907 55.3827 29.3759C53.7791 31.0073 53.0754 33.4313 53.4309 35.6775C53.7254 37.9164 55.1661 39.9608 57.1605 41.0163C59.5289 42.2663 62.6085 42.1959 64.851 40.6978C66.2843 39.7423 67.0732 38.083 67.2769 36.4072C65.0751 36.4035 62.8733 36.4109 60.6696 36.4035C60.6752 35.4664 60.677 34.5294 60.6696 33.5924C63.7807 33.5924 66.8936 33.5869 70.0064 33.5943C70.3416 35.909 70.0842 38.3941 68.838 40.4163C67.6935 42.344 65.7362 43.7236 63.5844 44.3014C61.0344 45.0329 58.2141 44.7458 55.8642 43.5199C53.3143 42.2089 51.3273 39.8052 50.6199 37.0164C50.0773 34.885 50.2514 32.5702 51.1551 30.5629C52.5828 27.3018 55.7753 24.8963 59.3049 24.4315Z" fill="white"/>
<path d="M115.065 25.0667C116.018 25.0649 116.972 25.0704 117.928 25.0611C117.935 31.4832 117.926 37.9053 117.931 44.3273C116.976 44.3218 116.02 44.3255 115.065 44.3255C115.098 43.4866 114.968 42.6477 115.042 41.8107C115.144 40.27 114.959 38.7293 115.024 37.1886C115.163 34.722 114.959 32.2536 115.068 29.7888C115.042 28.2129 115.046 26.6426 115.065 25.0667Z" fill="white"/>
<path d="M138.668 25.2963C140.918 25.2963 143.168 25.2945 145.418 25.2963C147.116 25.3074 148.855 25.9204 150.016 27.1944C152.294 29.6518 151.884 34.135 148.999 35.9553C146.81 37.4442 144.049 36.8905 141.568 37.0016C141.573 39.4645 141.566 41.9274 141.572 44.3903C140.603 44.4032 139.636 44.3958 138.67 44.3958C138.668 38.0293 138.674 31.6628 138.668 25.2963ZM141.568 28.1166C141.57 30.1369 141.573 32.1591 141.566 34.1813C142.999 34.1665 144.436 34.2239 145.868 34.1535C147.666 34.0054 148.944 32.011 148.381 30.3092C148.016 29.1092 146.884 28.1592 145.614 28.124C144.266 28.0759 142.916 28.1074 141.568 28.1166Z" fill="white"/>
<path d="M154.003 44.3958C154.007 38.0293 154.007 31.6628 154.003 25.2945C154.964 25.2963 155.925 25.2945 156.888 25.2963C156.886 31.6665 156.901 38.0386 156.881 44.4088C155.921 44.3921 154.962 44.4014 154.003 44.3958Z" fill="white"/>
<path d="M159.684 33.7109C160.578 32.0795 162.278 30.9406 164.133 30.7684C165.38 30.6795 166.678 30.6925 167.846 31.1888C169.294 31.7202 170.489 32.9109 170.978 34.3813C171.441 35.5701 171.242 36.8627 171.352 38.1034C171.244 40.2052 171.396 42.3089 171.315 44.4088C170.355 44.4088 169.396 44.4125 168.439 44.394C168.443 43.7644 168.452 43.1348 168.418 42.507C167.809 43.3348 167.109 44.1662 166.117 44.5329C163.959 45.3403 161.3 44.4866 159.969 42.62C159.161 41.4107 159.056 39.7904 159.595 38.4534C160.171 37.1516 161.452 36.3035 162.787 35.9294C164.613 35.4294 166.626 35.4609 168.376 36.2257C168.341 35.5905 168.168 34.9516 167.72 34.4813C166.298 32.8647 163.332 33.0332 162.198 34.909C161.359 34.5072 160.511 34.1313 159.684 33.7109ZM164.022 38.2608C163.111 38.5182 162.206 39.3052 162.319 40.3367C162.317 41.3348 163.393 41.8903 164.276 41.9274C166.211 42.1718 168.002 40.6422 168.487 38.8349C167.198 37.9497 165.496 37.8442 164.022 38.2608Z" fill="white"/>
<path d="M77.3765 31.6036C79.3246 31.4406 81.3449 32.1721 82.7041 33.5887C84.9411 35.8701 85.1448 39.8034 83.1041 42.2755C81.3338 44.5273 78.0357 45.3051 75.408 44.2199C73.3118 43.4329 71.7359 41.4533 71.4192 39.2404C71.2915 37.9849 71.3396 36.6701 71.8877 35.5109C72.7951 33.3072 75.0173 31.7832 77.3765 31.6036ZM77.458 34.2146C75.1617 34.4516 73.7507 37.0682 74.3543 39.1904C74.6821 40.5126 75.7247 41.6737 77.0691 41.994C78.3339 42.3329 79.7431 41.8663 80.6005 40.8885C82.0171 39.3441 81.9523 36.7368 80.5171 35.2275C79.7468 34.4072 78.5561 34.0739 77.458 34.2146Z" fill="white"/>
<path d="M91.6434 31.6128C94.4137 31.3036 97.2914 32.9332 98.3525 35.5312C99.3136 37.7793 98.9673 40.5774 97.3451 42.4385C95.6007 44.4995 92.5378 45.2329 90.0194 44.3125C88.1083 43.6681 86.5454 42.057 85.9935 40.1145C85.3676 38.0775 85.7843 35.7424 87.1102 34.0702C88.1935 32.6628 89.8879 31.7943 91.6434 31.6128ZM91.8749 34.2054C90.1712 34.3572 88.8509 35.8812 88.649 37.5312C88.3676 39.1663 89.2009 40.957 90.6953 41.7126C91.9841 42.4033 93.6804 42.1496 94.7285 41.1348C96.3211 39.6923 96.3988 36.9997 95.0304 35.3831C94.2785 34.472 93.0285 34.0794 91.8749 34.2054Z" fill="white"/>
<path d="M105.249 31.7462C106.943 31.298 108.908 31.7832 110.076 33.1221C110.071 32.7628 110.071 32.4054 110.071 32.0462C110.973 32.0462 111.874 32.0499 112.778 32.0424C112.906 33.2591 112.71 34.4776 112.841 35.6924C112.822 37.1719 112.732 38.6534 112.824 40.133C112.758 41.9922 112.956 43.8699 112.634 45.718C112.313 47.3606 111.395 48.9605 109.885 49.7735C107.832 50.8605 105.175 50.8494 103.202 49.579C102.132 48.9013 101.356 47.8476 100.804 46.7236C101.628 46.3476 102.473 46.018 103.313 45.681C103.789 46.7124 104.643 47.6624 105.81 47.868C107.074 48.1217 108.604 47.8309 109.387 46.7161C110.128 45.6643 110.087 44.3125 110.076 43.0848C109.039 44.5495 107.036 44.9421 105.367 44.5736C102.432 43.9588 100.228 41.0885 100.301 38.1071C100.295 35.2072 102.393 32.398 105.249 31.7462ZM106.332 34.2165C105.628 34.3128 104.95 34.6109 104.439 35.1072C102.936 36.5405 102.788 39.1349 104.052 40.7663C105.106 42.1959 107.349 42.5514 108.767 41.47C110.587 40.0756 110.758 37.1775 109.4 35.409C108.702 34.4776 107.465 34.0498 106.332 34.2165Z" fill="white"/>
<path d="M120.85 34.0572C122.42 31.8388 125.616 30.924 128.092 32.0906C129.879 32.9091 131.005 34.6813 131.633 36.4812C128.71 37.6886 125.786 38.896 122.872 40.1237C123.327 40.907 123.968 41.6422 124.866 41.9089C126.479 42.4718 128.397 41.8033 129.284 40.3348C130.036 40.8385 130.801 41.3218 131.562 41.8126C130.623 43.1255 129.236 44.1273 127.659 44.5069C125.481 45.0551 123.027 44.4273 121.435 42.8311C119.127 40.5663 118.963 36.6294 120.85 34.0572ZM122.353 37.9701C124.342 37.1405 126.335 36.3238 128.327 35.5053C127.688 34.3813 126.244 33.8387 125.022 34.2517C123.418 34.7072 122.324 36.322 122.353 37.9701Z" fill="white"/>
<path d="M172.439 31.5165C173.532 31.498 174.626 31.4739 175.721 31.4758C176.976 34.3757 178.219 37.2812 179.486 40.1774C180.643 37.2719 181.791 34.3646 182.96 31.4647C184.097 31.4776 185.235 31.4591 186.374 31.511C183.635 37.7775 180.889 44.0403 178.162 50.3124C177.071 50.3457 175.98 50.3105 174.891 50.3346C175.899 48.1791 176.913 46.0273 177.936 43.8773C176.082 39.7663 174.284 35.6312 172.439 31.5165Z" fill="white"/>
<path d="M15.041 20.6853C15.6317 20.4094 16.2854 20.6742 16.8113 20.9686C21.1464 23.3352 25.4852 25.6944 29.824 28.0536C29.8591 28.0999 29.9295 28.1907 29.9647 28.237C29.9628 28.2777 29.961 28.3573 29.961 28.3981C29.9499 30.7554 29.9666 33.1146 29.7147 35.4609C24.8111 40.3774 19.9557 45.3402 15.0725 50.2753L15.0392 50.3086C14.3873 49.9346 13.9855 49.2364 14.0077 48.4827C13.9855 39.8404 14.017 31.198 14.0318 22.5575C14.0299 21.8279 14.3058 20.9779 15.041 20.6853Z" fill="#67E9C9"/>
<path d="M29.9611 28.3981C29.9611 28.3573 29.963 28.2777 29.9648 28.237V28.1499C33.4999 30.0462 37.011 31.9906 40.5479 33.885C41.1868 34.222 41.9145 34.7183 41.9312 35.5238C41.8275 36.4016 40.9757 36.8423 40.2812 37.2201C38.3739 38.2515 36.4795 39.3071 34.5721 40.3367C32.9703 38.696 31.3352 37.0867 29.7148 35.4609C29.9667 33.1146 29.95 30.7554 29.9611 28.3981Z" fill="#F6CB6F"/>
<path d="M15.0732 50.2753C19.9565 45.3402 24.8119 40.3774 29.7155 35.4609C31.3358 37.0867 32.9709 38.696 34.5727 40.3367C28.6785 43.5588 22.7693 46.7513 16.8713 49.9661C16.3306 50.2957 15.6917 50.3753 15.0732 50.2753Z" fill="#C23E7C"/>
</svg>
