<svg width="95" height="192" viewBox="0 0 95 192" fill="none" xmlns="http://www.w3.org/2000/svg">
<g clip-path="url(#clip0_2148_1278)">
<g opacity="0.43">
<path d="M41.2832 148.613C40.6922 148.387 39.6063 147.892 38.9733 147.121C38.0112 145.95 37.9021 143.957 37.9011 143.937L37.8984 143.883L37.8899 143.828L26.1992 70.1783C26.1881 69.9375 26.1465 68.4871 26.6736 67.2377C27.1539 66.0993 28.1926 64.961 28.586 64.5847L86.1137 17.938C86.2939 17.8079 88.0872 16.5348 89.5955 16.2968C90.4755 16.1579 91.3108 16.3781 91.8565 16.5873C92.1963 16.7175 92.4053 16.8377 92.4074 16.839L92.48 16.882L92.5548 16.9098L161.377 43.2892C161.642 43.4272 163.288 44.313 164.298 45.5456C165.305 46.7759 165.752 48.4495 165.812 48.6866L177.493 122.275C177.508 122.424 177.638 123.873 177.118 125.084C176.65 126.172 175.568 127.244 175.18 127.575L117.819 174.087L117.78 174.118L117.745 174.153C117.732 174.166 116.209 175.641 114.49 175.881C113.162 176.066 111.57 175.53 110.947 175.291C110.687 175.192 110.53 175.119 110.529 175.119L110.498 175.104L110.465 175.092L42.0363 148.863L41.9829 148.843L41.9276 148.828C41.9269 148.828 41.6632 148.759 41.2832 148.613Z" fill="url(#paint0_linear_2148_1278)"/>
<path d="M91.4983 17.5213C91.1448 17.3858 90.4478 17.1749 89.7512 17.2848C88.7824 17.4377 87.395 18.2438 86.7247 18.7302L29.2495 65.3343C28.9004 65.6749 27.9969 66.6739 27.595 67.6265C27.2219 68.5108 27.179 69.6287 27.1955 70.0757L38.8952 143.782L38.9003 143.895C38.916 144.244 39.1056 145.707 39.7459 146.486C40.1016 146.919 40.7923 147.354 41.6409 147.679C41.9356 147.792 42.1463 147.851 42.1801 147.861L42.2794 147.885L110.883 174.18L110.95 174.211C110.968 174.22 111.098 174.278 111.304 174.357C112.451 174.797 113.591 174.996 114.352 174.89C115.493 174.731 116.678 173.793 117.044 173.439L117.104 173.378L117.188 173.31L174.536 126.81C174.884 126.507 175.817 125.578 176.198 124.689C176.55 123.87 176.538 122.793 176.5 122.405L164.831 48.8898C164.754 48.5988 164.354 47.1935 163.524 46.1794C162.77 45.2595 161.486 44.476 160.968 44.2039L92.1966 17.8438L92.0546 17.7971L91.9021 17.7026C91.8661 17.6831 91.7193 17.606 91.4983 17.5213ZM92.2143 15.6533C92.6496 15.8201 92.9126 15.9758 92.9126 15.9758L161.785 42.3742C161.785 42.3742 163.819 43.3829 165.071 44.9118C166.323 46.4407 166.793 48.4897 166.793 48.4897L178.484 122.141C178.484 122.141 178.703 123.928 178.036 125.479C177.37 127.03 175.818 128.345 175.818 128.345L118.448 174.864C118.448 174.864 116.713 176.581 114.628 176.871C112.542 177.162 110.107 176.026 110.107 176.026L41.6781 149.797C41.6781 149.797 39.3943 149.209 38.2003 147.756C37.0062 146.303 36.9018 143.985 36.9018 143.985L25.2032 70.2852C25.2032 70.2852 25.0712 68.4622 25.7518 66.8489C26.4325 65.2356 27.9257 63.8321 27.9257 63.8321L85.5033 17.145C85.5033 17.145 87.5871 15.601 89.4394 15.3087C90.5454 15.1342 91.5691 15.406 92.2143 15.6533Z" fill="#FD8605"/>
</g>
</g>
<defs>
<linearGradient id="paint0_linear_2148_1278" x1="113.232" y1="174.222" x2="108.918" y2="19.0594" gradientUnits="userSpaceOnUse">
<stop stop-color="#A8743A"/>
<stop offset="1"/>
</linearGradient>
<clipPath id="clip0_2148_1278">
<rect width="95" height="192" fill="white"/>
</clipPath>
</defs>
</svg>
