<svg width="100" height="192" viewBox="0 0 100 192" fill="none" xmlns="http://www.w3.org/2000/svg">
<g clip-path="url(#clip0_2149_1294)">
<g opacity="0.43">
<path d="M-62.7168 148.613C-63.3078 148.387 -64.3937 147.892 -65.0267 147.121C-65.9888 145.95 -66.0979 143.957 -66.0989 143.937L-66.1016 143.883L-66.1101 143.828L-77.8008 70.1783C-77.8119 69.9375 -77.8535 68.4871 -77.3264 67.2377C-76.8461 66.0993 -75.8074 64.961 -75.414 64.5847L-17.8863 17.938C-17.7061 17.8079 -15.9128 16.5348 -14.4045 16.2968C-13.5245 16.1579 -12.6892 16.3781 -12.1435 16.5873C-11.8037 16.7175 -11.5947 16.8377 -11.5926 16.839L-11.52 16.882L-11.4452 16.9098L57.3769 43.2892C57.6422 43.4272 59.2883 44.313 60.2977 45.5456C61.3053 46.7759 61.752 48.4495 61.8116 48.6866L73.4927 122.275C73.5078 122.424 73.6378 123.873 73.1175 125.084C72.6501 126.172 71.568 127.244 71.1795 127.575L13.8186 174.087L13.7802 174.118L13.7451 174.153C13.7316 174.166 12.2093 175.641 10.4898 175.881C9.16237 176.066 7.56978 175.53 6.94666 175.291C6.68656 175.192 6.53014 175.119 6.52861 175.119L6.49792 175.104L6.46499 175.092L-61.9637 148.863L-62.0171 148.843L-62.0724 148.828C-62.0731 148.828 -62.3368 148.759 -62.7168 148.613Z" fill="url(#paint0_linear_2149_1294)"/>
<path d="M-12.5017 17.5213C-12.8552 17.3858 -13.5522 17.1749 -14.2488 17.2848C-15.2176 17.4377 -16.605 18.2438 -17.2753 18.7302L-74.7505 65.3343C-75.0996 65.6749 -76.0031 66.6739 -76.405 67.6265C-76.7781 68.5108 -76.821 69.6287 -76.8045 70.0757L-65.1048 143.782L-65.0997 143.895C-65.084 144.244 -64.8944 145.707 -64.2541 146.486C-63.8984 146.919 -63.2077 147.354 -62.3591 147.679C-62.0644 147.792 -61.8537 147.851 -61.8199 147.861L-61.7206 147.885L6.88342 174.18L6.94959 174.211C6.96828 174.22 7.09789 174.278 7.30443 174.357C8.4514 174.797 9.59054 174.996 10.3516 174.89C11.4932 174.731 12.6778 173.793 13.0442 173.439L13.1039 173.378L13.1884 173.31L70.5355 126.81C70.8836 126.507 71.8167 125.578 72.1983 124.689C72.5504 123.87 72.5377 122.793 72.5002 122.405L60.8309 48.8898C60.7544 48.5988 60.3542 47.1935 59.5236 46.1794C58.7703 45.2595 57.4863 44.476 56.9684 44.2039L-11.8034 17.8438L-11.9454 17.7971L-12.0979 17.7026C-12.1339 17.6831 -12.2807 17.606 -12.5017 17.5213ZM-11.7857 15.6533C-11.3504 15.8201 -11.0874 15.9758 -11.0874 15.9758L57.7845 42.3742C57.7845 42.3742 59.8192 43.3829 61.0713 44.9118C62.3235 46.4407 62.793 48.4897 62.793 48.4897L74.484 122.141C74.484 122.141 74.7028 123.928 74.0363 125.479C73.3699 127.03 71.8183 128.345 71.8183 128.345L14.4484 174.864C14.4484 174.864 12.713 176.581 10.6276 176.871C8.54217 177.162 6.10679 176.026 6.10679 176.026L-62.3219 149.797C-62.3219 149.797 -64.6057 149.209 -65.7997 147.756C-66.9938 146.303 -67.0982 143.985 -67.0982 143.985L-78.7968 70.2852C-78.7968 70.2852 -78.9288 68.4622 -78.2482 66.8489C-77.5675 65.2356 -76.0743 63.8321 -76.0743 63.8321L-18.4967 17.145C-18.4967 17.145 -16.4129 15.601 -14.5606 15.3087C-13.4546 15.1342 -12.4309 15.406 -11.7857 15.6533Z" fill="#FD8605"/>
</g>
</g>
<defs>
<linearGradient id="paint0_linear_2149_1294" x1="9.23182" y1="174.222" x2="4.91835" y2="19.0594" gradientUnits="userSpaceOnUse">
<stop stop-color="#A8743A"/>
<stop offset="1"/>
</linearGradient>
<clipPath id="clip0_2149_1294">
<rect width="100" height="192" fill="white"/>
</clipPath>
</defs>
</svg>
