<svg width="97" height="32" viewBox="0 0 97 32" fill="none" xmlns="http://www.w3.org/2000/svg">
<path d="M62.2961 0H63.3462C65.5489 0.0765006 67.7517 0.468754 69.806 1.27951C69.455 3.44253 69.1017 5.6063 68.7492 7.76931C68.1237 7.48356 67.4952 7.20306 66.8419 6.98631C65.4207 6.5003 63.9139 6.27305 62.4131 6.29855C61.3924 6.29555 60.3446 6.39905 59.4049 6.82281C58.7006 7.13856 58.0391 7.69206 57.8344 8.46382C57.6724 9.01507 57.8471 9.61583 58.2056 10.0516C58.7074 10.6681 59.3966 11.0903 60.0716 11.4923C61.4689 12.3166 62.9854 12.9226 64.3482 13.8084C65.3517 14.4526 66.2937 15.2109 67.0512 16.1371C67.8372 17.0904 68.3892 18.2431 68.5857 19.4657C68.9719 22.0764 68.2099 24.8605 66.4624 26.8525C64.9414 28.6127 62.8061 29.7392 60.5884 30.3587C57.3919 31.2468 54.0041 31.2055 50.7528 30.6557C49.294 30.3977 47.839 30.0512 46.4785 29.455C46.84 27.2057 47.2023 24.9565 47.5668 22.7079C49.4868 23.6304 51.4946 24.4742 53.6373 24.676C55.1126 24.802 56.6396 24.9137 58.0759 24.4734C58.8619 24.2304 59.6441 23.8269 60.1339 23.1444C60.6071 22.4897 60.7009 21.5657 60.3176 20.8464C60.0131 20.2727 59.4979 19.8519 58.9766 19.4822C57.7054 18.5934 56.2503 18.0271 54.9153 17.2494C53.7206 16.5631 52.5791 15.7576 51.6416 14.7414C50.8286 13.8616 50.1895 12.8011 49.9015 11.6318C49.5618 10.2263 49.69 8.73457 50.1018 7.35831C50.74 5.25379 52.2386 3.48303 54.0753 2.30777C56.5076 0.734256 59.4296 0.0892507 62.2961 0Z" fill="#00579F"/>
<path d="M27.341 0.546162C30.0823 0.543912 32.8228 0.545412 35.5641 0.545412C31.4908 10.5557 27.416 20.5661 23.3397 30.5757C20.5984 30.5749 17.8579 30.5757 15.1174 30.5749C12.8059 21.8673 10.4966 13.1598 8.18359 4.45294C11.2444 6.23721 13.9729 8.62148 16.0377 11.509C17.2302 13.183 18.2239 15.0108 18.9049 16.9525C19.1817 18.3123 19.4479 19.6751 19.7254 21.0348C22.2695 14.2075 24.8022 7.37572 27.341 0.546162Z" fill="#00579F"/>
<path d="M38.7024 0.545679C41.2944 0.546429 43.8865 0.542679 46.4785 0.547179C44.8555 10.5665 43.2362 20.5858 41.614 30.6052C39.0219 30.6067 36.4299 30.6059 33.8379 30.6052C35.4587 20.5851 37.0787 10.565 38.7024 0.545679Z" fill="#00579F"/>
<path d="M81.0402 1.22221C81.7744 0.715206 82.6879 0.562205 83.5639 0.547955C85.6234 0.542705 87.6837 0.545705 89.744 0.546455C91.835 10.5538 93.917 20.5626 96.0133 30.5684V30.6059C93.6148 30.6052 91.2162 30.6067 88.8177 30.6052C88.5087 29.1029 88.2012 27.6007 87.8892 26.0992C84.5584 26.1007 81.2277 26.0902 77.8976 26.1044C77.3614 27.6067 76.8139 29.1052 76.2709 30.6052C73.5514 30.6059 70.8318 30.6059 68.1123 30.6052C71.9576 21.4251 75.8059 12.2465 79.6511 3.06723C79.9414 2.34647 80.3877 1.66321 81.0402 1.22221ZM84.2704 8.67202C82.9452 12.4521 81.5194 16.1953 80.1447 19.9574C82.2987 19.9581 84.4534 19.9581 86.6075 19.9574C85.8184 16.1976 85.0699 12.4295 84.2704 8.67202Z" fill="#00579F"/>
<path d="M0.141923 0.543945C4.29846 0.545445 8.45499 0.543195 12.6108 0.545445C13.459 0.570196 14.3523 0.714947 15.052 1.22795C15.673 1.6772 16.036 2.40171 16.1868 3.13972C17.0928 7.74325 18.0003 12.3475 18.9056 16.9518C18.2246 15.0101 17.2308 13.1823 16.0383 11.5083C13.9735 8.62076 11.245 6.23649 8.18424 4.45223C5.63872 2.96421 2.86744 1.88046 0.0136719 1.1522C0.0549222 0.948949 0.0976726 0.746447 0.141923 0.543945Z" fill="#FAA61A"/>
</svg>
