<svg width="130" height="41" viewBox="0 0 130 41" fill="none" xmlns="http://www.w3.org/2000/svg">
<path d="M115.547 19.3338H120.208C120.387 19.9231 121.002 20.5126 122.155 20.5126C123.716 20.5126 124.255 19.5389 124.255 18.1044V17.0804H124.152C123.384 17.977 122.359 18.6429 120.848 18.6429C117.878 18.6429 115.291 16.4401 115.291 12.1382C115.291 8.19435 117.417 5.12157 120.618 5.12157C122.462 5.12157 123.589 5.86409 124.331 7.04212H124.408V5.53153H129.017V17.4646C129.017 19.6669 128.25 21.3826 127.097 22.4073C125.894 23.4824 124.177 23.9179 122.231 23.9179C118.569 23.9179 116.008 22.4073 115.547 19.3338M124.459 11.9078C124.459 10.1918 123.64 8.80943 122.231 8.80943C120.874 8.80943 120.003 10.0383 120.003 11.9078C120.003 13.7517 120.874 15.083 122.231 15.083C123.64 15.083 124.459 13.7261 124.459 11.9078ZM110.144 7.88759H110.221C111.219 5.96678 112.525 5.24979 114.19 5.24979C114.573 5.24979 114.83 5.30114 114.983 5.37776V9.60304H114.881C112.039 9.09116 110.374 10.4485 110.374 13.5468V19.3085H105.534V5.53179H110.144V7.88759V7.88759ZM0.017334 0H9.49266C11.2847 0 12.6676 0.435505 13.6416 1.22911C14.7419 2.12541 15.3315 3.45721 15.3315 5.04468C15.3315 6.88861 14.5889 8.0411 13.052 8.75783V8.83497C15.05 9.50035 16.2014 11.2927 16.2014 13.4697C16.2014 15.544 15.4078 17.157 14.1016 18.1305C13.001 18.9243 11.5672 19.3085 9.67223 19.3085H0.017334V0ZM9.03187 15.0316C10.1841 15.0316 11.0285 14.3402 11.0285 13.0602C11.0285 11.7282 10.1067 11.0883 9.00633 11.0883H5.26739V15.0316H9.03187ZM8.54528 7.554C9.56929 7.554 10.3118 6.99104 10.3118 5.86409C10.3118 4.76321 9.54375 4.22527 8.51974 4.22527H5.26739V7.554H8.54528V7.554Z" fill="#2A343F"/>
<path d="M17.0742 0H22.042V19.3085H17.0742V0ZM22.9904 12.4452C22.9904 8.09193 25.8073 5.14711 30.16 5.14711C34.5138 5.14711 37.2795 8.09193 37.2795 12.4452C37.2795 16.8245 34.5138 19.7432 30.16 19.7432C25.8073 19.7432 22.9904 16.8245 22.9904 12.4452M32.3628 12.4452C32.3628 10.0383 31.594 8.52743 30.1089 8.52743C28.6241 8.52743 27.9071 10.0383 27.9071 12.4452C27.9071 14.8781 28.6241 16.389 30.1089 16.389C31.594 16.389 32.3628 14.8781 32.3628 12.4452ZM37.8448 12.4452C37.8448 8.09193 40.6617 5.14711 45.0144 5.14711C49.3681 5.14711 52.1339 8.09193 52.1339 12.4452C52.1339 16.8245 49.3681 19.7432 45.0144 19.7432C40.6617 19.7432 37.8448 16.8245 37.8448 12.4452ZM47.2172 12.4452C47.2172 10.0383 46.4484 8.52743 44.9633 8.52743C43.4785 8.52743 42.7615 10.0383 42.7615 12.4452C42.7615 14.8781 43.4785 16.389 44.9633 16.389C46.4484 16.389 47.2172 14.8781 47.2172 12.4452ZM53.0823 5.53153H57.692V7.60534H57.7686C58.6905 5.99206 59.9449 5.12157 61.9173 5.12157C63.6583 5.12157 64.9648 5.99206 65.6307 7.50291H65.7071C66.834 5.68453 68.2935 5.12157 69.9834 5.12157C73.1847 5.12157 74.5676 7.47737 74.5676 10.6528V19.3082H69.7275V11.5233C69.7275 10.1147 69.292 9.19282 68.0631 9.19282C66.8596 9.19282 66.2445 10.3198 66.2445 11.8053V19.3082H61.4054V11.5233C61.4054 10.1147 60.9699 9.19282 59.7411 9.19282C58.5365 9.19282 57.9227 10.3198 57.9227 11.8053V19.3082H53.0823V5.53153V5.53153ZM80.4866 17.5159H80.4358V19.3085H75.8261V0H80.6662V6.9655H80.7428C81.6647 5.76218 82.8935 5.12157 84.6611 5.12157C88.1183 5.12157 90.1152 8.24544 90.1152 12.3943C90.1152 17.0804 87.9387 19.7693 84.3541 19.7693C82.868 19.7693 81.3321 19.0523 80.4866 17.5159ZM85.1985 12.3433C85.1985 10.1149 84.3796 8.68094 82.9191 8.68094C81.4343 8.68094 80.4866 10.1149 80.4866 12.3433C80.4866 14.545 81.4343 16.0051 82.9191 16.0051C84.4051 16.0051 85.1985 14.5706 85.1985 12.3433ZM90.7311 12.3943C90.7311 8.09193 93.5734 5.09628 97.6968 5.09628C99.7456 5.09628 101.334 5.73613 102.537 6.88861C104.125 8.42501 104.842 10.8319 104.79 13.6748H95.5459C95.751 15.3908 96.5699 16.261 98.0291 16.261C98.8746 16.261 99.6171 15.8771 99.9252 14.9553H104.585C103.766 18.1044 101.334 19.6924 97.8764 19.6924C93.6 19.6924 90.7311 16.7992 90.7311 12.3943ZM95.5459 10.9604H99.9507C99.873 9.29602 98.9512 8.42501 97.7987 8.42501C96.468 8.42501 95.7254 9.37238 95.5459 10.9604Z" fill="#2A343F"/>
<path d="M0.017334 20.689H9.49266C11.2847 20.689 12.6676 21.1245 13.6416 21.9189C14.7419 22.8144 15.3315 24.1462 15.3315 25.7342C15.3315 27.5781 14.5889 28.7303 13.052 29.4476V29.5239C15.05 30.1898 16.2014 31.9827 16.2014 34.1592C16.2014 36.2335 15.4078 37.847 14.1016 38.82C13.001 39.6133 11.5672 39.9977 9.67223 39.9977H0.017334V20.689ZM9.03187 35.7216C10.1841 35.7216 11.0285 35.0302 11.0285 33.7492C11.0285 32.4172 10.1067 31.7778 9.00633 31.7778H5.26739V35.7216H9.03187V35.7216ZM8.54528 28.244C9.56929 28.244 10.3118 27.68 10.3118 26.5531C10.3118 25.4527 9.54375 24.9142 8.51974 24.9142H5.26739V28.244H8.54528V28.244ZM25.7808 39.998V38.2051H25.7041C24.7049 39.6391 23.4249 40.4335 21.6321 40.4335C18.5082 40.4335 16.9713 38.2825 16.9713 35.1068V26.2208H21.8114V34.0307C21.8114 35.5931 22.4009 36.2082 23.5534 36.2082C24.8078 36.2082 25.5504 35.3627 25.5504 33.7748V26.2208H30.3904V39.998H25.7808ZM31.1595 35.6442H35.6418C35.7184 36.7712 36.3843 37.4371 37.6132 37.4371C38.5605 37.4371 39.2775 37.1556 39.2775 36.2082C39.2775 35.0813 37.7672 35.0049 36.0763 34.7224C33.8745 34.3898 31.3391 33.6728 31.3391 30.2156C31.3391 27.3988 34.0793 25.8108 37.2806 25.8108C41.2499 25.8108 43.3235 27.3732 43.5028 30.0616H38.9452C38.8167 29.0376 38.0998 28.7561 37.3061 28.7561C36.5892 28.7561 35.9233 29.0376 35.9233 29.831C35.9233 30.6001 37.1266 30.8049 38.6116 31.009C40.993 31.3679 44.0149 31.9308 44.0149 35.7472C44.0149 39.0506 41.1725 40.459 37.5876 40.459C33.7205 40.459 31.1861 38.7947 31.1595 35.6442M44.8104 26.2208H49.6507V39.998H44.8104V26.2208ZM44.8104 21.253H49.6507V25.1193H44.8104V21.253Z" fill="#2B00F7"/>
<path d="M55.619 28.1159H55.6953C56.7459 26.6056 58.0777 25.8109 59.8953 25.8109C62.917 25.8109 64.4795 27.9363 64.4795 31.0868V39.9984H59.6391V32.2137C59.6391 30.6768 59.0762 29.8314 57.8207 29.8314C56.5919 29.8314 55.8494 30.8564 55.8494 32.4441V39.9984H51.0093V26.2209H55.619V28.1159ZM65.3257 33.0837C65.3257 28.7818 68.1681 25.7856 72.2912 25.7856C74.3392 25.7856 75.9272 26.426 77.1305 27.5785C78.7185 29.1144 79.4355 31.5223 79.3844 34.3647H70.1395C70.3446 36.0801 71.1645 36.9509 72.6238 36.9509C73.4693 36.9509 74.2118 36.5665 74.5188 35.6446H79.1796C78.3597 38.7948 75.9272 40.3828 72.4698 40.3828C68.1937 40.3828 65.3257 37.4885 65.3257 33.0837M70.1395 31.6497H74.5443C74.4677 29.9854 73.5459 29.1144 72.3934 29.1144C71.0613 29.1144 70.3191 30.0617 70.1395 31.6497ZM79.869 35.6446H84.3502C84.4276 36.7716 85.0937 37.4375 86.3226 37.4375C87.27 37.4375 87.9869 37.156 87.9869 36.2086C87.9869 35.0817 86.4756 35.0053 84.7857 34.7228C82.5839 34.3902 80.0485 33.6732 80.0485 30.216C80.0485 27.3992 82.7887 25.8112 85.9892 25.8112C89.9583 25.8112 92.0326 27.3736 92.2122 30.062H87.6536C87.5259 29.038 86.8092 28.7565 86.0145 28.7565C85.2976 28.7565 84.6327 29.038 84.6327 29.8314C84.6327 30.6005 85.836 30.8053 87.321 31.0094C89.7024 31.3683 92.7244 31.9312 92.7244 35.7476C92.7244 39.051 89.882 40.4594 86.297 40.4594C82.4299 40.4594 79.8945 38.7951 79.869 35.6446M93.2393 35.6446H97.7205C97.7979 36.7716 98.4641 37.4375 99.6929 37.4375C100.64 37.4375 101.357 37.156 101.357 36.2086C101.357 35.0817 99.8459 35.0053 98.156 34.7228C95.9543 34.3902 93.4189 33.6732 93.4189 30.216C93.4189 27.3992 96.1591 25.8112 99.3596 25.8112C103.329 25.8112 105.403 27.3736 105.583 30.062H101.024C100.896 29.038 100.18 28.7565 99.3849 28.7565C98.6679 28.7565 98.003 29.038 98.003 29.8314C98.003 30.6005 99.2064 30.8053 100.691 31.0094C103.073 31.3683 106.095 31.9312 106.095 35.7476C106.095 39.051 103.252 40.4594 99.6674 40.4594C95.8002 40.4594 93.2649 38.7951 93.2393 35.6446" fill="#2B00F7"/>
</svg>
