<svg width="143" height="41" viewBox="0 0 143 41" fill="none" xmlns="http://www.w3.org/2000/svg">
<path d="M35.2758 0.381418C35.3604 0.135802 35.5546 -0.0484105 35.8301 0.011334C39.4977 0.0129936 43.1653 0.00967444 46.8313 0.011334C46.838 0.230397 46.8048 0.442822 46.7318 0.650268C44.8614 5.79659 43.001 10.9512 41.1257 16.0959C41.0942 16.1523 41.0311 16.2668 40.9996 16.3232C41.0096 16.1191 41.0477 15.92 41.1108 15.7258C42.6924 11.2466 44.3121 6.77905 45.8904 2.29822C46.0132 1.92648 46.1509 1.55971 46.2737 1.18797C46.3351 0.978863 46.3882 0.768097 46.4413 0.557332C42.9596 0.510864 39.4761 0.56895 35.9944 0.542397C35.7471 0.527461 35.5114 0.446141 35.2758 0.381418Z" fill="#C2C1C1"/>
<path d="M27.8791 21.0464C30.5875 21.0746 33.296 21.0464 36.0044 21.058C37.0283 21.0729 38.0573 20.9916 39.0746 21.1426C39.0381 21.2538 38.9667 21.4746 38.9302 21.5857C38.5087 21.6505 38.0822 21.672 37.6557 21.6604C34.3365 21.6272 31.0157 21.7019 27.6982 21.6239C27.7663 21.4331 27.826 21.2406 27.8791 21.0464Z" fill="#C2C1C1"/>
<path d="M35.2757 0.381348C35.5114 0.446071 35.747 0.52739 35.9943 0.542326C39.4761 0.568879 42.9595 0.510794 46.4413 0.557261C46.3882 0.768027 46.3351 0.978792 46.2737 1.1879C42.6044 1.2493 38.9317 1.163 35.2624 1.23105C35.1396 1.43849 35.0152 1.64594 34.8907 1.85173L34.8027 1.69407C34.9239 1.24432 35.1048 0.812835 35.2757 0.381348Z" fill="#CECDCE"/>
<path d="M25.8893 26.528C25.964 26.3189 26.0436 26.1098 26.12 25.9023C26.3822 25.9389 26.6461 25.9754 26.9116 25.977C30.1726 25.972 33.4353 25.9837 36.6981 25.9687C36.9038 25.9588 37.0814 26.0733 37.254 26.1745C37.0565 26.6591 37.025 27.3263 36.6715 27.6897C33.525 27.61 30.3751 27.6698 27.2286 27.6515C26.6743 27.6266 26.0635 27.7959 25.574 27.454C25.6752 27.1437 25.7781 26.835 25.8893 26.528Z" fill="#CECDCE"/>
<path d="M35.2626 1.23114C38.9319 1.16309 42.6045 1.24939 46.2738 1.18799C46.151 1.55973 46.0132 1.9265 45.8904 2.29824C45.3793 2.10241 44.8316 2.17709 44.3006 2.18207C41.4245 2.16216 38.5468 2.18705 35.6708 2.17543C35.4269 2.19701 35.1563 2.13892 34.9323 2.25675C34.5755 2.70483 34.5406 3.31721 34.1905 3.76862L34.1141 3.49645C34.3382 2.89568 34.5058 2.25343 34.8029 1.69416L34.8908 1.85182C35.0153 1.64603 35.1398 1.43858 35.2626 1.23114Z" fill="#E0E0E0"/>
<path d="M10.7938 11.1919L10.8668 11.2052C11.6584 11.3612 12.4666 11.2483 13.2665 11.2782C16.1061 11.3031 18.9489 11.235 21.7868 11.3064C21.8332 11.4408 21.8814 11.5769 21.9278 11.7113C21.8316 11.9603 21.742 12.2092 21.6507 12.4598C21.6158 12.3851 21.5478 12.2358 21.5146 12.1611C18.6552 12.0847 15.7907 12.1744 12.9296 12.1412C12.1331 12.1113 11.3215 12.2374 10.5382 12.0416C10.6179 11.7561 10.7008 11.474 10.7938 11.1919Z" fill="#E0E0E0"/>
<path d="M30.8016 12.9758C30.9261 13.2513 30.8514 13.6197 30.5444 13.7359C30.4183 13.4787 30.5909 13.1368 30.8016 12.9758Z" fill="#E0E0E0"/>
<path d="M29.366 16.627L29.4656 16.6419C30.4198 16.7863 31.3873 16.6801 32.3482 16.7099C35.1878 16.7365 38.0306 16.6452 40.8685 16.7531C40.8353 16.997 40.7805 17.2377 40.6776 17.4634C39.9125 19.342 39.2852 21.2737 38.5666 23.169C38.3741 23.7863 38.0489 24.3556 37.8995 24.9879C37.8613 24.9862 37.7833 24.9812 37.7435 24.9796C37.6257 25.3978 37.4796 25.8077 37.3186 26.211L37.2539 26.1745C37.0813 26.0732 36.9037 25.9587 36.698 25.9687C33.4353 25.9836 30.1725 25.972 26.9115 25.977C26.646 25.9753 26.3821 25.9388 26.1199 25.9023C26.3804 25.1754 26.6825 24.4651 26.9115 23.7266C27.1471 23.0163 27.4376 22.3259 27.6981 21.6239C31.0156 21.7019 34.3364 21.6272 37.6555 21.6604C38.082 21.672 38.5085 21.6505 38.9301 21.5857C38.9666 21.4746 39.038 21.2538 39.0745 21.1426C39.174 20.8655 39.2869 20.59 39.3931 20.3145C39.5109 20.0108 39.6337 19.7071 39.7499 19.4034C39.8727 19.0715 39.9839 18.7346 40.1133 18.406C40.2428 18.094 40.3556 17.7687 40.3374 17.4269C39.9374 17.392 39.5375 17.3738 39.1375 17.3804C35.8184 17.397 32.4993 17.3538 29.1818 17.4036C29.2382 17.1431 29.2996 16.8842 29.366 16.627Z" fill="#E0E0E0"/>
<path d="M4.58704 28.1775C5.31891 25.9072 6.19848 23.6867 7.0183 21.4463C7.20086 21.5409 7.37179 21.6969 7.59251 21.6786C10.7424 21.6654 13.8939 21.672 17.0438 21.6736C17.462 21.6736 17.925 21.5956 18.2785 21.8761C18.2934 21.9093 18.3249 21.9724 18.3399 22.0039C17.8951 22.4702 17.847 23.1673 17.5781 23.7348C17.3458 24.2111 17.301 24.8202 16.9608 25.2168C16.901 25.2616 16.7799 25.3479 16.7185 25.3927C16.3318 26.201 16.1044 27.0755 15.7675 27.9037C15.3726 28.058 14.9046 27.8755 14.5079 28.0729C14.1843 27.8954 13.8209 27.9468 13.489 28.0663C13.1753 27.9269 12.8218 27.9037 12.5214 28.0879C12.2011 27.9236 11.8211 27.8954 11.5025 28.0812C11.2021 27.8887 10.8403 27.907 10.5349 28.0796C10.213 27.9385 9.83459 27.8755 9.53089 28.0945C9.23051 27.8821 8.83055 27.897 8.52851 28.0978C8.23975 27.8688 7.82983 27.902 7.52945 28.0879C7.22575 27.8987 6.85401 27.912 6.54201 28.0729C6.23665 27.9734 5.78192 27.7875 5.56452 28.1294C5.27078 27.834 4.8924 28.0016 4.58704 28.1775Z" fill="#E0E0E0"/>
<path d="M34.9322 2.25682C35.1562 2.13899 35.4267 2.19707 35.6707 2.1755C38.5467 2.18712 41.4244 2.16222 44.3005 2.18214C44.8315 2.17716 45.3792 2.10248 45.8903 2.29831C44.3121 6.77914 42.6923 11.2467 41.1108 15.7259C41.0477 15.92 41.0095 16.1192 40.9996 16.3233C41.0029 16.4328 41.0112 16.6536 41.0145 16.7631L40.8685 16.7531C38.0306 16.6453 35.1878 16.7366 32.3482 16.71C31.3874 16.6801 30.4198 16.7863 29.4656 16.642C29.6083 15.6611 30.0647 14.7567 30.385 13.824L30.5443 13.7361C30.8513 13.6199 30.926 13.2515 30.8015 12.976C30.7053 12.5909 30.9758 12.2341 31.0737 11.874C31.3392 11.2417 31.4554 10.5464 31.8072 9.95224L31.8637 10.2178C32.1557 9.81781 32.257 9.32658 32.4329 8.87352C32.6536 8.26114 32.9374 7.66535 33.0453 7.01812L32.9158 6.87208C32.9208 6.68289 32.9855 6.50199 33.022 6.31944L33.1083 6.39578L33.2328 6.51029C33.5564 5.86306 33.7805 5.16936 34.0128 4.48562C33.9945 4.37775 33.958 4.162 33.9398 4.05413C33.8701 3.85 33.9547 3.6326 34.114 3.49652L34.1904 3.76869C34.5405 3.31728 34.5754 2.7049 34.9322 2.25682Z" fill="#F6F6F6"/>
<path d="M10.4735 12.0283L10.5382 12.0416C11.3215 12.2374 12.133 12.1113 12.9296 12.1412C15.7907 12.1744 18.6551 12.0847 21.5146 12.1611C21.5478 12.2358 21.6158 12.3851 21.6507 12.4598C21.02 14.1775 20.3944 15.8968 19.7621 17.6128L19.699 17.4302C16.2853 17.3788 12.8682 17.4319 9.45283 17.4037C9.0479 17.3622 8.68445 17.5414 8.35254 17.7489C8.70271 16.4461 9.24871 15.1964 9.76483 13.9518C9.93909 13.2846 10.3706 12.7204 10.4735 12.0283Z" fill="#F6F6F6"/>
<path d="M33.9398 4.05396C33.9581 4.16183 33.9946 4.37757 34.0129 4.48544C33.7805 5.16918 33.5565 5.86288 33.2329 6.51011L33.1084 6.39561C33.3341 5.59735 33.6743 4.83893 33.9398 4.05396Z" fill="#D9D9D9"/>
<path d="M32.9158 6.87207L33.0453 7.01811C32.9374 7.66534 32.6536 8.26113 32.4329 8.87351C32.257 9.32657 32.1558 9.8178 31.8637 10.2178L31.8073 9.95223C32.1657 8.92164 32.5441 7.89768 32.9158 6.87207Z" fill="#DDDDDD"/>
<path d="M10.8668 11.2051C11.2469 10.6259 11.9173 10.2343 12.6193 10.2575C15.8206 10.2409 19.0236 10.2608 22.2266 10.2476C22.5369 10.2608 22.8755 10.2011 23.1526 10.3836C22.5701 10.6259 22.127 11.1139 21.9278 11.7113C21.8814 11.5769 21.8332 11.4408 21.7868 11.3064C18.9489 11.235 16.1061 11.303 13.2666 11.2782C12.4666 11.2483 11.6584 11.3611 10.8668 11.2051Z" fill="#C8C7C7"/>
<path d="M16.7185 25.3927C16.7799 25.3479 16.9011 25.2616 16.9608 25.2168C16.7816 26.0881 16.3766 26.8896 16.1161 27.7377C15.9501 28.1094 15.9103 28.5625 15.6414 28.8745C15.0025 29.2861 15.2232 30.4112 14.3752 30.6104C14.0615 30.4096 13.6931 30.4395 13.3595 30.5672C13.026 30.4295 12.6758 30.4892 12.3339 30.5423C12.007 30.4859 11.6684 30.4212 11.3564 30.5789C11.0444 30.4328 10.7009 30.4395 10.3873 30.5739C10.057 30.4494 9.69522 30.4212 9.3716 30.5822C9.04467 30.4428 8.68454 30.4295 8.35761 30.5789C8.03897 30.4395 7.69212 30.4229 7.3685 30.5589C7.03825 30.4478 6.6831 30.4162 6.36612 30.5822C6.04583 30.4494 5.69732 30.4212 5.38034 30.5822C5.18119 30.5241 4.97375 30.4096 4.76298 30.476C4.56383 30.5075 4.34643 30.6552 4.17218 30.4727C3.99294 30.6104 3.81371 30.7498 3.64111 30.8975C3.88673 29.9681 4.29664 29.0935 4.58707 28.1775C4.89243 28.0016 5.27081 27.8339 5.56455 28.1293C5.78196 27.7875 6.23668 27.9733 6.54204 28.0729C6.85404 27.9119 7.22578 27.8987 7.52948 28.0879C7.82986 27.902 8.23978 27.8688 8.52854 28.0978C8.83058 27.897 9.23054 27.8821 9.53092 28.0945C9.83462 27.8754 10.213 27.9385 10.535 28.0796C10.8403 27.907 11.2021 27.8887 11.5025 28.0812C11.8211 27.8953 12.2012 27.9236 12.5215 28.0879C12.8218 27.9036 13.1753 27.9269 13.489 28.0663C13.8209 27.9468 14.1843 27.8953 14.508 28.0729C14.9046 27.8754 15.3726 28.058 15.7676 27.9036C16.1045 27.0755 16.3318 26.2009 16.7185 25.3927Z" fill="#C8C7C7"/>
<path d="M23.1526 10.3836C23.9276 10.1379 24.8603 10.2923 25.3997 10.9379C25.8461 11.4523 25.9789 12.146 26.2311 12.7617C26.8933 14.5972 27.5837 16.4227 28.2359 18.2599C28.0799 18.3528 27.9239 18.4457 27.7679 18.5403C27.6401 18.4457 27.514 18.3528 27.3878 18.2599C27.3795 18.3511 27.3613 18.5337 27.3513 18.625C27.3032 18.5553 27.2069 18.4126 27.1588 18.3412C27.0426 18.3412 26.9281 18.3412 26.812 18.3412C26.7738 18.235 26.6958 18.0242 26.656 17.918C26.6128 18.0076 26.5265 18.1869 26.4834 18.2765C26.3805 18.1918 26.2776 18.1089 26.1747 18.0275C25.9656 18.0226 25.7565 18.0143 25.549 18.0076C25.4644 18.1553 25.3798 18.303 25.2968 18.4524C25.2486 18.2682 25.2022 18.0873 25.1557 17.9047C25.0794 18.0856 25.0047 18.2665 24.93 18.4474C24.8487 18.2715 24.769 18.0972 24.6894 17.9213C24.4238 18.0856 24.1583 18.2499 23.8944 18.4175C23.8164 18.2516 23.7384 18.084 23.6604 17.9197C23.6173 18.0126 23.531 18.2018 23.4895 18.2964C23.38 18.1852 23.2721 18.0757 23.1642 17.9645C23.0348 18.0209 22.9037 18.0773 22.7742 18.1354C22.741 18.2582 22.6747 18.5022 22.6415 18.6233C22.6033 18.4474 22.5668 18.2698 22.5286 18.0939C22.4407 18.2084 22.3527 18.3229 22.2647 18.4374C22.2398 18.2997 22.1901 18.0259 22.1652 17.8881C22.1071 18.1288 22.0523 18.3677 21.9992 18.61C21.903 18.386 21.805 18.1636 21.7071 17.9412C21.3885 18.0723 21.0981 18.2599 20.9736 18.5968C20.8757 18.3744 20.7744 18.152 20.6749 17.9313C20.5487 18.1503 20.4226 18.3694 20.2965 18.5901C20.2633 18.5038 20.1986 18.3329 20.167 18.2466C20.0592 18.3545 19.953 18.4623 19.8467 18.5719C19.7588 18.5254 19.5845 18.4308 19.4966 18.3843C19.5281 18.298 19.5912 18.1238 19.6227 18.0375C19.6708 17.8948 19.7156 17.7537 19.7621 17.6126C20.3944 15.8966 21.0201 14.1773 21.6507 12.4597C21.742 12.2091 21.8316 11.9602 21.9278 11.7112C22.127 11.1138 22.5701 10.6259 23.1526 10.3836Z" fill="#009EC5"/>
<path d="M108.063 10.3089C109.158 10.2939 110.253 10.3055 111.349 10.3022C111.35 17.1015 111.349 23.9007 111.35 30.7C110.257 30.9024 109.14 30.9356 108.036 31.0601C105.656 31.2875 103.074 31.2493 100.981 29.9432C99.1923 28.9126 98.0937 26.9344 97.8531 24.9164C97.6323 22.9863 97.878 20.9434 98.8588 19.239C99.8429 17.5048 101.695 16.3729 103.64 16.0692C105.109 15.8917 106.606 15.8767 108.068 16.1207C108.064 14.184 108.074 12.2456 108.063 10.3089ZM102.269 19.8414C101.307 21.0131 101.171 22.6229 101.217 24.08C101.252 25.7296 102.037 27.4605 103.545 28.2505C104.951 28.9043 106.584 28.9425 108.079 28.6106C108.056 25.3396 108.069 22.0686 108.073 18.7992C107.256 18.5304 106.388 18.5088 105.54 18.4739C104.35 18.5353 103.034 18.8556 102.269 19.8414Z" fill="#009EC5"/>
<path d="M49.9945 11.4855C51.3985 11.4457 52.8058 11.4557 54.2098 11.4806C56.7539 16.0128 59.3843 20.4953 61.95 25.0143C62.2537 25.4807 62.4462 26.0267 62.8345 26.4316C62.8329 21.4429 62.8345 16.4526 62.8329 11.464C63.8817 11.4756 64.9306 11.4407 65.9778 11.4822C65.9578 17.8881 65.9612 24.2941 65.9761 30.7C64.519 30.7116 63.0586 30.7498 61.6048 30.6818C59.298 26.5743 56.9563 22.4835 54.6296 18.3877C54.0604 17.4666 53.6273 16.4543 52.9817 15.5863C53.0132 20.6298 52.9867 25.6732 52.995 30.715C51.9942 30.7 50.9919 30.7448 49.9928 30.6901C50.0177 24.2891 50.016 17.8865 49.9945 11.4855Z" fill="#009EC5"/>
<path d="M136.455 15.8603C138.64 15.7375 140.829 15.8752 143 16.1242C142.992 22.6894 142.99 29.253 143 35.8183C141.901 36.3029 140.823 36.8339 139.712 37.2903C139.716 35.2075 139.706 33.1264 139.717 31.0453C137.489 31.3457 135.135 31.2312 133.079 30.2487C131.051 29.1999 129.874 26.9694 129.654 24.7556C129.312 22.1716 129.933 19.2508 131.994 17.5033C133.238 16.4594 134.881 16.0744 136.455 15.8603ZM136.601 18.5571C135.349 18.6965 134.111 19.3753 133.487 20.4955C132.762 21.8364 132.744 23.4379 132.976 24.9099C133.199 26.2708 134.042 27.6084 135.371 28.1112C136.793 28.7236 138.37 28.4099 139.86 28.3602C139.852 25.0659 139.865 21.7733 139.855 18.4791C138.77 18.5056 137.676 18.3994 136.601 18.5571Z" fill="#009EC5"/>
<path d="M69.5558 16.4394C71.6203 16.0229 73.7362 15.9333 75.8372 15.9498C77.3856 16.0561 79.1564 16.0876 80.333 17.2543C81.4881 18.4359 81.5362 20.2033 81.498 21.755C81.498 24.7373 81.498 27.7195 81.4997 30.7034C79.236 30.9706 76.9541 31.0071 74.6789 31.0469C72.9081 31.0137 70.9233 30.793 69.6553 29.4106C68.6779 28.1576 68.5086 26.4383 68.7907 24.9165C69.043 23.5822 70.1217 22.5334 71.363 22.067C72.3156 21.7235 73.328 21.5857 74.3337 21.5177C75.6746 21.4862 77.0255 21.3783 78.3581 21.5891C78.3581 20.8323 78.4129 20.0291 78.0909 19.3238C77.7706 18.6715 76.9757 18.5604 76.3351 18.4508C74.6274 18.245 72.8882 18.3678 71.2021 18.6865C70.6527 18.7794 70.1101 18.9221 69.5525 18.9288C69.5641 18.099 69.5591 17.2692 69.5558 16.4394ZM72.2094 24.9364C71.6419 25.6982 71.6867 26.7935 72.1397 27.6C72.6044 28.3286 73.5039 28.5858 74.3104 28.7152C75.6929 28.8281 77.0952 28.8812 78.471 28.6555C78.549 27.0623 78.4859 25.4625 78.5025 23.866C77.1632 23.8726 75.8206 23.8278 74.4847 23.9523C73.6632 24.0768 72.7753 24.2809 72.2094 24.9364Z" fill="#009EC5"/>
<path d="M114.935 16.4129C116.487 16.1457 118.057 15.9947 119.632 15.9615C121.439 15.9184 123.346 15.9084 125 16.7398C126.328 17.4618 126.839 19.05 126.862 20.4772C126.892 23.8826 126.852 27.2881 126.882 30.6935C124.141 30.8644 121.386 31.1963 118.638 30.9507C117.272 30.8528 115.84 30.3749 114.938 29.2961C114.13 28.1826 113.946 26.7321 114.087 25.3928C114.18 24.4535 114.611 23.5424 115.335 22.9267C116.44 21.9011 118.004 21.6654 119.447 21.5377C120.878 21.4812 122.322 21.3783 123.747 21.5908C123.698 20.6415 123.89 19.3802 122.946 18.7927C121.834 18.2086 120.521 18.3679 119.311 18.3695C117.828 18.3729 116.392 18.7861 114.927 18.9487C114.942 18.1024 114.928 17.2576 114.935 16.4129ZM117.554 24.807C116.6 25.8625 116.948 27.8838 118.339 28.3867C120.057 29.0538 121.945 28.7667 123.734 28.6423C123.752 27.0607 123.726 25.4791 123.747 23.8959C122.77 23.8362 121.787 23.8611 120.808 23.8859C119.685 23.9241 118.428 24.0121 117.554 24.807Z" fill="#009EC5"/>
<path d="M86.7605 16.7397C88.6358 15.8585 90.7634 16.124 92.7648 16.2004C93.5249 16.3398 94.3597 16.2784 95.0633 16.5937C95.1015 17.4318 95.0666 18.2698 95.0783 19.1096C92.9358 18.9171 90.7285 18.2615 88.6076 18.9486C87.9604 19.1312 87.353 19.7352 87.4857 20.4555C87.5588 21.1309 88.2442 21.5126 88.8316 21.6902C90.7086 22.1964 92.7781 22.2711 94.4194 23.4228C96.5005 24.8168 96.542 28.3716 94.4244 29.7524C92.8793 30.8394 90.9277 31.0452 89.0889 31.0369C87.5455 30.9788 86.0004 30.846 84.4819 30.5623C84.4769 29.6694 84.4786 28.7749 84.4803 27.8821C86.2909 28.0895 88.0815 28.6239 89.9236 28.4529C90.7717 28.3418 91.7044 28.2837 92.3748 27.6829C93.0138 27.1983 92.9806 26.1296 92.3367 25.6616C91.2629 24.7206 89.7378 24.8965 88.4433 24.5447C87.2351 24.1796 85.9141 23.7929 85.096 22.7623C84.3525 21.9126 84.2263 20.6895 84.4072 19.6141C84.6014 18.3246 85.549 17.2027 86.7605 16.7397Z" fill="#009EC5"/>
<path d="M8.35254 17.7489C8.68445 17.5415 9.0479 17.3622 9.45283 17.4037C12.8682 17.4319 16.2853 17.3788 19.699 17.4303L19.7621 17.6128C19.7156 17.7539 19.6708 17.895 19.6227 18.0377C19.0601 17.9199 18.4842 17.9879 17.915 17.9862C15.3111 17.9862 12.7089 17.9779 10.105 17.9879C9.55739 17.9862 9.00309 17.9995 8.46373 17.8867L8.35254 17.7489Z" fill="#DCDCDC"/>
<path d="M29.1818 17.4036C32.4993 17.3538 35.8184 17.3969 39.1376 17.3803C39.5375 17.3737 39.9375 17.392 40.3374 17.4268C40.3557 17.7687 40.2428 18.094 40.1134 18.4059C39.9441 18.3811 39.7782 18.3562 39.6089 18.3479C36.2931 18.3479 32.9773 18.3528 29.6631 18.3412C29.381 18.3445 29.1022 18.3744 28.8234 18.4059C28.9395 18.0707 29.0623 17.7371 29.1818 17.4036Z" fill="#BDBCBC"/>
<path d="M7.01831 21.4463C7.08469 21.3534 7.21746 21.1692 7.28384 21.0762C10.7723 20.9999 14.264 21.0679 17.7541 21.0397C18.0544 20.9833 18.2801 21.1609 18.3532 21.448C18.3349 21.5542 18.2984 21.7699 18.2785 21.8762C17.925 21.5957 17.462 21.6737 17.0438 21.6737C13.8939 21.672 10.7424 21.6654 7.59252 21.6787C7.3718 21.6969 7.20086 21.5409 7.01831 21.4463Z" fill="#BDBCBC"/>
<path d="M14.3752 30.6104C15.2233 30.4113 15.0025 29.2861 15.6415 28.8745C15.3228 30.1557 14.7503 31.3589 14.3736 32.6235L14.3205 32.6202C13.9935 32.5753 13.6682 32.6318 13.3562 32.7264C13.0227 32.6119 12.6692 32.5969 12.3406 32.733C12.0203 32.5787 11.6701 32.6102 11.3482 32.738C11.0328 32.6069 10.681 32.572 10.3723 32.7446C10.052 32.5753 9.6886 32.5803 9.3683 32.7413C9.04635 32.6036 8.69618 32.5836 8.37422 32.728C7.87137 32.5206 7.34529 32.7762 6.82916 32.6334C6.34955 32.8027 5.85168 32.4974 5.38866 32.7347C5.06338 32.582 4.71819 32.6401 4.3813 32.7081C4.04773 32.6202 3.7042 32.5836 3.38556 32.743C3.32416 32.7131 3.26441 32.6849 3.20467 32.6583C3.09182 32.9023 2.96237 33.1396 2.80139 33.3553C2.95075 32.5007 3.33577 31.7057 3.64113 30.8975C3.81373 30.7498 3.99296 30.6104 4.17219 30.4727C4.34645 30.6552 4.56385 30.5075 4.763 30.476C4.97377 30.4096 5.18121 30.5241 5.38036 30.5822C5.69734 30.4212 6.04585 30.4494 6.36614 30.5822C6.68312 30.4163 7.03827 30.4478 7.36852 30.559C7.69214 30.4229 8.03899 30.4395 8.35762 30.5789C8.68456 30.4295 9.04469 30.4428 9.37162 30.5822C9.69524 30.4212 10.057 30.4494 10.3873 30.5739C10.7009 30.4395 11.0445 30.4328 11.3565 30.5789C11.6685 30.4212 12.007 30.486 12.334 30.5424C12.6758 30.4893 13.026 30.4295 13.3596 30.5673C13.6931 30.4395 14.0616 30.4096 14.3752 30.6104Z" fill="#BDBCBC"/>
<path d="M8.03064 18.9569C8.08872 18.5702 8.26298 18.2184 8.46379 17.8865C9.00315 17.9993 9.55744 17.986 10.1051 17.9877C12.709 17.9778 15.3112 17.986 17.915 17.986C18.4843 17.9877 19.0601 17.9197 19.6227 18.0375C19.5912 18.1238 19.5281 18.298 19.4966 18.3843C19.412 18.5984 19.3223 18.8092 19.2377 19.0233C15.5037 18.927 11.7647 19.0598 8.03064 18.9569Z" fill="#B8B7B7"/>
<path d="M25.5739 27.4541C26.0635 27.796 26.6742 27.6267 27.2285 27.6516C30.3751 27.6698 33.5249 27.6101 36.6715 27.6898C36.4574 28.4598 36.2184 29.2315 35.8516 29.9451L35.7122 29.8903C35.2442 29.6713 34.7215 29.7924 34.2252 29.7758C31.0588 29.7559 27.8923 29.8024 24.7275 29.7509C24.9035 29.3377 25.0495 28.9112 25.2072 28.4897C25.3349 28.1461 25.4594 27.8026 25.5739 27.4541Z" fill="#B8B7B7"/>
<path d="M20.2964 18.5902C20.4226 18.3695 20.5487 18.1504 20.6748 17.9313C20.7744 18.1521 20.8756 18.3744 20.9736 18.5968C21.098 18.2599 21.3884 18.0724 21.7071 17.9413C21.805 18.1637 21.9029 18.3861 21.9992 18.6101C22.0523 18.3678 22.107 18.1288 22.1651 17.8882C22.19 18.0259 22.2398 18.2998 22.2647 18.4375C22.3527 18.323 22.4406 18.2085 22.5286 18.094C22.5667 18.2699 22.6032 18.4475 22.6414 18.6234C22.6746 18.5022 22.741 18.2583 22.7742 18.1355C22.9036 18.0774 23.0347 18.0209 23.1642 17.9645C23.2721 18.0757 23.3799 18.1852 23.4895 18.2964C23.5309 18.2018 23.6172 18.0126 23.6604 17.9197C23.7384 18.084 23.8164 18.2516 23.8944 18.4176C24.1583 18.25 24.4238 18.0857 24.6893 17.9214C24.769 18.0973 24.8486 18.2715 24.93 18.4475C25.0046 18.2666 25.0793 18.0857 25.1557 17.9048C25.2021 18.0873 25.2486 18.2682 25.2967 18.4524C25.3797 18.3031 25.4643 18.1554 25.549 18.0077C25.7564 18.0143 25.9655 18.0226 26.1746 18.0276C26.2775 18.1089 26.3804 18.1919 26.4833 18.2765C26.5265 18.1869 26.6128 18.0077 26.6559 17.9181C26.6957 18.0243 26.7737 18.235 26.8119 18.3412C26.9281 18.3412 27.0426 18.3412 27.1588 18.3412C27.2069 18.4126 27.3031 18.5553 27.3513 18.625C27.3612 18.5338 27.3795 18.3512 27.3878 18.2599C27.5139 18.3529 27.64 18.4458 27.7678 18.5404C27.9238 18.4458 28.0798 18.3529 28.2358 18.2599C28.3537 18.5454 28.4682 18.8308 28.5959 19.1113L28.5462 19.2557C28.4682 19.4664 28.3902 19.6772 28.3122 19.888C28.201 20.1751 28.0732 20.4572 27.9537 20.741C27.879 20.8173 27.7263 20.9683 27.6517 21.0447C27.484 20.8854 27.3181 20.7277 27.1505 20.57C26.9629 20.7144 26.782 20.8654 26.6045 21.0214C26.4717 20.8737 26.3555 20.6912 26.1597 20.6215C25.9257 20.6514 25.788 20.8572 25.6369 21.0148C25.4643 20.8538 25.2818 20.7028 25.0926 20.5601C24.9416 20.7144 24.7922 20.8671 24.6412 21.0214C24.4869 20.8688 24.3325 20.7177 24.1798 20.5651C23.9906 20.7028 23.8064 20.8472 23.6272 20.9999C23.4646 20.8654 23.3318 20.6348 23.0961 20.6397C22.8937 20.6862 22.7841 20.8754 22.6497 21.0148C22.4738 20.8605 22.2929 20.7128 22.1087 20.57C21.9544 20.7177 21.8033 20.8671 21.6507 21.0165C21.503 20.8787 21.3652 20.7244 21.191 20.6198C20.9487 20.6281 20.8059 20.892 20.6234 21.0264C20.484 20.8638 20.3695 20.5684 20.1023 20.6397C19.8666 20.7493 19.6608 20.9069 19.4484 21.053C19.3439 20.9468 19.241 20.8389 19.1364 20.7327C19.1049 20.8173 19.0435 20.9883 19.0119 21.0729C18.8991 20.9285 18.7879 20.7858 18.675 20.6447C18.6933 20.5916 18.7298 20.4854 18.7481 20.4323C18.9024 19.9593 19.0617 19.488 19.2376 19.0233C19.3223 18.8092 19.4119 18.5985 19.4965 18.3844C19.5845 18.4309 19.7587 18.5255 19.8467 18.5719C19.9529 18.4624 20.0591 18.3545 20.167 18.2466C20.1985 18.3329 20.2633 18.5039 20.2964 18.5902Z" fill="#23ABCC"/>
<path d="M28.8234 18.406C29.1022 18.3745 29.381 18.3446 29.6631 18.3413C32.9773 18.3529 36.2931 18.3479 39.6089 18.3479C39.7782 18.3562 39.9441 18.3811 40.1134 18.406C39.9839 18.7346 39.8728 19.0715 39.7499 19.4034C39.4462 19.0433 38.9583 19.1777 38.5484 19.1611C35.226 19.1744 31.9035 19.1694 28.5811 19.1628C28.669 18.9122 28.7487 18.6599 28.8234 18.406Z" fill="#9A9999"/>
<path d="M8.0306 18.957C11.7646 19.0599 15.5036 18.9272 19.2377 19.0234C19.0617 19.4881 18.9024 19.9594 18.7481 20.4324C18.6883 20.3726 18.5705 20.2515 18.5108 20.1918C14.9676 20.1669 11.4244 20.1868 7.8829 20.1818C7.83809 20.0806 7.74847 19.8814 7.70532 19.7818C7.81319 19.5063 7.92273 19.2325 8.0306 18.957Z" fill="#848282"/>
<path d="M28.5811 19.1628C31.9036 19.1695 35.226 19.1744 38.5485 19.1612C38.9584 19.1778 39.4463 19.0433 39.75 19.4035C39.6338 19.7072 39.511 20.0109 39.3932 20.3146C36.3296 20.2615 33.2644 20.2996 30.1992 20.2864C29.6167 20.2681 29.0275 20.3478 28.4517 20.2366C28.4168 20.1503 28.3471 19.976 28.3123 19.8881C28.3903 19.6773 28.4683 19.4665 28.5463 19.2558L28.5811 19.1628Z" fill="#848282"/>
<path d="M7.28381 21.0762C7.38505 20.6331 7.52279 20.1983 7.70534 19.7817C7.74849 19.8813 7.83811 20.0805 7.88292 20.1817C11.4244 20.1867 14.9676 20.1668 18.5108 20.1917C18.5705 20.2514 18.6884 20.3725 18.7481 20.4323C18.7299 20.4854 18.6933 20.5916 18.6751 20.6447C18.5755 20.9136 18.456 21.1774 18.3531 21.4479C18.2801 21.1608 18.0544 20.9833 17.754 21.0397C14.264 21.0679 10.7722 20.9999 7.28381 21.0762Z" fill="#A7A5A6"/>
<path d="M27.9537 20.741C28.0732 20.4572 28.201 20.175 28.3122 19.8879C28.347 19.9759 28.4167 20.1502 28.4516 20.2364C29.0274 20.3476 29.6166 20.268 30.1991 20.2862C33.2643 20.2995 36.3295 20.2613 39.3931 20.3144C39.2869 20.5899 39.174 20.8654 39.0745 21.1426C38.0572 20.9916 37.0282 21.0729 36.0043 21.0579C33.2959 21.0463 30.5874 21.0745 27.879 21.0463C27.8973 20.97 27.9355 20.8173 27.9537 20.741Z" fill="#A7A5A6"/>
<path d="M13.1471 34.9369C13.2782 34.746 13.4093 34.5552 13.5421 34.366L13.6367 34.4589C13.011 36.4786 12.2094 38.4419 11.534 40.445C11.4311 40.6425 11.4211 41.0192 11.1091 40.9627C7.40665 40.9594 3.70416 40.9744 0 40.9561C0.511147 39.4127 1.11357 37.9025 1.64297 36.3657C1.72927 36.1334 1.80063 35.8878 1.94501 35.6837C2.16076 35.4546 2.30016 35.0862 2.59059 34.9634C6.10721 34.9435 9.62881 34.9767 13.1471 34.9369Z" fill="#A7A5A6"/>
<path d="M20.1023 20.6397C20.3695 20.5684 20.484 20.8638 20.6234 21.0264C20.806 20.892 20.9487 20.6281 21.191 20.6198C21.3652 20.7244 21.503 20.8787 21.6507 21.0164C21.8034 20.8671 21.9544 20.7177 22.1087 20.57C22.2929 20.7127 22.4738 20.8604 22.6497 21.0148C22.7842 20.8754 22.8937 20.6862 23.0962 20.6397C23.3318 20.6347 23.4646 20.8654 23.6272 20.9998C23.8065 20.8472 23.9907 20.7028 24.1799 20.565C24.3325 20.7177 24.4869 20.8687 24.6412 21.0214C24.7922 20.8671 24.9416 20.7144 25.0926 20.5601C25.2818 20.7028 25.4644 20.8538 25.637 21.0148C25.788 20.8571 25.9257 20.6513 26.1597 20.6215C26.3556 20.6912 26.4717 20.8737 26.6045 21.0214C26.7821 20.8654 26.963 20.7144 27.1505 20.57C27.3181 20.7277 27.4841 20.8853 27.6517 21.0447C27.7264 20.9683 27.879 20.8173 27.9537 20.741C27.9355 20.8173 27.8973 20.97 27.879 21.0463C27.8259 21.2405 27.7662 21.433 27.6982 21.6238C27.4376 22.3258 27.1472 23.0162 26.9115 23.7265C26.7389 23.7 26.568 23.6751 26.397 23.6502C26.2958 23.5672 26.1962 23.4842 26.095 23.4012C26.0552 23.4892 25.9755 23.6651 25.9357 23.7531C25.8262 23.6286 25.7183 23.5074 25.6088 23.3846C25.5656 23.4726 25.4793 23.6469 25.4362 23.7332C25.3266 23.622 25.2171 23.5091 25.1076 23.3979C25.0644 23.4826 24.9765 23.6518 24.9333 23.7365C24.8238 23.6269 24.7159 23.5174 24.608 23.4079C24.5632 23.4925 24.4736 23.6585 24.4288 23.7415C24.3226 23.6269 24.2164 23.5158 24.1102 23.4029C24.0687 23.4942 23.984 23.6751 23.9425 23.7647C23.8314 23.6402 23.7185 23.5157 23.6073 23.3913C23.5642 23.4892 23.4762 23.6834 23.4314 23.7813C23.37 23.685 23.2439 23.4909 23.1825 23.3929C23.1011 23.5041 23.0198 23.6137 22.9402 23.7249C22.8306 23.617 22.7211 23.5075 22.6116 23.3996C22.5834 23.4875 22.5303 23.6618 22.5037 23.7497C22.3792 23.6402 22.2548 23.5307 22.1303 23.4228C22.054 23.8576 21.8299 23.6352 21.6258 23.4361C21.5793 23.5108 21.4864 23.6601 21.4399 23.7348C21.3337 23.6253 21.2292 23.5174 21.1246 23.4079C21.0931 23.4909 21.0283 23.6552 20.9968 23.7365C20.8707 23.6269 20.7429 23.5157 20.6168 23.4079C20.5869 23.4892 20.5255 23.6518 20.4956 23.7348C20.3695 23.6253 20.245 23.5174 20.1189 23.4095C20.089 23.4909 20.0309 23.6518 20.0027 23.7315C19.8716 23.6236 19.7422 23.5157 19.6111 23.4079C19.5729 23.4975 19.4949 23.6784 19.4567 23.768C19.3904 23.68 19.2592 23.5058 19.1929 23.4178C19.1248 23.4593 18.9887 23.5456 18.9207 23.5871C18.7315 23.0577 18.5622 22.52 18.3398 22.0039C18.3249 21.9724 18.2934 21.9093 18.2784 21.8761C18.2984 21.7699 18.3349 21.5541 18.3531 21.4479C18.456 21.1774 18.5755 20.9135 18.6751 20.6447C18.7879 20.7858 18.8991 20.9285 19.012 21.0729C19.0435 20.9882 19.1049 20.8173 19.1364 20.7327C19.241 20.8389 19.3439 20.9467 19.4484 21.053C19.6609 20.9069 19.8666 20.7492 20.1023 20.6397Z" fill="#46B8D3"/>
<path d="M18.9208 23.5872C18.9888 23.5457 19.1249 23.4594 19.1929 23.418C19.2593 23.5059 19.3904 23.6802 19.4568 23.7681C19.495 23.6785 19.573 23.4976 19.6112 23.408C19.7423 23.5159 19.8717 23.6237 20.0028 23.7316C20.031 23.652 20.0891 23.491 20.119 23.4097C20.2451 23.5175 20.3696 23.6254 20.4957 23.7349C20.5256 23.652 20.587 23.4893 20.6169 23.408C20.743 23.5159 20.8708 23.6271 20.9969 23.7366C21.0284 23.6553 21.0932 23.491 21.1247 23.408C21.2292 23.5175 21.3338 23.6254 21.44 23.7349C21.4865 23.6603 21.5794 23.5109 21.6259 23.4362C21.83 23.6354 22.054 23.8577 22.1304 23.4229C22.2548 23.5308 22.3793 23.6403 22.5038 23.7499C22.5303 23.6619 22.5834 23.4877 22.6117 23.3997C22.7212 23.5076 22.8307 23.6171 22.9403 23.725C23.0199 23.6138 23.1012 23.5043 23.1825 23.3931C23.244 23.491 23.3701 23.6851 23.4315 23.7814C23.4763 23.6835 23.5642 23.4893 23.6074 23.3914C23.7186 23.5159 23.8314 23.6403 23.9426 23.7648C23.9841 23.6752 24.0688 23.4943 24.1102 23.403C24.2165 23.5159 24.3227 23.6271 24.4289 23.7416C24.4737 23.6586 24.5633 23.4926 24.6081 23.408C24.716 23.5175 24.8239 23.6271 24.9334 23.7366C24.9765 23.652 25.0645 23.4827 25.1076 23.398C25.2172 23.5092 25.3267 23.6221 25.4362 23.7333C25.4794 23.647 25.5657 23.4727 25.6088 23.3848C25.7184 23.5076 25.8262 23.6287 25.9358 23.7532C25.9756 23.6652 26.0553 23.4893 26.0951 23.4014C26.1963 23.4843 26.2959 23.5673 26.3971 23.6503C26.5681 23.6752 26.739 23.7001 26.9116 23.7266C26.6826 24.4651 26.3805 25.1754 26.12 25.9023C26.0436 26.1098 25.964 26.3189 25.8893 26.528C25.6254 26.4682 25.3549 26.4599 25.0877 26.5031C24.8919 26.2608 24.7127 26.1479 24.6463 26.5462C24.5749 26.4351 24.5052 26.3239 24.4372 26.2143C24.3857 26.4035 24.3326 26.5927 24.2762 26.7819C24.2463 26.6309 24.1866 26.3272 24.1567 26.1762C24.0837 26.3604 24.0123 26.5446 23.9459 26.7321C23.9045 26.5446 23.8547 26.3604 23.7999 26.1778C23.7667 26.2757 23.6987 26.4716 23.6638 26.5695C23.5808 26.4434 23.4995 26.3172 23.4182 26.1911C23.3933 26.3355 23.3468 26.6242 23.3236 26.767C23.2639 26.5711 23.2041 26.3753 23.146 26.1811C23.078 26.372 23.0133 26.5645 22.9485 26.757C22.9286 26.6193 22.8888 26.3421 22.8689 26.2027C22.7826 26.3222 22.698 26.44 22.6117 26.5595C22.5718 26.4649 22.4938 26.2741 22.454 26.1795C22.3976 26.377 22.3428 26.5745 22.288 26.7719C22.2598 26.6259 22.2051 26.3338 22.1785 26.1878C22.0723 26.2923 21.9661 26.3969 21.8599 26.5014C21.5611 26.4185 21.2093 26.3952 21.0749 26.7471C21.0616 26.6541 21.0351 26.4666 21.0218 26.3736C20.8907 26.4815 20.7596 26.5911 20.6301 26.7006C20.431 26.5512 20.2302 26.4035 20.0294 26.2575C20.1389 26.2392 20.358 26.2027 20.4675 26.1845C20.2401 26.0633 20.0045 25.9588 19.7605 25.8774C19.5 25.1074 19.173 24.3606 18.9208 23.5872Z" fill="#6BC6DC"/>
<path d="M19.7605 25.8774C20.0045 25.9588 20.2401 26.0633 20.4675 26.1845C20.3579 26.2027 20.1389 26.2392 20.0293 26.2575C20.2302 26.4035 20.431 26.5512 20.6301 26.7006C20.7596 26.5911 20.8907 26.4815 21.0218 26.3737C21.035 26.4666 21.0616 26.6541 21.0749 26.7471C21.2093 26.3952 21.5611 26.4185 21.8599 26.5014C21.9661 26.3969 22.0723 26.2923 22.1785 26.1878C22.205 26.3338 22.2598 26.6259 22.288 26.7719C22.3428 26.5745 22.3976 26.377 22.454 26.1795C22.4938 26.2741 22.5718 26.4649 22.6116 26.5595C22.6979 26.44 22.7826 26.3222 22.8689 26.2027C22.8888 26.3421 22.9286 26.6193 22.9485 26.757C23.0133 26.5645 23.078 26.372 23.146 26.1811C23.2041 26.3753 23.2638 26.5711 23.3236 26.767C23.3468 26.6242 23.3933 26.3355 23.4182 26.1911C23.4995 26.3172 23.5808 26.4434 23.6638 26.5695C23.6987 26.4716 23.7667 26.2757 23.7999 26.1778C23.8547 26.3604 23.9044 26.5446 23.9459 26.7321C24.0123 26.5446 24.0837 26.3604 24.1567 26.1762C24.1866 26.3272 24.2463 26.6309 24.2762 26.7819C24.3326 26.5927 24.3857 26.4035 24.4372 26.2143C24.5052 26.3239 24.5749 26.4351 24.6463 26.5462C24.7126 26.148 24.8919 26.2608 25.0877 26.5031C25.3549 26.4599 25.6254 26.4682 25.8893 26.528C25.7781 26.835 25.6752 27.1437 25.574 27.454C25.4595 27.8025 25.335 28.1461 25.2072 28.4896C24.9052 28.3917 24.7525 28.624 24.6413 28.8663C24.5633 28.7651 24.4853 28.6655 24.4073 28.5659C24.3326 28.7833 24.2579 29.0007 24.1849 29.2182C24.1368 29.1485 24.0405 29.009 23.9941 28.9393C23.9244 28.9593 23.7883 29.0007 23.7202 29.0207C23.6422 28.8613 23.5626 28.7004 23.4846 28.541C23.3734 28.7651 23.2638 28.9908 23.1527 29.2165C23.0249 28.9875 22.8971 28.7601 22.7676 28.5328C22.7444 28.6207 22.6996 28.795 22.6764 28.8829C22.5453 28.79 22.4141 28.697 22.283 28.6041C22.1652 28.7053 22.0474 28.8049 21.9312 28.9062C21.913 28.8165 21.8748 28.6373 21.8549 28.546C21.8101 28.629 21.7171 28.7933 21.6723 28.8763C21.5877 28.7701 21.5047 28.6639 21.4217 28.5593C21.4035 28.6406 21.367 28.8016 21.3487 28.8829C21.1462 28.7601 20.9421 28.6373 20.738 28.5178C20.3795 27.6499 20.036 26.7753 19.7605 25.8774Z" fill="#95D6E4"/>
<path d="M24.6412 28.8662C24.7524 28.6239 24.9051 28.3916 25.2071 28.4895C25.0495 28.911 24.9034 29.3375 24.7275 29.7508C24.3856 30.1557 23.9425 30.4561 23.4696 30.6884C22.9236 30.7963 22.3444 30.6801 21.8598 30.4129C21.2092 30.0014 20.8856 29.2446 20.7379 28.5177C20.942 28.6372 21.1462 28.76 21.3486 28.8828C21.3669 28.8015 21.4034 28.6405 21.4217 28.5592C21.5046 28.6638 21.5876 28.77 21.6723 28.8762C21.7171 28.7932 21.81 28.6289 21.8548 28.5459C21.8747 28.6372 21.9129 28.8164 21.9311 28.9061C22.0473 28.8048 22.1651 28.7052 22.283 28.604C22.4141 28.6969 22.5452 28.7899 22.6763 28.8828C22.6995 28.7949 22.7443 28.6206 22.7676 28.5327C22.897 28.76 23.0248 28.9874 23.1526 29.2164C23.2638 28.9907 23.3733 28.765 23.4845 28.5409C23.5625 28.7003 23.6422 28.8612 23.7202 29.0206C23.7882 29.0006 23.9243 28.9592 23.994 28.9392C24.0405 29.0089 24.1367 29.1484 24.1848 29.2181C24.2579 29.0007 24.3325 28.7832 24.4072 28.5658C24.4852 28.6654 24.5632 28.765 24.6412 28.8662Z" fill="#B4E2EC"/>
<path d="M24.7276 29.7507C27.8924 29.8022 31.0588 29.7557 34.2253 29.7756C34.7215 29.7922 35.2442 29.6711 35.7122 29.8901L35.7836 30.0677C35.2691 30.4411 34.6684 30.7448 34.0145 30.7166C30.4995 30.695 26.9829 30.7515 23.4696 30.6884C23.9426 30.456 24.3857 30.1557 24.7276 29.7507Z" fill="#ADACAC"/>
<path d="M3.20456 32.6583C3.2643 32.6849 3.32405 32.7131 3.38545 32.7429C3.70409 32.5836 4.04762 32.6201 4.38119 32.7081C4.71808 32.64 5.06328 32.582 5.38855 32.7346C5.85157 32.4973 6.34944 32.8027 6.82906 32.6334C7.34518 32.7761 7.87126 32.5206 8.37411 32.728C8.69607 32.5836 9.04624 32.6035 9.36819 32.7413C9.68849 32.5803 10.0519 32.5753 10.3722 32.7446C10.6809 32.572 11.0327 32.6069 11.3481 32.738C11.67 32.6102 12.0202 32.5786 12.3405 32.733C12.6691 32.5969 13.0226 32.6118 13.3561 32.7263C13.6681 32.6317 13.9934 32.5753 14.3203 32.6201C14.1461 33.2624 13.8789 33.8731 13.6881 34.5104L13.6366 34.4589L13.542 34.366C13.4092 34.5552 13.2781 34.746 13.147 34.9369C9.62875 34.9767 6.10714 34.9435 2.59052 34.9634C2.30009 35.0863 2.16069 35.4547 1.94495 35.6837C2.15737 34.8871 2.40631 34.0789 2.80128 33.3553C2.96226 33.1396 3.09171 32.9023 3.20456 32.6583Z" fill="#B2B1B2"/>
</svg>
