<svg width="138" height="39" viewBox="0 0 138 39" fill="none" xmlns="http://www.w3.org/2000/svg">
<path d="M8.52668 0.106076C9.71192 -0.337161 11.1451 0.672433 11.058 1.94961C11.1368 2.63909 10.8611 3.35976 10.2668 3.74226C9.76774 4.14281 9.08483 4.03939 8.49549 3.98029C7.3562 3.5387 6.84402 2.0202 7.48589 0.985982C7.71243 0.575578 8.10478 0.289937 8.52668 0.106076Z" fill="white"/>
<path d="M1.67117 0.555664C2.66927 0.563872 3.66737 0.565514 4.66547 0.555664C4.72457 0.793699 4.78203 1.03502 4.77218 1.2829C4.77546 2.57485 4.76069 3.86845 4.78039 5.1604C5.39435 5.16368 6.00996 5.16368 6.62557 5.16861C6.64198 6.03538 6.63542 6.90215 6.63049 7.77057C6.01488 7.77878 5.39764 7.78042 4.78203 7.77714C4.75741 10.9258 4.7771 14.0744 4.77218 17.223C4.80665 17.4479 4.73278 17.6252 4.54728 17.7532C3.59186 17.7877 2.63644 17.7532 1.68102 17.768C1.62356 14.4421 1.67609 11.1162 1.65475 7.79027C1.10317 7.77549 0.549942 7.7837 0 7.75908C0.0114913 6.89559 -0.00656617 6.03046 0.0131332 5.16697C0.51711 5.16697 1.02273 5.15547 1.52835 5.17682C1.7237 4.72701 1.64654 4.23289 1.65803 3.75846C1.66132 2.69141 1.64326 1.62271 1.67117 0.555664Z" fill="white"/>
<path d="M17.9675 5.39876C19.2841 4.74704 20.9273 4.57631 22.2538 5.29862C23.0401 5.66798 23.5703 6.3788 24.0825 7.05022C25.4992 4.82912 28.8662 4.07069 30.9954 5.70574C32.1773 6.49864 32.5385 8.00893 32.5533 9.35013C32.5664 12.1245 32.5598 14.8988 32.5565 17.6715C31.5125 17.6649 30.4684 17.6945 29.426 17.6501C29.4227 15.3814 29.4293 13.1111 29.4227 10.8424C29.3899 9.96245 29.3488 8.99554 28.7431 8.29621C27.832 7.40317 26.2199 7.61494 25.3909 8.52275C24.7227 9.20731 24.5241 10.2153 24.5077 11.1411C24.4732 13.3475 24.529 15.5538 24.4781 17.7601C23.4095 17.7651 22.3391 17.7815 21.2704 17.7486C21.2507 15.2714 21.2803 12.7959 21.2556 10.3187C21.2983 9.33043 20.8288 8.25517 19.8898 7.83163C18.9574 7.56733 17.8871 7.82178 17.2583 8.58678C16.3735 9.4831 16.49 10.8145 16.3193 11.9619C16.3177 13.8646 16.3259 15.7689 16.3144 17.6715C15.3048 17.6781 14.2968 17.6666 13.2872 17.6797C13.2446 17.4187 13.2052 17.1577 13.2084 16.8934C13.215 12.9863 13.2052 9.07926 13.2134 5.17221C14.2459 5.15744 15.2785 5.16893 16.3111 5.16237C16.3177 5.61709 16.3193 6.07346 16.3292 6.52819C16.8988 6.18509 17.3634 5.68768 17.9675 5.39876Z" fill="white"/>
<path d="M39.9355 5.33804C41.193 4.77004 42.7164 4.59439 43.9821 5.23954C44.8177 5.59906 45.3988 6.32958 45.9175 7.04696C46.6218 6.04393 47.679 5.27073 48.8774 4.98837C50.1414 4.94241 51.5565 4.73557 52.6383 5.55637C53.9976 6.34271 54.4326 8.03193 54.4096 9.50282C54.4063 12.2591 54.4408 15.0154 54.3899 17.7716C53.3541 17.7552 52.3166 17.7782 51.2791 17.7569C51.238 15.3897 51.284 13.0208 51.2561 10.6536C51.238 9.79503 51.1362 8.83632 50.5042 8.19445C49.383 7.29813 47.5313 7.75286 46.8795 9.01362C46.4593 9.69982 46.3641 10.5173 46.3444 11.3053C46.3197 13.4575 46.3674 15.6096 46.3197 17.7618C45.2839 17.77 44.2497 17.7634 43.2154 17.7651C43.1613 15.4471 43.2154 13.1292 43.1875 10.8112C43.1235 9.82458 43.0102 8.64261 42.0975 8.05163C41.6116 7.64779 40.9418 7.73152 40.359 7.78405C39.425 8.06805 38.6813 8.86095 38.4449 9.80652C38.2299 10.5075 38.3333 11.2528 38.174 11.9636C38.133 13.8646 38.1773 15.7689 38.1527 17.6715C37.1415 17.6748 36.1319 17.6715 35.1223 17.6731C35.1157 13.5034 35.1042 9.33373 35.1272 5.16403C36.1352 5.16403 37.1415 5.16731 38.1494 5.16239C38.156 5.61547 38.1576 6.06856 38.1642 6.52329C38.7847 6.17034 39.2788 5.63025 39.9355 5.33804Z" fill="white"/>
<path d="M58.2232 6.86977C60.6528 4.11514 65.4792 4.17095 67.9202 6.87798C69.2565 8.30783 69.6965 10.3287 69.6439 12.2329C66.4395 12.2723 63.2351 12.2362 60.0306 12.2493C59.8172 12.2658 59.6104 12.3101 59.4085 12.3823C59.6777 13.3246 60.1193 14.2866 60.9992 14.8021C62.3519 15.6048 64.1856 15.503 65.4595 14.5837C65.6778 14.4311 65.8928 14.2718 66.1095 14.1159C66.9583 14.413 67.7495 14.848 68.5687 15.2174C68.5621 15.7575 68.0877 16.0513 67.7561 16.4043C66.8942 17.2481 65.7303 17.7061 64.5648 17.9359C63.1103 18.0689 61.5918 18.0869 60.2342 17.473C58.4613 16.6916 57.0807 15.0401 56.6817 13.1391C56.1613 10.9722 56.6752 8.50975 58.2232 6.86977ZM60.423 8.5787C60.0897 8.95463 59.6941 9.3601 59.7302 9.90184C61.9957 9.8887 64.2627 9.90676 66.5282 9.89363C66.0767 8.55735 64.7503 7.55104 63.3237 7.57403C62.2813 7.50015 61.1437 7.77923 60.423 8.5787Z" fill="white"/>
<path d="M75.9067 4.92734C76.5075 4.6811 77.1198 4.96345 77.7207 5.04225C77.6189 5.99767 77.1264 6.8628 76.8293 7.76898C76.3007 7.56706 75.6243 7.42916 75.163 7.8527C74.4768 8.57173 74.4095 9.59774 74.27 10.5285C74.2273 12.9417 74.2897 15.3565 74.2388 17.7697C73.2046 17.7582 72.172 17.7746 71.1394 17.7582C71.1099 13.5606 71.1115 9.36299 71.1378 5.16373C72.0587 5.16701 72.9797 5.15881 73.9023 5.17194C73.9039 5.62503 73.9121 6.07975 73.8973 6.53448C74.4128 5.845 75.0153 5.10792 75.9067 4.92734Z" fill="white"/>
<path d="M84.0933 5.24936C85.5593 4.62062 87.3749 4.65674 88.662 5.67782C89.1988 6.02092 89.4401 6.64966 89.9408 7.02723C91.346 4.74539 94.8361 4.07889 96.9291 5.7993C98.0257 6.61683 98.318 8.06309 98.3738 9.35176C98.3836 12.1245 98.3787 14.8988 98.3754 17.6715C97.333 17.6682 96.2906 17.6895 95.2498 17.6567C95.2399 15.3387 95.258 13.0191 95.2416 10.7012C95.1267 9.88857 95.1677 8.95121 94.5488 8.32411C93.9677 7.65105 92.9499 7.62478 92.1668 7.87923C90.9684 8.31098 90.3512 9.60457 90.3282 10.8128C90.279 13.1275 90.3413 15.4438 90.2954 17.7585C89.225 17.7683 88.1547 17.7765 87.086 17.7519C87.0565 15.2189 87.1041 12.6859 87.0597 10.1545C87.0729 9.21879 86.5673 8.25352 85.7038 7.84147C84.7795 7.55747 83.7076 7.81357 83.0788 8.57199C82.2515 9.3731 82.3204 10.583 82.1431 11.6287C82.1283 13.6413 82.1497 15.6556 82.1333 17.6698C81.099 17.6764 80.0648 17.6731 79.0306 17.6715C79.029 13.5034 79.0257 9.33535 79.0322 5.16564C80.0648 5.16236 81.0974 5.16564 82.1316 5.164C82.1365 5.62037 82.1382 6.07838 82.1497 6.53475C82.7932 6.10136 83.3546 5.53172 84.0933 5.24936Z" fill="white"/>
<path d="M102.325 6.48396C103.847 4.95233 106.272 4.38926 108.288 5.20022C109.059 5.44482 109.637 6.03252 110.338 6.40517C110.341 5.99312 110.34 5.57943 110.346 5.16739C111.382 5.1641 112.42 5.16246 113.457 5.16739C113.465 9.33545 113.462 13.5035 113.459 17.6716C112.42 17.6699 111.382 17.6847 110.345 17.6617C110.341 17.253 110.341 16.8458 110.335 16.4387C109.522 17.0297 108.701 17.6667 107.7 17.8965C106.101 18.2018 104.344 17.9457 103.048 16.9066C99.7447 14.6018 99.4902 9.25829 102.325 6.48396ZM105.922 7.85964C105.083 8.12558 104.392 8.74447 103.96 9.50125C103.448 10.3943 103.591 11.4679 103.635 12.4512C103.891 13.5478 104.699 14.5476 105.778 14.9268C107.088 15.4833 108.729 15.0335 109.612 13.9287C110.944 12.2904 110.732 9.45365 108.885 8.27989C108.04 7.66264 106.904 7.63966 105.922 7.85964Z" fill="white"/>
<path d="M119.411 6.36872C120.399 5.77774 121.35 4.88962 122.579 4.95201C123.431 4.96514 124.356 4.82068 125.127 5.27048C126.528 5.89429 127.404 7.36847 127.444 8.88039C127.458 11.8008 127.445 14.7229 127.45 17.6433C126.936 17.8091 126.395 17.7648 125.866 17.7665C125.339 17.755 124.794 17.8354 124.298 17.6187C124.311 15.4058 124.306 13.1946 124.301 10.9833C124.292 10.0574 124.272 9.02322 123.614 8.29598C122.655 7.33728 120.89 7.65082 120.173 8.75399C119.552 9.58137 119.436 10.6353 119.405 11.6367C119.409 13.6362 119.4 15.634 119.411 17.6335C118.901 17.8239 118.354 17.7583 117.824 17.7665C117.298 17.7632 116.762 17.8157 116.258 17.6335C116.262 13.6148 116.261 9.5945 116.259 5.57582C116.285 5.47732 116.338 5.28033 116.364 5.18183C117.372 5.13915 118.385 5.17362 119.396 5.1687C119.405 5.56925 119.406 5.96817 119.411 6.36872Z" fill="white"/>
<path d="M130.1 6.54614C130.599 5.7795 131.418 5.2706 132.278 5.00138C133.189 4.93079 134.118 4.89303 135.025 5.02764C136.069 5.3888 137.216 5.98799 137.669 7.04355C137.139 7.55081 136.627 8.07448 136.116 8.5998C136.011 8.73441 135.806 8.86574 135.647 8.7459C135.03 8.29938 134.409 7.67065 133.582 7.7478C133.166 7.67065 132.833 7.9251 132.518 8.15C132.523 8.38967 132.487 8.63756 132.564 8.87067C132.753 9.05945 132.969 9.22362 133.209 9.34838C134.421 9.97876 135.721 10.4909 136.78 11.3741C138.459 12.7597 138.393 15.7014 136.656 17.0147C135.481 18.0424 133.826 18.113 132.352 17.9406C131.127 17.6681 130.018 16.9655 129.248 15.9789C129.207 15.8049 129.254 15.6276 129.4 15.5176C129.98 14.9364 130.527 14.3225 131.108 13.743C131.746 14.4834 132.641 15.0087 133.608 15.1597C134.333 15.2401 135.279 14.6524 134.997 13.8234C134.562 13.0453 133.634 12.7711 132.895 12.3673C131.528 11.7238 130.116 10.7881 129.63 9.27779C129.397 8.35848 129.537 7.32755 130.1 6.54614Z" fill="white"/>
<path d="M7.58914 5.16872C8.625 5.15723 9.6625 5.17364 10.6984 5.15723C10.7378 9.32857 10.7115 13.5016 10.7115 17.6746C9.67071 17.6647 8.62828 17.691 7.58749 17.6565C7.58421 13.4934 7.58093 9.33186 7.58914 5.16872Z" fill="white"/>
<path d="M53.9484 20.3753C55.4472 19.9616 56.8837 21.8725 56.1433 23.235C55.6787 24.5598 53.671 24.8405 52.8765 23.6848C51.903 22.5915 52.5432 20.7135 53.9484 20.3753Z" fill="white"/>
<path d="M47.2687 20.7279C48.3144 20.7295 49.3618 20.6967 50.4075 20.7492C50.4009 26.3061 50.4075 31.8613 50.4059 37.4166C50.3993 37.6135 50.378 37.8073 50.3369 38.001C49.2978 38.1783 48.2077 38.1783 47.1686 38.0026C47.1735 37.6152 47.1702 37.2278 47.1489 36.842C46.6974 37.1358 46.2936 37.5036 45.8159 37.758C43.9658 38.7692 41.5313 38.523 39.8864 37.213C38.5961 36.2592 37.7047 34.8097 37.4092 33.2337C37.0218 30.9798 37.5159 28.4106 39.2609 26.8166C40.8402 25.1734 43.4881 24.6875 45.5368 25.6987C46.1787 25.9827 46.704 26.4522 47.2655 26.8593C47.2704 24.8155 47.2638 22.7717 47.2687 20.7279ZM42.728 28.2416C40.9206 28.8473 40.0177 31.0454 40.5365 32.8102C40.8057 33.9659 41.6987 34.9344 42.8052 35.3448C43.759 35.3957 44.8276 35.5763 45.6682 35.0001C47.7711 33.7443 47.9467 30.2919 46.0162 28.8013C45.1215 28.0429 43.8197 27.9231 42.728 28.2416Z" fill="white"/>
<path d="M4.25342 26.9071C5.30406 25.9007 6.67152 25.1489 8.16211 25.1735C9.72165 25.1128 11.1761 26.0715 11.9165 27.416C13.1132 25.6496 15.4558 24.7434 17.516 25.3623C18.5716 25.6726 19.5549 26.3949 20.0047 27.4225C20.356 28.1399 20.3544 28.9558 20.4398 29.7339C20.5563 30.3167 20.5169 30.9126 20.5202 31.5019C20.5202 33.3668 20.5169 35.23 20.5235 37.0933C20.5333 37.4036 20.4742 37.7105 20.4151 38.0142C19.3858 38.1685 18.3057 38.1915 17.2829 37.9798C17.2895 35.6552 17.2895 33.3291 17.2829 31.0029C17.2944 30.1772 17.15 29.2825 16.6115 28.6275C15.7201 27.7722 14.1721 27.9593 13.3332 28.8031C12.5354 29.5336 12.4352 30.6778 12.3564 31.6907C12.3515 33.7986 12.3597 35.9064 12.3515 38.0126C11.3091 38.0438 10.2667 38.0241 9.2226 38.0274C9.20782 35.629 9.23245 33.2306 9.21111 30.8322C9.12738 29.8505 8.85159 28.6751 7.85677 28.2351C6.7848 27.805 5.50434 28.2745 4.88709 29.2365C4.4143 29.9605 4.3076 30.8535 4.27641 31.6989C4.25178 33.7624 4.2961 35.8292 4.25506 37.8928C4.20253 37.9453 4.09911 38.0487 4.04658 38.1012C3.09444 38.1374 2.1423 38.0996 1.19017 38.116C1.13435 33.9168 1.17703 29.7142 1.16882 25.5133C2.17349 25.5117 3.17816 25.5133 4.18283 25.5117C4.17955 25.9779 4.19761 26.4441 4.25342 26.9071Z" fill="white"/>
<path d="M26.512 25.6151C28.3671 24.9207 30.5356 25.0356 32.284 25.9812C33.5693 26.6296 34.5395 27.8017 35.0747 29.1232C35.5245 30.2182 35.6345 31.4182 35.6214 32.592C32.2265 32.6232 28.8333 32.592 25.4384 32.6084C25.5353 33.9332 26.5038 35.1086 27.758 35.5157C29.1156 35.908 30.662 35.629 31.7373 34.6916C31.9474 34.4437 32.302 34.4897 32.563 34.6243C33.241 34.9461 33.9206 35.2662 34.5953 35.5961C34.4886 36.0804 34.0979 36.4169 33.7565 36.7453C32.4859 37.9125 30.7179 38.4526 29.0106 38.3573C26.5481 38.4755 24.0956 37.0096 23.081 34.7556C22.449 33.554 22.4605 32.1684 22.5245 30.8486C22.7708 28.552 24.3517 26.449 26.512 25.6151ZM27.3 28.2598C26.4447 28.6061 25.8619 29.3957 25.5779 30.2494C27.8549 30.2461 30.1334 30.251 32.4104 30.2477C32.2265 29.115 31.1742 28.3353 30.1367 28.0234C29.1977 27.874 28.1783 27.8379 27.3 28.2598Z" fill="white"/>
<path d="M52.7731 25.4036C53.8319 25.4036 54.8924 25.3987 55.9529 25.4053C55.9808 29.5996 55.9496 33.7939 55.9693 37.9883C55.6377 38.0753 55.2995 38.136 54.9564 38.1179C54.2177 38.0933 53.4626 38.1967 52.7468 37.9718C52.7715 33.7824 52.7206 29.593 52.7731 25.4036Z" fill="white"/>
<path d="M60.5281 26.2355C61.9793 25.1734 63.9542 24.8681 65.6483 25.4935C66.41 25.7365 67.0404 26.2437 67.6839 26.6985C67.7939 26.2733 67.8185 25.8366 67.8678 25.4032C68.902 25.3441 69.9247 25.4771 70.9557 25.5362C70.9425 29.7273 70.9819 33.9199 70.936 38.111C69.8985 38.1176 68.861 38.1094 67.8235 38.1159C67.8136 37.6973 67.8103 37.2771 67.7955 36.8568C67.2358 37.1392 66.7892 37.6021 66.2147 37.8615C65.1017 38.4426 63.7851 38.4656 62.5768 38.2374C60.5035 37.6924 58.7946 35.9966 58.1855 33.9446C57.3664 31.2408 58.1264 27.9083 60.5281 26.2355ZM63.4009 28.2071C62.3027 28.5601 61.4359 29.5106 61.1569 30.6252C61.019 31.3475 61.0272 32.0978 61.1372 32.8233C61.3982 34.0053 62.3224 35.0034 63.4847 35.3482C64.7553 35.8062 66.2442 35.2858 67.1044 34.2844C67.7561 33.5145 67.9515 32.4803 67.8809 31.4953C67.9351 30.2099 67.1685 28.9229 65.9848 28.4025C65.1887 28.0167 64.2464 28.0101 63.4009 28.2071Z" fill="white"/>
<path d="M74.8347 34.8999C75.3748 34.8195 76.0117 34.7259 76.4911 35.0575C77.3152 35.5287 77.614 36.7155 77.0804 37.5134C76.5288 38.5164 74.9611 38.6839 74.2174 37.8138C73.3178 36.9716 73.7069 35.3415 74.8347 34.8999Z" fill="white"/>
</svg>
