<svg width="159" height="23" viewBox="0 0 159 23" fill="none" xmlns="http://www.w3.org/2000/svg">
<path d="M37.2815 15.8955C37.119 16.7968 36.6525 17.6151 35.9597 18.214C35.2669 18.813 34.3898 19.1563 33.4745 19.1869C33.073 19.1992 32.6741 19.1182 32.3093 18.9501C31.9445 18.7819 31.6237 18.5314 31.3722 18.2182C31.1208 17.9049 30.9455 17.5376 30.8602 17.1451C30.775 16.7525 30.782 16.3456 30.8809 15.9562C31.037 15.0575 31.4976 14.2398 32.1853 13.6405C32.873 13.0412 33.7459 12.6967 34.6576 12.6649C35.0644 12.6376 35.4719 12.7084 35.8458 12.8712C36.2196 13.0341 36.5489 13.2843 36.806 13.6008C37.0631 13.9174 37.2405 14.291 37.3232 14.6903C37.406 15.0896 37.3917 15.5029 37.2815 15.8955M38.4949 9.52523L38.2219 10.86C37.8881 10.2504 37.3777 9.75616 36.7578 9.44214C36.1379 9.12811 35.4374 9.00903 34.7486 9.10055C32.8775 9.17566 31.0903 9.89677 29.691 11.1412C28.2918 12.3856 27.3669 14.0764 27.0739 15.9259C26.4065 19.5812 28.1659 22.7816 32.2156 22.7816C32.9896 22.8102 33.7598 22.6611 34.4671 22.3456C35.1744 22.03 35.7999 21.5565 36.2956 20.9615L36.053 22.3265H39.8296L42.2109 9.57074H38.4949V9.52523ZM44.4102 9.5404H47.9745L47.7319 10.8751C48.1198 10.2907 48.655 9.81897 49.2834 9.50741C49.9119 9.19585 50.6114 9.05551 51.3114 9.10055L50.6137 12.9379C48.8239 12.9379 47.5802 13.3323 47.1707 15.2889L45.8663 22.2962H42.0289L44.4102 9.5404Z" fill="#363333"/>
<path d="M53.8746 4.53516L50.5833 22.2962H54.4207L55.5582 16.1382H55.6189L58.076 22.2962H62.3987L59.0619 15.1372L64.9014 9.5404H60.3966L55.9829 14.1665H55.9222L57.712 4.53516H53.8746Z" fill="#363333"/>
<path d="M67.1613 14.4999C67.4371 13.8483 67.8999 13.2931 68.4911 12.9044C69.0823 12.5156 69.7754 12.3108 70.483 12.3158C70.7921 12.2796 71.1055 12.3089 71.4025 12.4019C71.6996 12.4949 71.9737 12.6495 72.207 12.8556C72.4403 13.0617 72.6275 13.3147 72.7564 13.598C72.8854 13.8813 72.9531 14.1887 72.9553 14.4999H67.1613ZM71.029 9.10034C69.1275 9.20196 67.314 9.93402 65.8748 11.181C64.4356 12.4279 63.4527 14.1187 63.0813 15.9863C62.8819 16.8071 62.8751 17.6628 63.0615 18.4867C63.2478 19.3105 63.6222 20.08 64.1554 20.7351C64.6885 21.3901 65.366 21.913 66.1348 22.2627C66.9036 22.6124 67.7429 22.7796 68.5871 22.751C69.9499 22.7407 71.2814 22.3407 72.4244 21.5983C73.7373 20.7837 74.835 19.6653 75.6247 18.3373H71.7267C71.4133 18.7115 71.0209 19.0116 70.5777 19.2161C70.1345 19.4207 69.6515 19.5246 69.1634 19.5204C68.8319 19.5589 68.4959 19.5241 68.1794 19.4183C67.8628 19.3125 67.5734 19.1384 67.3317 18.9082C67.09 18.6781 66.9019 18.3976 66.7807 18.0866C66.6595 17.7756 66.6082 17.4418 66.6305 17.1087H76.2011C76.33 16.7866 76.4216 16.4507 76.4741 16.1077C77.2021 12.1338 74.927 9.10034 71.029 9.10034Z" fill="#363333"/>
<path d="M21.9927 4.53516L15.2584 14.6518H15.1977V4.53516H11.9368L0 22.2962H4.62606L11.3301 12.1795H11.3907V22.2962H14.6821L21.3861 12.1795H21.4467V22.2962H25.2841V4.53516H21.9927ZM86.1661 9.5404H83.7545L84.4522 5.76372H81.1002L80.8271 7.28046C80.7474 7.94255 80.42 8.54992 79.9107 8.98043C79.4014 9.41094 78.748 9.63268 78.0818 9.60107L77.5055 12.4222H79.4014L77.5661 22.2962H81.3732L83.2084 12.4222H85.6504L86.1661 9.5404Z" fill="#363333"/>
<path d="M148.838 4.55022H152.645L151.492 10.875C151.887 10.2789 152.434 9.79962 153.077 9.48744C153.72 9.17525 154.435 9.0416 155.147 9.10045C155.76 9.06704 156.372 9.17875 156.934 9.4265C157.495 9.67425 157.99 10.051 158.378 10.5262C159.197 11.7699 159.106 12.9075 158.681 15.1826L157.377 22.3113H153.57L154.844 15.3646C154.965 14.7579 155.329 12.68 153.327 12.68C152.653 12.6858 152.006 12.9448 151.515 13.4056C151.023 13.8664 150.723 14.4953 150.673 15.1674L149.354 22.2961H145.607L148.838 4.55022ZM132.791 9.5403H130.44L131.092 5.76362H127.74L127.406 7.21969C127.327 7.88179 126.999 8.48915 126.49 8.91966C125.98 9.35017 125.327 9.57192 124.661 9.5403L124.145 12.4221H126.026L124.206 22.2961H128.013L129.833 12.4221H132.275L132.791 9.5403ZM114.423 19.1868C115.351 19.1735 116.246 18.8379 116.955 18.2375C117.663 17.6371 118.141 16.8092 118.306 15.8954C118.416 15.5028 118.43 15.0895 118.348 14.6902C118.265 14.2909 118.087 13.9173 117.83 13.6007C117.573 13.2842 117.244 13.034 116.87 12.8711C116.496 12.7083 116.089 12.6375 115.682 12.6648C114.77 12.6966 113.897 13.0411 113.21 13.6404C112.522 14.2397 112.061 15.0574 111.905 15.9561C111.806 16.3455 111.799 16.7524 111.885 17.145C111.97 17.5375 112.145 17.9048 112.397 18.2181C112.648 18.5313 112.969 18.7819 113.334 18.95C113.698 19.1181 114.097 19.1991 114.499 19.1868M120.93 22.2203H117.077L117.32 20.8552C116.826 21.4725 116.194 21.9655 115.475 22.2947C114.756 22.6239 113.97 22.7802 113.179 22.7511C109.13 22.7511 107.355 19.5508 108.037 15.8954C108.336 14.054 109.262 12.3721 110.657 11.134C112.053 9.896 113.833 9.17767 115.697 9.10045C116.379 9.02445 117.069 9.15425 117.677 9.47317C118.285 9.7921 118.784 10.2856 119.11 10.8902L119.383 9.55547H123.159L120.93 22.2203ZM113.604 0L106.172 4.55022H108.28L101.546 14.6517V4.55022H98.1938L91.4595 14.6517V4.55022H87.5615V22.2961H90.8831L97.6175 12.1339V22.2961H100.909L112.876 4.55022H114.757L113.604 0ZM145.243 17.4577C144.603 18.9812 143.541 20.2894 142.18 21.2276C140.82 22.1657 139.22 22.6944 137.568 22.7511C136.703 22.7991 135.839 22.6416 135.047 22.2917C134.254 21.9417 133.556 21.4092 133.008 20.7376C132.461 20.066 132.08 19.2745 131.898 18.4276C131.715 17.5808 131.735 16.7027 131.956 15.8651C132.334 13.9919 133.336 12.3024 134.8 11.0733C136.263 9.84434 138.1 9.14872 140.01 9.10045C140.746 9.05284 141.483 9.15624 142.177 9.40428C142.871 9.65232 143.506 10.0398 144.045 10.5427C144.584 11.0457 145.013 11.6536 145.308 12.329C145.603 13.0043 145.756 13.7328 145.759 14.4697H141.891C141.781 13.9193 141.47 13.4297 141.018 13.096C140.567 12.7624 140.008 12.6087 139.449 12.6648C138.558 12.679 137.701 13.0131 137.036 13.6062C136.371 14.1992 135.94 15.0117 135.824 15.8954C135.696 16.2753 135.662 16.6807 135.725 17.0766C135.789 17.4725 135.947 17.8471 136.188 18.1681C136.428 18.489 136.743 18.7467 137.105 18.9189C137.467 19.091 137.866 19.1726 138.266 19.1564C138.873 19.1488 139.469 18.9893 139.999 18.6926C140.529 18.3959 140.976 17.9714 141.3 17.4577H145.198H145.243Z" fill="#4DB84D"/>
</svg>
