<svg width="127" height="18" viewBox="0 0 127 18" fill="none" xmlns="http://www.w3.org/2000/svg">
<path d="M0 0H11.2735C12.4259 0.103585 13.5902 0.502821 14.4275 1.32827C16.0007 2.8432 16.1183 5.59685 14.6886 7.24342C14.2063 7.79912 13.5416 8.18217 12.8295 8.3602C14.0639 8.57169 15.0879 9.48022 15.623 10.5873C16.5057 12.3353 16.1852 14.6692 14.7178 16.0061C13.7261 16.9265 12.3331 17.2599 11.0113 17.2567C7.89839 17.2729 4.78435 17.2621 1.67139 17.2621C1.67247 12.2263 1.67355 7.19055 1.67139 2.15479C1.11138 1.44912 0.556771 0.740204 0 0.0323704V0ZM5.33465 3.24891C5.35515 4.44122 5.32602 5.63461 5.34975 6.828C6.91325 6.82153 8.47674 6.82477 10.0391 6.82585C10.5355 6.83124 11.0437 6.67047 11.4203 6.34137C12.2198 5.6249 12.1292 4.13802 11.1915 3.57909C10.6585 3.23057 9.99923 3.24352 9.38743 3.23596C8.0365 3.24675 6.68557 3.22086 5.33465 3.24891ZM5.34328 10.0607C5.33896 11.3825 5.34112 12.7054 5.3422 14.0272C6.83448 14.0261 8.32675 14.0283 9.81795 14.0261C10.4362 14.0175 11.1009 13.9517 11.6037 13.5535C12.5263 12.8392 12.5101 11.2433 11.5843 10.5355C11.1192 10.1578 10.5053 10.0683 9.9237 10.065C8.39689 10.0564 6.87008 10.0661 5.34328 10.0607Z" fill="white"/>
<path d="M18.2624 0H30.5362C30.5351 1.07038 30.5384 2.14076 30.534 3.21115C27.6801 3.20575 24.8261 3.2187 21.971 3.20467C21.9429 4.41101 21.9634 5.61843 21.9613 6.82477C24.3071 6.82477 26.6517 6.82369 28.9975 6.82477C28.9997 7.90378 28.9986 8.9828 28.9986 10.0607C26.6528 10.0629 24.306 10.0629 21.9602 10.0607C21.9559 11.3739 21.957 12.6871 21.9602 14.0002C24.7915 14.0002 27.6229 13.9991 30.4542 14.0013C30.4564 15.0706 30.4553 16.1399 30.4542 17.2092C26.3895 17.2092 22.3249 17.2146 18.2603 17.206C18.2646 11.471 18.2613 5.73604 18.2624 0Z" fill="white"/>
<path d="M31.6064 0H37.1634C39.8167 3.58341 42.4484 7.183 45.1006 10.7675C45.1049 7.17868 45.1017 3.5888 45.1028 0H48.8264C48.8243 5.73712 48.8264 11.4732 48.8254 17.2103C47.6546 17.2049 46.4828 17.2221 45.3121 17.2027C45.0132 16.9546 44.8341 16.5801 44.5848 16.2791C42.0686 12.8543 39.5599 9.42303 37.0382 6.00256C37.035 9.75537 37.0393 13.5093 37.0371 17.2632C35.8135 17.2642 34.591 17.2653 33.3674 17.2621C33.3728 12.2533 33.3598 7.24342 33.3739 2.23356C32.7912 1.48472 32.2096 0.732651 31.6064 0Z" fill="white"/>
<path d="M50.9024 0H63.8776C63.8765 1.0024 63.8798 2.00481 63.8754 3.00721C61.1466 6.66723 58.4264 10.3348 55.703 13.9991C58.4728 14.0024 61.2416 13.9981 64.0114 14.0013C64.0136 15.0706 64.0114 16.1388 64.0125 17.2081C59.6425 17.2103 55.2714 17.2146 50.9014 17.206C50.9035 16.2176 50.9014 15.2281 50.9024 14.2398C53.6086 10.5614 56.318 6.88627 59.0253 3.21007C56.318 3.21115 53.6108 3.21007 50.9035 3.21007C50.9003 2.13969 50.9035 1.07038 50.9024 0Z" fill="white"/>
<path d="M66.8179 0H70.5405C70.5405 5.76302 70.5405 11.5271 70.5405 17.2901C69.2996 17.2923 68.0587 17.2923 66.8179 17.2901C66.8168 11.526 66.8179 5.76302 66.8179 0Z" fill="white"/>
<path d="M72.6113 0H78.137C80.8032 3.58125 83.4414 7.18408 86.1044 10.7675C86.1076 7.17868 86.1044 3.5888 86.1055 0H89.8292C89.827 5.73712 89.8292 11.4732 89.8281 17.2103C88.6466 17.2135 87.465 17.206 86.2835 17.2135C83.5212 13.4877 80.7978 9.73271 78.0409 6.00256C78.0377 9.75537 78.042 13.5093 78.0398 17.2632C76.799 17.2653 75.5581 17.2653 74.3172 17.2632C74.3172 12.2393 74.3151 7.21537 74.3183 2.1904C73.7529 1.45775 73.1897 0.72294 72.6113 0Z" fill="white"/>
<path d="M100.395 0H101.794C102.705 0.0874002 103.612 0.276228 104.454 0.644172C105.921 1.26353 107.133 2.38678 107.988 3.71936C107.01 4.27182 106.028 4.81348 105.047 5.36054C104.382 4.37109 103.38 3.5942 102.213 3.31042C100.807 2.97484 99.2607 3.26833 98.0814 4.10673C96.9473 4.8998 96.2147 6.18707 95.9816 7.53907C95.6946 9.23421 96.0528 11.0998 97.2009 12.4184C98.0857 13.4596 99.4226 14.0779 100.783 14.134C102.171 14.2041 103.577 13.7218 104.643 12.8327C104.631 12.1788 104.641 11.526 104.637 10.8721C104.035 10.8657 103.434 10.8775 102.834 10.87C102.684 10.8927 102.618 10.7308 102.531 10.6445C101.767 9.67229 100.984 8.71628 100.22 7.74409C102.852 7.73977 105.484 7.74193 108.116 7.74193C108.118 9.8773 108.116 12.0116 108.117 14.147C106.329 16.1388 103.662 17.3247 100.979 17.2211C99.1485 17.2146 97.3034 16.7161 95.7766 15.6932C94.6145 14.9217 93.6499 13.8481 93.0327 12.5953C92.1554 10.8463 91.9547 8.80584 92.2849 6.89167C92.628 4.89117 93.7513 3.04282 95.372 1.82138C96.8081 0.714307 98.5982 0.13164 100.395 0Z" fill="white"/>
<path d="M113.188 0H120.326C122.559 5.72633 124.757 11.4678 127 17.1898V17.261C125.608 17.2675 124.217 17.2632 122.825 17.2632C122.474 16.3007 122.113 15.3414 121.76 14.38C119.297 14.3714 116.833 14.3876 114.37 14.3714C113.99 15.3285 113.655 16.3028 113.286 17.2642C111.889 17.2621 110.494 17.2696 109.099 17.2599C110.14 14.5613 111.185 11.8627 112.226 9.16299C113.111 6.83771 114.049 4.53294 114.892 2.19256C114.325 1.46099 113.765 0.724019 113.188 0ZM117.986 3.74526C117.105 6.20433 116.202 8.65585 115.313 11.1117C117.098 11.1149 118.883 11.1149 120.667 11.1117C119.778 8.65477 118.887 6.19786 117.986 3.74526Z" fill="white"/>
</svg>
