<svg width="127" height="29" viewBox="0 0 127 29" fill="none" xmlns="http://www.w3.org/2000/svg">
<path d="M49.0722 2.08968C49.731 0.856661 51.0717 0.0081573 52.4816 0.0081573C55.8141 -0.00465997 59.144 0.0107211 62.4765 0.000467253C64.4965 -0.0149135 66.5242 0.349096 68.3853 1.1412C73.6019 3.25605 77.3394 8.56241 77.5009 14.1969C77.5342 17.7934 77.5112 21.3925 77.5112 24.9916C77.5368 26.0323 77.06 27.0039 76.3884 27.7729C74.4504 25.1044 72.7149 22.2231 70.2515 19.9929C72.7406 16.8706 72.7636 12.0846 70.2668 8.9623C68.6211 6.79618 65.9602 5.49395 63.2455 5.45294C61.1845 5.4555 59.1235 5.42474 57.065 5.46063C55.4834 5.47601 54.1222 6.80131 53.9761 8.36245C52.1663 7.78824 50.4283 7.00895 48.6005 6.48857C48.6749 5.02484 48.339 3.43806 49.0722 2.08968Z" fill="#309245"/>
<path d="M60.0208 11.4053C60.8949 10.5978 62.0459 10.0543 63.2584 10.1287C65.2681 10.1159 67.1061 11.7308 67.4214 13.7047C67.6163 14.7147 67.3753 15.7478 66.9267 16.6552C65.3245 15.2453 63.666 13.8893 61.8511 12.7639C61.2025 12.3614 60.5975 11.9 60.0208 11.4053Z" fill="#309245"/>
<path d="M53.9759 8.36247C54.1221 6.80133 55.4833 5.47602 57.0649 5.46064C59.1234 5.42476 61.1844 5.45552 63.2454 5.45295C65.9601 5.49397 68.621 6.7962 70.2667 8.96232C72.7635 12.0846 72.7404 16.8706 70.2513 19.9929C68.8414 21.7642 66.7804 23.0203 64.5271 23.3459C62.5763 23.6971 60.5666 23.2408 58.8081 22.3794C58.8055 24.3174 58.8183 26.2554 58.7978 28.1934C57.0495 27.5781 55.4064 26.6707 53.9708 25.4966C53.9683 19.7852 53.958 14.0713 53.9759 8.36247ZM60.0206 11.4053C58.5081 12.969 58.3825 15.6888 59.8693 17.3115C61.1408 18.8496 63.5171 19.2392 65.2423 18.2651C65.9473 17.9011 66.4625 17.2833 66.9265 16.6552C67.3751 15.7478 67.6161 14.7147 67.4213 13.7047C67.106 11.7309 65.268 10.1159 63.2582 10.1287C62.0457 10.0544 60.8947 10.5978 60.0206 11.4053Z" fill="#F4F4F5"/>
<path d="M1.8585 7.92144C3.6965 6.0655 6.70087 5.54768 9.0695 6.63202C9.95133 7.0473 10.7255 7.67535 11.3766 8.39824C13.0224 10.3131 13.271 13.297 11.9406 15.4477C10.9383 17.0268 9.26689 18.2214 7.393 18.4649C6.03181 18.6803 4.63729 18.4162 3.39145 17.8497C3.37607 20.1619 3.42478 22.4716 3.36838 24.7838C2.24559 24.7556 1.12279 24.789 0 24.7531C0.0179442 20.5516 -0.00256377 16.3475 0.00769005 12.146C-0.0281983 10.549 0.769036 9.04679 1.8585 7.92144ZM5.6678 9.46977C3.5914 9.89017 2.58909 12.7971 4.19381 14.2839C5.70369 15.9835 8.86443 15.2068 9.31816 12.9509C9.90006 10.8643 7.68524 8.89555 5.6678 9.46977Z" fill="#595A5A"/>
<path d="M17.3469 7.79837C18.7542 6.23466 21.0434 5.73992 23.0455 6.20134C25.045 6.72172 26.7189 8.36233 27.206 10.3798C27.4341 11.6051 27.3598 12.9509 26.6343 14.0071C24.9065 16.5398 23.1454 19.0519 21.4177 21.5872C23.2967 21.6359 25.1757 21.5616 27.0547 21.6282C27.065 22.6254 27.0675 23.6226 27.0598 24.6198C23.248 24.6044 19.4361 24.6454 15.6243 24.5967C17.5597 21.8153 19.4669 19.016 21.4125 16.2398C22.2687 15.0324 23.3095 13.9532 24.0606 12.6741C24.7425 11.2924 23.8453 9.59023 22.4277 9.14931C20.8101 8.50845 18.826 9.92347 18.9132 11.6589C18.8952 12.0819 19.0439 12.4869 19.1644 12.8868C18.0647 12.9202 16.9521 13.0406 15.8575 12.8612C15.5397 11.0591 16.0088 9.09292 17.3469 7.79837Z" fill="#595A5A"/>
<path d="M35.0373 6.76277C36.3677 6.03731 37.9571 5.94502 39.4234 6.227C41.4946 6.72431 43.3172 8.30084 44.0119 10.3285C44.5887 11.9461 44.4298 13.8148 43.5685 15.3016C42.5379 17.0473 40.6846 18.3239 38.6492 18.5034C37.3777 18.6546 36.1037 18.3573 34.9424 17.8523C34.9219 20.1645 34.9937 22.4793 34.9065 24.789C33.7991 24.7582 32.6917 24.7582 31.5869 24.7915C31.4997 20.6669 31.5766 16.5398 31.5484 12.4152C31.4459 10.0594 32.9429 7.78559 35.0373 6.76277ZM36.9753 9.52873C36.137 9.85173 35.3808 10.5285 35.0962 11.3975C34.5554 12.8279 35.4167 14.448 36.7984 14.9966C38.603 15.7989 40.905 14.4326 40.946 12.4357C41.1409 10.3952 38.8363 8.86993 36.9753 9.52873Z" fill="#595A5A"/>
<path d="M82.3484 5.96547C83.4738 5.96803 84.5991 5.94752 85.7271 5.98085C85.7142 8.28283 85.7245 10.5822 85.7194 12.8817C87.2395 12.1665 89.0108 11.9768 90.6284 12.4561C93.056 13.2072 94.9991 15.481 95.1067 18.0624C95.4195 21.4154 92.4536 24.5428 89.1313 24.6274C85.7142 24.9837 82.3048 22.0281 82.3459 18.5623C82.3459 14.3633 82.3433 10.1644 82.3484 5.96547ZM87.7317 15.6912C86.5474 16.0885 85.6783 17.3113 85.7399 18.5674C85.7476 20.0542 87.137 21.3257 88.5981 21.3334C90.2439 21.5 91.8435 19.9696 91.6845 18.3111C91.7204 16.3859 89.4774 15.0375 87.7317 15.6912Z" fill="#595A5A"/>
<path d="M99.0953 8.56749C100.267 6.80896 102.425 5.8169 104.525 6.06812C108.047 6.25525 110.915 10.4696 109.134 13.7072C107.393 16.3681 105.537 18.9572 103.748 21.5873C105.563 21.6334 107.378 21.5719 109.193 21.6155C109.252 21.6667 109.367 21.7693 109.426 21.8205C109.462 22.7383 109.408 23.6585 109.452 24.5788C105.627 24.6711 101.797 24.5942 97.97 24.6173C100.551 20.8798 103.017 17.05 105.858 13.4996C106.414 12.8408 106.778 11.9641 106.558 11.0951C106.191 9.25962 103.653 8.31114 102.236 9.60569C101.172 10.3747 101.059 11.7923 101.428 12.9612C100.364 12.8587 99.2902 13.033 98.2314 12.8613C98.0289 11.3873 98.1674 9.78769 99.0953 8.56749Z" fill="#595A5A"/>
<path d="M114.223 5.96547C115.361 5.99111 116.507 5.89369 117.64 6.03468C117.54 8.31616 117.622 10.5976 117.665 12.8791C119.757 11.8307 122.451 11.9614 124.34 13.3815C126.912 15.0914 127.819 18.8545 126.168 21.4923C125.035 23.397 122.905 24.6787 120.67 24.6377C117.365 24.8069 114.205 21.9153 114.22 18.5802C114.22 14.3736 114.215 10.1695 114.223 5.96547ZM119.752 15.6451C118.498 15.9835 117.522 17.2677 117.627 18.5777C117.611 20.126 119.137 21.4257 120.652 21.3359C122.341 21.4103 123.83 19.7235 123.561 18.0547C123.374 16.309 121.4 15.1401 119.752 15.6451Z" fill="#595A5A"/>
<path d="M48.6007 6.48859C50.4285 7.00897 52.1665 7.78826 53.9763 8.36247C53.9583 14.0713 53.9686 19.7852 53.9712 25.4966C50.7156 22.8101 48.6725 18.6958 48.5981 14.4661C48.6033 11.8078 48.5981 9.14689 48.6007 6.48859Z" fill="#44A257"/>
<path d="M59.8694 17.3115C58.3826 15.6888 58.5082 12.969 60.0206 11.4053C60.5974 11.9 61.2024 12.3614 61.8509 12.7639C63.6658 13.8893 65.3244 15.2453 66.9265 16.6552C66.4626 17.2833 65.9473 17.9011 65.2424 18.2651C63.5172 19.2392 61.1408 18.8495 59.8694 17.3115Z" fill="#44A257"/>
<path d="M70.2514 19.9929C72.7148 22.2231 74.4503 25.1044 76.3883 27.773C75.6705 28.4472 74.7451 28.9137 73.7479 28.9394C71.6972 28.9624 69.6438 28.9368 67.5931 28.9471C64.6528 28.9086 61.6253 29.1957 58.7979 28.1934C58.8184 26.2554 58.8055 24.3175 58.8081 22.3795C60.5666 23.2408 62.5764 23.6971 64.5272 23.3459C66.7805 23.0204 68.8415 21.7643 70.2514 19.9929Z" fill="#44A257"/>
</svg>
