<svg width="65" height="52" viewBox="0 0 65 52" fill="none" xmlns="http://www.w3.org/2000/svg">
<path d="M31.6471 0H31.8066C32.5649 0.0464286 33.2048 0.497257 33.8514 0.849845C34.527 1.23069 35.1992 1.6176 35.8654 2.0146C36.2153 2.20906 36.5847 2.40285 36.8296 2.73121C37.158 3.15849 37.2105 3.72236 37.2078 4.24317C37.2091 4.55067 37.0328 4.86154 36.7415 4.97795C36.5288 5.06408 36.2974 4.9766 36.1197 4.85347C35.4381 4.37774 34.6979 3.99622 33.9927 3.55885C32.7715 2.82743 31.5556 2.08727 30.3242 1.37267C30.156 1.28116 29.9999 1.16542 29.8828 1.01201C30.0685 0.769099 30.3249 0.598861 30.5678 0.419876C30.8841 0.190424 31.2541 0.0282609 31.6471 0Z" fill="#F1F1F1"/>
<path d="M25.0109 0.724142C25.6071 0.2538 26.4213 0.068759 27.1601 0.250436C27.9238 0.425384 28.5893 0.97378 28.9049 1.69107C29.0792 2.05913 29.1249 2.47093 29.1424 2.87331C31.2303 4.15447 33.3539 5.37777 35.5018 6.5553C35.8799 6.76995 36.2985 6.95095 36.577 7.2995C36.861 7.64536 36.9283 8.10898 36.9444 8.54231C36.9686 9.53009 36.9209 10.5179 36.933 11.5063C36.9404 11.7385 36.9054 11.9948 36.7298 12.1637C36.2473 12.6778 35.7649 13.1919 35.2831 13.7066C35.0583 13.0021 34.4588 12.441 33.7422 12.2586C34.1177 11.8556 34.5019 11.4606 34.8699 11.0501C35.0785 10.8274 35.0469 10.4963 34.9493 10.2312C34.8074 9.75214 34.8094 9.23739 34.6176 8.77311C34.5052 8.49925 34.2711 8.30075 34.0181 8.16146C32.0465 7.04179 30.0844 5.90463 28.1243 4.76545C27.5551 5.19542 26.8021 5.38315 26.101 5.23646C25.231 5.08103 24.4773 4.43103 24.1826 3.59935C23.8011 2.59272 24.1517 1.3728 25.0109 0.724142ZM26.3762 1.07606C25.8036 1.13796 25.2828 1.52419 25.0506 2.04971C24.8077 2.5833 24.8764 3.24676 25.2269 3.71778C25.6091 4.25675 26.3311 4.52456 26.9717 4.35768C27.8377 4.16524 28.4386 3.2037 28.2004 2.34309C28.0248 1.539 27.1924 0.957631 26.3762 1.07606Z" fill="#F1F1F1"/>
<path d="M38.2854 2.94928C38.683 2.10751 39.5739 1.52008 40.5079 1.50999C41.0691 1.48577 41.6309 1.66475 42.0838 1.99379C42.7459 2.47355 43.1563 3.28437 43.1274 4.10393C43.1388 5.1294 42.437 6.08556 41.4903 6.45093C41.4129 8.98903 41.421 11.5291 41.4809 14.0672C41.5078 14.6372 41.246 15.2057 40.769 15.5267C40.0227 16.0428 39.2045 16.4425 38.4233 16.9021C38.1629 17.036 37.9227 17.2109 37.6502 17.3206C37.3992 17.3704 37.1435 17.3051 36.9013 17.2432C36.3105 17.1066 35.7197 16.9687 35.1289 16.8355C35.6134 16.2803 35.8031 15.485 35.6006 14.7738C36.1826 14.9023 36.7606 15.0564 37.3467 15.1647C37.6899 15.2185 37.9126 14.9272 38.1299 14.7179C38.457 14.3983 38.8708 14.1648 39.1366 13.7846C39.294 13.5518 39.3452 13.2652 39.3364 12.9879C39.3256 10.7547 39.3357 8.52138 39.3458 6.2881C38.6279 5.88571 38.1138 5.12604 38.0499 4.30109C38.0021 3.84017 38.0781 3.36511 38.2854 2.94928ZM40.0651 2.47019C39.5558 2.63504 39.1366 3.05559 38.9858 3.56967C38.7914 4.17055 38.9879 4.87169 39.4562 5.29224C39.8404 5.65223 40.4049 5.80833 40.9197 5.69529C41.4264 5.59503 41.8725 5.24177 42.0939 4.77614C42.32 4.31253 42.3004 3.74462 42.0643 3.28841C41.7117 2.57717 40.8161 2.20844 40.0651 2.47019Z" fill="#F1F1F1"/>
<path d="M23.7166 5.15428C24.1385 5.01702 24.5995 5.08969 24.9958 5.27271C25.2979 5.41469 25.6397 5.55465 25.8113 5.86148C25.9378 6.09766 25.9493 6.44083 25.7252 6.62385C25.485 6.82369 25.1748 6.90511 24.909 7.06324C23.1434 8.04698 21.3495 8.97825 19.5825 9.9593C19.4096 10.0495 19.238 10.1632 19.0388 10.18C18.9527 10.139 18.9204 10.0475 18.9083 9.95998C18.8268 9.41293 18.732 8.83156 18.9527 8.30402C19.1734 7.75765 19.672 7.39833 20.1605 7.10697C21.0097 6.6077 21.8662 6.12054 22.7336 5.65221C23.0599 5.48467 23.3614 5.26262 23.7166 5.15428Z" fill="#F1F1F1"/>
<path d="M43.3794 6.39211C43.3767 6.21851 43.4056 6.04692 43.4547 5.8814C43.7111 5.85852 43.9365 5.99848 44.1673 6.08864C44.5731 6.25821 44.9727 6.49775 45.217 6.87524C45.5077 7.30722 45.5581 7.84284 45.5837 8.34884C45.6133 9.60241 45.5925 10.8573 45.5837 12.1109C45.5622 12.5207 45.4162 12.9305 45.1255 13.2265C44.8799 13.4809 44.5852 13.6875 44.2716 13.8496C43.9527 14.0071 43.479 13.9452 43.308 13.6033C43.1701 13.2541 43.3 12.876 43.2899 12.5146C43.3006 10.4731 43.3713 8.43295 43.3794 6.39211Z" fill="#F1F1F1"/>
<path d="M27.0404 7.93713C27.4098 7.71373 27.8526 7.55628 28.2866 7.65317C28.8471 7.77698 29.3228 8.11611 29.812 8.39872C30.4707 8.79639 31.1288 9.19541 31.7875 9.59308C31.9107 9.66508 32.0183 9.77206 32.0567 9.9127C32.2686 10.6071 32.4624 11.3069 32.6717 12.002C31.9484 11.8385 31.1671 12.0733 30.6376 12.5874C30.4774 12.0585 30.3382 11.5236 30.1679 10.9987C30.071 10.735 29.8012 10.6051 29.5428 10.5546C29.0819 10.4449 28.662 10.2074 28.2004 10.1018C27.9057 10.0325 27.5901 10.085 27.3277 10.233C25.3326 11.3661 23.3322 12.4912 21.3243 13.6014C21.3835 14.1707 21.2698 14.7601 20.963 15.2466C20.5767 15.8778 19.9052 16.3272 19.1718 16.4315C18.4316 16.5506 17.6443 16.3151 17.0905 15.8105C16.561 15.3395 16.2387 14.639 16.2461 13.9291C16.2219 13.1035 16.6565 12.2933 17.3308 11.825C18.1591 11.2295 19.3359 11.2174 20.1865 11.7759C22.5079 10.564 24.7869 9.27144 27.0404 7.93713ZM18.402 12.2906C17.647 12.4649 17.0737 13.2125 17.1255 13.9897C17.1457 14.6814 17.6416 15.326 18.3071 15.5171C18.9389 15.7237 19.6757 15.4902 20.0896 14.9748C20.4765 14.5132 20.5781 13.8389 20.3432 13.2845C20.0532 12.5329 19.1805 12.0928 18.402 12.2906Z" fill="#F1F1F1"/>
<path d="M27.0724 13.1343C27.2884 13.0152 27.532 12.8867 27.7863 12.958C28.474 13.1181 29.1624 13.2776 29.8507 13.4384C29.3622 13.9929 29.1738 14.7869 29.3656 15.5008C28.8656 15.377 28.363 15.2666 27.8617 15.1482C27.6323 15.0863 27.3624 15.1038 27.1814 15.272C27.0186 15.4221 26.8712 15.5883 26.699 15.7289C26.3995 15.988 26.0503 16.2026 25.8236 16.5343C25.6722 16.7571 25.619 17.0309 25.6244 17.2967C25.6244 19.5307 25.5975 21.7653 25.5652 23.9992C26.0954 24.2509 26.5395 24.6829 26.7925 25.2131C27.1115 25.8759 27.1283 26.6807 26.8241 27.3522C26.5456 27.978 26.0066 28.4826 25.3599 28.7114C24.7167 28.9476 23.9765 28.9065 23.3635 28.599C22.7418 28.2949 22.2587 27.7236 22.0588 27.0615C21.8119 26.2736 21.9767 25.3699 22.5009 24.7286C22.7425 24.4084 23.0796 24.185 23.4214 23.9865C23.5223 21.3986 23.5297 18.8066 23.4941 16.2167C23.4947 15.8218 23.5936 15.4086 23.8574 15.1038C24.1528 14.7593 24.5586 14.5393 24.9468 14.3152C25.6547 13.9215 26.3646 13.5293 27.0724 13.1343ZM24.1272 24.6802C23.3218 24.8518 22.729 25.6821 22.8447 26.501C22.9167 27.3172 23.673 28.0015 24.4946 27.978C25.2711 28.0042 26.0005 27.4033 26.1405 26.6423C26.2582 26.1027 26.0712 25.5119 25.6809 25.1243C25.2859 24.7212 24.6756 24.5483 24.1272 24.6802Z" fill="#F1F1F1"/>
<path d="M31.8519 13.0228C32.3451 12.8714 32.8323 13.1257 33.3154 13.2045C33.744 13.267 34.1491 13.547 34.2938 13.9655C34.4102 14.3194 34.5037 14.6801 34.6127 15.0367C34.7358 15.4149 34.6403 15.8502 34.3772 16.1476C34.1659 16.3811 33.9439 16.6052 33.7312 16.838C33.4567 17.1691 33.0079 17.3777 32.5772 17.2794C32.1964 17.1919 31.8142 17.1105 31.436 17.0143C31.0047 16.8972 30.6959 16.5103 30.6064 16.0817C30.5014 15.5939 30.2148 15.1101 30.35 14.6C30.4388 14.2239 30.7551 13.9783 31 13.7031C31.2517 13.442 31.4811 13.1183 31.8519 13.0228Z" fill="#F1F1F1"/>
<path d="M44.4894 14.8861C45.0889 14.3539 45.9508 14.121 46.7327 14.3101C47.7609 14.5268 48.5939 15.4426 48.7022 16.4882C48.7951 17.1847 48.5784 17.9127 48.1195 18.4436C47.5435 19.1353 46.5807 19.4852 45.6972 19.3009C45.2336 19.2174 44.8056 18.9907 44.4544 18.6805C42.281 19.8479 40.1439 21.0806 38.0344 22.3577C37.7417 22.5313 37.4214 22.6875 37.0742 22.6928C36.6268 22.7117 36.2156 22.4984 35.8341 22.2891C35.0139 21.8161 34.2044 21.3255 33.3889 20.8451C33.1742 20.7052 32.9408 20.5336 32.8869 20.2664C32.6918 19.5962 32.4973 18.9261 32.2988 18.2579C33.0195 18.4389 33.7987 18.1913 34.3329 17.688C34.5005 18.2249 34.6458 18.7686 34.814 19.3056C34.8975 19.5525 35.135 19.712 35.3867 19.7503C35.8779 19.8533 36.3226 20.1036 36.8105 20.218C37.1294 20.3034 37.4659 20.216 37.7444 20.0525C39.6985 18.9214 41.6599 17.8037 43.6247 16.6928C43.6503 16.0051 43.9706 15.3369 44.4894 14.8861ZM45.7248 15.1862C45.1737 15.3369 44.7168 15.7905 44.5667 16.3429C44.4059 16.8671 44.5432 17.4639 44.8978 17.8784C45.3405 18.4106 46.1292 18.6226 46.7738 18.3602C47.5173 18.0924 47.987 17.2466 47.8114 16.4734C47.6586 15.5455 46.6257 14.9036 45.7248 15.1862Z" fill="#F1F1F1"/>
<path d="M20.8662 16.3612C21.208 16.2556 21.6743 16.442 21.714 16.8343C21.7483 17.166 21.6635 17.4964 21.6729 17.8288C21.6568 19.7808 21.5612 21.7308 21.5424 23.6821C21.5404 23.8833 21.5424 24.0872 21.4946 24.2844C21.4684 24.4284 21.2961 24.4008 21.1992 24.3617C20.6663 24.1518 20.091 23.9277 19.7472 23.4433C19.4498 23.0288 19.371 22.5019 19.3556 22.0033C19.336 20.7248 19.363 19.445 19.373 18.1666C19.3966 17.6828 19.6086 17.207 19.9854 16.8962C20.2532 16.6822 20.5317 16.4574 20.8662 16.3612Z" fill="#F1F1F1"/>
<path d="M29.6948 16.5703C29.9188 17.2768 30.5231 17.8306 31.237 18.019C30.842 18.4396 30.4403 18.8541 30.0554 19.2827C29.756 19.6602 30.0541 20.1184 30.0965 20.5275C30.1907 21.0927 30.2257 21.7838 30.7815 22.1061C32.7611 23.2587 34.7373 24.4167 36.7109 25.5788C37.2868 25.2289 38.0008 25.1078 38.6555 25.2767C39.4226 25.4604 40.0853 26.0229 40.3935 26.7483C40.8356 27.7253 40.5611 28.9587 39.7496 29.6591C39.1797 30.1705 38.3702 30.408 37.6159 30.2674C36.9107 30.1483 36.2688 29.7123 35.8933 29.1047C35.5703 28.596 35.4472 27.9695 35.5347 27.3747C33.3539 26.0094 31.1233 24.7256 28.8772 23.4713C28.388 23.2103 28.0583 22.6975 28.0267 22.1424C27.9594 21.1802 28.0281 20.2139 28.026 19.2504C28.0442 18.8931 27.9709 18.4867 28.1963 18.1792C28.6915 17.6388 29.1989 17.11 29.6948 16.5703ZM37.7962 26.1023C37.2027 26.1837 36.6779 26.6177 36.4767 27.1803C36.2923 27.6701 36.365 28.2454 36.6564 28.6787C36.9645 29.1491 37.5237 29.4465 38.0869 29.4243C38.6252 29.4149 39.148 29.1269 39.4434 28.6761C39.8505 28.0799 39.7953 27.22 39.323 26.6763C38.959 26.2349 38.3608 26.0121 37.7962 26.1023Z" fill="#F1F1F1"/>
<path d="M45.7718 20.13C45.8977 20.0453 46.0908 20.0594 46.1029 20.2424C46.2139 20.8298 46.3081 21.4778 46.045 22.0397C45.8263 22.5087 45.4018 22.8364 44.9731 23.1042C44.0163 23.6801 43.0467 24.2346 42.069 24.7742C41.7353 24.9815 41.3759 25.1793 40.9762 25.2049C40.4844 25.2432 40.0194 25.0299 39.6036 24.7924C39.3284 24.637 39.1198 24.3389 39.1541 24.0125C39.179 23.7683 39.3896 23.6034 39.5968 23.5059C40.302 23.1802 40.9588 22.7617 41.6444 22.3976C43.0252 21.6514 44.3958 20.8837 45.7718 20.13Z" fill="#F1F1F1"/>
<path d="M28.1571 25.3491C28.4202 25.2361 28.6866 25.3929 28.8959 25.5436C29.2888 25.8296 29.7188 26.0577 30.132 26.3113C31.5046 27.1376 32.8632 27.9868 34.2392 28.8077C34.4862 28.9746 34.7963 29.0802 34.9693 29.3346C34.9659 29.4544 34.8509 29.5264 34.7715 29.6004C34.3738 29.9065 33.9627 30.2403 33.454 30.3298C32.8948 30.4394 32.3417 30.2181 31.8559 29.9624C30.7147 29.3299 29.5916 28.6637 28.478 27.9848C27.9168 27.6268 27.6914 26.9432 27.6955 26.3053C27.6517 25.9365 27.7856 25.4978 28.1571 25.3491Z" fill="#F1F1F1"/>
<path d="M41.4098 36.2386C41.8492 36.2259 42.2886 36.2366 42.728 36.2333C43.3147 36.2386 43.919 36.1902 44.4855 36.3799C45.3542 36.6437 46.0944 37.3092 46.416 38.1624C46.7605 38.99 46.6172 39.9018 46.6482 40.7732C46.6771 41.6667 46.3507 42.5859 45.694 43.2049C45.1214 43.7533 44.3274 44.0481 43.5381 44.0508C42.8861 44.0528 42.2334 44.0514 41.5814 44.0514C40.8035 44.0561 40.0183 43.783 39.4376 43.2601C38.9323 42.8086 38.5992 42.1781 38.4781 41.514C38.4047 41.1621 38.433 40.8001 38.4276 40.4435C38.435 39.6575 38.3401 38.8306 38.6826 38.0944C39.1193 37.0044 40.2477 36.2736 41.4098 36.2386ZM41.3856 37.6268C40.7598 37.6618 40.1582 38.0675 39.9362 38.6617C39.7478 39.1206 39.811 39.6246 39.801 40.1077C39.8124 40.6763 39.7276 41.2879 40.021 41.8054C40.3144 42.3719 40.961 42.6774 41.5827 42.6754C42.2334 42.6747 42.8841 42.6774 43.5347 42.674C44.1531 42.664 44.789 42.3416 45.0642 41.7697C45.328 41.2785 45.2593 40.7079 45.2674 40.1723C45.2553 39.6313 45.334 39.058 45.0837 38.5554C44.8186 37.9626 44.1686 37.6086 43.5314 37.6174C42.8161 37.6174 42.1002 37.6019 41.3856 37.6268Z" fill="#EBC42A"/>
<path d="M50.6926 36.2428C51.1326 36.2226 51.574 36.238 52.0148 36.2333C52.6224 36.2414 53.2482 36.1842 53.8356 36.38C54.7265 36.6505 55.4828 37.3436 55.793 38.2271C56.0917 38.9975 55.9753 39.8353 55.9989 40.6414C56.0191 41.2416 55.9269 41.8573 55.6476 42.3942C55.2648 43.1653 54.5266 43.7393 53.6936 43.9452C53.1237 44.104 52.5282 44.038 51.9448 44.0522C51.2302 44.038 50.49 44.1235 49.8064 43.8618C48.9323 43.5657 48.2312 42.8397 47.9445 41.9656C47.7164 41.3264 47.7763 40.6393 47.7682 39.9739C47.7581 39.336 47.7642 38.6745 48.0367 38.0838C48.4694 37.0226 49.5567 36.2993 50.6926 36.2428ZM50.7376 37.6269C50.2949 37.6551 49.8616 37.857 49.5709 38.1955C49.2768 38.5312 49.1463 38.9854 49.1523 39.4268C49.1537 39.9449 49.1476 40.4637 49.1557 40.9825C49.1665 41.6056 49.5197 42.2334 50.1011 42.4911C50.6751 42.7703 51.3284 42.6499 51.9434 42.6755C52.4589 42.6539 52.9938 42.7434 53.4904 42.5631C53.9015 42.4265 54.2534 42.1217 54.4365 41.7281C54.68 41.2443 54.6107 40.6918 54.6202 40.1703C54.608 39.63 54.6874 39.0567 54.4351 38.5554C54.1693 37.966 53.5247 37.6114 52.8895 37.6181C52.1722 37.6168 51.4543 37.602 50.7376 37.6269Z" fill="#EBC42A"/>
<path d="M28.1959 37.006C28.1771 36.7154 28.3278 36.4105 28.601 36.2908C28.9159 36.1495 29.3277 36.2753 29.4885 36.5868C30.5355 38.3982 31.5738 40.215 32.6208 42.0264C33.6462 40.2359 34.6784 38.4494 35.7052 36.6595C35.8297 36.3978 36.1029 36.204 36.401 36.2322C36.7637 36.2403 37.0712 36.5808 37.0544 36.9408C37.053 39.2783 37.0624 41.6159 37.0496 43.9535C36.5901 43.9474 36.1305 43.9515 35.6716 43.9501C35.6662 42.4442 35.6776 40.9383 35.6655 39.4331C34.8332 40.8502 34.0399 42.2908 33.2196 43.7153C33.0252 44.0901 32.4599 44.1628 32.1592 43.8795C32.034 43.7503 31.9613 43.5834 31.8712 43.4314C31.1075 42.0937 30.3458 40.7553 29.58 39.419C29.576 40.9296 29.5807 42.4402 29.578 43.9508C29.1171 43.9501 28.6575 43.9501 28.1973 43.9508C28.1946 41.6354 28.1966 39.3207 28.1959 37.006Z" fill="#EBC42A"/>
<path d="M57.6011 36.406C57.8629 36.1577 58.3178 36.1813 58.556 36.4511C60.2328 38.1972 61.9069 39.9467 63.5824 41.6948C63.5851 39.9083 63.5824 38.1225 63.5837 36.336C64.0554 36.336 64.5278 36.3354 65.0001 36.3367V43.408C64.9207 43.7498 64.6381 44.0802 64.2593 44.0519C63.9047 44.0634 63.6887 43.7464 63.4673 43.5217C61.8901 41.8785 60.3223 40.2259 58.7376 38.5895C58.7336 40.3767 58.7383 42.1638 58.735 43.951C58.2774 43.9503 57.8205 43.9503 57.363 43.951C57.3603 41.6349 57.3636 39.3189 57.3616 37.0028C57.3495 36.7801 57.4249 36.55 57.6011 36.406Z" fill="#EBC42A"/>
<path d="M0 36.9618C0.0390269 36.6274 0.319617 36.334 0.666822 36.3407C1.88137 36.3286 3.09591 36.3401 4.31046 36.3354C4.84607 36.3307 5.38975 36.4195 5.87355 36.6563C6.65409 37.019 7.24286 37.743 7.47567 38.5673C7.61361 39.0208 7.61227 39.5006 7.61092 39.9696C7.60823 40.3948 7.62505 40.8214 7.57459 41.2447C7.47635 42.0252 7.07666 42.7687 6.45963 43.2613C5.87422 43.731 5.11858 43.9611 4.37236 43.951C3.1383 43.9476 1.90492 43.9557 0.671532 43.947C0.333747 43.9496 0.0504658 43.6751 0 43.3488V36.9618ZM1.38209 37.7188C1.38209 39.3357 1.38276 40.952 1.38209 42.5682C2.41698 42.5682 3.45254 42.5716 4.48742 42.5669C5.10243 42.5581 5.73292 42.2405 6.0162 41.6787C6.33178 41.0886 6.19788 40.4016 6.22748 39.7623C6.25305 39.2557 6.16222 38.7126 5.81972 38.3183C5.48597 37.9146 4.95642 37.7181 4.44099 37.7201C3.42158 37.7161 2.40217 37.7201 1.38209 37.7188Z" fill="#EBC42A"/>
<path d="M9.29553 36.4123C9.50143 36.312 9.73762 36.3396 9.95967 36.3356C11.9177 36.3376 13.8765 36.3356 15.8352 36.3362C15.8352 36.7972 15.8346 37.2574 15.8352 37.7183C13.9929 37.7197 12.1506 37.7177 10.3082 37.7197C10.3102 39.1435 10.3082 40.5673 10.3089 41.9911C10.3075 42.1465 10.3345 42.3181 10.4562 42.4278C10.5727 42.5415 10.7422 42.5711 10.899 42.5698C12.5442 42.5691 14.19 42.5691 15.8352 42.5698C15.8346 43.03 15.8359 43.4903 15.8346 43.9505C14.1665 43.9499 12.4991 43.9519 10.8317 43.9499C10.1609 43.9378 9.48663 43.5899 9.16096 42.9897C8.97861 42.6896 8.92882 42.3323 8.92882 41.9864C8.92882 40.3506 8.92882 38.7149 8.92882 37.0798C8.91401 36.8113 9.05195 36.5347 9.29553 36.4123Z" fill="#EBC42A"/>
<path d="M17.5099 36.427C17.7091 36.3146 17.9466 36.3362 18.1667 36.3348C20.1368 36.3368 22.107 36.3341 24.0766 36.3355C24.0759 36.7964 24.0772 37.2573 24.0759 37.7183C22.2335 37.7183 20.3912 37.7183 18.5489 37.7183C18.5455 39.7961 18.5556 41.8746 18.5435 43.9525C18.0866 43.9471 17.6297 43.9511 17.1722 43.9498C17.1708 41.6586 17.1721 39.3675 17.1715 37.0763C17.154 36.8186 17.2852 36.5569 17.5099 36.427Z" fill="#EBC42A"/>
<path d="M25.2026 36.3361C25.6622 36.3361 26.1224 36.3354 26.5827 36.3368C26.5827 38.8742 26.5827 41.4123 26.5827 43.9504C26.1224 43.9511 25.6628 43.9504 25.2033 43.9511C25.2012 41.4123 25.2026 38.8742 25.2026 36.3361Z" fill="#EBC42A"/>
<path d="M10.862 39.4489C12.3147 39.4476 13.7668 39.4496 15.2196 39.4482C15.2216 39.9112 15.2202 40.3741 15.2202 40.8371C13.7675 40.8364 12.3147 40.8384 10.8613 40.8357C10.8633 40.3734 10.862 39.9112 10.862 39.4489Z" fill="#EBC42A"/>
<path d="M19.104 39.4482C20.5574 39.4489 22.0115 39.4482 23.4649 39.4489C23.4649 39.9112 23.4649 40.3741 23.4656 40.8371C22.0115 40.8371 20.5574 40.8371 19.104 40.8371C19.1033 40.3741 19.1033 39.9112 19.104 39.4482Z" fill="#EBC42A"/>
<path d="M18.3633 47.9651C18.5026 47.9644 18.6419 47.9651 18.7818 47.9658C18.7798 48.4779 18.7872 48.9906 18.7778 49.5033C19.1687 48.9637 19.9916 48.8836 20.5225 49.2544C21.2338 49.7543 21.3011 50.909 20.6881 51.5119C20.4761 51.7353 20.1753 51.8429 19.8752 51.8793H19.6646C19.3114 51.8692 18.9931 51.6848 18.7778 51.4109C18.7805 51.5509 18.7818 51.6922 18.7832 51.8335C18.6432 51.8335 18.5032 51.8342 18.3633 51.8348C18.3633 50.5449 18.3633 49.255 18.3633 47.9651ZM19.415 49.4421C18.7273 49.6527 18.5712 50.6095 18.9662 51.1451C19.2865 51.6027 20.034 51.6236 20.4055 51.2198C20.8314 50.7703 20.787 49.936 20.2716 49.5713C20.0266 49.393 19.701 49.3728 19.415 49.4421Z" fill="#EBC42A"/>
<path d="M42.0645 49.7328C42.2058 49.292 42.6526 49.0209 43.1041 49.0195C43.1047 49.1561 43.1054 49.2934 43.1074 49.4313C42.5436 49.4105 42.0954 49.9212 42.0719 50.4608C42.0551 50.9177 42.0699 51.376 42.0651 51.8342C41.9238 51.8335 41.7832 51.8335 41.6426 51.8342C41.6426 50.9144 41.6426 49.9945 41.6426 49.0747C41.7832 49.074 41.9238 49.074 42.0651 49.0754C42.0638 49.2941 42.0672 49.5134 42.0645 49.7328Z" fill="#EBC42A"/>
<path d="M22.0975 49.9618C22.2341 49.4915 22.6526 49.11 23.1425 49.0501C23.6297 48.9639 24.1794 49.1221 24.4782 49.5339C24.7265 49.8373 24.7729 50.2397 24.7702 50.6179C23.9917 50.6212 23.2125 50.6125 22.434 50.6226C22.5019 50.85 22.5753 51.0929 22.7623 51.2544C23.1829 51.6561 23.9668 51.5687 24.2447 51.0391C24.3947 51.0378 24.5441 51.0371 24.6948 51.0398C24.5078 51.496 24.0879 51.8526 23.5832 51.8788H23.2858C22.9763 51.8418 22.6681 51.7275 22.4467 51.502C22.037 51.1151 21.9407 50.486 22.0975 49.9618ZM22.6789 49.7223C22.5524 49.8643 22.5006 50.0513 22.4447 50.2289C23.0786 50.235 23.7131 50.233 24.347 50.2296C24.2951 50.0627 24.2528 49.8865 24.1377 49.7499C23.7999 49.2963 23.0348 49.2869 22.6789 49.7223Z" fill="#EBC42A"/>
<path d="M27.8786 49.1382C28.287 48.9888 28.7688 48.9801 29.1671 49.1671C29.4235 49.2869 29.5527 49.5507 29.6233 49.8104C29.484 49.8111 29.3454 49.8117 29.2075 49.8111C29.1368 49.6617 29.0588 49.4914 28.8852 49.4423C28.6187 49.3622 28.3179 49.3582 28.0562 49.4564C27.8193 49.5466 27.7702 49.9248 28.0077 50.0432C28.4606 50.2935 29.0386 50.2262 29.4585 50.5505C29.8003 50.8069 29.7539 51.3883 29.4275 51.6386C29.2257 51.8021 28.9626 51.8546 28.7109 51.8795H28.4021C27.8947 51.8532 27.4022 51.4986 27.3477 50.9698C27.4903 50.9677 27.633 50.9677 27.7763 50.9691C27.8389 51.2032 27.9896 51.4239 28.2372 51.4859C28.5259 51.5504 28.8542 51.5444 29.1173 51.3957C29.3239 51.2759 29.3434 50.9321 29.1241 50.8157C28.6665 50.5431 28.0636 50.6286 27.6417 50.2801C27.2689 49.9705 27.4345 49.2956 27.8786 49.1382Z" fill="#EBC42A"/>
<path d="M31.2078 49.2412C31.7609 48.8927 32.5824 48.9653 33.0117 49.4801C33.2903 49.7883 33.3536 50.2169 33.3522 50.6179C32.573 50.6206 31.7938 50.6139 31.0146 50.6213C31.0772 50.8427 31.1452 51.0775 31.3222 51.2383C31.7393 51.6575 32.5421 51.5754 32.8254 51.0385C32.9747 51.0371 33.1241 51.0378 33.2742 51.0398C33.0797 51.4981 32.6565 51.8634 32.1431 51.8789H31.8779C31.6041 51.8466 31.3289 51.7638 31.1162 51.5828C30.3983 51.0183 30.4366 49.7425 31.2078 49.2412ZM31.2414 49.7412C31.123 49.8798 31.0765 50.0594 31.0254 50.2304C31.6599 50.2324 32.2938 50.2364 32.9276 50.2283C32.8718 50.0514 32.82 49.8657 32.6948 49.723C32.3409 49.2903 31.5839 49.2964 31.2414 49.7412Z" fill="#EBC42A"/>
<path d="M34.7228 49.3305C35.1185 48.9907 35.7086 48.953 36.1809 49.14C36.5308 49.28 36.7778 49.5929 36.909 49.9381C36.761 49.9387 36.6136 49.9394 36.4656 49.9387C36.3451 49.7308 36.189 49.5216 35.9481 49.4475C35.6211 49.3567 35.2355 49.4105 34.9832 49.6501C34.5438 50.0504 34.5344 50.8195 34.959 51.234C35.2154 51.4924 35.6238 51.5617 35.9643 51.4554C36.1971 51.3767 36.3458 51.1708 36.4662 50.9689C36.6136 50.9669 36.7623 50.9676 36.9103 50.9689C36.7421 51.4662 36.2852 51.8349 35.7604 51.8793H35.461C35.2019 51.8437 34.9408 51.7643 34.7403 51.59C34.0674 51.0463 34.0647 49.8863 34.7228 49.3305Z" fill="#EBC42A"/>
<path d="M37.9413 49.0739C38.0772 49.0732 38.2131 49.0732 38.3497 49.0739C38.3645 49.6741 38.3214 50.277 38.3719 50.8752C38.4224 51.3065 38.8819 51.5925 39.2964 51.4895C39.6578 51.431 39.9518 51.0993 39.9559 50.7312C39.9707 50.1788 39.9559 49.6257 39.9619 49.0732C40.1005 49.0732 40.2398 49.0746 40.3791 49.0759C40.3798 49.9951 40.3798 50.9142 40.3798 51.8334C40.2391 51.8334 40.0992 51.8341 39.9599 51.8347C39.9612 51.6948 39.9619 51.5541 39.9659 51.4155C39.7533 51.6537 39.4835 51.8724 39.1477 51.8791H38.9889C38.4244 51.867 37.9547 51.3617 37.9487 50.8052C37.9298 50.2286 37.9466 49.6512 37.9413 49.0739Z" fill="#EBC42A"/>
<path d="M44.6385 49.1485C45.1653 48.9251 45.851 49.0065 46.2426 49.4492C46.5393 49.7594 46.6214 50.2042 46.6073 50.6194C45.8295 50.6207 45.0516 50.614 44.2738 50.6234C44.3384 50.8589 44.4178 51.1086 44.6142 51.2701C45.0415 51.6556 45.8079 51.5607 46.0845 51.0386C46.2339 51.0379 46.3826 51.0386 46.5333 51.0413C46.3388 51.5002 45.9136 51.8655 45.3995 51.8797H45.1384C44.8309 51.8474 44.5241 51.739 44.3014 51.5183C43.6063 50.8845 43.7496 49.536 44.6385 49.1485ZM44.4965 49.7473C44.3801 49.8846 44.3357 50.0622 44.2879 50.2318C44.9211 50.2325 45.5549 50.2372 46.1881 50.2291C46.1316 50.0521 46.0784 49.8658 45.9533 49.7238C45.598 49.2891 44.8363 49.2972 44.4965 49.7473Z" fill="#EBC42A"/>
</svg>
