<svg width="79" height="48" viewBox="0 0 79 48" fill="none" xmlns="http://www.w3.org/2000/svg">
<path fill-rule="evenodd" clip-rule="evenodd" d="M39.52 41.3992C43.6846 45.2366 49.2773 47.5642 55.3606 47.5642C68.4253 47.5642 78.9995 36.9083 78.9995 23.8023C78.9995 10.6564 68.4253 0 55.3606 0C49.2773 0 43.6846 2.32713 39.52 6.16501C34.7432 10.5334 31.7217 16.8209 31.7217 23.8023C31.7222 30.7837 34.7432 37.0717 39.52 41.3992V41.3992Z" fill="#E9B040"/>
<path fill-rule="evenodd" clip-rule="evenodd" d="M75.8574 37.0306C75.8574 36.6222 76.1842 36.2959 76.5921 36.2959C77.0409 36.2959 77.3672 36.6226 77.3672 37.0306C77.3672 37.4804 77.0405 37.8066 76.5921 37.8066C76.1842 37.8066 75.8574 37.4804 75.8574 37.0306ZM76.5921 37.6437C76.9189 37.6437 77.2038 37.3574 77.2038 37.0311C77.2038 36.7048 76.9184 36.4598 76.5921 36.4598C76.3057 36.4598 76.0208 36.7048 76.0208 37.0311C76.0208 37.3574 76.3062 37.6437 76.5921 37.6437ZM76.5104 37.3987H76.3471V36.7043H76.6325C76.6738 36.7043 76.7555 36.7043 76.7959 36.7457C76.8776 36.786 76.8776 36.8273 76.8776 36.909C76.8776 36.9907 76.8372 37.0724 76.7555 37.0724L76.9189 37.3992H76.7142L76.6325 37.1128H76.5104V37.3987V36.9902H76.6738C76.7142 36.9902 76.7142 36.9489 76.7142 36.9086C76.7142 36.8672 76.7142 36.8672 76.6738 36.8269H76.5104V37.3987V37.3987Z" fill="#E9B040"/>
<path fill-rule="evenodd" clip-rule="evenodd" d="M47.1553 21.2714C47.0736 20.4142 46.9103 19.5978 46.7469 18.7401H32.294C32.4573 17.8828 32.7024 17.0664 32.947 16.2496H46.053C45.7685 15.3901 45.4415 14.5453 45.0733 13.7182H33.9681C34.3766 12.8534 34.8262 12.0087 35.3154 11.1869H43.6855C43.147 10.3149 42.5467 9.48262 41.8894 8.69636H37.1121C37.851 7.79392 38.6562 6.9478 39.5209 6.16501C35.3159 2.36798 29.7631 0 23.6389 0C10.6151 0 0 10.6564 0 23.8023C0 36.9083 10.6151 47.5642 23.6389 47.5642C29.7631 47.5642 35.3154 45.2366 39.5209 41.3992C40.3724 40.6301 41.1642 39.7974 41.8894 38.9082H37.1121C36.4586 38.0919 35.8872 37.2755 35.3154 36.3769H43.6855C44.2118 35.5696 44.6759 34.7233 45.0737 33.8455H33.9681C33.6005 33.0291 33.2334 32.2128 32.947 31.3546H46.053C46.3385 30.5382 46.5431 29.6814 46.7464 28.8232C46.9098 28.0068 47.0732 27.15 47.1548 26.2918C47.2376 25.4641 47.2787 24.6327 47.2779 23.8009C47.2779 22.9451 47.237 22.0878 47.1553 21.2714V21.2714Z" fill="#CC2131"/>
<path fill-rule="evenodd" clip-rule="evenodd" d="M75.8574 29.3141C75.8574 28.8653 76.1842 28.5391 76.5921 28.5391C77.0409 28.5391 77.3672 28.8658 77.3672 29.3141C77.3672 29.7226 77.0405 30.0902 76.5921 30.0902C76.1842 30.0902 75.8574 29.7221 75.8574 29.3141ZM76.5921 29.8855C76.9189 29.8855 77.2038 29.6404 77.2038 29.3141C77.2038 28.9879 76.9184 28.7428 76.5921 28.7428C76.3057 28.7428 76.0208 28.9879 76.0208 29.3141C76.0208 29.6404 76.3062 29.8855 76.5921 29.8855ZM76.5104 29.6404H76.3471V28.9874H76.7959C76.8776 29.0287 76.8776 29.1104 76.8776 29.1921C76.8776 29.2324 76.8372 29.3141 76.7555 29.3555L76.9189 29.6409H76.7142L76.6325 29.3958H76.5104V29.6404V29.2733H76.5921C76.6325 29.2733 76.6738 29.2733 76.6738 29.232C76.7142 29.232 76.7142 29.1916 76.7142 29.1503C76.7142 29.1503 76.7142 29.1099 76.6738 29.1099C76.6738 29.0686 76.6325 29.1099 76.5921 29.1099H76.5104V29.6404V29.6404Z" fill="white"/>
<path fill-rule="evenodd" clip-rule="evenodd" d="M31.4771 30.6621C30.7015 30.8658 30.1297 30.9888 29.5584 30.9888C28.3335 30.9888 27.5984 30.2128 27.5984 28.8246C27.5984 28.5391 27.6392 28.2532 27.68 27.9265L27.8434 26.988L27.966 26.212L29.0683 19.5165H31.5179L31.232 20.9864H32.7836L32.416 23.4361H30.8644L30.2114 27.4368C30.1706 27.6415 30.1706 27.7636 30.1706 27.8453C30.1706 28.3763 30.4156 28.58 31.0278 28.58C31.3137 28.58 31.5583 28.5396 31.8033 28.4983L31.4771 30.6621V30.6621ZM39.3979 30.5804C38.4998 30.8254 37.6834 30.9475 36.7848 30.9475C34.0084 30.9475 32.416 29.4776 32.416 26.5796C32.416 23.1905 34.2943 20.7409 36.9069 20.7409C38.989 20.7409 40.3363 22.1291 40.3363 24.2924C40.3363 25.028 40.2546 25.7219 40.0509 26.7017H34.9473C34.9065 26.865 34.9065 26.9467 34.9065 27.0284C34.9065 28.1716 35.6821 28.7429 37.152 28.7429C38.0909 28.7429 38.9073 28.5391 39.8058 28.1312L39.3979 30.5804ZM37.8871 24.7421V24.252C37.8871 23.4356 37.4379 22.9863 36.6623 22.9863C35.8454 22.9863 35.2741 23.5985 35.029 24.7416H37.8871V24.7421V24.7421ZM11.8798 30.7841H9.3484L10.8183 21.5169L7.5114 30.7841H5.75608L5.55186 21.5577L4.00027 30.7841H1.50977L3.51015 18.7405H7.22549L7.30718 26.1716L9.79768 18.7405H13.8806L11.8798 30.7841V30.7841ZM18.0452 26.4162C17.8002 26.3749 17.7185 26.3749 17.5551 26.3749C16.0852 26.3749 15.3505 26.9462 15.3505 27.8448C15.3505 28.4575 15.7181 28.8659 16.2894 28.8659C17.5143 28.8659 18.0039 27.8448 18.0452 26.4162ZM20.0865 30.7841H17.8819L17.9227 29.764C17.3509 30.539 16.5753 30.9475 15.228 30.9475C14.0032 30.9475 12.9417 29.8457 12.9417 28.2532C12.9417 27.8044 13.0234 27.3965 13.1459 26.988C13.5539 25.4768 15.0646 24.5384 17.3917 24.4971C17.6776 24.4971 18.1264 24.4971 18.5349 24.5384C18.6161 24.2116 18.6161 24.0886 18.6161 23.8849C18.6161 23.2314 18.0856 23.0272 16.9016 23.0272C16.1669 23.0272 15.35 23.1497 14.7787 23.3539L14.4111 23.4356L14.2477 23.476L14.6153 21.2714C15.7993 20.9038 16.6566 20.7409 17.596 20.7409C19.8006 20.7409 20.9846 21.7615 20.9846 23.6393C20.9846 24.1295 21.0254 24.4971 20.862 25.5585L20.2907 29.0696L20.209 29.6823L20.1682 30.1724L20.1273 30.4992L20.0865 30.7841V30.7841ZM51.7279 21.0676C52.4626 21.0676 53.1161 21.2718 54.0142 21.7206L54.463 19.1076C54.2179 18.9851 54.1362 18.9851 53.81 18.8625L52.7898 18.5766C52.4631 18.4949 52.0551 18.4541 51.6054 18.4541C50.3392 18.4541 49.6045 18.4949 48.8294 18.9442C48.421 19.2301 47.89 19.5977 47.3182 20.2507L46.9915 20.1691L44.3784 22.0061L44.5014 20.9855H41.8062L40.2148 30.7836H42.7874L43.7259 25.5177C43.7259 25.5177 44.0939 24.782 44.2568 24.5379C44.747 23.9252 45.1549 23.9252 45.6854 23.9252H45.8901C45.8044 24.5475 45.7633 25.175 45.7671 25.8031C45.7671 28.9875 47.5633 30.9883 50.3397 30.9883C51.034 30.9883 51.6472 30.9066 52.5856 30.6616L53.0354 27.8856C52.219 28.3344 51.4838 28.5387 50.8711 28.5387C49.3609 28.5387 48.4618 27.3955 48.4618 25.5994C48.4609 22.9455 49.8087 21.0676 51.7279 21.0676V21.0676ZM73.4063 18.7405L72.8355 22.1699C72.2228 21.231 71.4876 20.7817 70.5078 20.7817C69.16 20.7817 67.8948 21.5573 67.1188 23.0272V22.9868L65.486 22.0065L65.6494 20.9859H62.9138L61.3622 30.7841H63.8936L64.7513 25.5181C64.7513 25.5181 65.4043 24.7825 65.5677 24.5384C65.9761 24.0483 66.3841 23.9661 66.7108 23.9257C66.4254 24.7421 66.262 25.7219 66.262 26.8247C66.262 29.2743 67.5272 30.9071 69.4051 30.9071C70.3445 30.9071 71.0792 30.5804 71.773 29.8043L71.651 30.7841H74.0603L76.0198 18.7405H73.4063V18.7405ZM70.2633 28.4575C69.4055 28.4575 68.9567 27.8044 68.9567 26.5383C68.9567 24.6191 69.7731 23.2314 70.9567 23.2314C71.8547 23.2314 72.3045 23.9257 72.3045 25.1506C72.3045 27.1101 71.4881 28.4575 70.2633 28.4575V28.4575ZM58.4647 26.4162C58.2196 26.3749 58.138 26.3749 57.9746 26.3749C56.5037 26.3749 55.769 26.9462 55.769 27.8448C55.769 28.4575 56.1371 28.8659 56.7084 28.8659C57.9333 28.8659 58.4234 27.8448 58.4647 26.4162ZM60.5059 30.7841H58.26L58.3417 29.764C57.7704 30.539 56.9939 30.9475 55.6474 30.9475C54.3813 30.9475 53.2795 29.886 53.2795 28.2532C53.2795 25.9266 55.0343 24.4975 57.8107 24.4975C58.0971 24.4975 58.5454 24.4975 58.9135 24.5389C58.9952 24.2121 59.0365 24.0891 59.0365 23.8854C59.0365 23.2319 58.5056 23.0276 57.2807 23.0276C56.5864 23.0276 55.7291 23.1502 55.1578 23.3544L54.8311 23.4361L54.6677 23.4764L55.0348 21.2718C56.2193 20.9042 57.077 20.7414 58.0154 20.7414C60.22 20.7414 61.3632 21.762 61.3632 23.6398C61.3632 24.1299 61.4449 24.4975 61.2411 25.559L60.7102 29.0701L60.6285 29.6828L60.5468 30.1729L60.5064 30.4996V30.7841H60.5059V30.7841ZM25.4346 23.068C25.9247 23.068 26.6186 23.1088 27.3538 23.2314L27.7214 20.9451C26.9862 20.8634 26.0064 20.7409 25.4346 20.7409C22.577 20.7409 21.6381 22.2925 21.6381 24.0886C21.6381 25.2731 22.1685 26.1298 23.5567 26.7829C24.5774 27.273 24.7407 27.3542 24.7407 27.804C24.7407 28.4157 24.2102 28.7837 23.23 28.7837C22.4544 28.7837 21.7193 28.6607 20.9029 28.3753L20.617 30.6203L20.6573 30.6616L21.1474 30.7433C21.3108 30.7836 21.515 30.825 21.8009 30.8653C22.4131 30.9066 22.9441 30.947 23.2708 30.947C26.1289 30.947 27.3129 29.8452 27.3129 27.6809C27.3129 26.3341 26.6594 25.5177 25.3938 24.9463C24.2915 24.4557 24.1689 24.375 24.1689 23.9252C24.1689 23.4764 24.659 23.068 25.4346 23.068V23.068Z" fill="#1B3771"/>
<path fill-rule="evenodd" clip-rule="evenodd" d="M55.1577 18.3319L54.7079 20.9449C53.8098 20.4957 53.1563 20.2919 52.4216 20.2919C50.5024 20.2919 49.1555 22.1698 49.1555 24.8237C49.1555 26.6611 50.0536 27.763 51.5648 27.763C52.1765 27.763 52.9117 27.5592 53.7281 27.1513L53.2793 29.8859C52.3399 30.1309 51.7277 30.254 51.0334 30.254C48.2575 30.254 46.5425 28.2531 46.5425 25.0284C46.5425 20.7412 48.9105 17.7197 52.2991 17.7197C52.7479 17.7197 53.1558 17.7606 53.4826 17.8423L54.5037 18.0873C54.8309 18.2099 54.9126 18.2507 55.1577 18.3319V18.3319ZM46.9101 20.1285H46.665C45.8083 20.1285 45.3182 20.537 44.5421 21.7205L44.7872 20.2098H42.4596L40.8681 30.0084H43.4408C44.3792 24.0068 44.6243 22.9862 45.8491 22.9862H46.0125C46.2576 21.8022 46.5838 20.9445 46.9923 20.1689L46.9101 20.1285V20.1285ZM32.1309 29.8859C31.437 30.1309 30.8652 30.2126 30.2939 30.2126C28.9874 30.2126 28.2522 29.4779 28.2522 28.0494C28.2522 27.8043 28.293 27.478 28.3339 27.1916L28.4973 26.2119L28.6198 25.4368L29.7221 18.7403H32.2534L31.9675 20.2102H33.2741L32.9473 22.6191H31.6408L30.9469 26.702C30.9061 26.8654 30.9061 26.9884 30.9061 27.1104C30.9061 27.6006 31.1511 27.8048 31.7633 27.8048C32.0492 27.8048 32.2938 27.8048 32.4572 27.7231L32.1309 29.8859V29.8859ZM22.2914 23.3129C22.2914 24.5382 22.8627 25.395 24.2101 26.0485C25.2716 26.5386 25.4349 26.7015 25.4349 27.1099C25.4349 27.7226 24.9857 28.008 23.965 28.008C23.1895 28.008 22.4951 27.886 21.6787 27.6409L21.3112 29.8859L21.4337 29.9272L21.883 30.0089C22.0459 30.0493 22.2506 30.0906 22.5768 30.0906C23.1482 30.1723 23.6383 30.1723 23.965 30.1723C26.6593 30.1723 27.9254 29.1512 27.9254 26.9062C27.9254 25.5584 27.395 24.7823 26.1293 24.1706C25.027 23.6805 24.9044 23.5585 24.9044 23.1092C24.9044 22.5787 25.3537 22.3336 26.1701 22.3336C26.6602 22.3336 27.3541 22.3745 28.0076 22.4562L28.3747 20.2107C27.7217 20.0882 26.7011 20.0065 26.1293 20.0065C23.2712 20.006 22.2506 21.5168 22.2914 23.3129V23.3129ZM74.7141 30.0089H72.3048L72.4278 29.0695C71.7335 29.8042 70.9983 30.1309 70.0589 30.1309C68.181 30.1309 66.9562 28.5395 66.9562 26.0898C66.9562 22.8233 68.8754 20.0469 71.1204 20.0469C72.1415 20.0469 72.8762 20.4961 73.571 21.3942L74.1423 17.9648H76.6737L74.7141 30.0089V30.0089ZM70.9575 27.7226C72.1419 27.7226 72.9583 26.3344 72.9583 24.4152C72.9583 23.1495 72.5086 22.496 71.6105 22.496C70.4673 22.496 69.6106 23.8434 69.6106 25.7626C69.6106 27.0696 70.0594 27.7226 70.9575 27.7226V27.7226ZM39.9695 29.8042C39.071 30.0906 38.2546 30.2126 37.3157 30.2126C34.4576 30.2126 32.9877 28.7024 32.9877 25.8034C32.9877 22.4557 34.866 19.9652 37.4382 19.9652C39.5611 19.9652 40.908 21.3534 40.908 23.5171C40.908 24.2523 40.8263 24.9467 40.5812 25.9668H35.5195C35.4787 26.0898 35.4787 26.1715 35.4787 26.2532C35.4787 27.3963 36.2547 27.9677 37.7241 27.9677C38.663 27.9677 39.4794 27.8043 40.378 27.355L39.9695 29.8042V29.8042ZM38.5405 23.9659V23.4763C38.5405 22.6599 38.0912 22.2106 37.3157 22.2106C36.4993 22.2106 35.9275 22.8233 35.6824 23.9659H38.5405ZM12.5336 30.0089H10.0022L11.4721 20.7407L8.16523 30.0089H6.40943L6.20521 20.8224L4.65411 30.0089H2.28613L4.28652 17.9648H7.96101L8.08354 25.4363L10.5327 17.9648H14.534L12.5336 30.0089V30.0089ZM18.862 25.6401C18.6169 25.6401 18.4944 25.5997 18.2902 25.5997C16.8611 25.5997 16.1264 26.1302 16.1264 27.1099C16.1264 27.7226 16.4532 28.0897 17.0245 28.0897C18.0859 28.0897 18.8211 27.1099 18.862 25.6401ZM20.7398 30.0089H18.6164L18.6573 28.9878C18.0038 29.8042 17.1465 30.1723 15.9625 30.1723C14.5743 30.1723 13.6354 29.1108 13.6354 27.5184C13.6354 25.11 15.2682 23.7218 18.1263 23.7218C18.4122 23.7218 18.7798 23.7627 19.1878 23.803C19.2694 23.4768 19.2694 23.3542 19.2694 23.1909C19.2694 22.5378 18.8202 22.2928 17.6362 22.2928C16.9015 22.2928 16.0846 22.3745 15.5133 22.5378L15.1457 22.6604L14.9006 22.7012L15.2682 20.4966C16.5339 20.129 17.3911 20.0065 18.3305 20.0065C20.5351 20.0065 21.7191 20.9863 21.7191 22.8641C21.7191 23.3542 21.6783 23.7218 21.5149 24.8241L20.9431 28.2949L20.8614 28.9066L20.8206 29.3967L20.7797 29.7648L20.7398 30.0089V30.0089ZM59.2814 25.6401C58.995 25.6401 58.873 25.5997 58.7101 25.5997C57.2402 25.5997 56.5045 26.1302 56.5045 27.1099C56.5045 27.7226 56.8726 28.0897 57.4439 28.0897C58.465 28.0897 59.2401 27.1099 59.2814 25.6401V25.6401ZM61.1593 30.0089H59.0364L59.0767 28.9878C58.4237 29.8042 57.5665 30.1723 56.3825 30.1723C54.9943 30.1723 54.0549 29.1108 54.0549 27.5184C54.0549 25.11 55.6877 23.7218 58.5458 23.7218C58.8322 23.7218 59.1998 23.7627 59.5669 23.803C59.6486 23.4768 59.6899 23.3542 59.6899 23.1909C59.6899 22.5378 59.2401 22.2928 58.0571 22.2928C57.3214 22.2928 56.4647 22.3745 55.8928 22.5378L55.5661 22.6604L55.321 22.7012L55.6881 20.4966C56.9543 20.129 57.8111 20.0065 58.7505 20.0065C60.9551 20.0065 62.0982 20.9863 62.0982 22.8641C62.0982 23.3542 62.0982 23.7218 61.8945 24.8241L61.3635 28.2949L61.2818 28.9066L61.2001 29.3967L61.1598 29.7648V30.0089H61.1593V30.0089ZM68.0182 20.1285H67.7731C66.9163 20.1285 66.4262 20.537 65.6502 21.7205L65.8952 20.2098H63.5676L62.016 30.0084H64.5474C65.4868 24.0068 65.7319 22.9862 66.9567 22.9862H67.1201C67.3651 21.8022 67.6914 20.9445 68.0998 20.1689L68.0182 20.1285V20.1285Z" fill="white"/>
</svg>
