<svg width="107" height="40" viewBox="0 0 107 40" fill="none" xmlns="http://www.w3.org/2000/svg">
<path d="M38.3682 0H44.1188C44.1208 2.94451 44.1155 5.88834 44.1215 8.83285C44.8417 7.91733 45.8769 7.25326 47.0165 7.00449C48.2182 6.73966 49.5056 6.80587 50.6552 7.25594C51.7693 7.69196 52.6882 8.56535 53.2332 9.62532C53.8585 10.8157 54.0477 12.1799 54.0477 13.5094C54.041 16.8699 54.0544 20.2297 54.041 23.5895C52.1117 23.5848 50.1823 23.6002 48.253 23.5821C48.2644 20.6028 48.255 17.6236 48.2584 14.6443C48.2597 13.9113 48.1032 13.0961 47.5241 12.5926C47.082 12.1967 46.4487 12.1291 45.883 12.2067C45.3807 12.2843 44.918 12.5812 44.6398 13.0058C44.2773 13.5442 44.1522 14.2076 44.1569 14.8476C44.1569 17.7613 44.1569 20.6751 44.1569 23.5881C42.2282 23.5915 40.2989 23.5908 38.3702 23.5888C38.3662 15.7257 38.3695 7.86316 38.3682 0Z" fill="#5F02D2"/>
<path d="M100.15 0H107V0.0107C104.952 4.9434 102.912 9.88011 100.867 14.8148C98.5844 14.8148 96.302 14.8168 94.0195 14.8142C94.8882 12.6668 95.7897 10.5321 96.6711 8.39014C97.8321 5.59409 98.983 2.79337 100.15 0Z" fill="#5F02D2"/>
<path d="M24.2101 7.20377C25.8432 6.67746 27.6916 6.71291 29.2444 7.47796C29.8697 7.7789 30.4134 8.22495 30.8675 8.74591C30.8702 8.24635 30.8695 7.7468 30.8675 7.24724C32.7326 7.24925 34.5984 7.22918 36.4629 7.25727C36.4509 12.7009 36.4683 18.1445 36.4542 23.5875C34.5911 23.5888 32.7279 23.5968 30.8655 23.5841C30.8722 23.0799 30.8695 22.5763 30.8675 22.0728C30.291 22.8311 29.4678 23.3788 28.569 23.6791C27.1185 24.17 25.5115 24.1091 24.0656 23.6316C22.3817 23.0739 20.9419 21.8741 20.019 20.3668C18.184 17.3882 18.2087 13.3563 20.118 10.4178C21.0743 8.93316 22.5201 7.74546 24.2101 7.20377ZM27.285 12.089C26.6738 12.1532 26.0752 12.3685 25.5824 12.7377C24.8822 13.2453 24.412 14.0491 24.2883 14.9024C24.1238 15.9223 24.4401 17.0237 25.1684 17.7647C25.8104 18.4455 26.754 18.8173 27.6869 18.7852C28.6105 18.7966 29.5273 18.3886 30.1426 17.7005C30.713 17.0759 31.0166 16.2239 30.9986 15.3812C30.9919 14.3721 30.5124 13.3683 29.7019 12.7604C29.0211 12.2368 28.1363 12.0047 27.285 12.089Z" fill="#5F02D2"/>
<path d="M63.2277 6.8767C65.3001 6.71754 67.4455 7.21643 69.1595 8.41416C70.711 9.48282 71.8666 11.1032 72.3848 12.9135C73.0924 15.3678 72.742 18.1465 71.3041 20.2764C70.198 21.9416 68.46 23.1547 66.5353 23.6777C64.4133 24.2568 62.0821 24.1044 60.0805 23.1761C58.216 22.3188 56.692 20.7479 55.9122 18.8473C54.887 16.3596 55.0375 13.389 56.3917 11.0524C57.3239 9.43066 58.832 8.15669 60.5741 7.48125C61.422 7.14621 62.3208 6.95428 63.2277 6.8767ZM63.5714 12.1632C62.9133 12.2441 62.2754 12.5203 61.7872 12.973C60.5179 14.1005 60.3808 16.2245 61.4468 17.5332C62.1322 18.414 63.3079 18.8513 64.406 18.7015C65.1583 18.622 65.8786 18.2622 66.3888 17.7031C66.966 17.0818 67.2702 16.2272 67.2522 15.3832C67.2475 14.3727 66.7673 13.3602 65.9421 12.7644C65.27 12.2628 64.3986 12.0642 63.5714 12.1632Z" fill="#5F02D2"/>
<path d="M81.629 6.88353C84.0954 6.66685 86.6841 7.4192 88.5118 9.12317C89.4434 9.97717 90.1716 11.0498 90.6237 12.2302C91.5814 14.74 91.3667 17.7026 89.951 19.9997C88.8789 21.7679 87.1081 23.0753 85.1259 23.6444C82.6255 24.3647 79.8027 24.0537 77.5911 22.652C76.582 22.0153 75.7133 21.1587 75.0686 20.1549C73.1025 17.1234 73.2804 12.8421 75.5641 10.0267C77.0254 8.18224 79.2971 7.0681 81.629 6.88353ZM82.051 12.162C81.1823 12.2609 80.3551 12.721 79.8421 13.4326C79.2757 14.1943 79.0804 15.2014 79.2677 16.1257C79.4422 17.0405 80.028 17.8724 80.8473 18.3212C82.049 18.9912 83.6734 18.8287 84.6845 17.8811C85.1834 17.417 85.5258 16.7904 85.6549 16.1223C85.8963 14.95 85.4957 13.6466 84.5608 12.8802C83.8733 12.3004 82.9378 12.0583 82.051 12.162Z" fill="#5F02D2"/>
<path d="M0 7.24793C2.08984 7.24191 4.17969 7.24392 6.26953 7.24659C7.52009 10.4392 8.75929 13.6372 10.0226 16.8251C11.2778 13.6311 12.5437 10.4412 13.7983 7.24659C15.8347 7.24392 17.8717 7.24191 19.9087 7.24726C16.8037 14.7165 13.7087 22.1905 10.607 29.6604C8.56334 29.6604 6.51897 29.6644 4.47527 29.6584C5.30386 27.6796 6.13979 25.7041 6.98309 23.7306C5.49712 20.2143 4.00447 16.7014 2.51651 13.1864C1.67455 11.217 0.857337 9.23746 0 7.27535V7.24793Z" fill="#5F02D2"/>
<path d="M94.804 16.3756C95.9503 16.0914 97.241 16.2987 98.1699 17.0531C99.0539 17.7506 99.5742 18.8714 99.5582 19.9956C99.5796 21.2495 98.9396 22.4907 97.9057 23.2009C96.7695 23.996 95.1959 24.1124 93.9581 23.4851C93.1315 23.0751 92.4795 22.3368 92.1618 21.4722C91.7405 20.3507 91.8856 19.0379 92.537 18.0328C93.0506 17.2222 93.8751 16.6177 94.804 16.3756Z" fill="#5F02D2"/>
<path d="M47.8617 25.0822C48.8334 24.919 49.8493 25.6393 50.0058 26.615C50.2365 27.689 49.3016 28.7991 48.2135 28.8051C47.2111 28.8827 46.2574 28.024 46.2353 27.0182C46.1745 26.0793 46.9362 25.1979 47.8617 25.0822Z" fill="#5F02D2"/>
<path d="M43.2106 25.1678C43.9435 25.0902 44.7059 25.1531 45.3907 25.44C45.3961 26.3769 45.3934 27.3138 45.392 28.2514C44.9634 28.0514 44.4779 27.9926 44.0124 28.0661C43.6847 28.1343 43.3651 28.3149 43.1959 28.6118C43.0033 28.9228 42.9839 29.3006 42.9839 29.6564C43.7436 29.6631 44.5033 29.6564 45.263 29.6598C45.261 30.5699 45.2636 31.4794 45.2616 32.3896C44.5026 32.3929 43.7436 32.3829 42.9852 32.395C42.9872 34.5751 42.9886 36.7559 42.9845 38.936C41.8631 38.9367 40.7416 38.9347 39.6201 38.9367C39.6134 36.7552 39.6181 34.5731 39.6174 32.3909C39.2008 32.3876 38.7848 32.3916 38.3688 32.3876C38.3682 31.4788 38.3688 30.5699 38.3682 29.6611C38.7841 29.6564 39.2008 29.6604 39.6167 29.6584C39.5739 28.5135 39.8093 27.2877 40.5884 26.4076C41.2404 25.6493 42.2275 25.244 43.2106 25.1678Z" fill="#5F02D2"/>
<path d="M55.0341 30.2221C55.5865 29.6523 56.395 29.3888 57.1768 29.3982C57.9766 29.3989 58.7985 29.665 59.3749 30.2361C60.0724 30.9283 60.364 31.9374 60.3694 32.9004C60.3714 34.912 60.3721 36.9243 60.3687 38.9366C59.2432 38.9346 58.117 38.9379 56.9915 38.9346C56.9895 37.3256 56.9895 35.7159 56.9909 34.1069C56.9882 33.6815 56.9674 33.2134 56.6892 32.8663C56.2766 32.3333 55.3598 32.3547 54.9558 32.8877C54.6977 33.2114 54.6375 33.6381 54.6275 34.04C54.6248 35.6717 54.6308 37.3042 54.6248 38.9366C53.4973 38.9352 52.3705 38.9359 51.2429 38.9359C51.2383 35.8436 51.2423 32.7513 51.2409 29.659C52.3698 29.659 53.4986 29.6583 54.6275 29.659C54.6295 29.99 54.6208 30.3217 54.6328 30.6528C54.7953 30.5384 54.8876 30.3545 55.0341 30.2221Z" fill="#5F02D2"/>
<path d="M78.013 29.5447C78.744 29.322 79.5472 29.3541 80.2627 29.6209C80.9295 29.869 81.4825 30.39 81.7975 31.026C82.1205 31.6666 82.2389 32.3942 82.2302 33.1064C82.2282 35.0505 82.2355 36.9939 82.2262 38.9373C81.0933 38.9266 79.9598 38.9526 78.8269 38.9239C78.8316 37.2293 78.8282 35.5347 78.8289 33.8394C78.8356 33.4241 78.7159 32.97 78.3788 32.7012C77.882 32.314 77.0514 32.4397 76.731 32.9974C76.4014 33.5304 76.4957 34.1824 76.4823 34.7776C76.4796 36.164 76.487 37.5509 76.4789 38.9373C75.3554 38.9373 74.2319 38.9312 73.1084 38.9406C73.0496 38.3126 73.0977 37.6793 73.0823 37.0494C73.0823 34.587 73.0823 32.124 73.0823 29.6617C74.2152 29.655 75.3481 29.6617 76.4809 29.6584C76.4829 30.0141 76.4816 30.3699 76.4823 30.7257C76.8374 30.172 77.3777 29.7313 78.013 29.5447Z" fill="#5F02D2"/>
<path d="M85.8568 29.8903C87.2518 29.247 88.9284 29.2309 90.3267 29.8756C90.3287 30.9028 90.3301 31.9307 90.326 32.9579C89.6239 32.4938 88.7217 32.3092 87.9078 32.5513C87.4136 32.6998 86.9669 33.0428 86.7536 33.5196C86.4433 34.181 86.5616 35.0377 87.0879 35.5567C87.5801 36.0575 88.3338 36.216 89.0119 36.1238C89.4881 36.0642 89.9321 35.8629 90.328 35.5981C90.328 36.6233 90.328 37.6492 90.328 38.675C89.7215 38.978 89.0521 39.1452 88.3773 39.1886H87.8343C86.7389 39.1351 85.6374 38.7733 84.7928 38.0584C84.0565 37.4485 83.5469 36.5879 83.3182 35.6636C83.0206 34.4432 83.1176 33.1084 83.6867 31.9795C84.1461 31.064 84.9259 30.317 85.8568 29.8903Z" fill="#5F02D2"/>
<path d="M93.4632 29.9982C94.7284 29.312 96.2813 29.2231 97.6362 29.6892C98.6165 30.0263 99.4679 30.7231 99.9855 31.6226C100.606 32.6778 100.767 33.9411 100.664 35.1455C98.5249 35.1556 96.3856 35.1442 94.2463 35.1516C94.2991 35.4712 94.4088 35.7929 94.6395 36.0296C95.1397 36.566 95.9723 36.6736 96.6437 36.4402C96.9855 36.3232 97.2443 36.0611 97.479 35.7969C98.438 36.1727 99.401 36.5385 100.363 36.9084C100.065 37.3932 99.6986 37.8413 99.2418 38.1837C98.3825 38.8538 97.2851 39.1447 96.2104 39.1888H95.5991C94.6415 39.1373 93.6738 38.8845 92.878 38.3341C92.0033 37.749 91.3994 36.8121 91.1413 35.8002C90.849 34.6232 90.8932 33.3366 91.3961 32.2218C91.816 31.2802 92.553 30.4837 93.4632 29.9982ZM94.7719 32.3087C94.4803 32.5207 94.3365 32.8671 94.265 33.2095C95.3163 33.2269 96.3682 33.2182 97.4195 33.2135C97.3573 32.8083 97.1399 32.4231 96.7835 32.2091C96.1743 31.8473 95.339 31.8767 94.7719 32.3087Z" fill="#5F02D2"/>
<path d="M63.2611 30.1661C64.2448 29.4552 65.5575 29.2118 66.7265 29.5482C67.3605 29.7234 67.9403 30.0972 68.3375 30.6248C68.3369 30.3025 68.3349 29.9808 68.3449 29.6592C69.455 29.6585 70.5658 29.6592 71.6766 29.6592C71.6753 32.7515 71.6793 35.8438 71.6746 38.9367C70.5678 38.9361 69.461 38.9354 68.3543 38.9374C68.3308 38.6144 68.3362 38.2914 68.3382 37.9684C67.7644 38.7187 66.8362 39.13 65.9066 39.1889H65.4352C64.6494 39.1454 63.8736 38.8819 63.237 38.4185C62.4311 37.8413 61.8587 36.974 61.5644 36.0337C61.1899 34.8366 61.212 33.5152 61.6454 32.3368C61.9597 31.4788 62.5154 30.7011 63.2611 30.1661ZM66.0404 32.4853C65.2499 32.6732 64.6253 33.4236 64.626 34.2428C64.5872 34.9804 65.0486 35.7033 65.7241 35.9956C66.5399 36.3741 67.6126 36.1079 68.1135 35.3476C68.6204 34.634 68.5208 33.5714 67.8835 32.9695C67.4106 32.4994 66.683 32.3134 66.0404 32.4853Z" fill="#5F02D2"/>
<path d="M46.44 38.9367C46.434 35.8444 46.438 32.7514 46.4373 29.6584C47.5709 29.6611 48.7037 29.6558 49.8373 29.6611C49.8359 32.7528 49.8379 35.8437 49.8359 38.9353C48.7037 38.9374 47.5715 38.9347 46.44 38.9367Z" fill="#5F02D2"/>
</svg>
