<svg width="89" height="69" viewBox="0 0 89 69" fill="none" xmlns="http://www.w3.org/2000/svg">
<path d="M32.4204 5.60309C33.9761 3.43447 35.9382 1.58121 38.0813 0.00109863C40.7918 2.23857 43.2391 4.85468 45.0291 7.89497C47.0556 11.3195 47.6141 15.4046 47.5008 19.3255C47.452 20.0273 47.4797 20.7512 47.251 21.4264C46.8923 22.5834 46.4904 23.736 45.9163 24.8064C45.7642 24.138 45.6653 23.4595 45.5454 22.7855C45.3644 22.7688 45.1823 22.7533 45.0024 22.7422C45.1579 21.5629 45.26 20.3726 45.2078 19.1833C45.1556 17.1591 44.9136 15.1159 44.2218 13.2038C43.4734 10.953 41.8833 9.10309 40.0889 7.60293C39.2372 6.87895 38.3189 6.23713 37.3717 5.64418C35.8616 6.91781 34.5046 8.37466 33.3487 9.97809C32.6158 10.983 32.0506 12.099 31.5332 13.2271C30.9736 14.4586 30.5516 15.7478 30.1785 17.0469C29.5622 16.4795 28.9215 15.9387 28.252 15.4357C28.5917 13.9378 29.0781 12.4754 29.62 11.0396C30.3506 9.13307 31.2412 7.27536 32.4204 5.60309Z" fill="#EEF02E"/>
<path d="M6.28316 12.1013C8.25079 11.6571 10.2529 11.3473 12.2671 11.2363C15.0465 11.0731 17.8991 11.2962 20.5119 12.3112C23.2979 13.3649 25.8185 15.0283 28.0626 16.9704C28.3458 17.2058 28.5834 17.4901 28.7944 17.7921C29.9059 19.3111 30.8564 20.9612 31.4849 22.7412C31.315 22.7534 31.1473 22.7701 30.9786 22.7867C30.9253 22.9966 30.8731 23.2064 30.8276 23.4185C30.4878 22.9177 30.1935 22.3848 29.8104 21.9128C28.6623 20.4038 27.262 19.0913 25.713 18.0009C24.4238 17.0848 23.0747 16.2331 21.5968 15.6535C20.1499 15.0761 18.6131 14.6519 17.0441 14.6652C14.6978 14.6919 12.3948 15.2804 10.214 16.1165C10.2928 17.992 10.6271 19.8541 11.1545 21.6541C11.6531 23.3619 12.4748 24.9542 13.4075 26.4622C13.8872 27.2461 14.4258 27.9934 14.981 28.7274C14.1515 28.8806 13.3298 29.0727 12.517 29.297C10.375 26.6032 8.45955 23.6684 7.30251 20.4082C6.46748 17.8821 6.11215 15.2093 6.12104 12.5532C6.15657 12.4044 6.02776 12.0946 6.28316 12.1013Z" fill="#EEF02E"/>
<path d="M50.73 18.0118C53.4639 17.5665 56.2532 17.4066 59.0159 17.6387C62.4892 17.9574 65.7927 19.291 68.7841 21.0377C68.4499 22.2003 68.0601 23.354 67.5582 24.4544C67.596 23.8847 67.7648 23.3362 67.8181 22.7688C67.3428 22.7455 66.8665 22.7432 66.3923 22.7843C65.9393 24.9885 65.4918 27.1926 65.0143 29.3912C64.1249 30.7704 63.0655 32.0507 61.8108 33.1155C59.7887 34.8444 57.4369 36.1703 54.9618 37.1319C54.6798 37.1552 54.3966 37.153 54.1146 37.1563C54.0357 37.2829 53.958 37.4117 53.8825 37.5405C53.1974 37.837 52.4467 37.8747 51.7139 37.9336C51.7672 37.6749 51.8182 37.415 51.8693 37.1563C51.6073 37.1508 51.3452 37.1463 51.0832 37.1396C51.0076 37.4117 50.9466 37.6871 50.8933 37.9647C50.3558 37.998 49.8162 37.9947 49.2787 37.9702C49.1677 37.6949 49.0533 37.4217 48.9379 37.1496C48.6414 37.1496 48.346 37.1519 48.0506 37.1563C48.0029 37.3906 47.9551 37.626 47.9074 37.8614C47.5443 37.8148 47.1823 37.7604 46.8236 37.6893C46.3428 37.0553 45.49 37.1563 44.7883 37.1408C43.5157 36.7088 42.3076 36.0992 41.1328 35.4518C42.8151 36.0981 44.5551 36.6844 46.3717 36.7599C47.4688 36.8321 48.5714 36.7155 49.6463 36.4945C50.9977 36.2213 52.3168 35.7983 53.5782 35.242C55.4903 34.3892 57.3603 33.372 58.9126 31.9474C59.1292 31.7475 59.3446 31.5454 59.5578 31.3422C60.6349 31.3611 61.7975 31.1235 62.5692 30.3151C63.3876 29.5323 63.5341 28.3552 63.774 27.307C64.0804 25.7935 64.4402 24.29 64.6989 22.7688C64.2215 22.7544 63.744 22.751 63.2665 22.7488C63.271 22.7055 63.281 22.6189 63.2854 22.5756C60.3095 21.0854 57.0138 20.1149 53.6637 20.1671C52.439 20.1715 51.2153 20.2593 50.0016 20.4214C50.277 19.6286 50.5279 18.8268 50.73 18.0118Z" fill="#EEF02E"/>
<path d="M31.7109 25.6026C31.7631 25.2018 31.8353 24.8031 31.9663 24.42C32.084 25.1884 32.214 25.9546 32.3161 26.7264C32.4138 27.6857 32.4471 28.6551 32.4471 29.6179C32.2661 29.4557 32.4294 29.1837 32.3927 28.9783C32.2972 27.8323 32.0252 26.7064 31.7109 25.6026Z" fill="#EEF02E"/>
<path d="M44.5186 24.9585C44.7573 25.5004 44.7573 26.1144 44.8439 26.6929C44.6296 27.0427 44.3864 27.3747 44.1244 27.6901C43.869 27.8755 43.5303 27.7723 43.2383 27.7956C43.7902 26.9117 44.1899 25.9445 44.5186 24.9585Z" fill="#EEF02E"/>
<path d="M60.748 29.9121C61.4698 28.7373 62.0472 27.4803 62.4825 26.1722C62.4248 26.8563 62.2526 27.5214 62.105 28.1887C61.9184 28.9083 61.5298 29.7078 60.748 29.9121Z" fill="#EEF02E"/>
<path d="M41.8218 28.9183C42.2226 28.8883 42.6246 28.8983 43.0266 28.9205C42.3403 29.5956 41.6408 30.2674 40.8535 30.8248C41.3277 30.1586 41.9573 29.6189 42.4214 28.9427C42.2215 28.9338 42.0217 28.9271 41.8218 28.9183Z" fill="#EEF02E"/>
<path d="M17.3888 31.3822C18.1217 31.2733 18.8501 31.0868 19.5952 31.0879C22.3667 31.2567 25.1639 31.8996 27.5712 33.3254C28.6239 33.9505 29.6388 34.6545 30.5549 35.4684C29.9208 35.2042 29.379 34.7689 28.7527 34.4868C27.1115 33.6263 25.2971 33.07 23.4361 33.0233C21.7749 32.97 20.1048 33.1199 18.4881 33.5086C16.6948 33.9239 14.9115 34.4591 13.2981 35.3618C12.0677 36.0225 10.9118 36.852 9.99794 37.9147C8.45781 39.7035 7.36739 41.8433 6.57789 44.0574C8.58995 45.6053 10.8307 46.8923 13.2492 47.6851C14.1886 47.996 15.1624 48.1815 16.1307 48.3725C17.1556 48.5501 18.1916 48.6556 19.2287 48.72C18.8046 49.4473 18.4004 50.1869 18.0495 50.9519C15.3867 50.8553 12.7195 50.5244 10.1467 49.816C6.67561 48.8755 3.55981 46.9067 0.900391 44.5227C1.74097 42.9159 2.69703 41.3669 3.78411 39.9156C5.09661 38.1501 6.57123 36.4811 8.329 35.1464C10.9729 33.1532 14.1675 32.0262 17.3888 31.3822Z" fill="#EEF02E"/>
<path d="M29.7111 38.7355C30.072 38.479 30.4429 38.2402 30.8148 38.0004C30.7882 38.1236 30.7627 38.248 30.7382 38.3735C30.3296 38.6799 29.9743 39.0475 29.5801 39.3717C29.6256 39.1596 29.6678 38.9475 29.7111 38.7355Z" fill="#EEF02E"/>
<path d="M23.9006 45.9451C25.0609 43.4978 26.6055 41.166 28.7442 39.467C28.6598 39.8712 28.582 40.2776 28.4843 40.6796C27.7737 41.599 27.2262 42.6372 26.8098 43.7199C26.2569 45.1579 25.8693 46.6614 25.6728 48.1904C25.4252 50.0925 25.3152 52.0324 25.6306 53.9345C25.8482 55.3481 26.3157 56.7238 27.0508 57.9542C28.1612 59.8197 29.6403 61.4475 31.2837 62.8555C32.987 61.8517 34.5438 60.6036 35.9396 59.2056C36.9156 58.2307 37.7273 57.108 38.4635 55.9455C39.112 54.9183 39.6639 53.8346 40.1769 52.7342C40.7121 53.3849 41.2518 54.0333 41.8414 54.6352C41.0164 56.5595 40.057 58.4317 38.9177 60.1905C37.9694 61.6452 36.9034 63.0365 35.6276 64.2213C33.8565 65.8647 31.8444 67.2427 29.6936 68.3398C28.1357 66.582 26.7565 64.6644 25.5962 62.6212C24.5857 60.8523 23.7684 58.9569 23.3254 56.9637C22.7413 54.1866 22.8357 51.3051 23.2898 48.5168C23.4564 47.6529 23.5808 46.7691 23.9006 45.9451Z" fill="#EEF02E"/>
<path d="M38.6295 40.3188C38.6728 40.4588 38.725 40.5987 38.7338 40.7486C38.705 40.8618 38.6672 40.9718 38.6195 41.0795C38.5173 40.8541 38.5362 40.5454 38.6295 40.3188Z" fill="#EEF02E"/>
<path d="M57.8788 40.8807C58.082 40.8207 58.2885 40.7752 58.4939 40.7219C59.6043 42.211 60.5748 43.8033 61.4421 45.4445C62.4081 47.3155 63.2176 49.2887 63.6107 51.364C64.0504 53.6093 64.167 55.9156 63.9982 58.1953C61.2955 58.6816 58.5339 58.9004 55.7912 58.706C53.5126 58.5339 51.2219 58.072 49.1643 57.0482C47.3166 56.1765 45.611 55.0284 44.0287 53.7403C43.2936 53.114 42.5563 52.48 41.9211 51.7494C40.8107 50.1437 39.9035 48.3882 39.305 46.5271C38.8109 44.9859 38.5888 43.3614 38.6021 41.7446C38.6554 41.749 38.7609 41.7568 38.8142 41.7601C39.0241 42.9983 39.3117 44.2352 39.8325 45.3834C40.2178 46.224 40.6886 47.0268 41.246 47.7652C42.0588 48.849 42.9927 49.8439 44.0209 50.7267C45.5455 52.0025 47.1722 53.1907 48.9989 54.0001C50.2458 54.5376 51.5561 54.9817 52.9175 55.0828C54.7741 55.2183 56.6395 54.9429 58.4406 54.5032C59.0136 54.3588 59.5877 54.2067 60.1384 53.9902C60.1196 51.6661 59.8075 49.3331 59.1024 47.1145C58.7049 45.9386 58.1664 44.8149 57.5889 43.7178C57.127 42.8339 56.5796 42 56.0255 41.1727C56.3175 41.1317 56.6096 41.0861 56.9016 41.0395C56.8494 41.2805 56.8006 41.5214 56.7517 41.7635C57.0249 41.7646 57.298 41.7635 57.5723 41.7613C57.6245 41.4814 57.6744 41.2005 57.7455 40.9251C57.7788 40.914 57.8454 40.8918 57.8788 40.8807Z" fill="#EEF02E"/>
<path d="M57.4629 30.6915C58.0736 31.119 58.8143 31.3256 59.5571 31.3422C59.3439 31.5454 59.1285 31.7475 58.912 31.9474C58.5078 31.6598 58.0903 31.3889 57.6927 31.0913C57.5484 31.0058 57.5273 30.8281 57.4629 30.6915Z" fill="#3B3B3B"/>
<path d="M53.9941 39.9034C54.2096 39.8634 54.425 39.819 54.6426 39.779L54.7015 39.7679C54.6326 40.0755 54.2207 39.8734 53.9941 39.9034Z" fill="#686867"/>
<path d="M33.3487 9.97808C34.5047 8.37465 35.8616 6.9178 37.3717 5.64417C38.3189 6.23712 39.2372 6.87894 40.0889 7.60292C41.8833 9.10308 43.4734 10.953 44.2218 13.2038C43.6444 13.3126 43.057 13.2649 42.4752 13.2704C39.4393 13.2715 36.4046 13.2715 33.3698 13.2704C32.7569 13.2671 32.1428 13.3004 31.5332 13.2271C32.0507 12.099 32.6159 10.983 33.3487 9.97808Z" fill="url(#paint0_linear_2228_135)"/>
<path d="M30.1785 17.0469C30.5516 15.7477 30.9736 14.4586 31.5332 13.2271C32.1428 13.3004 32.7569 13.2671 33.3698 13.2704C36.4046 13.2715 39.4393 13.2715 42.4752 13.2704C43.057 13.2649 43.6444 13.3126 44.2218 13.2038C44.9136 15.1159 45.1557 17.1591 45.2079 19.1833C40.5986 19.1522 35.9882 19.1844 31.3789 19.1667C31.0224 19.1522 30.666 19.1844 30.3184 19.26C30.1197 19.1134 29.9265 18.9601 29.7344 18.8058C29.8698 18.2162 30.0142 17.6288 30.1785 17.0469Z" fill="url(#paint1_linear_2228_135)"/>
<path d="M30.3184 19.26C30.666 19.1844 31.0224 19.1522 31.3789 19.1667C35.9882 19.1844 40.5986 19.1522 45.2079 19.1833C45.2601 20.3726 45.1579 21.5629 45.0024 22.7422C44.6693 22.7311 44.3351 22.7377 44.0031 22.7344C43.68 23.2352 43.3857 23.7515 43.0759 24.2601C43.0881 24.0391 43.0892 23.8193 43.0881 23.5994C42.1809 23.5705 41.2737 23.6039 40.3665 23.5817C40.2155 23.6005 40.0367 23.5472 39.9057 23.635C39.6481 23.9536 39.6481 24.4344 39.2894 24.6787C39.4093 24.0291 39.5537 23.3862 39.6781 22.7377C39.2095 22.7377 38.7431 22.7389 38.2756 22.7366C38.0891 21.704 37.9014 20.6435 37.4195 19.703C37.3862 19.6841 37.3196 19.6464 37.2851 19.6286C36.8499 20.8356 36.5389 22.0826 36.1536 23.3074C35.9815 23.8393 35.8372 24.3878 35.5629 24.8797C34.1049 22.7611 32.3272 20.8667 30.3184 19.26Z" fill="url(#paint2_linear_2228_135)"/>
<path d="M10.2129 16.1164C12.3937 15.2803 14.6967 14.6918 17.043 14.6651C18.612 14.6518 20.1488 15.0759 21.5957 15.6534C19.0928 18.9624 16.6166 22.2925 14.1115 25.6004C13.9005 25.9057 13.6729 26.2022 13.4064 26.462C12.4737 24.9541 11.652 23.3618 11.1534 21.654C10.626 19.854 10.2917 17.9919 10.2129 16.1164Z" fill="url(#paint3_linear_2228_135)"/>
<path d="M21.5957 15.6534C23.0736 16.233 24.4227 17.0847 25.7119 18.0008C25.1034 18.9324 24.3617 19.7663 23.7343 20.6846C21.8877 23.0964 20.0877 25.5448 18.2544 27.9666C17.7537 28.6062 17.2617 29.2547 16.822 29.9376L16.812 29.9543C16.5822 30.0098 16.3545 30.0697 16.128 30.1364C15.7205 29.6867 15.3496 29.207 14.9799 28.7273C14.4247 27.9933 13.8861 27.246 13.4064 26.462C13.6729 26.2022 13.9005 25.9057 14.1115 25.6004C16.6166 22.2925 19.0928 18.9624 21.5957 15.6534Z" fill="url(#paint4_linear_2228_135)"/>
<path d="M25.7119 18.0008C27.2609 19.0912 28.6612 20.4037 29.8093 21.9127C28.6179 23.5284 27.3731 25.1051 26.1905 26.7274C24.938 25.969 23.6599 25.2262 22.2686 24.7509C21.9521 24.6587 21.6301 24.5355 21.2947 24.561C22.0554 25.7625 22.9726 26.8551 23.782 28.0233C24.0308 28.3886 24.315 28.7384 24.4616 29.1614C21.8932 28.9749 19.316 29.3335 16.822 29.9376C17.2617 29.2547 17.7537 28.6062 18.2544 27.9666C20.0877 25.5448 21.8877 23.0964 23.7343 20.6846C24.3617 19.7663 25.1034 18.9324 25.7119 18.0008Z" fill="url(#paint5_linear_2228_135)"/>
<path d="M26.1905 26.7274C27.3731 25.1051 28.6179 23.5284 29.8093 21.9127C30.1924 22.3846 30.4867 22.9176 30.8265 23.4184C30.4578 25.3128 30.0514 27.1994 29.6605 29.0893C28.5201 28.2787 27.3853 27.457 26.1905 26.7274Z" fill="url(#paint6_linear_2228_135)"/>
<path d="M39.9058 23.635C40.0368 23.5472 40.2156 23.6005 40.3666 23.5817C41.2738 23.6039 42.181 23.5706 43.0882 23.5994C43.0893 23.8193 43.0882 24.0392 43.076 24.2601C41.7058 26.5576 40.3222 28.8472 38.9575 31.148C39.4528 31.1446 39.9491 31.1369 40.4443 31.1646C39.8636 31.6721 39.3084 32.214 38.6699 32.6503C38.731 30.9448 38.7288 29.2381 38.6977 27.5325C38.8876 26.5798 39.0841 25.6281 39.2895 24.6787C39.6482 24.4345 39.6482 23.9537 39.9058 23.635Z" fill="#B5B5B5"/>
<path d="M44.2315 24.6477C44.3025 24.5134 44.3947 24.3934 44.4902 24.2769C44.5235 24.5 44.5979 24.7343 44.5202 24.9586C44.1915 25.9447 43.7917 26.9118 43.2399 27.7957C42.9789 27.8068 42.718 27.8046 42.457 27.7946C43.0433 26.742 43.6474 25.7004 44.2315 24.6477Z" fill="#B5B5B5"/>
<path d="M31.7108 25.6025C32.0251 26.7063 32.2971 27.8322 32.3926 28.9782C32.4293 29.1836 32.266 29.4556 32.447 29.6178L32.4715 29.6455C32.527 30.2085 32.5625 30.7737 32.557 31.34C31.994 30.8936 31.4266 30.4517 30.8691 29.9986C31.1467 28.5329 31.4232 27.0661 31.7108 25.6025Z" fill="#B5B5B5"/>
<path d="M40.709 30.9714C40.9722 30.234 41.463 29.6089 41.8205 28.9182C42.0204 28.9271 42.2202 28.9338 42.4201 28.9426C41.956 29.6189 41.3264 30.1585 40.8522 30.8248C40.8056 30.8747 40.7578 30.9236 40.709 30.9714Z" fill="#B5B5B5"/>
<path d="M53.6629 20.1672C57.013 20.115 60.3087 21.0855 63.2846 22.5756C63.2801 22.6189 63.2702 22.7056 63.2657 22.7489C63.0292 23.8959 62.8082 25.0474 62.4818 26.1722C62.0465 27.4803 61.4691 28.7373 60.7473 29.9121C60.3109 30.102 59.8201 30.092 59.3582 30.0342C58.9063 29.9754 58.4366 29.7622 58.2178 29.3413C57.978 28.8872 58.0601 28.3542 58.1534 27.8723C58.511 26.1622 58.8707 24.4522 59.2272 22.7422C58.7408 22.7411 58.2556 22.7422 57.7714 22.7333C57.3917 24.4245 57.0363 26.1223 56.6832 27.8201C56.3956 27.0628 56.3723 26.1944 55.8427 25.5371C55.6672 25.6626 55.4851 25.7925 55.2652 25.8225C55.7449 24.9563 55.6472 23.6683 54.7334 23.1253C54.7245 22.9698 54.7411 22.8077 54.6801 22.66C54.3258 21.8361 53.9505 21.0177 53.6629 20.1672Z" fill="url(#paint7_linear_2228_135)"/>
<path d="M50.0008 20.4215C51.2145 20.2593 52.4382 20.1716 53.6629 20.1672C53.9505 21.0177 54.3258 21.8361 54.6801 22.66C54.7411 22.8077 54.7245 22.9698 54.7334 23.1253C54.277 22.8743 53.7607 22.7511 53.2399 22.75C51.9784 22.7333 50.7181 22.7422 49.4567 22.7366C49.3601 21.9849 48.9382 21.3309 48.6717 20.6335C49.1081 20.5303 49.5567 20.4847 50.0008 20.4215Z" fill="url(#paint8_linear_2228_135)"/>
<path d="M50.6848 23.9459C51.4599 23.947 52.2372 23.9248 53.0122 23.9525C53.412 23.9625 53.8628 24.1469 54.0127 24.5455C54.1371 24.973 54.066 25.4816 53.744 25.8069C53.4397 26.1156 53 26.2477 52.5758 26.2544C51.7852 26.2733 50.9957 26.2544 50.2062 26.2589C50.365 25.4882 50.526 24.7165 50.6848 23.9459Z" fill="url(#paint9_linear_2228_135)"/>
<path d="M55.2652 25.8225C55.4851 25.7925 55.6672 25.6626 55.8427 25.5371C56.3723 26.1944 56.3956 27.0628 56.6832 27.8201C56.6099 28.3087 56.5411 28.8106 56.6355 29.3014C56.7232 29.8543 57.0819 30.3018 57.4627 30.6916C57.5271 30.8282 57.5482 31.0058 57.6926 31.0913C58.0901 31.3889 58.5076 31.6599 58.9118 31.9475C57.3595 33.3721 55.4895 34.3892 53.5774 35.242C53.0733 34.1372 52.6325 33.0034 52.1284 31.8986C52.0206 31.5921 51.692 31.5111 51.4088 31.4578C50.8936 31.3556 50.3639 31.3234 49.862 31.1591C50.7637 31.1269 51.6686 31.1824 52.5692 31.1191C53.5774 31.0502 54.5935 30.4628 54.9821 29.5012C55.233 28.8461 55.2963 28.0477 54.9099 27.4314C54.6901 27.0661 54.2936 26.8773 53.9183 26.7119C54.4735 26.6186 54.951 26.2833 55.2652 25.8225Z" fill="url(#paint10_linear_2228_135)"/>
<path d="M49.993 27.3315C50.8181 27.3359 51.6442 27.3171 52.4692 27.3326C52.9634 27.3415 53.5197 27.5891 53.6796 28.0921C53.7684 28.4786 53.7362 28.9127 53.5308 29.2592C53.2177 29.6978 52.6647 29.8943 52.145 29.9232C52.0173 29.8954 51.8896 29.8666 51.7641 29.8355C51.7775 29.247 51.4244 28.7506 51.2389 28.2143C51.1301 27.7812 50.6326 27.6835 50.2518 27.6491C50.1219 27.7324 50.0397 27.87 49.9353 27.98L49.8509 28.0033C49.8964 27.779 49.9442 27.5547 49.993 27.3315Z" fill="url(#paint11_linear_2228_135)"/>
<path d="M48.2097 20.7168C48.363 20.6902 48.5173 20.6635 48.6717 20.6335C48.9382 21.3309 49.3601 21.9849 49.4567 22.7366C49.0981 24.5488 48.7094 26.3543 48.3352 28.1632C47.7311 28.2354 47.126 28.3009 46.5208 28.3664C46.3953 27.6569 46.2721 26.9462 46.1499 26.2355C47.0383 24.48 47.7145 22.6201 48.2097 20.7168Z" fill="url(#paint12_linear_2228_135)"/>
<path d="M49.9353 27.98C50.0397 27.87 50.1219 27.7324 50.2518 27.6491C50.6326 27.6835 51.1301 27.7812 51.2389 28.2143C51.4244 28.7506 51.7775 29.247 51.7641 29.8355C51.8896 29.8666 52.0173 29.8954 52.145 29.9232C51.25 29.9787 50.3528 29.9287 49.4567 29.9532C49.5011 29.5801 49.5877 29.2147 49.671 28.8494C49.9731 28.5829 50.2606 28.2987 50.5049 27.9778C50.3139 27.9755 50.1241 27.9766 49.9353 27.98Z" fill="url(#paint13_linear_2228_135)"/>
<path d="M46.9239 30.6894C47.2648 30.4962 47.6012 30.293 47.9355 30.0886C47.8633 30.4406 47.7911 30.7937 47.7189 31.1469C48.4329 31.1535 49.148 31.1291 49.862 31.1591C50.3639 31.3234 50.8936 31.3556 51.4088 31.4578C51.692 31.5111 52.0206 31.5921 52.1284 31.8986C52.6325 33.0034 53.0733 34.1372 53.5774 35.242C52.316 35.7983 50.9968 36.2214 49.6455 36.4946C49.1569 35.4408 48.7205 34.3637 48.2553 33.2999C47.9566 32.6448 47.7622 31.9375 47.3414 31.3456C46.7995 31.5211 46.2354 31.4533 45.6847 31.3756C45.8157 31.2956 45.9478 31.2146 46.09 31.1502C46.3931 31.1435 46.6962 31.1469 47.0005 31.148C46.975 30.9947 46.9494 30.8415 46.9239 30.6894Z" fill="url(#paint14_linear_2228_135)"/>
<path d="M45.6847 31.3756C46.2354 31.4533 46.7995 31.5211 47.3414 31.3456C47.7622 31.9375 47.9566 32.6448 48.2553 33.2999C48.7205 34.3637 49.1569 35.4408 49.6455 36.4946C48.5706 36.7155 47.468 36.8321 46.3709 36.76C44.5543 36.6844 42.8143 36.0982 41.132 35.4519C40.3947 35.1032 39.643 34.7768 38.9512 34.3437C41.2397 33.4598 43.4983 32.4916 45.6847 31.3756Z" fill="url(#paint15_linear_2228_135)"/>
<path d="M9.99817 37.9148C10.912 36.8521 12.068 36.0227 13.2983 35.362C13.6492 36.0837 13.6447 36.9099 13.8857 37.6672C14.6041 41.2416 15.4192 44.7982 16.1309 48.3726C15.1627 48.1816 14.1888 47.9962 13.2494 47.6853C10.831 46.8924 8.59018 45.6055 6.57812 44.0576C7.36762 41.8434 8.45804 39.7037 9.99817 37.9148Z" fill="url(#paint16_linear_2228_135)"/>
<path d="M13.2983 35.362C14.9117 34.4592 16.695 33.924 18.4883 33.5087C18.8959 35.8916 19.4788 38.2402 19.9518 40.6109C19.9796 40.8163 20.0651 41.0062 20.1961 41.1672L20.1906 41.2016C20.1495 41.3615 20.1406 41.5281 20.1828 41.6891C20.3882 42.5996 20.5415 43.5212 20.7824 44.4229C21.0489 45.5133 21.1078 46.667 21.5741 47.6986C21.3954 48.0584 21.2144 48.4148 21.0412 48.7768C20.436 48.7834 19.833 48.7424 19.229 48.7202C18.1919 48.6558 17.1558 48.5503 16.1309 48.3726C15.4192 44.7982 14.6041 41.2416 13.8857 37.6672C13.6447 36.9099 13.6492 36.0837 13.2983 35.362Z" fill="url(#paint17_linear_2228_135)"/>
<path d="M18.4883 33.5087C20.1051 33.1201 21.7751 32.9702 23.4363 33.0235C23.6861 34.3726 23.9793 35.7118 24.278 37.052C24.4301 37.7094 24.5156 38.3823 24.7088 39.0319L24.7144 39.0541C23.1409 39.5837 21.5175 40.1256 20.1961 41.1672C20.0651 41.0062 19.9796 40.8163 19.9518 40.6109C19.4788 38.2402 18.8959 35.8916 18.4883 33.5087Z" fill="url(#paint18_linear_2228_135)"/>
<path d="M20.1828 41.6891C20.1406 41.5281 20.1495 41.3615 20.1906 41.2016C21.9117 41.4859 23.6706 41.4492 25.3951 41.7191C25.525 41.7501 25.6527 41.7901 25.7781 41.839C24.0848 43.5623 22.709 45.5722 21.5741 47.6986C21.1078 46.667 21.0489 45.5133 20.7824 44.4229C20.5415 43.5212 20.3882 42.5996 20.1828 41.6891Z" fill="url(#paint19_linear_2228_135)"/>
<path d="M23.4363 33.0235C25.2973 33.0701 27.1117 33.6264 28.7529 34.487C29.3792 34.769 29.9211 35.2043 30.5551 35.4686C31.2114 35.9694 31.8709 36.4679 32.5239 36.9743C33.1068 36.6823 33.6298 36.2547 34.2339 35.9883C34.155 36.3747 34.0829 36.7622 34.0085 37.1497C33.7742 38.2868 33.5488 39.4272 33.3034 40.562C32.7915 39.466 32.3773 38.3268 31.8976 37.2175C31.6189 37.1164 31.3091 37.1753 31.017 37.1597C30.9871 37.273 30.9571 37.3863 30.9271 37.5006C30.5929 37.5661 30.2586 37.6339 29.9233 37.6983C29.9566 37.5173 29.9921 37.3374 30.0243 37.1575C29.7623 37.1586 29.5002 37.1608 29.2382 37.1631C29.1838 37.404 29.1316 37.645 29.0783 37.887C27.6092 38.2168 26.1546 38.6121 24.7088 39.0319C24.5156 38.3823 24.4301 37.7094 24.278 37.052C23.9793 35.7118 23.6861 34.3726 23.4363 33.0235Z" fill="url(#paint20_linear_2228_135)"/>
<path d="M38.5838 37.847C38.646 37.8493 38.7715 37.8548 38.8337 37.857C38.9858 37.9559 39.1113 38.0902 39.2478 38.2101C39.0835 39.0574 38.8914 39.9002 38.7337 40.7485C38.7248 40.5986 38.6727 40.4587 38.6293 40.3188C38.5427 39.5027 38.606 38.6699 38.5838 37.847Z" fill="#B5B5B5"/>
<path d="M25.6313 53.9346C25.9122 53.9091 26.1976 53.9057 26.473 53.9768C27.248 54.1578 28.0442 54.2189 28.8237 54.3788C31.3865 54.7507 33.9371 55.2016 36.4999 55.5802C37.1495 55.7334 37.8291 55.7323 38.4642 55.9455C37.728 57.1081 36.9163 58.2307 35.9403 59.2057C34.5445 60.6037 32.9877 61.8518 31.2844 62.8556C29.641 61.4476 28.1619 59.8197 27.0515 57.9543C26.3164 56.7239 25.8489 55.3481 25.6313 53.9346Z" fill="url(#paint21_linear_2228_135)"/>
<path d="M25.6313 53.9346C25.3159 52.0325 25.4259 50.0926 25.6735 48.1905C26.182 48.3293 26.7017 48.4159 27.2247 48.4781C31.613 49.1676 35.998 49.8805 40.3886 50.549L40.4252 50.5534C40.5718 50.7277 40.7284 50.8932 40.8871 51.0564C40.6828 51.6072 40.4352 52.1413 40.2031 52.6798L40.1776 52.7342C39.6646 53.8347 39.1127 54.9184 38.4642 55.9455C37.8291 55.7323 37.1495 55.7334 36.4999 55.5802C33.9371 55.2016 31.3865 54.7507 28.8237 54.3788C28.0442 54.2189 27.248 54.1578 26.473 53.9768C26.1976 53.9057 25.9122 53.9091 25.6313 53.9346Z" fill="url(#paint22_linear_2228_135)"/>
<path d="M26.8105 43.72C27.8543 43.9432 28.9192 44.0331 29.9652 44.2408C31.0034 44.4217 32.0505 44.5528 33.0877 44.736C33.0654 46.1995 33.0022 47.7163 33.4874 49.121C33.6351 48.92 33.7639 48.7068 33.8716 48.4836C34.4423 47.341 34.9598 46.1729 35.5394 45.0347C35.7049 44.7249 35.857 44.3995 36.1113 44.1508C37.1617 46.5082 38.693 48.6158 40.3886 50.549C35.998 49.8805 31.613 49.1676 27.2247 48.4781C26.7017 48.4159 26.182 48.3293 25.6735 48.1905C25.87 46.6614 26.2576 45.1579 26.8105 43.72Z" fill="url(#paint23_linear_2228_135)"/>
<path d="M29.5821 39.3716C29.9763 39.0474 30.3316 38.6798 30.7403 38.3734C30.5237 39.5071 30.265 40.6319 30.0418 41.7634C30.3161 41.7634 30.5904 41.759 30.8635 41.7468C31.0789 40.6175 31.3043 39.4893 31.5464 38.3656C32.0572 39.4727 32.4947 40.6142 32.9577 41.7423C33.0477 41.7468 33.2276 41.7557 33.3186 41.7601C33.2231 42.7495 33.1165 43.74 33.0877 44.736C32.0505 44.5528 31.0034 44.4217 29.9652 44.2408C28.9192 44.0331 27.8543 43.9432 26.8105 43.72C27.2269 42.6373 27.7744 41.5991 28.485 40.6797C28.4151 41.0395 28.3451 41.4003 28.2707 41.7601C28.5372 41.7634 28.8037 41.7668 29.0713 41.7712C29.2612 40.9751 29.3989 40.1689 29.5821 39.3716Z" fill="url(#paint24_linear_2228_135)"/>
<path d="M40.1962 39.1018C39.9841 39.2284 39.7198 39.0463 39.8908 38.8187C40.0229 38.8109 40.2517 38.9497 40.1962 39.1018Z" fill="#B5B5B5"/>
<path d="M55.5427 46.144C56.2367 45.3445 56.8918 44.5151 57.5892 43.7178C58.1666 44.8149 58.7051 45.9386 59.1027 47.1145C59.8078 49.3331 60.1198 51.6661 60.1387 53.9902C59.5879 54.2067 59.0138 54.3588 58.4409 54.5032C56.6398 54.9429 54.7743 55.2183 52.9177 55.0828C51.5564 54.9818 50.2461 54.5376 48.9991 54.0002C49.9918 52.6854 51.1189 51.4818 52.136 50.1859C52.7467 49.5352 53.2375 48.7835 53.886 48.1672C54.3834 47.4477 55.0241 46.8469 55.5427 46.144Z" fill="url(#paint25_linear_2228_135)"/>
<path d="M51.221 40.2778C51.5819 40.2389 51.9439 40.2 52.3059 40.1678C51.9961 40.6975 51.6774 41.2216 51.362 41.7491C51.6496 41.7502 51.9372 41.7502 52.2259 41.7479C52.4591 41.3438 52.6934 40.9396 52.9288 40.5365C53.5406 40.5309 54.1514 40.5298 54.7632 40.5387C54.8232 40.9407 54.8842 41.3426 54.942 41.7446C55.214 41.7491 55.4861 41.7513 55.7592 41.7546C55.6926 41.3504 55.6282 40.9462 55.5649 40.542C55.7304 40.743 55.8836 40.954 56.0257 41.1728C56.5798 42 57.1273 42.8339 57.5892 43.7178C56.8918 44.5151 56.2367 45.3445 55.5427 46.144C55.0241 46.8469 54.3834 47.4477 53.886 48.1672C53.2375 48.7835 52.7467 49.5352 52.136 50.1859C51.1189 51.4818 49.9918 52.6854 48.9991 54.0002C47.1725 53.1907 45.5457 52.0025 44.0211 50.7267C44.3354 50.4491 44.6263 50.1448 44.8728 49.8039C45.2226 49.312 45.6734 48.9045 46.0276 48.4159C46.3541 47.9673 46.7561 47.582 47.0914 47.1423C47.6599 46.365 48.4306 45.7387 48.8747 44.8704C49.0779 44.9337 49.2811 44.9859 49.4877 45.0425C49.3999 44.8693 49.3144 44.6972 49.2201 44.5295C49.4843 44.2997 49.702 44.0265 49.9241 43.7578C50.3704 43.2592 50.849 42.774 51.1622 42.1754C50.809 41.9589 50.225 42.1821 50.0273 41.7535C50.3216 41.7502 50.6158 41.7502 50.9112 41.7502C51.0189 41.2605 51.1166 40.7686 51.221 40.2778Z" fill="url(#paint26_linear_2228_135)"/>
<path d="M48.1896 40.3699C48.6149 40.381 49.0391 40.3899 49.4643 40.3877C49.6576 40.8407 49.8374 41.2993 50.0273 41.7535C50.225 42.1821 50.809 41.9589 51.1622 42.1754C50.849 42.774 50.3704 43.2592 49.9241 43.7578C49.702 44.0265 49.4843 44.2997 49.2201 44.5295C48.6382 43.5901 47.9986 42.6885 47.4068 41.7557C47.5733 41.7535 47.7399 41.7513 47.9076 41.7502C48.0031 41.2905 48.0941 40.8296 48.1896 40.3699Z" fill="url(#paint27_linear_2228_135)"/>
<path d="M45.2515 42.9438C46.4052 43.6767 47.5667 44.4407 48.8747 44.8704C48.4306 45.7387 47.6599 46.365 47.0914 47.1423C46.7561 47.582 46.3541 47.9673 46.0276 48.4159C45.6734 48.9045 45.2226 49.312 44.8728 49.8039C44.6263 50.1448 44.3354 50.4491 44.0211 50.7267C42.9929 49.8439 42.0591 48.849 41.2462 47.7652C41.6682 47.22 42.0657 46.6515 42.5621 46.1685C42.9396 45.7998 43.2006 45.3334 43.5648 44.9526C43.8179 44.6872 44.0556 44.4063 44.2743 44.1109C44.5763 43.7023 44.9628 43.3647 45.2515 42.9438Z" fill="url(#paint28_linear_2228_135)"/>
<path d="M39.7272 39.7081C40.1469 39.7092 40.5678 39.7092 40.9875 39.7103C41.5594 40.1689 42.1257 40.6342 42.6998 41.0884C42.6531 41.3116 42.6065 41.5336 42.5621 41.7579C42.8241 41.7613 43.0862 41.7679 43.3493 41.7602C43.3638 41.7291 43.3938 41.6647 43.4082 41.6325C44.0178 42.0766 44.6196 42.5308 45.2515 42.9438C44.9628 43.3647 44.5763 43.7023 44.2743 44.1109C44.0556 44.4063 43.8179 44.6872 43.5648 44.9526C43.2006 45.3334 42.9396 45.7998 42.5621 46.1685C42.0657 46.6515 41.6682 47.22 41.2462 47.7652C40.6888 47.0268 40.218 46.224 39.8327 45.3834C39.3119 44.2353 39.0243 42.9983 38.8145 41.7602C39.8382 41.7357 40.8631 41.7757 41.8869 41.7491C41.9302 41.5203 41.9736 41.2938 42.018 41.0662C41.1607 41.0484 40.3035 41.0728 39.4463 41.0595C39.5307 40.6064 39.6228 40.1556 39.7272 39.7081Z" fill="url(#paint29_linear_2228_135)"/>
<path d="M46.5684 40.2544C46.8404 40.2788 47.1147 40.311 47.3867 40.3432C47.3079 40.6886 47.2346 41.035 47.1702 41.3837C46.9437 41.0217 46.7227 40.6541 46.5684 40.2544Z" fill="#B5B5B5"/>
<path d="M37.5943 22.7354C37.8208 22.7343 38.0485 22.7343 38.2761 22.7365C38.7436 22.7387 39.2099 22.7376 39.6785 22.7376C39.5542 23.3861 39.4098 24.029 39.2899 24.6786C39.0845 25.628 38.8879 26.5796 38.6981 27.5324C38.4493 28.7371 38.2017 29.943 37.953 31.1478C37.4799 31.1501 37.0069 31.1501 36.5339 31.1478C37.0202 28.9037 37.5033 26.6585 37.9929 24.4155C36.6949 26.644 35.4512 28.9059 34.1754 31.1478C33.7878 31.1501 33.4003 31.1501 33.0128 31.1478C32.7818 29.6732 32.552 28.1997 32.3188 26.7262C32.2166 25.9545 32.0867 25.1883 31.969 24.4199C31.838 24.803 31.7658 25.2016 31.7136 25.6025C31.426 27.066 31.1495 28.5328 30.8719 29.9986C30.802 30.3828 30.7287 30.7659 30.6543 31.1501C30.179 31.1456 29.7038 31.1589 29.2285 31.1378C29.3884 30.4583 29.515 29.7709 29.6627 29.0891C30.0535 27.1992 30.46 25.3127 30.8286 23.4183C30.8741 23.2062 30.9263 22.9964 30.9796 22.7865C31.1484 22.7698 31.3161 22.7532 31.486 22.741C31.9923 22.7221 32.4998 22.741 33.0072 22.7343C33.3204 24.8607 33.6091 26.9905 33.93 29.1158C34.0899 28.9215 34.2031 28.6961 34.3253 28.4773C35.4157 26.5641 36.505 24.6497 37.5943 22.7354Z" fill="#FFED01"/>
<path d="M43.0775 24.2599C43.3873 23.7514 43.6815 23.235 44.0047 22.7343C44.3367 22.7376 44.6709 22.7309 45.004 22.742C45.1839 22.7531 45.366 22.7687 45.547 22.7853C45.6669 23.4593 45.7658 24.1378 45.9179 24.8063C45.9823 25.2849 46.0734 25.759 46.1522 26.2354C46.2743 26.946 46.3976 27.6567 46.5231 28.3662C46.6596 29.1402 46.794 29.9152 46.9261 30.6892C46.9517 30.8413 46.9772 30.9946 47.0028 31.1478C46.6985 31.1467 46.3954 31.1434 46.0922 31.15C45.8957 31.1511 45.7014 31.1489 45.507 31.1489C45.3893 30.4083 45.2783 29.6665 45.1639 28.9259C44.4522 28.9192 43.7404 28.9336 43.0286 28.9203C42.6267 28.8981 42.2247 28.8881 41.8238 28.9181C41.4663 29.6088 40.9755 30.2339 40.7123 30.9712C40.6368 31.0356 40.5613 31.1012 40.4858 31.1667L40.4458 31.1644C39.9506 31.1367 39.4542 31.1445 38.959 31.1478C40.3237 28.847 41.7072 26.5574 43.0775 24.2599ZM44.2334 24.6475C43.6493 25.7001 43.0453 26.7417 42.459 27.7944C42.7199 27.8044 42.9809 27.8066 43.2418 27.7955C43.5339 27.7722 43.8725 27.8754 44.1279 27.69L44.0369 27.801C44.3611 27.8044 44.6853 27.8033 45.0096 27.8033C44.9563 27.4324 44.9041 27.0615 44.8475 26.6928C44.7609 26.1143 44.7609 25.5003 44.5221 24.9584C44.5998 24.7341 44.5254 24.4998 44.4921 24.2766C44.3966 24.3932 44.3045 24.5131 44.2334 24.6475Z" fill="#FFED01"/>
<path d="M49.4565 22.7366C50.718 22.7421 51.9783 22.7332 53.2397 22.7499C53.7605 22.751 54.2768 22.8743 54.7332 23.1252C55.647 23.6682 55.7448 24.9563 55.2651 25.8224C54.9508 26.2832 54.4733 26.6185 53.9181 26.7118C54.2935 26.8773 54.6899 27.066 54.9097 27.4314C55.2962 28.0476 55.2329 28.846 54.9819 29.5012C54.5933 30.4628 53.5772 31.0502 52.569 31.119C51.6685 31.1823 50.7635 31.1268 49.8618 31.159C49.1478 31.129 48.4327 31.1534 47.7188 31.1468C47.7909 30.7937 47.8631 30.4406 47.9353 30.0886C48.0674 29.4468 48.1996 28.8038 48.335 28.1631C48.7092 26.3543 49.0979 24.5488 49.4565 22.7366ZM50.6846 23.9458C50.5259 24.7164 50.3648 25.4882 50.2061 26.2588C50.9956 26.2543 51.7851 26.2732 52.5757 26.2543C52.9998 26.2477 53.4396 26.1155 53.7438 25.8068C54.0658 25.4815 54.1369 24.9729 54.0125 24.5454C53.8626 24.1468 53.4118 23.9625 53.012 23.9525C52.237 23.9247 51.4597 23.9469 50.6846 23.9458ZM49.9929 27.3314C49.944 27.5546 49.8963 27.7789 49.8507 28.0032C49.7919 28.2853 49.7308 28.5673 49.6708 28.8494C49.5876 29.2147 49.5009 29.58 49.4565 29.9531C50.3526 29.9287 51.2498 29.9786 52.1448 29.9231C52.6645 29.8942 53.2175 29.6977 53.5306 29.2591C53.736 28.9126 53.7682 28.4785 53.6794 28.0921C53.5195 27.589 52.9632 27.3414 52.4691 27.3325C51.644 27.317 50.8179 27.3359 49.9929 27.3314Z" fill="#FFED01"/>
<path d="M56.6855 27.82C57.0386 26.1222 57.3939 24.4244 57.7737 22.7333C58.2578 22.7422 58.743 22.741 59.2294 22.7422C58.873 24.4522 58.5132 26.1622 58.1556 27.8722C58.0624 28.3541 57.9802 28.8871 58.2201 29.3413C58.4388 29.7621 58.9085 29.9753 59.3604 30.0342C59.8224 30.0919 60.3132 30.1019 60.7495 29.912C61.5313 29.7077 61.9199 28.9082 62.1065 28.1887C62.2542 27.5213 62.4263 26.8562 62.484 26.1722C62.8105 25.0474 63.0314 23.8959 63.2679 22.7488C63.7454 22.751 64.2229 22.7544 64.7004 22.7688C64.4416 24.2901 64.0819 25.7936 63.7754 27.307C63.5356 28.3553 63.389 29.5323 62.5706 30.3151C61.7989 31.1235 60.6363 31.3611 59.5592 31.3422C58.8163 31.3256 58.0757 31.1191 57.465 30.6916C57.0841 30.3018 56.7254 29.8543 56.6377 29.3013C56.5433 28.8105 56.6122 28.3086 56.6855 27.82Z" fill="#FFED01"/>
<path d="M66.3929 22.7843C66.867 22.7432 67.3434 22.7454 67.8186 22.7688C67.7653 23.3362 67.5966 23.8847 67.5588 24.4544C67.3856 24.9807 67.299 25.5292 67.1757 26.0689C68.486 26.0811 69.7952 26.0744 71.1054 26.0722C71.3309 24.9585 71.5685 23.8481 71.795 22.7355C72.288 22.7343 72.7822 22.7343 73.2763 22.7355C72.6944 25.5403 72.1159 28.3463 71.5285 31.1501C71.0377 31.149 70.5458 31.149 70.055 31.1501C70.3148 29.8865 70.5791 28.6239 70.8412 27.3603C69.5342 27.3581 68.2262 27.3625 66.9192 27.3581C66.6672 28.5651 66.414 29.7721 66.1664 30.9802C66.1497 31.0213 66.1164 31.1035 66.0997 31.1434C65.6156 31.159 65.1315 31.149 64.6484 31.1423C64.7784 30.5594 64.8905 29.9742 65.0149 29.3912C65.4923 27.1926 65.9398 24.9885 66.3929 22.7843Z" fill="#FFED01"/>
<path d="M74.3388 28.0931C75.4126 26.3086 76.4786 24.5187 77.5512 22.7343C78.0698 22.7343 78.5872 22.7343 79.1058 22.7354C79.5866 25.5425 80.0974 28.344 80.5548 31.1545C80.0574 31.1434 79.561 31.1522 79.0647 31.1478C78.9514 30.406 78.8371 29.6654 78.7238 28.9248C77.6123 28.9248 76.4996 28.9248 75.3881 28.9248C74.9517 29.6665 74.5287 30.4183 74.0823 31.1545C73.5704 31.1434 73.0596 31.1511 72.5488 31.1489C73.0863 30.0996 73.7503 29.1158 74.3388 28.0931ZM76.0155 27.8021C76.8661 27.8044 77.7166 27.8044 78.5683 27.8021C78.4007 26.6051 78.2197 25.4092 78.0531 24.2111C77.3624 25.4026 76.6951 26.6062 76.0155 27.8021Z" fill="#FFED01"/>
<path d="M81.2383 22.7343C81.7546 22.7354 82.271 22.7321 82.7884 22.7365C83.2825 24.0002 83.72 25.2882 84.2553 26.5341C85.2246 25.2594 86.2029 23.9902 87.1912 22.7299C87.7608 22.7421 88.3304 22.7276 88.9012 22.7387C87.7142 24.2922 86.4627 25.7979 85.2491 27.3325C85.0536 27.6045 84.7549 27.8333 84.7127 28.1875C84.5095 29.1758 84.3163 30.1674 84.1009 31.1523C83.609 31.1456 83.1182 31.1512 82.6285 31.1478C82.8473 30.0852 83.0638 29.0236 83.2814 27.961C83.3358 27.7966 83.2315 27.6434 83.1815 27.4935C82.5297 25.9089 81.8823 24.3222 81.2383 22.7343Z" fill="#FFED01"/>
<path d="M29.2378 37.1631C29.4999 37.1609 29.7619 37.1587 30.024 37.1576C29.9918 37.3375 29.9562 37.5174 29.9229 37.6984C29.8552 38.0448 29.7808 38.389 29.7119 38.7355C29.6686 38.9476 29.6264 39.1597 29.5809 39.3717C29.3977 40.169 29.26 40.9752 29.0701 41.7713C28.8025 41.7669 28.536 41.7636 28.2695 41.7602C28.3439 41.4004 28.4139 41.0396 28.4838 40.6798C28.5816 40.2778 28.6593 39.8714 28.7437 39.4672C28.8592 38.9409 28.9646 38.4135 29.0779 37.8871C29.1312 37.6451 29.1834 37.4041 29.2378 37.1631Z" fill="#E21F23"/>
<path d="M33.3034 40.5621C33.5488 39.4272 33.7742 38.2868 34.0085 37.1498C34.2728 37.152 34.5382 37.152 34.8047 37.1487C34.5115 38.6844 34.1651 40.209 33.8675 41.7435C33.6843 41.7535 33.501 41.7646 33.3178 41.7602C33.2268 41.7558 33.0469 41.7469 32.9569 41.7424C32.4939 40.6143 32.0564 39.4728 31.5456 38.3657C31.3035 39.4894 31.0781 40.6176 30.8627 41.7469C30.5896 41.7591 30.3153 41.7635 30.041 41.7635C30.2642 40.632 30.5229 39.5072 30.7395 38.3735C30.7639 38.248 30.7894 38.1236 30.8161 38.0004C30.8505 37.8327 30.8871 37.6661 30.9271 37.5007C30.9571 37.3863 30.9871 37.273 31.0171 37.1598C31.3091 37.1753 31.6189 37.1165 31.8976 37.2175C32.3773 38.3268 32.7915 39.4661 33.3034 40.5621Z" fill="#E21F23"/>
<path d="M54.1129 37.1565C54.395 37.1532 54.6781 37.1554 54.9602 37.1321C55.17 38.2669 55.3488 39.4084 55.5642 40.5421C55.6275 40.9463 55.6919 41.3505 55.7585 41.7547C55.4854 41.7514 55.2133 41.7491 54.9413 41.7447C54.8835 41.3427 54.8225 40.9408 54.7625 40.5388C54.1507 40.5299 53.5399 40.531 52.9281 40.5366C52.6927 40.9397 52.4584 41.3438 52.2252 41.748C51.9365 41.7503 51.6489 41.7503 51.3613 41.7491C51.6767 41.2217 51.9954 40.6976 52.3052 40.1679C52.8315 39.2929 53.3567 38.4168 53.8808 37.5407C53.9563 37.4119 54.0341 37.2831 54.1129 37.1565ZM53.2768 39.9203C53.5144 39.9192 53.7554 39.9336 53.993 39.9037C54.2195 39.8737 54.6315 40.0758 54.7003 39.7682L54.6415 39.7793C54.5793 39.1741 54.4682 38.5756 54.3927 37.9727C54.0019 38.61 53.651 39.2718 53.2768 39.9203Z" fill="#E21F23"/>
<path d="M63.2778 37.1476C63.9974 36.9366 64.8535 37.0532 65.4009 37.5951C65.8806 38.0625 66.0228 38.7699 65.9573 39.4161C65.9062 40.2956 65.4576 41.2017 64.6403 41.5992C63.692 42.0833 62.2907 41.9156 61.7533 40.9074C61.077 39.5494 61.7344 37.5551 63.2778 37.1476ZM63.3944 37.8049C62.6871 38.117 62.3529 38.9176 62.3096 39.6482C62.2663 40.149 62.3951 40.732 62.8481 41.0173C63.3223 41.2927 63.9774 41.2694 64.4027 40.9096C64.9135 40.501 65.1289 39.8292 65.1589 39.1963C65.18 38.7443 65.0811 38.2335 64.7069 37.9393C64.3372 37.6628 63.8153 37.645 63.3944 37.8049Z" fill="#E21F23"/>
<path d="M35.0527 37.8482C35.0983 37.6128 35.1493 37.3797 35.2049 37.1476C36.4641 37.1587 37.7244 37.1487 38.9836 37.1531C38.9347 37.3874 38.8859 37.6217 38.8348 37.8571C38.7726 37.8549 38.6471 37.8494 38.5849 37.8471C38.1841 37.8471 37.7832 37.8527 37.3835 37.8482C37.0992 39.1452 36.836 40.4466 36.5695 41.748C36.2975 41.758 36.0266 41.7591 35.7545 41.7569C36.0199 40.4533 36.3042 39.1541 36.5584 37.8482C36.0565 37.8505 35.5546 37.8516 35.0527 37.8482Z" fill="#E21F23"/>
<path d="M39.2487 38.2102C39.3142 37.856 39.3886 37.504 39.4641 37.1531C40.5801 37.1509 41.6961 37.152 42.8131 37.1531C42.7676 37.3841 42.7221 37.6162 42.6754 37.8471C41.8171 37.8738 40.9543 37.8027 40.0993 37.8871C40.0438 38.1991 40.0005 38.5178 39.8916 38.8187C39.7206 39.0464 39.9849 39.2285 40.197 39.1019C40.8666 38.9897 41.555 39.0808 42.2324 39.0519C42.1902 39.2707 42.1469 39.4883 42.1058 39.7071C41.7327 39.7148 41.3607 39.7137 40.9876 39.7104C40.5679 39.7093 40.147 39.7093 39.7273 39.7082C39.6229 40.1557 39.5308 40.6065 39.4464 41.0595C40.3036 41.0729 41.1608 41.0484 42.0181 41.0662C41.9737 41.2938 41.9303 41.5204 41.887 41.7491C40.8632 41.7758 39.8383 41.7358 38.8146 41.7602C38.7613 41.7569 38.6558 41.7491 38.6025 41.7447L38.5059 41.7369C38.5458 41.517 38.5536 41.2916 38.6202 41.0795C38.668 40.9718 38.7057 40.8619 38.7346 40.7486C38.8923 39.9003 39.0844 39.0575 39.2487 38.2102Z" fill="#E21F23"/>
<path d="M42.7002 41.0884C42.9789 39.7747 43.2321 38.4556 43.5274 37.1453C43.9472 37.1586 44.368 37.152 44.7877 37.1409C45.4895 37.1564 46.3423 37.0554 46.8231 37.6894C47.0108 38.1436 47.0252 38.7076 46.7299 39.1196C46.5433 39.3828 46.2268 39.4916 45.9326 39.5826C46.0936 39.6915 46.2923 39.7914 46.3368 40.0024C46.5055 40.5765 46.2368 41.1772 46.3912 41.7579C46.1091 41.7568 45.8271 41.7568 45.5462 41.7579C45.4951 41.2738 45.5884 40.7908 45.5772 40.3077C45.5884 40.1112 45.4329 39.9391 45.2441 39.9102C44.7578 39.8325 44.2636 39.8802 43.7751 39.8725C43.6507 40.4588 43.5374 41.0473 43.4086 41.6325C43.3942 41.6647 43.3642 41.7291 43.3498 41.7602C43.0866 41.7679 42.8246 41.7613 42.5625 41.7579C42.6069 41.5336 42.6536 41.3115 42.7002 41.0884ZM44.2048 37.8138C44.1037 38.289 44.0038 38.7654 43.9094 39.2429C44.4913 39.2173 45.0931 39.3228 45.6583 39.1507C46.1602 39.0063 46.3623 38.1813 45.8704 37.9137C45.3374 37.7283 44.7578 37.846 44.2048 37.8138Z" fill="#E21F23"/>
<path d="M48.0487 37.1565C48.3441 37.1521 48.6395 37.1499 48.936 37.1499C49.0514 37.4219 49.1658 37.6951 49.2768 37.9705C49.54 38.6256 49.8165 39.2752 50.0763 39.9326C50.1419 40.1136 50.2473 40.2757 50.3628 40.43C50.5849 39.6194 50.717 38.7866 50.8914 37.9649C50.9447 37.6873 51.0057 37.4119 51.0813 37.1399C51.3433 37.1466 51.6054 37.151 51.8674 37.1565C51.8163 37.4153 51.7653 37.6751 51.712 37.9338C51.5432 38.7144 51.3877 39.4973 51.2201 40.2779C51.1157 40.7687 51.018 41.2606 50.9103 41.7503C50.6149 41.7503 50.3206 41.7503 50.0264 41.7536C49.8365 41.2995 49.6566 40.8409 49.4634 40.3878C49.1814 39.7071 48.8938 39.0287 48.6184 38.3447C48.4529 39.0154 48.3352 39.696 48.1887 40.3701C48.0932 40.8298 48.0021 41.2906 47.9066 41.7503C47.7389 41.7514 47.5724 41.7536 47.4058 41.7558C47.3292 41.757 47.1771 41.757 47.1016 41.7581C47.1238 41.6326 47.146 41.5082 47.1704 41.3839C47.2348 41.0352 47.3081 40.6887 47.3869 40.3434C47.5679 39.5173 47.7334 38.6889 47.9055 37.8617C47.9532 37.6263 48.001 37.3908 48.0487 37.1565Z" fill="#E21F23"/>
<path d="M56.0527 37.8471C56.1005 37.615 56.1482 37.3829 56.1982 37.152C57.4596 37.1531 58.721 37.152 59.9836 37.152C59.9303 37.3829 59.9125 37.6261 59.8192 37.8449C59.3395 37.8604 58.8587 37.8438 58.3801 37.8504C58.1614 38.8598 57.9593 39.8725 57.745 40.8829L57.8793 40.8807C57.846 40.8918 57.7794 40.914 57.7461 40.9251C57.675 41.2005 57.6251 41.4814 57.5729 41.7613C57.2986 41.7635 57.0254 41.7646 56.7523 41.7635C56.8011 41.5214 56.85 41.2805 56.9022 41.0395C57.1243 39.9768 57.3497 38.9142 57.5607 37.8493C57.0576 37.8493 56.5546 37.8526 56.0527 37.8471Z" fill="#E21F23"/>
<path d="M60.4876 37.1542C60.7563 37.152 61.0261 37.152 61.2959 37.152C60.9828 38.6877 60.6552 40.2189 60.341 41.7546C60.0701 41.7579 59.7991 41.7579 59.5293 41.7568C59.848 40.2222 60.1689 38.6888 60.4876 37.1542Z" fill="#E21F23"/>
<path d="M67.1383 37.1542C67.4325 37.152 67.7279 37.152 68.0233 37.1531C68.4941 38.2835 68.9505 39.4216 69.4257 40.5509C69.7155 39.4305 69.8976 38.2835 70.1464 37.1531C70.4151 37.152 70.6838 37.152 70.9536 37.152C70.6427 38.6877 70.3163 40.22 70.0042 41.7546C69.7078 41.7579 69.4124 41.759 69.117 41.7568C68.6484 40.6364 68.1909 39.5105 67.7157 38.3934C67.4103 39.4938 67.2427 40.6331 66.9984 41.7502C66.7274 41.7579 66.4554 41.7579 66.1855 41.7568C66.5009 40.2222 66.8218 38.6888 67.1383 37.1542Z" fill="#E21F23"/>
<path d="M70.4434 41.7535C71.3606 40.2178 72.2789 38.6821 73.2027 37.1509C73.4848 37.152 73.7668 37.152 74.05 37.152C74.3209 38.6866 74.5852 40.2211 74.8506 41.7568C74.5752 41.7591 74.2998 41.7579 74.0266 41.7502C73.9667 41.3471 73.9034 40.9462 73.8445 40.5443C73.2349 40.5376 72.6253 40.5409 72.0157 40.5421C71.7825 40.944 71.5427 41.3404 71.3195 41.748C71.0274 41.7591 70.7343 41.7602 70.4434 41.7535ZM72.361 39.9191C72.8263 39.9213 73.2915 39.9213 73.7568 39.9202C73.6635 39.2706 73.5691 38.6211 73.4725 37.9726C73.0906 38.6144 72.7341 39.2718 72.361 39.9191Z" fill="#E21F23"/>
<path d="M76.2228 37.1531C76.4915 37.1519 76.7591 37.1519 77.0289 37.1531C76.7658 38.4544 76.4849 39.7514 76.2261 41.0539C76.9912 41.0517 77.7574 41.0606 78.5247 41.0495C78.4913 41.2804 78.4503 41.5114 78.4092 41.7424C77.3621 41.7712 76.3127 41.7657 75.2656 41.7446C75.5932 40.2156 75.9008 38.6821 76.2228 37.1531Z" fill="#E21F23"/>
<defs>
<linearGradient id="paint0_linear_2228_135" x1="37.5061" y1="13.6996" x2="37.478" y2="24.8797" gradientUnits="userSpaceOnUse">
<stop stop-color="#3B3B3B"/>
<stop offset="1" stop-color="#3B3B3B" stop-opacity="0.24"/>
</linearGradient>
<linearGradient id="paint1_linear_2228_135" x1="37.5061" y1="13.6996" x2="37.478" y2="24.8797" gradientUnits="userSpaceOnUse">
<stop stop-color="#3B3B3B"/>
<stop offset="1" stop-color="#3B3B3B" stop-opacity="0.24"/>
</linearGradient>
<linearGradient id="paint2_linear_2228_135" x1="37.5061" y1="13.6996" x2="37.478" y2="24.8797" gradientUnits="userSpaceOnUse">
<stop stop-color="#3B3B3B"/>
<stop offset="1" stop-color="#3B3B3B" stop-opacity="0.24"/>
</linearGradient>
<linearGradient id="paint3_linear_2228_135" x1="20.5571" y1="21.144" x2="20.5434" y2="30.1364" gradientUnits="userSpaceOnUse">
<stop stop-color="#3B3B3B"/>
<stop offset="1" stop-color="#3B3B3B" stop-opacity="0.24"/>
</linearGradient>
<linearGradient id="paint4_linear_2228_135" x1="20.5571" y1="21.144" x2="20.5434" y2="30.1364" gradientUnits="userSpaceOnUse">
<stop stop-color="#3B3B3B"/>
<stop offset="1" stop-color="#3B3B3B" stop-opacity="0.24"/>
</linearGradient>
<linearGradient id="paint5_linear_2228_135" x1="20.5571" y1="21.144" x2="20.5434" y2="30.1364" gradientUnits="userSpaceOnUse">
<stop stop-color="#3B3B3B"/>
<stop offset="1" stop-color="#3B3B3B" stop-opacity="0.24"/>
</linearGradient>
<linearGradient id="paint6_linear_2228_135" x1="20.5571" y1="21.144" x2="20.5434" y2="30.1364" gradientUnits="userSpaceOnUse">
<stop stop-color="#3B3B3B"/>
<stop offset="1" stop-color="#3B3B3B" stop-opacity="0.24"/>
</linearGradient>
<linearGradient id="paint7_linear_2228_135" x1="51.1621" y1="27.1236" x2="51.1487" y2="36.7813" gradientUnits="userSpaceOnUse">
<stop stop-color="#3B3B3B"/>
<stop offset="1" stop-color="#3B3B3B" stop-opacity="0.24"/>
</linearGradient>
<linearGradient id="paint8_linear_2228_135" x1="51.1621" y1="27.1236" x2="51.1487" y2="36.7813" gradientUnits="userSpaceOnUse">
<stop stop-color="#3B3B3B"/>
<stop offset="1" stop-color="#3B3B3B" stop-opacity="0.24"/>
</linearGradient>
<linearGradient id="paint9_linear_2228_135" x1="51.1621" y1="27.1236" x2="51.1487" y2="36.7813" gradientUnits="userSpaceOnUse">
<stop stop-color="#3B3B3B"/>
<stop offset="1" stop-color="#3B3B3B" stop-opacity="0.24"/>
</linearGradient>
<linearGradient id="paint10_linear_2228_135" x1="51.1621" y1="27.1236" x2="51.1487" y2="36.7813" gradientUnits="userSpaceOnUse">
<stop stop-color="#3B3B3B"/>
<stop offset="1" stop-color="#3B3B3B" stop-opacity="0.24"/>
</linearGradient>
<linearGradient id="paint11_linear_2228_135" x1="51.1621" y1="27.1236" x2="51.1487" y2="36.7813" gradientUnits="userSpaceOnUse">
<stop stop-color="#3B3B3B"/>
<stop offset="1" stop-color="#3B3B3B" stop-opacity="0.24"/>
</linearGradient>
<linearGradient id="paint12_linear_2228_135" x1="51.1621" y1="27.1236" x2="51.1487" y2="36.7813" gradientUnits="userSpaceOnUse">
<stop stop-color="#3B3B3B"/>
<stop offset="1" stop-color="#3B3B3B" stop-opacity="0.24"/>
</linearGradient>
<linearGradient id="paint13_linear_2228_135" x1="51.1621" y1="27.1236" x2="51.1487" y2="36.7813" gradientUnits="userSpaceOnUse">
<stop stop-color="#3B3B3B"/>
<stop offset="1" stop-color="#3B3B3B" stop-opacity="0.24"/>
</linearGradient>
<linearGradient id="paint14_linear_2228_135" x1="51.1621" y1="27.1236" x2="51.1487" y2="36.7813" gradientUnits="userSpaceOnUse">
<stop stop-color="#3B3B3B"/>
<stop offset="1" stop-color="#3B3B3B" stop-opacity="0.24"/>
</linearGradient>
<linearGradient id="paint15_linear_2228_135" x1="51.1621" y1="27.1236" x2="51.1487" y2="36.7813" gradientUnits="userSpaceOnUse">
<stop stop-color="#3B3B3B"/>
<stop offset="1" stop-color="#3B3B3B" stop-opacity="0.24"/>
</linearGradient>
<linearGradient id="paint16_linear_2228_135" x1="14.8945" y1="40.8907" x2="32.1166" y2="36.9853" gradientUnits="userSpaceOnUse">
<stop stop-color="#3B3B3B"/>
<stop offset="1" stop-color="#3B3B3B" stop-opacity="0.24"/>
</linearGradient>
<linearGradient id="paint17_linear_2228_135" x1="14.8945" y1="40.8907" x2="32.1166" y2="36.9853" gradientUnits="userSpaceOnUse">
<stop stop-color="#3B3B3B"/>
<stop offset="1" stop-color="#3B3B3B" stop-opacity="0.24"/>
</linearGradient>
<linearGradient id="paint18_linear_2228_135" x1="14.8945" y1="40.8907" x2="32.1166" y2="36.9853" gradientUnits="userSpaceOnUse">
<stop stop-color="#3B3B3B"/>
<stop offset="1" stop-color="#3B3B3B" stop-opacity="0.24"/>
</linearGradient>
<linearGradient id="paint19_linear_2228_135" x1="14.8945" y1="40.8907" x2="32.1166" y2="36.9853" gradientUnits="userSpaceOnUse">
<stop stop-color="#3B3B3B"/>
<stop offset="1" stop-color="#3B3B3B" stop-opacity="0.24"/>
</linearGradient>
<linearGradient id="paint20_linear_2228_135" x1="14.8945" y1="40.8907" x2="32.1166" y2="36.9853" gradientUnits="userSpaceOnUse">
<stop stop-color="#3B3B3B"/>
<stop offset="1" stop-color="#3B3B3B" stop-opacity="0.24"/>
</linearGradient>
<linearGradient id="paint21_linear_2228_135" x1="33.1754" y1="54.1322" x2="33.1901" y2="42.3064" gradientUnits="userSpaceOnUse">
<stop stop-color="#3B3B3B"/>
<stop offset="1" stop-color="#3B3B3B" stop-opacity="0.24"/>
</linearGradient>
<linearGradient id="paint22_linear_2228_135" x1="33.1754" y1="54.1322" x2="33.1901" y2="42.3064" gradientUnits="userSpaceOnUse">
<stop stop-color="#3B3B3B"/>
<stop offset="1" stop-color="#3B3B3B" stop-opacity="0.24"/>
</linearGradient>
<linearGradient id="paint23_linear_2228_135" x1="33.1754" y1="54.1322" x2="33.1901" y2="42.3064" gradientUnits="userSpaceOnUse">
<stop stop-color="#3B3B3B"/>
<stop offset="1" stop-color="#3B3B3B" stop-opacity="0.24"/>
</linearGradient>
<linearGradient id="paint24_linear_2228_135" x1="33.1754" y1="54.1322" x2="33.1901" y2="42.3064" gradientUnits="userSpaceOnUse">
<stop stop-color="#3B3B3B"/>
<stop offset="1" stop-color="#3B3B3B" stop-opacity="0.24"/>
</linearGradient>
<linearGradient id="paint25_linear_2228_135" x1="54.7859" y1="49.7601" x2="45.8145" y2="43.2066" gradientUnits="userSpaceOnUse">
<stop stop-color="#3B3B3B"/>
<stop offset="1" stop-color="#3B3B3B" stop-opacity="0.24"/>
</linearGradient>
<linearGradient id="paint26_linear_2228_135" x1="54.7859" y1="49.7601" x2="45.8145" y2="43.2066" gradientUnits="userSpaceOnUse">
<stop stop-color="#3B3B3B"/>
<stop offset="1" stop-color="#3B3B3B" stop-opacity="0.24"/>
</linearGradient>
<linearGradient id="paint27_linear_2228_135" x1="54.7859" y1="49.7601" x2="45.8145" y2="43.2066" gradientUnits="userSpaceOnUse">
<stop stop-color="#3B3B3B"/>
<stop offset="1" stop-color="#3B3B3B" stop-opacity="0.24"/>
</linearGradient>
<linearGradient id="paint28_linear_2228_135" x1="54.7859" y1="49.7601" x2="45.8145" y2="43.2066" gradientUnits="userSpaceOnUse">
<stop stop-color="#3B3B3B"/>
<stop offset="1" stop-color="#3B3B3B" stop-opacity="0.24"/>
</linearGradient>
<linearGradient id="paint29_linear_2228_135" x1="54.7859" y1="49.7601" x2="45.8145" y2="43.2066" gradientUnits="userSpaceOnUse">
<stop stop-color="#3B3B3B"/>
<stop offset="1" stop-color="#3B3B3B" stop-opacity="0.24"/>
</linearGradient>
</defs>
</svg>
