<svg width="73" height="338" viewBox="0 0 73 338" fill="none" xmlns="http://www.w3.org/2000/svg">
<g clip-path="url(#clip0_2149_1282)">
<g opacity="0.4">
<path d="M25.8756 70.5242C26.2393 70.7342 26.7394 71.0994 27.0561 71.6466C27.5361 72.4759 27.7029 73.8969 27.7288 74.4031L27.7201 131.212C27.7007 131.418 27.5685 132.641 27.0902 133.537C26.6335 134.393 25.8085 135.033 25.6438 135.156L-23.8912 163.765L-23.9399 163.793L-23.9852 163.826C-24.3114 164.064 -25.361 164.685 -26.2599 164.679C-26.9713 164.674 -27.7497 164.285 -28.1504 164.054C-28.4078 163.906 -28.5685 163.788 -28.5701 163.787L-28.616 163.753L-28.6633 163.726L-77.3583 135.612L-77.3889 135.594L-77.4206 135.579C-77.4206 135.579 -77.4206 135.579 -77.4206 135.579C-77.4207 135.579 -77.5336 135.523 -77.71 135.421C-78.1378 135.174 -79.1872 134.51 -79.6903 133.676C-80.3372 132.603 -80.2021 131.056 -80.2006 131.04L-80.1958 130.991L-80.196 130.945L-80.1874 74.2874C-80.1764 73.9089 -80.0627 72.7882 -79.6656 72.0324C-79.2275 71.1986 -78.3596 70.6095 -78.2569 70.5419L-28.7649 41.9576C-28.5844 41.8745 -27.4254 41.3627 -26.2701 41.3685C-25.1132 41.3743 -23.8505 41.8944 -23.6174 41.9948L25.3459 70.2638L25.4245 70.3092L25.4953 70.3344C25.5181 70.3434 25.6692 70.4051 25.8756 70.5242Z" fill="url(#paint0_linear_2149_1282)"/>
<path d="M25.3758 71.3904C25.2595 71.3233 25.1711 71.2832 25.1389 71.2692L25.0166 71.2285L-24.0677 42.8896C-24.4713 42.7194 -25.4601 42.3728 -26.2749 42.3687C-27.067 42.3647 -27.9603 42.6919 -28.3043 42.8467L-77.7369 71.3967C-77.9111 71.5126 -78.5038 71.9719 -78.7802 72.4978C-79.0487 73.0089 -79.1712 73.8683 -79.1872 74.3062L-79.1958 130.945L-79.1931 131.031L-79.2051 131.137C-79.2318 131.468 -79.2198 132.519 -78.8339 133.159C-78.5721 133.593 -77.9497 134.128 -77.2097 134.556C-77.0832 134.629 -76.9979 134.672 -76.9794 134.682L-76.9261 134.707L-28.1631 162.86L-28.0725 162.909L-27.977 162.982C-27.9532 162.999 -27.8325 163.083 -27.6501 163.188C-27.1218 163.493 -26.5995 163.677 -26.253 163.679C-25.6879 163.683 -24.8839 163.239 -24.5755 163.019L-24.4993 162.961L25.0917 134.32C25.2646 134.186 25.88 133.681 26.2082 133.066C26.5355 132.453 26.6824 131.542 26.7204 131.166L26.729 74.4279C26.7018 73.933 26.5369 72.7457 26.1909 72.1477C25.974 71.7731 25.5871 71.5125 25.3758 71.3904ZM26.3758 69.6584C26.8349 69.9235 27.4915 70.4023 27.9218 71.1458C28.6426 72.3911 28.729 74.3791 28.729 74.3791L28.7203 131.255C28.7203 131.255 28.6053 132.823 27.9725 134.008C27.3398 135.193 26.1894 135.996 26.1894 135.996L-23.3908 164.631C-23.3908 164.631 -24.8233 165.689 -26.2663 165.679C-27.7094 165.67 -29.1631 164.592 -29.1631 164.592L-77.8581 136.478C-77.8581 136.478 -79.712 135.576 -80.5464 134.192C-81.3809 132.809 -81.1958 130.945 -81.1958 130.945L-81.1872 74.2742C-81.1872 74.2742 -81.1531 72.7141 -80.5506 71.5675C-79.9482 70.421 -78.7774 69.688 -78.7774 69.688L-29.2292 41.0713C-29.2292 41.0713 -27.7811 40.3611 -26.2648 40.3687C-24.7486 40.3764 -23.1643 41.1018 -23.1643 41.1018L25.8461 69.398C25.8461 69.398 26.066 69.4795 26.3758 69.6584Z" fill="#FD8605"/>
</g>
<path opacity="0.733" d="M-3.23438 0.838867L66.1899 45.8289C67.6553 46.6757 68.9045 47.8504 69.8398 49.2609C70.7846 50.9617 71.4395 52.8079 71.7778 54.7239L71.8159 146.099C71.5499 148.239 70.8967 150.312 69.8887 152.218C68.8767 153.759 67.4758 155.006 65.8276 155.832L20.1997 185.567L15.811 188.427C13.428 189.979 13.5737 197.927 13.5737 197.927L13.874 322.917C13.874 322.917 14.4506 330.027 11.8906 333.417C9.33063 336.807 3.63477 336.475 3.63477 336.475H-9.99023L-21.458 288.332" stroke="#FF8500" stroke-width="2"/>
</g>
<defs>
<linearGradient id="paint0_linear_2149_1282" x1="-78.0838" y1="133.604" x2="16.0726" y2="61.4941" gradientUnits="userSpaceOnUse">
<stop stop-color="#A8743A"/>
<stop offset="1"/>
</linearGradient>
<clipPath id="clip0_2149_1282">
<rect width="73" height="338" fill="white"/>
</clipPath>
</defs>
</svg>
