<svg width="412" height="627" viewBox="0 0 412 627" fill="none" xmlns="http://www.w3.org/2000/svg">
<g clip-path="url(#clip0_2024_515)">
<g opacity="0.269">
<path d="M-16.4669 596.013C-18.3123 596.372 -20.1091 596.567 -21.8076 596.593C-24.0936 596.628 -26.1286 596.35 -27.8562 595.768C-33.9767 593.706 -38.6176 587.045 -38.6638 586.978L-38.6957 586.932L-38.7326 586.889L-217.391 381.303C-217.704 380.861 -221.213 375.811 -222.133 370.063C-223.064 364.25 -221.394 357.488 -221.261 356.963L-133.219 101.144C-133.041 100.701 -129.674 92.4307 -124.862 88.2559C-121.962 85.7409 -118.478 84.6541 -116.067 84.1853C-114.512 83.8831 -113.457 83.8526 -113.446 83.8524L-113.363 83.8502L-113.28 83.8343L150.984 32.4665C151.634 32.4095 159.315 31.7966 165.606 33.9273C171.915 36.0641 177.069 41.0487 177.445 41.4173L355.98 246.862C356.189 247.126 359.966 251.967 360.826 257.576C361.699 263.267 359.62 270.004 359.535 270.274L271.794 525.219L271.778 525.265L271.767 525.314C271.762 525.334 271.25 527.454 270.045 530.126C268.949 532.558 267.035 535.964 264.147 538.38C262.356 539.877 259.992 541.173 257.122 542.232C254.666 543.138 252.35 543.678 250.84 543.972C249.733 544.187 249.038 544.273 249.032 544.274L248.997 544.278L248.962 544.285L-13.6509 595.332L-13.707 595.343L-13.7614 595.36C-13.7715 595.363 -14.8371 595.696 -16.4669 596.013Z" fill="url(#paint0_linear_2024_515)"/>
<path d="M-115.876 85.1669C-118.168 85.6125 -121.474 86.6411 -124.207 89.0112C-128.779 92.9773 -132.038 100.89 -132.282 101.493L-220.302 357.25C-220.48 357.962 -222.027 364.402 -221.146 369.904C-220.281 375.304 -217.016 380.096 -216.604 380.684L-37.9043 586.318L-37.8405 586.411C-37.7962 586.475 -33.3458 592.864 -27.5372 594.82C-23.728 596.104 -19.0859 595.504 -16.6579 595.032C-15.0933 594.727 -14.071 594.409 -14.063 594.406L-13.9541 594.372L248.841 543.29L248.909 543.282C248.916 543.281 249.583 543.197 250.649 542.99C252.123 542.704 254.382 542.177 256.776 541.294C259.538 540.275 261.802 539.037 263.505 537.613C268.803 533.182 270.775 525.161 270.793 525.083L270.816 524.987L270.848 524.893L358.585 269.96C358.708 269.566 360.664 263.12 359.837 257.727C359.029 252.458 355.488 247.856 355.21 247.501L176.714 42.1015C176.205 41.6044 171.292 36.9092 165.285 34.8744C159.312 32.8512 151.989 33.3858 151.122 33.4583L-113.25 84.8489L-113.421 84.8521C-113.462 84.8534 -114.441 84.888 -115.876 85.1669ZM-116.258 83.2037C-114.587 82.8789 -113.471 82.8527 -113.471 82.8527L150.843 31.4752C150.843 31.4752 159.094 30.6658 165.927 32.9801C172.759 35.2945 178.174 40.7327 178.174 40.7327L356.748 246.222C356.748 246.222 360.88 251.333 361.814 257.424C362.748 263.515 360.485 270.587 360.485 270.587L272.74 525.544C272.74 525.544 270.684 534.216 264.788 539.147C258.891 544.078 249.153 545.267 249.153 545.267L-13.4603 596.314C-13.4603 596.314 -21.6689 598.908 -28.1757 596.716C-34.6826 594.524 -39.4877 587.545 -39.4877 587.545L-218.177 381.923C-218.177 381.923 -222.11 376.532 -223.121 370.221C-224.131 363.909 -222.22 356.676 -222.22 356.676L-134.157 100.796C-134.157 100.796 -130.688 91.9863 -125.517 87.5004C-122.429 84.822 -118.734 83.685 -116.258 83.2037Z" fill="#FD8605"/>
</g>
</g>
<defs>
<linearGradient id="paint0_linear_2024_515" x1="257.081" y1="535.935" x2="-59.5793" y2="59.1336" gradientUnits="userSpaceOnUse">
<stop stop-color="#A8743A"/>
<stop offset="1"/>
</linearGradient>
<clipPath id="clip0_2024_515">
<rect width="412" height="627" fill="white"/>
</clipPath>
</defs>
</svg>
