<svg width="101" height="53" viewBox="0 0 101 53" fill="none" xmlns="http://www.w3.org/2000/svg">
<path d="M93.4574 26.5H30.9414C26.8714 26.5 23.5721 29.7994 23.5721 33.8693V45.6307C23.5721 49.7007 26.8714 53 30.9414 53H93.4574C97.5274 53 100.827 49.7007 100.827 45.6307V33.8693C100.827 29.7994 97.5274 26.5 93.4574 26.5Z" fill="white"/>
<path d="M27.9001 47.6583V30.9153H31.1854L38.0377 42.0957V30.9153H41.1778V47.6583H37.7879L31.0402 36.7393V47.6583H27.9001Z" fill="#231F20"/>
<path d="M44.7565 47.6583V30.9153H57.1685V33.7474H48.1347V37.4597H56.541V40.2802H48.1347V44.8378H57.488V47.6583H44.7565Z" fill="#231F20"/>
<path d="M82.89 42.2088L86.1782 41.8893C86.3718 42.9931 86.7736 43.8045 87.3836 44.3235C88.0787 44.8705 88.949 45.1461 89.8323 45.099C90.9226 45.099 91.7437 44.8686 92.2956 44.4077C92.5481 44.2199 92.754 43.9766 92.8976 43.6966C93.0411 43.4166 93.1184 43.1073 93.1234 42.7927C93.1328 42.4247 93.009 42.0658 92.7748 41.7818C92.4385 41.439 92.0192 41.1888 91.5578 41.0556C91.1705 40.9201 90.268 40.677 88.8505 40.3265C87.038 39.8772 85.7667 39.3253 85.0366 38.6708C84.2211 37.975 83.688 37.0052 83.5377 35.9438C83.3874 34.8824 83.6302 33.8027 84.2204 32.9078C84.7307 32.1446 85.4597 31.5533 86.3118 31.2114C87.3598 30.7991 88.4799 30.6015 89.6058 30.6305C91.7049 30.6305 93.2861 31.0913 94.3492 32.0131C94.8764 32.4714 95.2986 33.0379 95.5873 33.6739C95.8761 34.31 96.0244 35.0007 96.0224 35.6993L92.6441 35.8503C92.4989 34.9886 92.1881 34.3698 91.7117 33.9942C91.2353 33.6165 90.5237 33.4132 89.5709 33.4132C88.6182 33.4132 87.8281 33.6165 87.2645 34.0203C87.0954 34.1344 86.9576 34.2892 86.8637 34.4703C86.7698 34.6515 86.7229 34.8533 86.7272 35.0573C86.7277 35.2539 86.7733 35.4477 86.8604 35.624C86.9475 35.8002 87.0738 35.9541 87.2297 36.074C87.6557 36.4322 88.6908 36.805 90.3349 37.1923C91.5941 37.4493 92.8187 37.8539 93.9832 38.3978C94.7437 38.7857 95.3836 39.3744 95.8335 40.0999C96.2981 40.927 96.5309 41.8641 96.5074 42.8125C96.4839 43.7608 96.2049 44.6852 95.6999 45.4883C95.1595 46.331 94.3694 46.9839 93.44 47.356C92.2774 47.7956 91.0399 48.0028 89.7975 47.966C87.6809 47.966 86.0552 47.477 84.9204 46.4991C83.7856 45.5212 83.1088 44.0911 82.89 42.2088Z" fill="#231F20"/>
<path fill-rule="evenodd" clip-rule="evenodd" d="M72.7524 37.512C72.8395 37.4249 72.8424 37.3668 72.7524 37.2796C72.0146 36.5437 71.2787 35.8079 70.5448 35.072C70.4664 34.9936 70.4083 34.9878 70.3269 35.072L68.1077 37.2941C68.0786 37.3232 68.0409 37.3522 68.0438 37.4016C68.0467 37.451 68.0932 37.4859 68.1309 37.5207C68.8571 38.2498 69.5833 38.9731 70.3095 39.708C70.4025 39.798 70.4635 39.8038 70.5564 39.708C71.2855 38.9702 72.0204 38.2411 72.7524 37.512Z" fill="#231F20"/>
<path fill-rule="evenodd" clip-rule="evenodd" d="M66.4985 43.76L68.5667 41.6947C68.7322 41.5262 68.7322 41.5262 68.5667 41.3548L64.7905 37.5787C64.6104 37.3957 64.6104 37.3957 64.7905 37.2156C66.055 35.953 67.3205 34.6943 68.587 33.4394C68.7061 33.3203 68.7061 33.2506 68.587 33.1315C67.8957 32.4431 67.2131 31.7488 66.5246 31.0575C66.3561 30.889 66.3561 30.889 66.1906 31.0575L60.0035 37.2446C59.835 37.4102 59.835 37.4131 60.0035 37.5816L64.5378 42.1159L66.2051 43.7803C66.2397 43.8313 66.2895 43.8699 66.3474 43.8907C66.4142 43.8675 66.452 43.8065 66.4985 43.76Z" fill="#231F20"/>
<path fill-rule="evenodd" clip-rule="evenodd" d="M72.3254 33.0937C72.1482 33.2709 72.1482 33.2709 72.3254 33.4452L76.1161 37.2359C76.273 37.3927 76.2759 37.3956 76.1161 37.5496L74.6027 39.063C73.8281 39.8376 73.0535 40.6122 72.2789 41.3868C72.1947 41.471 72.1279 41.5407 72.247 41.6569C72.9703 42.3744 73.6993 43.0948 74.4081 43.8151C74.4345 43.8518 74.4741 43.8768 74.5185 43.8849C74.5824 43.8849 74.6202 43.8209 74.6608 43.7803C76.7348 41.7063 78.8098 39.6333 80.8857 37.5612C81.0019 37.445 81.0135 37.3753 80.8857 37.2533C78.8098 35.1812 76.7368 33.1073 74.6666 31.0313C74.5504 30.9151 74.4836 30.9268 74.3762 31.0313C73.7052 31.7198 73.0138 32.4169 72.3254 33.0937Z" fill="#231F20"/>
<path fill-rule="evenodd" clip-rule="evenodd" d="M70.5506 47.8936L72.7204 45.7238C72.793 45.6512 72.8076 45.596 72.7204 45.5175L70.539 43.3361C70.4576 43.2518 70.3966 43.2606 70.3182 43.3361C69.5978 44.0623 68.8755 44.7865 68.1513 45.5088C68.1311 45.5221 68.1141 45.5396 68.1015 45.5602C68.089 45.5808 68.0812 45.6039 68.0786 45.6279C68.0979 45.6566 68.1193 45.6838 68.1425 45.7093L70.324 47.8936C70.3995 47.9808 70.4722 47.9721 70.5506 47.8936Z" fill="#231F20"/>
<path d="M69.8854 0H7.36935C3.29937 0 0 3.29937 0 7.36935V19.1307C0 23.2007 3.29937 26.5 7.36935 26.5H69.8854C73.9554 26.5 77.2547 23.2007 77.2547 19.1307V7.36935C77.2547 3.29937 73.9554 0 69.8854 0Z" fill="white"/>
<path d="M12.9987 3.65982H20.2345C21.3026 3.63815 22.3708 3.69836 23.4297 3.83991C24.1058 3.94867 24.7501 4.20342 25.3178 4.58643C25.8887 4.98071 26.3641 5.49781 26.7091 6.09981C27.0818 6.74264 27.2735 7.47438 27.2639 8.21737C27.2648 9.04788 27.0249 9.86084 26.5733 10.5578C26.1217 11.2548 25.4777 11.806 24.7194 12.1446C25.7237 12.4 26.6171 12.9762 27.2639 13.7858C27.8596 14.5686 28.1729 15.5299 28.1528 16.5133C28.1485 17.3484 27.9496 18.1709 27.5718 18.9156C27.2184 19.6619 26.6781 20.3043 26.0033 20.7804C25.2735 21.2703 24.4306 21.5653 23.5546 21.6373C22.9446 21.7051 21.4748 21.7467 19.1452 21.7622H12.9987V3.65982ZM16.6616 6.66333V10.8491H19.058C20.4814 10.8491 21.3663 10.8278 21.713 10.7852C22.2645 10.7447 22.7854 10.516 23.1886 10.1374C23.3697 9.95062 23.5108 9.7288 23.6032 9.48555C23.6956 9.2423 23.7374 8.98275 23.726 8.7228C23.7482 8.22635 23.5822 7.73982 23.2612 7.36047C22.9001 6.98399 22.4108 6.75694 21.8902 6.72433C21.53 6.68366 20.4872 6.66333 18.7676 6.66333H16.6616ZM16.6616 13.8613V18.7006H20.0369C20.8741 18.7263 21.712 18.6894 22.5437 18.5902C23.056 18.5082 23.5246 18.2529 23.8712 17.867C24.2281 17.4369 24.4105 16.8885 24.3824 16.3303C24.3983 15.8395 24.2601 15.356 23.9874 14.9477C23.7074 14.5545 23.3065 14.2637 22.8458 14.1198C22.3481 13.9455 21.2676 13.8594 19.6041 13.8613H16.6616Z" fill="#231F20"/>
<path d="M30.3139 15.8599L33.8693 15.5142C34.0843 16.7071 34.5181 17.5843 35.1707 18.1459C35.8233 18.7075 36.7063 18.9873 37.8198 18.9854C38.9817 18.9854 39.8851 18.7356 40.4806 18.2389C40.7531 18.0362 40.9755 17.7737 41.1306 17.4715C41.2857 17.1693 41.3694 16.8356 41.3752 16.496C41.3859 16.0987 41.2529 15.7109 41.0005 15.4038C40.6356 15.0349 40.1827 14.765 39.6847 14.6195C39.2567 14.4704 38.2817 14.2071 36.7596 13.8294C34.7998 13.3434 33.4249 12.7469 32.6348 12.0401C32.1062 11.5929 31.6827 11.0346 31.3945 10.405C31.1063 9.77539 30.9605 9.08996 30.9675 8.39756C30.9666 7.47618 31.2396 6.57533 31.7518 5.80943C32.3029 4.9845 33.0907 4.34555 34.0117 3.97653C35.1444 3.52538 36.357 3.30896 37.5758 3.3404C39.8473 3.3404 41.5573 3.83905 42.7056 4.83634C43.8539 5.83364 44.4572 7.16208 44.5153 8.82166L40.8611 8.98432C40.7042 8.0548 40.3702 7.38381 39.8531 6.97714C39.3361 6.57048 38.5692 6.36714 37.5293 6.36714C36.4894 6.36714 35.6383 6.585 35.0371 7.02072C34.8537 7.14436 34.7045 7.31212 34.6029 7.50855C34.5014 7.70499 34.4509 7.9238 34.4561 8.14485C34.4566 8.35722 34.5059 8.56664 34.6001 8.75699C34.6942 8.94734 34.8308 9.11356 34.9993 9.24285C35.4602 9.63015 36.5795 10.0339 38.3572 10.4541C40.1349 10.8743 41.4498 11.3081 42.3018 11.7555C43.1235 12.1754 43.8153 12.811 44.3032 13.5942C44.8034 14.486 45.0541 15.4962 45.0291 16.5184C45.004 17.5407 44.7041 18.5373 44.1609 19.4037C43.5792 20.3213 42.7235 21.0327 41.7151 21.437C40.4583 21.9137 39.1198 22.1378 37.7762 22.0964C35.4892 22.0964 33.7319 21.5677 32.5041 20.5104C31.2764 19.453 30.5463 17.9029 30.3139 15.8599Z" fill="#231F20"/>
<path d="M59.6955 15.096L63.2393 16.2201C62.6952 18.1953 61.7918 19.6622 60.5292 20.6208C59.2666 21.5794 57.6632 22.0635 55.7189 22.0732C53.3177 22.0732 51.3424 21.2521 49.7932 19.61C48.244 17.9678 47.4694 15.7224 47.4694 12.8738C47.4694 9.86259 48.244 7.5233 49.7932 5.85597C51.3424 4.18864 53.3883 3.35498 55.931 3.35498C58.1444 3.35498 59.9424 4.00952 61.3251 5.31859C62.15 6.09319 62.7678 7.20474 63.1783 8.65325L59.5619 9.52467C59.3937 8.64592 58.9162 7.85651 58.216 7.29961C57.5157 6.74272 56.6391 6.4552 55.7451 6.48921C55.1266 6.46994 54.5118 6.59054 53.9465 6.84202C53.3812 7.0935 52.8799 7.46936 52.4801 7.94158C51.6435 8.90983 51.2253 10.4697 51.2253 12.6211C51.2253 14.9101 51.6368 16.5396 52.4598 17.5098C52.8492 17.9808 53.3411 18.3565 53.8979 18.6082C54.4547 18.8599 55.0617 18.981 55.6724 18.9622C56.6055 18.9784 57.5095 18.6376 58.1996 18.0094C58.8928 17.3917 59.3915 16.4205 59.6955 15.096Z" fill="#231F20"/>
</svg>
