<svg width="115" height="30" viewBox="0 0 115 30" fill="none" xmlns="http://www.w3.org/2000/svg">
<path d="M56.3408 1.67745C59.2792 1.08137 62.2253 0.51298 65.1799 0C65.2564 1.16256 65.2879 2.32895 65.2487 3.49342C65.1217 5.53388 65.2019 7.58006 65.1799 9.62338C66.4323 9.04831 67.7649 8.59074 69.1596 8.59074C69.8751 8.54106 70.6021 8.47515 71.3118 8.6194C73.102 9.02825 74.7451 10.0408 75.9153 11.4546C76.947 12.686 77.6032 14.2173 77.8124 15.8088C78.1181 18.0135 78.1649 20.3023 77.5259 22.4555C77.1552 23.8903 76.4741 25.2449 75.5179 26.3788C73.7946 28.4546 71.1962 29.7796 68.5005 29.9295C66.5278 30.0451 64.5313 30.0499 62.5797 29.7003C61.4515 29.5197 60.3253 29.3239 59.2114 29.0698C59.2114 22.6485 59.2086 16.2272 59.2124 9.80489C59.2898 8.09782 59.2267 6.3812 58.9688 4.69037C58.8771 4.12485 58.6067 3.58226 58.1883 3.18869C57.6973 2.81136 57.0372 2.84384 56.4927 2.59738C56.2749 2.35952 56.3552 1.97645 56.3408 1.67745ZM65.2459 11.2311C65.2115 16.7449 65.3032 22.2578 65.4178 27.7697C65.414 27.954 65.4904 28.1298 65.5936 28.2788C66.7227 28.5635 68.0668 28.3715 68.8893 27.4841C69.9936 26.1897 70.774 24.6211 71.1475 22.9609C71.3376 22.1556 71.3873 21.3283 71.4513 20.5068C71.5354 19.3108 71.5296 18.1081 71.436 16.913C71.3892 16.358 71.3519 15.7982 71.2144 15.2557C70.8361 13.6938 69.8675 12.2781 68.532 11.3792C67.9827 11.0104 67.2978 11.084 66.6711 11.0372C66.1868 11.0047 65.7101 11.105 65.2459 11.2311Z" fill="white"/>
<path d="M0.0229265 0.504331C7.90103 0.503376 15.7791 0.504331 23.6572 0.504331C23.6582 3.29181 23.6572 6.07928 23.6572 8.86676C23.3277 8.86676 22.9876 8.84956 22.6771 8.98235C22.4727 9.02629 22.1909 9.21257 22.0304 8.9919C21.8107 8.68717 21.7238 8.31175 21.6082 7.96021C21.0551 6.06878 19.7779 4.38463 18.0737 3.38733C16.7096 2.77883 15.1716 2.59637 13.6947 2.77692C12.8063 2.82181 11.916 2.78456 11.0267 2.79602C10.9397 3.15425 10.892 3.52012 10.8815 3.8879C10.7458 7.28865 10.6914 10.6913 10.7057 14.094C11.5005 14.0988 12.2962 14.0854 13.092 14.0997C13.6995 14.1274 14.3462 14.1933 14.9175 13.9354C15.5996 13.5552 16.1507 12.9505 16.4918 12.2494C16.8194 11.5883 16.8777 10.8413 17.0487 10.1334C17.4604 10.1334 17.8712 10.1334 18.2829 10.1334C18.2829 13.3833 18.2829 16.6331 18.2829 19.8829C17.8339 19.8829 17.3859 19.8829 16.9369 19.8829C16.7344 19.2811 16.6742 18.6363 16.401 18.0574C16.0571 17.3381 15.5193 16.6751 14.8076 16.2988C13.476 15.9195 12.0784 15.9272 10.7057 15.9415C10.7038 18.5809 10.7019 21.2299 11.0095 23.8549C11.0391 24.2695 10.999 24.6889 11.0802 25.0987C11.2598 26.0683 11.8033 26.9901 12.6162 27.5595C13.3671 27.847 14.1953 27.8317 14.9643 28.0648C15.1105 28.4718 15.1085 28.9112 14.9538 29.3162C9.96919 29.3124 4.9846 29.3181 0 29.3133V28.8051C0.0363002 28.573 -0.0238817 28.2215 0.257923 28.1279C0.992525 27.8403 1.85322 27.9683 2.53146 27.5213C3.28804 27.0646 3.66155 26.1992 3.81917 25.3624C4.13059 23.7317 4.13918 22.0628 4.19841 20.4093C4.24808 18.1176 4.25286 15.8249 4.24808 13.5332C4.23567 11.1709 4.24713 8.80562 4.08378 6.44802C3.99303 5.39818 3.87839 4.3149 3.39216 3.3625C3.09698 2.74921 2.50281 2.32603 1.86851 2.11778C1.27337 1.92195 0.63812 1.9936 0.0219712 1.98213C0.0219712 1.48921 0.0219712 0.99725 0.0229265 0.504331Z" fill="white"/>
<path d="M86.1414 8.63745C88.4532 7.83693 91.0591 7.90762 93.3155 8.85621C95.3712 9.96241 96.914 11.9561 97.5273 14.2038C97.9084 15.5259 97.8702 16.9158 97.8454 18.2771C93.7778 18.279 89.7113 18.2771 85.6437 18.278C85.5663 20.2755 85.9676 22.3293 87.0174 24.0479C87.8303 25.2238 88.99 26.2049 90.3723 26.628C91.1107 26.8707 91.8941 26.928 92.6678 26.8917C93.6537 26.9032 94.6433 26.6892 95.5308 26.2536C96.0208 26.0205 96.4526 25.6804 96.9541 25.4674C97.191 25.6432 97.3744 25.8762 97.4852 26.1514C96.5711 27.6072 95.0598 28.5472 93.5027 29.1901C92.5608 29.5626 91.5683 29.8291 90.5529 29.8769C89.118 29.9572 87.6421 29.9428 86.2666 29.4795C84.4525 28.8949 82.8152 27.7715 81.6259 26.2813C80.556 24.9535 79.8433 23.34 79.5883 21.653C79.4192 20.7044 79.4335 19.7386 79.4163 18.7786C79.4125 17.4269 79.6762 16.0866 80.1127 14.8104C81.0059 11.9589 83.3052 9.58794 86.1414 8.63745ZM87.197 10.9406C86.3955 12.0296 86.0297 13.366 85.7756 14.6757C85.638 15.2728 85.6991 15.8889 85.6886 16.4955C87.6192 16.5117 89.5498 16.4372 91.4804 16.4506C91.4785 15.9902 91.4986 15.5278 91.446 15.0683C91.3152 13.7682 91.1776 12.4385 90.6646 11.2234C90.4038 10.612 89.9281 9.99393 89.2241 9.907C88.4064 9.78473 87.6593 10.3101 87.197 10.9406Z" fill="white"/>
<path d="M29.4748 8.25548C31.3863 8.04532 33.3494 8.32235 35.1243 9.06364C36.6976 9.67119 37.9748 10.8739 38.9425 12.2304C39.8586 13.5439 40.448 15.0828 40.641 16.6724C40.8225 18.3288 40.812 20.0082 40.5722 21.6589C40.2665 23.6783 39.3093 25.5936 37.8736 27.0475C36.3451 28.6142 34.2741 29.6306 32.1047 29.9076C30.8944 30.007 29.6754 30.0051 28.4661 29.9C26.1056 29.6019 23.8846 28.3075 22.4842 26.3817C21.0656 24.4779 20.5345 22.0639 20.4256 19.7321C20.373 17.4041 20.7456 14.9806 21.9655 12.9592C22.8682 11.4509 24.1788 10.188 25.7225 9.34831C26.8927 8.76082 28.1757 8.40355 29.4748 8.25548ZM29.4233 10.1784C28.7412 10.5386 28.2989 11.2149 27.9904 11.8998C27.5127 12.9888 27.2911 14.1705 27.1449 15.3445C26.9396 17.6295 26.9386 19.9317 27.1211 22.2177C27.2233 23.2446 27.4134 24.2648 27.7171 25.2516C28.0314 26.2346 28.467 27.229 29.2504 27.9302C29.8455 28.4718 30.7224 28.6696 31.4895 28.4164C31.5707 28.3247 31.6691 28.2483 31.7837 28.2034C32.4304 27.9302 33.0103 27.4593 33.3513 26.8402C34.2798 24.5724 34.6572 22.0878 34.5005 19.6432C34.4824 17.8254 34.4002 15.9922 33.9847 14.2154C33.678 12.9143 33.1698 11.6085 32.206 10.6503C31.5287 9.87848 30.3203 9.72469 29.4233 10.1784Z" fill="white"/>
<path d="M42.1283 9.60437C44.6311 9.09904 47.1292 8.56122 49.6473 8.13422C49.6539 9.60629 49.6473 11.0784 49.6511 12.5504C50.1239 11.6334 50.635 10.7173 51.3916 9.99986C52.3822 9.05223 53.6307 8.25553 55.0312 8.16096C55.6492 8.13517 56.2988 8.06257 56.8825 8.32336C57.2655 8.47143 57.5875 8.73508 57.8721 9.02548C57.2073 10.9131 56.4067 12.7501 55.6607 14.6071C55.377 14.5221 55.0961 14.4228 54.8325 14.2862C53.8657 13.7827 52.7528 13.5496 51.6657 13.6576C50.9646 13.7416 50.2816 14.0101 49.7246 14.4457C49.4896 14.6367 49.5422 14.9787 49.5145 15.2472C49.4476 18.7167 49.4104 22.1948 49.6845 25.6567C49.6272 26.5107 50.0943 27.4068 50.8872 27.765C51.6027 27.9522 52.3469 28.0105 53.0834 28.0621C53.0939 28.4862 53.0585 28.9094 53.0624 29.3345C48.9509 29.3336 44.8394 29.3345 40.7279 29.3336C40.6725 28.9199 40.7757 28.5092 40.7556 28.0946C41.3909 28.0105 42.0825 27.9599 42.6203 27.5759C42.99 27.2979 43.2489 26.8737 43.3138 26.4152C43.6186 24.0433 43.7141 21.6455 43.6186 19.2564C43.6023 17.6277 43.6195 15.997 43.5354 14.3693C43.4839 13.648 43.459 12.9096 43.2231 12.2199C43.0358 11.6725 42.5678 11.2073 41.985 11.1118C41.5571 11.0449 41.131 10.9656 40.7107 10.8615C40.6887 10.5654 40.6773 10.2692 40.6706 9.97311C41.1377 9.78397 41.6402 9.71519 42.1283 9.60437Z" fill="white"/>
<path d="M102.3 9.69124C103.552 8.80189 105.068 8.29082 106.604 8.23923C109.015 8.08926 111.472 8.4045 113.729 9.28239C113.728 11.1146 113.73 12.9458 113.728 14.7781C113.405 14.8908 113.089 15.0856 112.737 15.0665C112.43 14.7675 112.35 14.3243 112.225 13.9317C111.827 12.4367 110.762 11.1404 109.379 10.4497C108.787 10.1574 108.136 9.9186 107.465 9.97973C106.432 10.0533 105.491 10.7869 105.142 11.7565C104.956 12.3603 104.883 13.0261 105.044 13.6441C105.213 14.2937 105.744 14.7437 106.268 15.1181C107.298 15.889 108.467 16.467 109.695 16.8433C111.471 17.3878 113.044 18.5743 114.046 20.14C114.42 20.7943 114.568 21.5547 114.632 22.2989V22.7909C114.626 25.1857 113.227 27.5051 111.141 28.6686C110.197 29.2179 109.117 29.4567 108.052 29.6392C107.037 29.8025 106.009 29.6793 104.988 29.7099C103.621 29.7681 102.274 29.4682 100.954 29.152C100.301 29.0125 99.6852 28.7173 99.0137 28.6734C99.0146 26.6043 99.0165 24.5352 99.0127 22.467C99.3948 22.3724 99.7846 22.3065 100.179 22.296C100.481 22.958 100.625 23.6802 100.956 24.3288C101.399 25.2316 102.046 26.033 102.836 26.6559C103.577 27.2099 104.414 27.7535 105.372 27.7726C106.319 27.8318 107.357 27.7067 108.096 27.0561C109.251 26.1152 109.535 24.1483 108.454 23.0497C107.666 22.2645 106.621 21.8174 105.618 21.3799C104.714 20.9692 103.734 20.738 102.875 20.2288C101.838 19.6289 100.844 18.8676 100.221 17.8254C99.3948 16.4603 99.2898 14.7456 99.6977 13.2267C100.089 11.7737 101.077 10.5424 102.3 9.69124Z" fill="white"/>
</svg>
