<svg width="127" height="40" viewBox="0 0 127 40" fill="none" xmlns="http://www.w3.org/2000/svg">
<path d="M26.9047 0.286393C27.8142 0.286393 28.7282 0.286393 29.6415 0.280086C29.6315 3.54808 29.6743 6.8167 29.6214 10.0847C29.598 12.194 28.708 14.442 26.7747 15.4885C24.5897 16.6011 21.8194 16.5948 19.6773 15.3856C17.8538 14.3184 16.9676 12.124 17.0168 10.0778C17.0269 6.81292 17.0199 3.54808 17.0237 0.283239H19.6799C19.6868 3.1097 19.6736 5.933 19.683 8.75946C19.7297 10.0582 19.7329 11.4718 20.5137 12.5787C21.5633 14.0238 23.7653 14.1601 25.2445 13.3464C26.583 12.539 26.8687 10.8555 26.8952 9.41735C26.9179 6.37454 26.8977 3.3292 26.9047 0.286393M38.7618 0.346316C41.0628 -0.337433 43.6307 0.0776099 45.68 1.30319C45.6674 2.25943 45.6674 3.21251 45.6674 4.16623C43.9473 2.88388 41.6589 1.94089 39.5231 2.68772C38.5997 2.96399 37.9954 4.0754 38.4401 4.96982C38.8053 5.8264 39.7988 6.07556 40.5847 6.39472C42.2783 7.06901 44.2311 7.43107 45.487 8.86228C47.1011 10.812 46.6924 14.2831 44.3276 15.4689C41.6671 16.8471 38.3423 16.4087 35.7915 14.9738C35.7884 13.9904 35.7883 13.0108 35.7783 12.0275C37.6983 13.506 40.362 14.3827 42.7135 13.4826C43.9959 13.0178 44.1586 11.0226 42.9961 10.3339C41.1921 9.24137 38.9769 9.01871 37.2467 7.77988C35.7259 6.68614 35.2774 4.5182 35.9088 2.81072C36.38 1.57189 37.5198 0.711529 38.7618 0.346316M63.455 0.0473332C67.0749 3.36894 70.5959 6.80346 74.1496 10.1976V0.283239H76.8064V16.3192C73.1826 12.8777 69.6592 9.33409 66.0152 5.91156V15.9691C65.1555 15.9754 64.2983 15.9754 63.4417 15.9786C63.4461 10.6694 63.4196 5.36153 63.455 0.0473332M83.7858 0.280086C86.9913 0.280086 90.1931 0.296485 93.3949 0.269993C93.4144 1.07737 93.4144 1.88412 93.4144 2.6915C91.1165 2.6915 88.8212 2.68772 86.5227 2.6915V6.42122C88.572 6.42815 90.6182 6.42122 92.6676 6.42815V8.83263C90.618 8.83557 88.5697 8.83557 86.5227 8.83263C86.5227 10.4095 86.5227 11.9915 86.5296 13.569C88.8212 13.559 91.1165 13.569 93.405 13.5621C93.4081 14.3928 93.4113 15.2261 93.4113 16.0568H83.7795C83.7858 10.7987 83.7763 5.5413 83.7858 0.280086M101.2 0.897605C103.691 -0.543694 106.873 -0.102158 109.317 1.22686C109.364 2.20329 109.364 3.18224 109.361 4.15929C107.587 2.8309 105.198 1.88097 103.02 2.75142C101.785 3.19296 101.641 5.05624 102.764 5.70025C104.593 6.74984 106.83 6.96178 108.54 8.25106C110.839 9.96485 110.669 14.1134 108.042 15.4418C105.381 16.837 102.024 16.4251 99.4792 14.9504C99.4792 13.9803 99.4792 13.0108 99.4628 12.0407C101.316 13.3653 103.674 14.266 105.96 13.6485C106.803 13.436 107.577 12.6784 107.457 11.7487C107.474 11.0378 106.976 10.4133 106.351 10.1213C104.558 9.1909 102.441 8.92851 100.815 7.67013C98.692 6.02573 98.8321 2.25627 101.2 0.897605M117.143 0.95122C119.613 -0.543694 122.848 -0.141896 125.29 1.22308C125.3 2.19004 125.3 3.15322 125.307 4.11955C123.549 2.79116 121.151 1.89106 119.003 2.76782C117.804 3.2327 117.667 5.04299 118.763 5.70025C120.636 6.79021 122.968 6.96178 124.682 8.35451C126.157 9.51701 126.452 11.6723 125.881 13.3729C125.346 14.8867 123.821 15.7698 122.323 16.0927C120.025 16.5677 117.57 16.1426 115.528 14.9939C115.494 14.0074 115.494 13.0209 115.491 12.0344C117.424 13.4694 120.058 14.389 122.406 13.4852C123.685 13.0203 123.881 11.0605 122.729 10.3496C120.875 9.19027 118.537 9.02501 116.799 7.64931C114.751 6.00617 114.847 2.33386 117.143 0.95122M0 0.283239C2.78483 0.445977 5.67689 -0.126127 8.37151 0.751898C11.3639 1.71129 11.789 6.39157 9.05905 7.91234C11.5468 8.94238 12.1176 12.4696 10.4108 14.4225C9.36119 15.6714 7.6474 16.0032 6.09634 16.0498C4.06339 16.0833 2.03422 16.0498 0.00126153 16.0599V0.283239M2.66183 2.69465C2.65846 4.07645 2.65846 5.45804 2.66183 6.83941C4.08988 6.77003 5.57155 7.03873 6.96617 6.63694C8.65031 6.14872 8.66356 3.37525 6.98951 2.87064C5.57786 2.51173 4.09997 2.75773 2.66183 2.69465M2.66183 9.1682C2.65552 10.6625 2.65867 12.1574 2.66183 13.6466C4.30182 13.5306 6.06291 13.9689 7.61397 13.2814C9.15177 12.5308 9.01237 9.97305 7.4014 9.39843C5.87368 8.9222 4.23622 9.27227 2.66183 9.1682ZM53.2265 0.283239H55.8858V16.0599H53.2265V0.283239ZM42.3388 24.7784C44.8196 23.2071 48.128 23.643 50.5792 25.061C50.5659 26.0109 50.5659 26.9608 50.5691 27.9101C48.7758 26.5988 46.3114 25.5857 44.1523 26.5918C43.0863 27.1002 42.9469 28.6841 43.9063 29.3716C45.873 30.6205 48.4869 30.6804 50.1837 32.3879C51.319 33.4602 51.5083 35.1709 51.2169 36.6323C50.8781 38.0938 49.6027 39.1832 48.1974 39.5969C45.7374 40.3539 42.9766 39.9457 40.7645 38.6602C40.7714 37.687 40.7746 36.7143 40.7645 35.7411C42.6347 37.1458 45.1754 38.0692 47.4739 37.2454C48.8616 36.8733 49.1379 34.7413 47.882 34.0437C46.0257 32.8843 43.6641 32.7386 41.9566 31.3036C40.0208 29.6674 40.1469 26.1465 42.3388 24.7784M10.547 24.1142H13.2007C13.207 29.3155 13.208 34.5189 13.2038 39.7244H10.547V24.1142ZM20.7566 23.749C24.2908 27.1229 27.8167 30.5108 31.3818 33.8526C31.3951 30.5776 31.385 27.3058 31.3881 24.0347C32.2712 24.0309 33.157 24.0297 34.0455 24.0309C34.0519 29.3552 34.0386 34.6757 34.0519 40C30.4483 36.5844 26.9147 33.0919 23.3383 29.646C23.3213 33.0042 23.3383 36.3649 23.3314 39.7262H20.7572C20.7539 34.3988 20.7536 29.073 20.7566 23.749V23.749ZM58.125 24.1142H60.7824V39.7244H58.125V24.1142ZM68.4248 24.1142C70.5639 24.1142 72.7051 24.1119 74.8485 24.1072C77.2826 24.0776 79.7968 25.3234 80.9865 27.4989C82.265 29.7835 82.3476 32.6232 81.5541 35.0844C80.7039 37.6706 78.1726 39.4998 75.4761 39.6745C73.1278 39.7944 70.7763 39.6916 68.4248 39.7244V24.1142ZM71.1617 26.5218V37.3129C73.0647 37.2436 75.114 37.6056 76.884 36.7156C78.587 35.8382 79.3654 33.8456 79.3156 32.012C79.3849 30.1588 78.7308 28.0798 77.024 27.1299C75.2332 26.1301 73.1114 26.6486 71.1617 26.5218M87.5193 24.1142C90.7009 24.1112 93.8839 24.1112 97.0684 24.1142C97.0684 24.9178 97.0647 25.7214 97.0647 26.5256C94.767 26.5189 92.4708 26.5189 90.1761 26.5256V30.172C92.2223 30.1758 94.2706 30.1771 96.321 30.1758V32.5008C94.2716 32.5008 92.221 32.497 90.1761 32.5008V37.3098C92.4714 37.3167 94.7699 37.3098 97.0684 37.3136V39.7212H87.5193V24.1142ZM104.877 24.111C107.032 24.1306 109.188 24.0908 111.34 24.1243C113.169 24.1703 115.103 25.2237 115.629 27.0699C116.101 28.6746 115.988 30.5776 114.958 31.9489C114.327 32.7689 113.304 33.0786 112.348 33.341C114.214 35.4494 116.066 37.573 117.905 39.7117C116.853 39.7319 115.806 39.7319 114.763 39.7117C112.982 37.5962 111.167 35.5102 109.378 33.4079C108.787 33.4117 108.2 33.4117 107.612 33.4117C107.606 35.514 107.609 37.6163 107.609 39.7193C106.696 39.7223 105.782 39.7223 104.869 39.7193V24.106M107.609 26.4398C107.603 27.9877 107.606 29.5356 107.609 31.0829C109.028 31.0034 110.511 31.3055 111.884 30.864C113.581 30.1828 113.618 27.4579 111.947 26.7318C110.573 26.2064 109.055 26.5155 107.617 26.4423" fill="white" fill-opacity="0.8"/>
</svg>
