<svg width="172" height="40" viewBox="0 0 172 40" fill="none" xmlns="http://www.w3.org/2000/svg">
<path d="M4.665 2.17516C7.66037 0.420068 11.2222 -0.134484 14.6529 0.0265148C18.5189 0.330624 22.522 1.80943 24.9568 4.96183C24.4361 4.97177 23.9133 4.97376 23.3906 4.96382C21.391 3.07755 18.7713 1.91676 16.0661 1.50333C13.0707 0.966671 9.93424 1.3483 7.10185 2.43951C4.95519 3.30016 2.83239 4.67561 1.80875 6.82624C0.914316 8.57139 1.28402 10.7518 2.40107 12.3062C3.56782 14.0314 5.41036 15.1584 7.29862 15.9495C11.8722 17.8199 17.2468 17.2733 21.4864 14.7927C21.3493 15.3771 21.2042 15.9614 21.067 16.5458C19.1271 17.315 17.1355 18.0465 15.0365 18.1975C11.6078 18.6507 8.07778 17.8636 5.03669 16.2576C3.59167 15.4705 2.32355 14.3753 1.28799 13.0973C1.08923 15.1564 1.79882 17.313 3.39291 18.6766C5.47794 20.7576 8.42363 21.6302 11.2759 21.982C14.2514 22.2682 17.3322 22.0019 20.0871 20.7735C19.9917 21.1611 19.9003 21.5507 19.8108 21.9423C19.7611 22.0198 19.6598 22.1768 19.6101 22.2563C17.5409 23.2621 15.1538 23.3654 12.8879 23.3555C9.38962 23.3773 5.8059 22.4153 3.03712 20.217C2.34542 19.6724 1.78888 18.9866 1.17072 18.3645C1.34365 19.2748 1.19855 20.2349 1.5285 21.1194C2.1546 23.1229 3.84013 24.5838 5.63099 25.5578C9.60429 27.6786 14.4064 27.8456 18.6819 26.6073C18.5984 26.975 18.5109 27.3407 18.4215 27.7084C18.3777 27.7859 18.2863 27.941 18.2426 28.0185C17.5052 28.3305 16.6863 28.3623 15.9031 28.4935C12.2339 28.897 8.35804 28.5154 5.07843 26.7206C3.60757 25.8639 2.20827 24.7826 1.26812 23.3416C1.30389 24.399 1.14886 25.5021 1.57024 26.5039C2.21821 28.4458 3.90969 29.7855 5.63099 30.7555C7.53317 31.8308 9.69572 32.3436 11.8603 32.5424C13.7108 32.7749 15.5692 32.4291 17.3839 32.0892L17.2388 32.5602C18.5209 32.1309 19.7313 31.5207 20.9756 30.994C22.0668 30.4792 23.2256 30.1015 24.2731 29.4913L24.2671 29.5768C24.2532 29.7497 24.2254 30.0936 24.2135 30.2665L24.2015 29.9525C21.5321 32.4648 17.859 33.6952 14.2415 33.8522C10.9837 34.0112 7.64646 33.3792 4.78426 31.7771C2.33946 30.3997 0.113296 28.0423 0.00795075 25.0947C-0.00795039 19.9248 0.00795057 14.7549 0 9.58509C0.0119259 8.74829 -0.00993787 7.88963 0.280258 7.0906C1.01569 4.9499 2.70518 3.24451 4.665 2.17516Z" fill="white"/>
<path d="M53.8552 6.03505C55.0279 4.4986 57.3713 4.37537 58.9833 5.24595C59.9334 5.77467 60.3389 6.86191 60.3727 7.90144C59.7605 7.89349 59.1483 7.89349 58.5361 7.89548C58.4486 7.34292 58.381 6.64525 57.8086 6.37096C57.1189 6.06685 56.1569 5.9794 55.6143 6.6055C54.857 7.40255 54.9265 8.57923 54.9067 9.5969C54.9424 10.4675 54.8609 11.4335 55.4175 12.1689C55.9382 13.0236 57.2163 13.113 57.9815 12.5525C58.4248 12.2226 58.4784 11.6283 58.5242 11.1194C59.1165 11.1353 59.7128 11.1353 60.3071 11.1194C60.3409 12.1133 59.9374 13.1329 59.0946 13.6994C57.4846 14.723 55.0557 14.5243 53.8452 12.9719C53.0402 11.9721 53.0283 10.6225 53.0244 9.4041C53.0263 8.2473 53.084 6.97123 53.8552 6.03505Z" fill="white"/>
<path d="M65.2305 4.94392C66.1567 4.60403 67.1943 4.60602 68.1324 4.90416C69.5774 5.42294 70.5911 6.8938 70.5971 8.42428C70.5852 9.83352 70.8595 11.4077 69.9968 12.6381C68.6611 14.8563 64.992 14.902 63.5529 12.7732C62.6386 11.5012 62.7916 9.85538 62.8374 8.37658C62.8751 6.88982 63.8411 5.48456 65.2305 4.94392ZM65.8387 6.33924C64.8548 6.80038 64.666 8.02675 64.6541 9.0007C64.668 10.0422 64.5467 11.2149 65.1967 12.1054C65.8129 13.0316 67.3274 13.1489 68.0668 12.3141C68.7864 11.6085 68.7685 10.5212 68.7784 9.58705C68.7605 8.63497 68.85 7.53183 68.1344 6.79044C67.6057 6.11067 66.5841 5.96159 65.8387 6.33924Z" fill="white"/>
<path d="M73.6044 4.8186C74.2325 4.8186 74.8606 4.8186 75.4887 4.8186C75.4887 7.94914 75.4887 11.0777 75.4887 14.2082C74.8586 14.2043 74.2285 14.2043 73.5984 14.2202C73.6124 11.0876 73.6004 7.95312 73.6044 4.8186Z" fill="white"/>
<path d="M78.7723 4.8186C79.3944 4.8186 80.0185 4.8186 80.6406 4.8186C81.9048 6.92749 83.1769 9.03042 84.4331 11.1453C84.4331 9.03638 84.4331 6.92749 84.4331 4.8186C85.0612 4.8186 85.6873 4.8186 86.3174 4.8186C86.3213 7.95312 86.3094 11.0876 86.3233 14.2202C85.7091 14.2023 85.095 14.2023 84.4828 14.2182C83.1828 12.1073 81.9147 9.97455 80.6685 7.82988C80.6426 9.95666 80.6645 12.0815 80.6565 14.2082C80.0265 14.2043 79.3964 14.2043 78.7663 14.2202C78.7802 11.0876 78.7683 7.95312 78.7723 4.8186Z" fill="white"/>
<path d="M88.6071 4.8186C90.9923 4.8186 93.3775 4.8186 95.7626 4.8186C95.7626 5.29763 95.7606 5.77665 95.7626 6.25766C94.8662 6.25766 93.9718 6.25368 93.0773 6.25964C93.0753 8.91315 93.0694 11.5667 93.0813 14.2202C92.4492 14.2043 91.8211 14.2043 91.1911 14.2082C91.1891 11.5567 91.193 8.90718 91.1891 6.25567C90.3284 6.25766 89.4678 6.25766 88.6071 6.25766C88.6071 5.77665 88.6071 5.29763 88.6071 4.8186Z" fill="white"/>
<path d="M98.1896 4.82084C100.195 4.81687 102.199 4.81886 104.204 4.81886C104.204 5.30185 104.204 5.78684 104.212 6.26984C102.839 6.24002 101.465 6.26984 100.092 6.25195C100.092 7.03309 100.09 7.81423 100.092 8.59538C101.249 8.59538 102.403 8.59538 103.56 8.59538C103.558 9.09229 103.562 9.5892 103.574 10.0881C102.409 10.0742 101.245 10.0881 100.08 10.0782C100.1 10.9746 100.09 11.871 100.092 12.7694C101.463 12.7694 102.833 12.7694 104.204 12.7694C104.204 13.2524 104.204 13.7374 104.212 14.2204C102.205 14.1946 100.197 14.2085 98.1896 14.2144C98.1936 11.0819 98.1916 7.95138 98.1896 4.82084Z" fill="white"/>
<path d="M106.893 4.8186C107.522 4.8186 108.148 4.8186 108.778 4.8186C108.772 7.46416 108.79 10.1097 108.768 12.7553C110.161 12.7851 111.556 12.7612 112.95 12.7692C112.95 13.2522 112.95 13.7372 112.958 14.2202C110.936 14.1903 108.915 14.2162 106.893 14.2082C106.893 11.0777 106.893 7.94914 106.893 4.8186Z" fill="white"/>
<path d="M115.639 4.8186C117.643 4.8186 119.646 4.8186 121.65 4.8186C121.648 5.29763 121.648 5.77466 121.646 6.25368C120.278 6.25567 118.909 6.26561 117.541 6.24772C117.513 7.02886 117.521 7.81199 117.525 8.59512C118.684 8.59512 119.845 8.59512 121.006 8.59512C121.006 9.09005 121.004 9.58497 121.006 10.0819C119.829 10.0819 118.652 10.0779 117.478 10.0839C117.472 10.9783 117.476 11.8727 117.474 12.7672C118.865 12.7712 120.256 12.7672 121.65 12.7692C121.648 13.2482 121.648 13.7252 121.646 14.2043C119.644 14.2102 117.641 14.2062 115.639 14.2082C115.639 11.0777 115.639 7.94914 115.639 4.8186Z" fill="white"/>
<path d="M125.182 5.79866C126.08 4.84857 127.487 4.55042 128.742 4.78496C129.646 4.91019 130.57 5.36536 131.023 6.18824C131.306 6.65931 131.341 7.21983 131.423 7.75053C130.827 7.75649 130.232 7.75649 129.64 7.76444C129.551 7.2556 129.463 6.66328 128.962 6.38899C128.193 5.99345 127.074 6.02326 126.543 6.79248C125.854 7.55772 126.048 8.64695 126.019 9.58711C126.04 10.4239 125.893 11.374 126.46 12.0736C127.146 13.137 128.694 13.0357 129.658 12.4354C129.654 11.8192 129.654 11.205 129.662 10.5909C129.06 10.5829 128.461 10.5829 127.863 10.571C127.865 10.1238 127.863 9.67655 127.857 9.22933C129.083 9.24126 130.312 9.23331 131.538 9.23331C131.546 10.4617 131.528 11.688 131.55 12.9164C129.861 14.8762 126.164 14.9458 124.713 12.6739C123.928 11.531 124.182 10.084 124.134 8.78211C124.085 7.7068 124.367 6.55198 125.182 5.79866Z" fill="white"/>
<path d="M134.474 4.81875C135.756 4.84061 137.042 4.77104 138.322 4.8585C139.348 4.93403 140.443 5.4051 140.9 6.38501C141.246 7.16814 141.315 8.18184 140.769 8.89341C140.494 9.26312 140.087 9.49368 139.693 9.71232C140.455 9.91307 141.089 10.5591 141.188 11.3541C141.401 12.2863 141.021 13.4173 141.779 14.1686C141.111 14.3137 140.399 14.2998 139.727 14.1925C138.992 13.1986 139.852 11.6861 138.888 10.8055C138.147 10.3205 137.197 10.5193 136.36 10.4815C136.352 11.7238 136.362 12.9641 136.354 14.2044C135.728 14.2084 135.102 14.2084 134.478 14.2044C134.47 11.0758 134.476 7.9473 134.474 4.81875ZM136.362 6.26376C136.352 7.19 136.36 8.11624 136.356 9.04447C137.064 9.02261 137.787 9.08025 138.483 8.91925C139.574 8.56347 139.542 6.77657 138.487 6.4029C137.799 6.18624 137.07 6.26575 136.362 6.26376Z" fill="white"/>
<path d="M146.686 4.85449C147.32 4.86443 147.958 4.86443 148.596 4.85449C149.654 7.97509 150.681 11.1056 151.763 14.2183C151.085 14.2083 150.409 14.2163 149.733 14.1805C149.55 13.5087 149.342 12.8448 149.153 12.175C148.135 12.177 147.115 12.1531 146.098 12.1949C145.911 12.8687 145.684 13.5306 145.493 14.2044C144.832 14.2064 144.172 14.2064 143.514 14.2163C144.557 11.0917 145.635 7.97708 146.686 4.85449ZM147.64 7.39868C147.268 8.49188 146.937 9.599 146.567 10.6922C147.264 10.6842 147.964 10.6862 148.664 10.6862C148.35 9.58111 148.012 8.48393 147.64 7.39868Z" fill="white"/>
<path d="M154.042 4.82071C155.36 4.83264 156.68 4.78891 157.996 4.84059C159.141 4.87835 160.371 5.46073 160.83 6.56586C161.361 7.81013 161.041 9.50758 159.824 10.2331C158.662 10.9983 157.205 10.7956 155.887 10.8313C155.883 11.9603 155.879 13.0913 155.891 14.2203C155.273 14.2024 154.656 14.2044 154.042 14.2123C154.046 11.0818 154.044 7.95125 154.042 4.82071ZM155.889 6.31144C155.881 7.32117 155.883 8.33089 155.887 9.33863C156.809 9.26707 157.843 9.56522 158.677 9.05638C159.445 8.45015 159.321 7.28936 158.753 6.58773C157.859 6.14249 156.847 6.34126 155.889 6.31144Z" fill="white"/>
<path d="M163.782 4.82059C164.416 4.8186 165.05 4.8186 165.686 4.82059C165.684 6.15827 165.682 7.49596 165.686 8.83563C166.958 8.83961 168.23 8.83563 169.504 8.83762C169.504 7.49795 169.504 6.15827 169.504 4.8186C170.13 4.8186 170.758 4.8186 171.388 4.8186C171.392 7.95312 171.38 11.0876 171.394 14.2202C170.762 14.2043 170.132 14.2043 169.504 14.2082C169.502 12.8984 169.504 11.5905 169.504 10.2806C168.226 10.2787 166.95 10.2846 165.672 10.2767C165.698 11.5885 165.676 12.9004 165.686 14.2142C165.05 14.2043 164.416 14.2043 163.782 14.2142C163.786 11.0817 163.784 7.95113 163.782 4.82059Z" fill="white"/>
<path d="M59.5875 21.8688C59.9711 21.8648 60.3528 21.8629 60.7364 21.8589C60.7563 22.8686 60.7185 23.8783 60.641 24.8861C61.4122 23.5663 63.8272 23.6259 64.2446 25.1981C64.4731 26.6213 64.3082 28.0762 64.3579 29.5133C63.9603 29.5113 63.5628 29.5113 63.1653 29.5133C63.1255 28.2412 63.2468 26.9612 63.1037 25.697C62.9208 24.4726 60.9451 24.7449 60.802 25.8719C60.6529 27.0605 60.7761 28.269 60.7384 29.4636C60.3528 29.4636 59.9711 29.4656 59.5875 29.4656C59.5875 26.9333 59.5875 24.4011 59.5875 21.8688Z" fill="white"/>
<path d="M75.1528 22.1629C75.8664 21.6561 76.7946 21.8072 77.5857 22.0079C77.4863 22.2941 77.3889 22.5823 77.2935 22.8725C76.8145 22.7771 76.3255 22.7294 75.8524 22.8705C75.7789 23.2621 75.7133 23.6557 75.6577 24.0512C76.1168 24.0512 76.574 24.0492 77.0351 24.0452C77.0351 24.3434 77.0351 24.6435 77.0391 24.9436C76.6038 24.9417 76.1725 24.9417 75.7392 24.9456C75.7252 26.4662 75.7411 27.9867 75.7312 29.5073C75.3317 29.5112 74.9342 29.5132 74.5366 29.5192C74.5446 27.9927 74.5307 26.4662 74.5446 24.9417C74.2425 24.9397 73.9423 24.9397 73.6422 24.9377C73.4216 24.2937 74.1033 24.242 74.5247 24.0532C74.5863 23.3973 74.5724 22.6062 75.1528 22.1629Z" fill="white"/>
<path d="M114.12 22.2046C114.84 21.6381 115.81 21.821 116.629 22.0138C116.518 22.304 116.406 22.5942 116.297 22.8844C115.88 22.8407 115.403 22.6161 115.023 22.8903C114.611 23.1249 114.776 23.6635 114.731 24.0471C115.164 24.0511 115.599 24.0511 116.037 24.0531C116.035 24.3473 116.035 24.6434 116.037 24.9396C115.603 24.9396 115.172 24.9416 114.743 24.9436C114.741 26.4721 114.735 28.0006 114.747 29.5291C114.365 29.5171 113.985 29.5112 113.608 29.5032C113.598 27.9847 113.612 26.4641 113.598 24.9436C113.298 24.9436 112.997 24.9436 112.701 24.9456C112.699 24.8044 112.699 24.5222 112.697 24.3791C112.993 24.2678 113.288 24.1545 113.584 24.0392C113.592 23.4012 113.576 22.6459 114.12 22.2046Z" fill="white"/>
<path d="M53.1794 22.3101C54.9842 22.3101 56.7889 22.3101 58.5937 22.3101C58.5937 22.6559 58.5917 23.0037 58.5937 23.3516C57.8821 23.3496 57.1706 23.3476 56.459 23.3556C56.4451 25.4048 56.461 27.4541 56.451 29.5053C56.0714 29.5113 55.6918 29.5172 55.3141 29.5272C55.324 27.47 55.3181 25.4128 55.3161 23.3536C54.6045 23.3496 53.8929 23.3516 53.1834 23.3476C53.1794 23.0018 53.1794 22.6559 53.1794 22.3101Z" fill="white"/>
<path d="M84.9499 22.8386C85.1288 22.8466 85.4885 22.8625 85.6674 22.8724C85.6714 23.262 85.6734 23.6536 85.6793 24.0471C86.1902 24.0511 86.703 24.0511 87.2158 24.0531C87.2138 24.3472 87.2138 24.6434 87.2158 24.9396C86.703 24.9396 86.1902 24.9416 85.6773 24.9455C85.6952 26.0149 85.6157 27.0902 85.7111 28.1556C85.8463 28.895 86.7566 28.571 87.2675 28.5332C87.2695 28.7439 87.2754 29.1633 87.2774 29.374C86.6712 29.5171 86.0272 29.6682 85.419 29.4475C84.7769 29.2845 84.5225 28.561 84.4987 27.9667C84.447 26.955 84.4867 25.9433 84.4828 24.9316C84.2303 24.9396 83.9799 24.9495 83.7314 24.9614C83.7354 24.7885 83.7394 24.6136 83.7454 24.4427C84.0077 24.2876 84.28 24.1445 84.5285 23.9676C84.7233 23.6138 84.8167 23.2163 84.9499 22.8386Z" fill="white"/>
<path d="M88.2533 24.0433C88.6349 24.0493 89.0186 24.0513 89.4022 24.0552C89.4062 25.1306 89.3942 26.2079 89.4022 27.2832C89.4161 27.7304 89.4578 28.281 89.8852 28.5394C90.3662 28.8196 90.9207 28.6109 91.4037 28.4539C92.2067 27.1281 91.7893 25.5022 91.8847 24.0374C92.2644 24.0453 92.644 24.0533 93.0237 24.0612C93.0276 25.8779 93.0296 27.6946 93.0237 29.5113C92.7255 29.5093 92.4294 29.5093 92.1332 29.5093C92.0716 29.2609 92.0119 29.0144 91.9543 28.7679C91.3521 29.5372 90.2926 29.8095 89.3783 29.4875C88.6608 29.3384 88.2652 28.5811 88.2573 27.8993C88.2394 26.6133 88.2593 25.3293 88.2533 24.0433Z" fill="white"/>
<path d="M95.7706 25.0093C96.2794 24.2957 97.1221 23.7491 98.0285 24.0015C97.9808 24.3454 97.949 24.6912 97.9271 25.0391C97.0864 24.9357 96.0786 25.2696 95.8898 26.1959C95.8103 27.303 95.8759 28.4181 95.862 29.5292C95.4823 29.5172 95.1027 29.5113 94.7251 29.5033C94.7191 27.6886 94.7191 25.8719 94.7251 24.0552C95.0093 24.0532 95.2935 24.0512 95.5797 24.0492C95.6453 24.3692 95.705 24.6873 95.7706 25.0093Z" fill="white"/>
<path d="M130.85 24.0234C131.938 23.775 133.255 24.2162 133.701 25.3035C134.21 26.514 134.104 28.0981 133.126 29.0482C132.178 29.7637 130.719 29.7578 129.783 29.0243C128.962 28.3088 128.817 27.1222 128.932 26.0985C129.06 25.0968 129.829 24.1785 130.85 24.0234ZM130.835 25.0192C130.22 25.3194 130.079 26.0707 130.055 26.6889C130.079 27.2037 130.081 27.788 130.455 28.1935C131.002 28.8991 132.359 28.7501 132.653 27.8735C132.914 27.1023 132.914 26.2158 132.552 25.4804C132.214 24.8881 131.419 24.7867 130.835 25.0192Z" fill="white"/>
<path d="M65.9261 25.3231C66.5324 23.6734 69.1561 23.4806 70.0584 24.9515C70.4341 25.5815 70.4122 26.3329 70.4381 27.0405C69.2057 27.0345 67.9734 27.0325 66.7431 27.0425C66.8643 27.5771 67.0034 28.2112 67.5481 28.4795C68.365 28.889 69.3171 28.6127 70.1121 28.2768C70.1161 28.6008 70.1221 28.9267 70.13 29.2527C69.1521 29.5886 68.0509 29.7198 67.0611 29.36C65.5584 28.7081 65.3318 26.6747 65.9261 25.3231ZM67.234 25.184C66.9478 25.4543 66.906 25.8697 66.8047 26.2315C67.6415 26.2414 68.4803 26.2474 69.3171 26.2235C69.2236 25.8042 69.17 25.3053 68.8023 25.025C68.3153 24.7487 67.6375 24.7666 67.234 25.184Z" fill="white"/>
<path d="M77.9156 24.0452C78.3131 24.0492 78.7106 24.0532 79.1101 24.0571C79.1658 25.4564 79.0008 26.8696 79.2175 28.259C79.5733 28.5492 79.9986 28.7996 80.4776 28.6466C81.1912 28.583 81.5351 27.8317 81.545 27.1936C81.5728 26.1442 81.549 25.0927 81.549 24.0432C81.9465 24.0472 82.346 24.0472 82.7455 24.0432C82.7356 25.8718 82.7356 27.7025 82.7455 29.5311C82.4394 29.5192 82.1333 29.5092 81.8292 29.5013C81.7636 29.2528 81.7 29.0064 81.6384 28.7599C80.7897 29.9684 78.4105 29.9525 78.0169 28.3763C77.8003 26.9472 77.9712 25.4862 77.9156 24.0452Z" fill="white"/>
<path d="M98.9071 25.0886C99.6783 23.6614 102.048 23.5541 102.916 24.9335C103.353 25.5418 103.282 26.3289 103.326 27.0365C102.105 27.0365 100.887 27.0325 99.6664 27.0404C99.6862 27.6248 99.9287 28.229 100.465 28.5232C101.3 28.8532 102.222 28.6087 103.02 28.2827C103.018 28.5968 103.018 28.9128 103.021 29.2288C101.994 29.6085 100.769 29.7734 99.7578 29.2666C98.3346 28.4457 98.1856 26.4282 98.9071 25.0886ZM99.6385 26.2215C100.489 26.2494 101.342 26.2354 102.193 26.2394C102.222 25.4563 101.58 24.6314 100.734 24.8699C100.03 24.9335 99.7995 25.6491 99.6385 26.2215Z" fill="white"/>
<path d="M108.505 24.1248C109.432 23.8147 110.594 23.922 111.282 24.6734C112.161 25.5837 112.153 27.0247 111.751 28.1557C111.071 29.9863 108.046 30.0857 107.241 28.3088C106.542 26.8936 106.832 24.6873 108.505 24.1248ZM108.205 25.7805C108.004 26.6709 107.917 27.8655 108.738 28.4797C109.312 28.7719 109.986 28.6288 110.491 28.2611C110.867 27.4223 110.968 26.4284 110.616 25.5658C110.167 24.578 108.48 24.7211 108.205 25.7805Z" fill="white"/>
<path d="M119.614 24.0592C119.908 24.0512 120.203 24.0433 120.499 24.0353C120.562 24.2719 120.626 24.5084 120.692 24.7449C121.522 23.8028 123.375 23.6338 124.011 24.8622C124.826 23.7153 127.104 23.5802 127.541 25.1166C127.795 26.5696 127.593 28.0603 127.666 29.5272C127.285 29.5173 126.905 29.5113 126.527 29.5053C126.474 28.2014 126.623 26.8836 126.444 25.5917C126.207 24.4806 124.432 24.8085 124.349 25.854C124.192 27.0665 124.319 28.3028 124.285 29.5252C123.854 29.5153 123.423 29.5113 122.993 29.5093C122.971 28.2293 123.033 26.9472 122.967 25.6692C122.828 24.576 121.083 24.6913 120.888 25.695C120.632 26.9492 120.821 28.2491 120.763 29.5212C120.38 29.5153 119.996 29.5113 119.614 29.5093C119.614 27.6926 119.614 25.8759 119.614 24.0592Z" fill="white"/>
<path d="M135.358 24.0512C135.647 24.0472 135.935 24.0412 136.225 24.0372C136.303 24.2877 136.378 24.5421 136.452 24.7965C137.298 23.6079 139.701 23.6596 140.021 25.2596C140.248 26.6609 140.087 28.092 140.131 29.5072C139.731 29.5112 139.334 29.5132 138.936 29.5192C138.906 28.2351 139.004 26.9412 138.89 25.6631C138.728 24.7409 137.43 24.6991 136.885 25.2934C136.557 25.5916 136.561 26.0706 136.517 26.4761C136.489 27.4878 136.519 28.4995 136.509 29.5112C136.124 29.5112 135.74 29.5132 135.358 29.5192C135.36 27.6965 135.36 25.8738 135.358 24.0512Z" fill="white"/>
<path d="M142.927 24.1247C143.915 23.7848 145.257 23.9577 145.813 24.9436C146.233 25.5558 146.211 26.327 146.213 27.0386C144.981 27.0326 143.75 27.0445 142.518 27.0286C142.653 27.5534 142.774 28.1616 143.281 28.4657C144.112 28.8851 145.08 28.5989 145.905 28.3067C145.901 28.6148 145.901 28.9249 145.905 29.2349C144.979 29.5967 143.923 29.712 142.969 29.3999C141.938 29.058 141.365 27.9191 141.421 26.8776C141.335 25.7824 141.834 24.5282 142.927 24.1247ZM142.983 25.1941C142.697 25.4683 142.657 25.8778 142.552 26.2376C143.381 26.2376 144.209 26.2455 145.04 26.2256C144.947 25.8043 144.965 25.2517 144.525 25.0211C144.046 24.7588 143.355 24.7488 142.983 25.1941Z" fill="white"/>
<path d="M146.457 24.0491C146.885 24.0491 147.314 24.0491 147.745 24.0391C148.211 25.5239 148.896 26.9411 149.204 28.4716C149.598 26.9689 150.152 25.514 150.665 24.0491C151.085 24.0511 151.504 24.0471 151.927 24.0352C151.19 26.0168 150.437 27.9926 149.699 29.9722C149.433 30.6302 149.101 31.3676 148.411 31.6717C147.899 31.9341 147.304 31.9122 146.75 31.8446C146.744 31.5325 146.74 31.2245 146.732 30.9144C147.097 30.9363 147.489 31.0217 147.829 30.8249C148.374 30.5904 148.511 29.9603 148.717 29.4654C147.954 27.6646 147.237 25.8439 146.457 24.0491Z" fill="white"/>
<path d="M15.4281 4.93408C18.0816 4.95992 20.7371 4.90824 23.3906 4.9639C23.9133 4.97383 24.4361 4.97185 24.9569 4.96191C30.7647 4.91619 36.5726 4.94402 42.3785 4.94799C41.8816 7.07278 41.4125 9.20552 40.856 11.3184C40.5857 12.2725 40.5022 13.2742 40.1385 14.2025C40.0609 14.1726 39.9059 14.111 39.8264 14.0812C39.5621 14.1249 39.2937 14.1249 39.0274 14.113C38.7571 14.113 38.4847 14.117 38.2144 14.115C37.9481 14.115 37.6837 14.117 37.4194 14.117C37.153 14.117 36.8887 14.115 36.6243 14.117C36.3639 14.117 36.1016 14.117 35.8432 14.115C35.5768 14.115 35.3105 14.115 35.0461 14.115C34.7778 14.115 34.5075 14.117 34.2391 14.117C33.9788 14.117 33.7184 14.117 33.458 14.115C33.1877 14.115 32.9193 14.117 32.649 14.115C32.2257 14.0971 31.8003 14.115 31.3789 14.1567C30.7687 15.8065 30.1247 17.4423 29.5423 19.1C32.7703 17.818 35.9406 16.3809 39.1745 15.1227C33.8555 22.9898 28.3975 30.7615 23.0447 38.6047C22.7327 39.0897 22.4127 39.5707 22.0251 40.0001C22.7625 36.639 23.5913 33.2977 24.3844 29.9486C24.3884 29.8233 24.4162 29.6305 24.2671 29.5769L24.2731 29.4914C23.2256 30.1016 22.0668 30.4793 20.9756 30.9941C19.7313 31.5208 18.5209 32.131 17.2388 32.5603L17.3839 32.0893C17.6702 30.6144 18.1293 29.1793 18.4215 27.7085C18.5109 27.3408 18.5984 26.975 18.6819 26.6073C19.0595 25.051 19.4332 23.4947 19.8108 21.9423C19.9003 21.5508 19.9917 21.1612 20.0871 20.7736C20.4111 19.3644 20.7271 17.9531 21.067 16.5459C21.2042 15.9615 21.3493 15.3772 21.4864 14.7928C21.5381 14.5781 21.5878 14.3654 21.6375 14.1528C18.8369 14.0971 16.0323 14.1349 13.2318 14.1269C13.9095 11.0501 14.6629 7.98909 15.4281 4.93408ZM16.3086 6.27972C15.764 8.44823 15.3367 10.6466 14.7265 12.7992C14.9709 12.8449 15.2154 12.8906 15.4659 12.8946C18.0558 12.8866 20.6457 12.8906 23.2356 12.8906C22.2298 17.0766 21.2956 21.2785 20.3018 25.4644C19.8884 27.136 19.5882 28.8355 19.0933 30.4852C21.5003 29.4238 23.9074 28.3584 26.3204 27.309C26.056 29.394 25.4498 31.4234 25.1874 33.5104C28.5585 28.3088 32.0309 23.1727 35.4039 17.973C32.5695 19.1159 29.8186 20.4596 27.0041 21.6502C28.2404 18.7224 29.5165 15.8105 30.7628 12.8886C33.5951 12.8986 36.4275 12.8767 39.2619 12.8986C39.7688 10.6724 40.2617 8.4383 40.8739 6.24195C40.4863 6.27375 40.0987 6.29164 39.7111 6.29164C31.9096 6.27773 24.1081 6.30357 16.3086 6.27972Z" fill="white"/>
</svg>
