<svg width="122" height="45" viewBox="0 0 122 45" fill="none" xmlns="http://www.w3.org/2000/svg">
<path d="M44.3762 0.0053C46.5436 -0.00528724 48.7125 0.00378772 50.8813 0.000762794C50.8798 3.32818 50.8813 6.65408 50.8798 9.9815C51.7207 8.94395 52.8974 8.17562 54.2133 7.90791C56.2173 7.48594 58.5026 7.86557 60.0181 9.32358C61.5412 10.7665 62.0887 12.9414 62.0977 14.9802C62.1068 18.8793 62.0993 22.78 62.1023 26.6791C59.9213 26.6836 57.7418 26.6806 55.5624 26.6806C55.5594 23.2806 55.5654 19.8821 55.5594 16.4821C55.5503 15.5958 55.3128 14.5854 54.5158 14.0788C53.6189 13.5524 52.3182 13.6795 51.63 14.4962C51.09 15.1239 50.9206 15.9814 50.9206 16.7891C50.9206 20.0863 50.9206 23.3834 50.9206 26.6791C48.7397 26.6821 46.5572 26.6836 44.3762 26.6791C44.3762 17.7873 44.3762 8.89707 44.3762 0.0053Z" fill="white"/>
<path d="M114.235 0.000680751C116.82 0.00219321 119.403 -0.000831711 121.987 0.000680751C119.667 5.5862 117.371 11.1823 115.037 16.7618C112.457 16.7467 109.876 16.7648 107.298 16.7512C109.61 11.1687 111.92 5.58318 114.235 0.000680751Z" fill="white"/>
<path d="M28.8281 8.01233C31.2798 7.36046 34.2306 7.87167 35.8973 9.91047C35.8928 9.33725 35.8958 8.76402 35.8958 8.1908C37.9996 8.1908 40.1035 8.18929 42.2073 8.19231C42.2058 14.3556 42.2088 20.5189 42.2058 26.6822C40.102 26.6807 37.9996 26.6822 35.8958 26.6806C35.8958 26.1089 35.8928 25.5372 35.8988 24.964C35.1229 25.9637 33.9856 26.6383 32.7635 26.9363C30.1893 27.5715 27.3368 26.844 25.357 25.0835C22.1006 22.2295 21.2537 17.2066 22.9355 13.2923C23.9852 10.7786 26.1571 8.68689 28.8281 8.01233ZM31.4704 13.7264C30.336 13.9351 29.309 14.6883 28.8054 15.7319C28.0431 17.2308 28.394 19.2272 29.6887 20.3223C31.1346 21.6079 33.5575 21.5564 34.9233 20.1771C36.3465 18.8189 36.4146 16.346 35.0851 14.9001C34.2034 13.8973 32.7711 13.4663 31.4704 13.7264Z" fill="white"/>
<path d="M71.8591 7.84736C74.211 7.53125 76.693 7.96079 78.7272 9.2116C80.586 10.3354 82.0214 12.1306 82.7111 14.1891C83.5066 16.5561 83.4113 19.2241 82.4025 21.5109C81.5071 23.5512 79.8465 25.2376 77.8303 26.1799C73.972 28.0115 68.9189 27.2734 65.9908 24.0791C62.7269 20.6382 62.6119 14.7563 65.6943 11.1642C67.231 9.32654 69.4936 8.1559 71.8591 7.84736ZM72.2962 13.8715C71.2708 14.1528 70.3981 14.9196 69.9822 15.8967C69.3243 17.3774 69.6948 19.277 70.9547 20.3252C72.3628 21.5427 74.6965 21.4504 75.9882 20.0998C77.4069 18.6872 77.3811 16.1341 75.9307 14.7517C74.996 13.8231 73.5501 13.5161 72.2962 13.8715Z" fill="white"/>
<path d="M92.8612 7.83235C95.2524 7.53591 97.7691 8.01234 99.8034 9.3312C101.674 10.523 103.081 12.4075 103.709 14.5341C104.419 16.9631 104.232 19.6734 103.084 21.9391C102.189 23.7283 100.691 25.203 98.902 26.0908C96.4911 27.2932 93.6144 27.4732 91.0493 26.6852C88.8759 26.0197 86.9475 24.5602 85.7632 22.6136C83.5611 19.0442 83.9347 14.0365 86.7872 10.9268C88.3405 9.19206 90.5577 8.10913 92.8612 7.83235ZM93.1743 13.8731C92.7463 13.9971 92.3394 14.1968 91.984 14.4675C90.2976 15.7093 90.0707 18.3969 91.4561 19.9457C92.7342 21.4642 95.266 21.5958 96.7165 20.2512C98.2834 18.8764 98.3257 16.1796 96.8133 14.7488C95.8771 13.8202 94.4281 13.5162 93.1743 13.8731Z" fill="white"/>
<path d="M0.986694 8.19064C3.35067 8.19215 5.71465 8.1861 8.07863 8.19518C9.48219 11.7858 10.8812 15.3794 12.2954 18.9669C12.3937 18.7794 12.4905 18.5918 12.5737 18.3967C13.9031 14.9937 15.2583 11.5997 16.5908 8.19669C18.8927 8.18459 21.1962 8.19064 23.4997 8.19367C19.9953 16.6423 16.4879 25.0894 12.9866 33.5395C10.671 33.5425 8.35541 33.5516 6.03983 33.535C6.93975 31.4357 7.81697 29.3288 8.71538 27.2295C8.80612 27.0193 8.90595 26.7788 8.77134 26.5625C6.17595 20.4401 3.58057 14.3161 0.986694 8.19064Z" fill="white"/>
<path d="M108.131 18.5359C109.878 18.0262 111.939 18.7144 112.904 20.2874C114.093 22.0993 113.647 24.7506 111.926 26.0695C110.569 27.166 108.535 27.3264 107.027 26.4461C105.611 25.649 104.784 23.9778 104.955 22.3685C105.088 20.5974 106.413 18.9927 108.131 18.5359Z" fill="white"/>
<path d="M47.1047 29.6315C48.469 28.3398 50.597 28.1553 52.3182 28.7467C52.3378 29.8054 52.3227 30.8657 52.3288 31.9244C51.624 31.6839 50.7528 31.5342 50.1206 32.0287C49.6562 32.3811 49.6003 32.9997 49.5882 33.5367C50.4518 33.5442 51.3169 33.5382 52.1805 33.5412C52.1836 34.5682 52.1836 35.5966 52.1805 36.6236C51.3215 36.6266 50.4639 36.6221 49.6048 36.6266C49.6033 39.0935 49.6063 41.5603 49.6033 44.0271C48.3313 44.0286 47.0609 44.0301 45.7889 44.0271C45.7828 41.5603 45.7874 39.0935 45.7858 36.6266C45.317 36.6236 44.8466 36.6251 44.3777 36.6236C44.3747 35.5966 44.3762 34.5697 44.3762 33.5427C44.8451 33.5397 45.3124 33.5412 45.7813 33.5367C45.7405 32.1407 46.0551 30.6282 47.1047 29.6315Z" fill="white"/>
<path d="M54.5793 28.5107C55.7091 27.9965 57.1611 28.6877 57.4847 29.881C57.8583 31.0123 57.0355 32.304 55.8846 32.5278C54.8122 32.7985 53.6219 32.0862 53.3466 31.0184C53.0396 30.0232 53.628 28.8934 54.5793 28.5107Z" fill="white"/>
<path d="M62.7708 34.6801C63.8991 33.0149 66.4642 32.7804 67.9722 34.0479C68.9175 34.8585 69.2714 36.1562 69.2638 37.3632C69.2623 39.585 69.2668 41.8068 69.2608 44.0271C67.9858 44.0286 66.7093 44.0286 65.4342 44.0271C65.4267 42.2106 65.4312 40.3957 65.4327 38.5792C65.4237 38.1073 65.4116 37.5961 65.1197 37.1998C64.6674 36.5631 63.5936 36.5767 63.1293 37.1938C62.8222 37.5795 62.7663 38.0937 62.7663 38.5701C62.7678 40.3896 62.7708 42.2091 62.7648 44.0286C61.4867 44.0286 60.2087 44.0286 58.9307 44.0271C58.9246 40.5318 58.9276 37.0365 58.9276 33.5412C60.2072 33.5397 61.4852 33.5397 62.7648 33.5412C62.7693 33.9208 62.7663 34.3004 62.7708 34.6801Z" fill="white"/>
<path d="M71.9227 34.6257C73.5471 32.8969 76.7308 32.6837 78.2766 34.6226C78.2705 34.2627 78.2705 33.9012 78.272 33.5412C79.5289 33.5397 80.7842 33.5397 82.0411 33.5412C82.0411 37.0365 82.0456 40.5318 82.0396 44.0271C80.7857 44.0286 79.5319 44.0286 78.2781 44.0286C78.272 43.6656 78.272 43.3042 78.2751 42.9427C76.8276 44.7516 73.9161 44.6941 72.2373 43.2437C69.7675 41.1429 69.6631 36.9186 71.9227 34.6257ZM75.4407 36.8066C74.3457 37.1787 73.7513 38.5293 74.2232 39.588C74.6572 40.7269 76.1364 41.2291 77.2027 40.674C78.1722 40.2263 78.6456 38.9846 78.2297 38.003C77.8304 36.9246 76.4934 36.3847 75.4407 36.8066Z" fill="white"/>
<path d="M87.4738 34.7178C88.6354 32.8923 91.5393 32.7531 92.9656 34.3246C93.7097 35.1398 93.9744 36.2772 93.9744 37.3555C93.9759 39.5789 93.9774 41.8037 93.9744 44.027C92.6949 44.027 91.4153 44.0346 90.1373 44.0225C90.1373 42.203 90.1343 40.382 90.1403 38.5625C90.1373 38.0891 90.1191 37.5703 89.8182 37.1801C89.3493 36.5555 88.2709 36.5857 87.8217 37.2179C87.5283 37.6066 87.4784 38.1088 87.4769 38.5791C87.4769 40.3956 87.4829 42.2121 87.4753 44.027C86.1958 44.0255 84.9178 44.0361 83.6382 44.021C83.6428 40.5272 83.6307 37.0334 83.6443 33.5381C84.9223 33.5426 86.2003 33.5381 87.4784 33.5411C87.4784 33.9328 87.4784 34.3261 87.4738 34.7178Z" fill="white"/>
<path d="M96.6756 34.7482C98.368 33.1555 101.062 32.8092 103.144 33.7999C103.126 34.9524 103.137 36.1033 103.138 37.2558C102.122 36.6282 100.715 36.4194 99.702 37.1575C98.6675 37.8775 98.6312 39.5911 99.6294 40.3579C100.644 41.1565 102.12 40.9568 103.14 40.2687C103.131 41.4257 103.135 42.5827 103.137 43.7413C100.941 44.806 98.0262 44.3901 96.3655 42.551C94.4644 40.3987 94.5687 36.731 96.6756 34.7482Z" fill="white"/>
<path d="M105.651 34.6423C107.747 32.7396 111.359 32.7577 113.344 34.8162C114.597 36.1078 114.982 38.0014 114.822 39.7453C112.398 39.7559 109.973 39.7408 107.549 39.7529C107.67 40.863 108.849 41.5391 109.895 41.3077C110.442 41.2487 110.869 40.8736 111.229 40.4864C112.311 40.9069 113.399 41.3198 114.483 41.7418C113.779 42.9336 112.584 43.8063 111.233 44.1133C109.631 44.4793 107.86 44.3916 106.401 43.5885C105.333 43.0077 104.527 41.9913 104.158 40.8388C103.451 38.7168 103.925 36.1456 105.651 34.6423ZM107.567 37.5613C108.768 37.5704 109.969 37.5704 111.17 37.5613C111.059 37.2119 110.952 36.8353 110.658 36.5948C109.68 35.7161 107.762 36.1547 107.567 37.5613Z" fill="white"/>
<path d="M53.4994 33.5411C54.776 33.5381 56.054 33.5426 57.332 33.5381C57.3441 37.0319 57.332 40.5257 57.3381 44.0195C56.0585 44.0391 54.7805 44.024 53.5009 44.027C53.4949 40.5317 53.4994 37.0364 53.4994 33.5411Z" fill="white"/>
</svg>
