<svg width="182" height="26" viewBox="0 0 182 26" fill="none" xmlns="http://www.w3.org/2000/svg">
<path d="M121.278 5.16972C124.061 3.41577 126.883 1.72494 129.685 0C130.123 1.72665 130.565 3.4516 130.995 5.17995C130.277 5.17995 129.56 5.17825 128.844 5.18166C124.329 11.9467 119.782 18.6912 115.281 25.4681C114.02 25.5039 112.758 25.4749 111.495 25.4835C111.468 21.6377 111.548 17.7869 111.456 13.9446C108.875 17.7818 106.336 21.6463 103.759 25.4869C102.492 25.4783 101.224 25.4869 99.9564 25.4835C99.9564 18.7151 99.9546 11.9466 99.9581 5.17995C101.425 5.18166 102.891 5.17825 104.36 5.18166C104.362 9.0325 104.346 12.8833 104.367 16.7325C106.982 12.9072 109.502 9.01544 112.096 5.17483C113.348 5.18507 114.599 5.17654 115.851 5.17995C115.865 9.05127 115.832 12.9243 115.868 16.7956C118.023 13.6409 120.106 10.4384 122.234 7.2649C122.671 6.56537 123.193 5.92043 123.565 5.18337C122.802 5.17313 122.039 5.19019 121.278 5.16972Z" fill="white"/>
<path d="M169.961 5.17991C171.406 5.1748 172.851 5.19186 174.298 5.16968C173.905 7.6078 173.378 10.0237 173.011 12.4653C173.655 11.4638 174.68 10.6994 175.864 10.4878C177.463 10.1722 179.312 10.4349 180.515 11.6139C181.597 12.7519 181.646 14.4427 181.39 15.9049C180.856 19.0835 180.222 22.2451 179.642 25.4152C178.196 25.422 176.751 25.3981 175.308 25.4288C175.697 23.0999 176.163 20.7846 176.581 18.4608C176.743 17.5087 177.045 16.514 176.751 15.5586C176.594 15.0058 176.113 14.5707 175.547 14.4769C174.649 14.3097 173.636 14.5178 172.988 15.1901C172.411 15.7889 172.153 16.6113 172.008 17.4115C171.51 20.0783 171.003 22.7433 170.51 25.41C169.072 25.41 167.635 25.4339 166.199 25.3981C167.475 18.6621 168.702 11.9176 169.961 5.17991Z" fill="white"/>
<path d="M145.859 6.60284C147.13 6.60114 148.402 6.60114 149.673 6.60284C149.417 8.03774 149.144 9.46751 148.898 10.9041C149.807 10.899 150.715 10.9024 151.626 10.9007C151.435 11.9927 151.234 13.0846 151.039 14.1766C150.109 14.1783 149.181 14.1749 148.253 14.1783C147.554 17.9301 146.847 21.6803 146.154 25.4339C144.704 25.4441 143.254 25.4322 141.804 25.4407C142.491 21.6854 143.206 17.9336 143.901 14.1766C143.184 14.1766 142.467 14.1766 141.753 14.1766C141.968 13.0846 142.164 11.9892 142.398 10.9024C143.312 10.8154 144.308 10.5714 144.911 9.82069C145.636 8.9113 145.617 7.68797 145.859 6.60284Z" fill="white"/>
<path d="M125.955 13.2041C127.726 11.3376 130.33 10.1825 132.923 10.447C134.221 10.5749 135.534 11.2625 136.107 12.4807C136.243 11.974 136.332 11.457 136.436 10.9418C137.866 10.952 139.297 10.9435 140.729 10.9469C139.819 15.7856 138.905 20.6209 137.994 25.4596C136.561 25.4613 135.127 25.4613 133.696 25.4596C133.79 24.9375 133.892 24.4171 133.986 23.8968C132.068 26.212 128.439 26.6045 125.902 25.1303C124.336 24.2073 123.44 22.4277 123.302 20.6516C123.078 17.9456 124.077 15.1645 125.955 13.2041ZM131.055 14.5776C129.221 15.0178 127.851 16.7598 127.68 18.611C127.579 19.6262 127.953 20.7335 128.798 21.3494C129.581 21.9176 130.62 21.9824 131.544 21.8016C133.421 21.4109 134.808 19.6416 135.052 17.7886C135.139 16.8042 134.836 15.7242 134.039 15.0912C133.21 14.4326 132.056 14.3541 131.055 14.5776Z" fill="white"/>
<path d="M150.886 17.5309C151.887 13.5401 155.702 10.3683 159.857 10.3632C161.708 10.3342 163.622 11.0013 164.878 12.3987C165.902 13.5026 166.402 15.0057 166.451 16.4952C164.98 16.4918 163.51 16.5123 162.041 16.485C161.826 15.7616 161.404 15.0484 160.688 14.7344C159.321 14.1612 157.627 14.4376 156.554 15.4766C155.206 16.729 154.511 18.9367 155.462 20.6122C156.344 22.0335 158.371 22.0898 159.739 21.3971C160.435 21.0575 160.971 20.4791 161.432 19.87C162.906 19.8803 164.382 19.8751 165.856 19.8734C165.054 21.8936 163.505 23.5878 161.641 24.6866C159.64 25.8621 157.154 26.304 154.911 25.625C153.36 25.1626 152 24.0604 151.285 22.6016C150.493 21.0439 150.452 19.1995 150.886 17.5309Z" fill="white"/>
<path d="M13.6358 5.15601C14.8744 5.15942 16.1114 5.1543 17.3501 5.15942C17.3518 9.0205 17.3382 12.8816 17.3569 16.7427C19.952 12.8884 22.5352 9.02391 25.1166 5.15942C26.357 5.1543 27.5991 5.15771 28.8395 5.15771C28.8395 11.9244 28.8395 18.6928 28.8395 25.4595C27.3893 25.4612 25.939 25.4612 24.4888 25.4595C24.4785 21.5933 24.5058 17.7271 24.4751 13.8609C21.8391 17.6896 19.3497 21.6206 16.7427 25.4697C15.4955 25.4459 14.2466 25.4732 12.9994 25.4544C12.9959 21.5967 13.0147 17.7408 12.9891 13.8831C10.4026 17.7322 7.84841 21.6053 5.27379 25.4612C3.51643 25.4578 1.75736 25.4646 0 25.4578C4.54184 18.6877 9.0888 11.921 13.6358 5.15601Z" fill="white"/>
<path d="M61.4872 5.17322C62.9562 5.16127 64.4252 5.17151 65.8943 5.1681C65.2152 8.85685 64.502 12.5405 63.8434 16.2309C65.4353 14.651 66.9504 12.9943 68.5047 11.3786C68.7265 11.1858 68.8937 10.8224 69.2452 10.8889C70.8456 10.8872 72.4477 10.8957 74.0498 10.8872C71.8983 13.0796 69.612 15.1492 67.4076 17.2939C68.6924 20.017 69.9823 22.7366 71.2687 25.4597C69.6223 25.4631 67.9775 25.4597 66.3327 25.4614C65.3943 23.1239 64.4406 20.7916 63.5158 18.4473C63.3469 18.8363 63.306 19.2611 63.2258 19.674C62.8624 21.6037 62.5058 23.5334 62.1373 25.4614C60.6887 25.4579 59.2385 25.4614 57.7899 25.4597C59.0201 18.6981 60.2639 11.9382 61.4872 5.17322Z" fill="white"/>
<path d="M92.6505 6.58081C93.9165 6.6047 95.1808 6.5774 96.4468 6.59617C96.1755 8.02082 95.9366 9.4523 95.6585 10.877C96.5713 10.9043 97.4858 10.8838 98.4004 10.8906C98.1888 11.9826 97.9738 13.0728 97.7622 14.1665C96.8341 14.1665 95.9059 14.1665 94.9778 14.1665C94.2816 17.9166 93.5668 21.6634 92.8843 25.417C91.4306 25.4375 89.977 25.4221 88.525 25.4255C89.2245 21.6736 89.9258 17.9201 90.6253 14.1665C89.8951 14.1562 89.1648 14.1801 88.4363 14.1596C88.7502 13.0933 88.9038 11.986 89.158 10.9026C90.0725 10.807 91.0723 10.5716 91.678 9.81914C92.4202 8.90463 92.3673 7.66765 92.6505 6.58081Z" fill="white"/>
<path d="M32.7961 13.9225C34.4869 11.6942 37.2441 10.2252 40.073 10.3668C41.5079 10.4078 42.9956 11.1124 43.644 12.4484C43.743 11.916 43.8504 11.3854 43.9443 10.8531C45.3604 10.8343 46.7765 10.848 48.1944 10.8446C47.2969 15.702 46.4012 20.5578 45.5054 25.4153C44.0688 25.4085 42.6339 25.4307 41.199 25.4034C41.3099 24.8762 41.4072 24.3455 41.501 23.8149C40.5285 25.1014 38.9452 25.7924 37.3653 25.9186C35.7034 26.0483 33.9222 25.6491 32.6613 24.5059C31.3936 23.3747 30.8016 21.6481 30.7811 19.9794C30.7607 17.8143 31.4772 15.6423 32.7961 13.9225ZM38.7319 14.547C37.0547 14.8865 35.7546 16.3333 35.3451 17.9576C35.0841 19.0717 35.3093 20.3719 36.1726 21.1738C37.0394 21.9654 38.3446 22.0217 39.428 21.7197C41.0301 21.2642 42.163 19.7866 42.5486 18.2135C42.7704 17.1421 42.5179 15.9034 41.6717 15.1595C40.8766 14.4634 39.7317 14.3491 38.7319 14.547Z" fill="white"/>
<path d="M55.8926 11.0577C56.6775 10.5356 57.6329 10.3701 58.5611 10.3462C58.3018 11.8169 58.0441 13.2893 57.7746 14.7584C56.8532 14.7976 55.8756 14.8505 55.0686 15.3419C54.398 15.7497 54.0278 16.5021 53.9032 17.2562C53.388 19.9912 52.871 22.7262 52.354 25.4595C50.8748 25.4612 49.3972 25.4612 47.9197 25.4595C48.841 20.6037 49.7658 15.7479 50.6888 10.8905C52.0418 10.8905 53.3948 10.8888 54.7478 10.8905C54.6437 11.4126 54.5414 11.9346 54.4475 12.4584C54.8809 11.9449 55.3074 11.4074 55.8926 11.0577Z" fill="white"/>
<path d="M77.5286 11.2028C79.3918 10.3003 81.6235 10.0648 83.5873 10.7831C84.9949 11.2898 86.1841 12.3664 86.8153 13.7245C87.6736 15.5331 87.6309 17.6641 87.0406 19.5477C83.3928 19.546 79.7467 19.5443 76.0989 19.5477C76.0852 20.4895 76.5339 21.4638 77.4007 21.9023C78.9192 22.6905 80.871 22.2077 81.9562 20.9127C83.4337 20.9093 84.9113 20.9093 86.3905 20.9127C85.1962 22.8048 83.4968 24.4223 81.4272 25.3146C79.5624 26.0943 77.37 26.1916 75.5051 25.3607C74.0634 24.7277 72.8947 23.5061 72.3384 22.0319C71.6321 20.2319 71.8215 18.1777 72.5654 16.4203C73.5242 14.163 75.3225 12.2726 77.5286 11.2028ZM76.7011 16.5619C78.926 16.5705 81.1508 16.5653 83.3757 16.5636C83.3109 15.8846 83.072 15.1902 82.5397 14.738C81.7139 14.0197 80.511 13.9651 79.489 14.1937C78.2435 14.4701 77.2147 15.4085 76.7011 16.5619Z" fill="white"/>
</svg>
