<svg width="216" height="38" viewBox="0 0 216 38" fill="none" xmlns="http://www.w3.org/2000/svg">
<path d="M0.0601709 0.0780173C3.33523 0.0572233 6.62069 0.0572233 9.89575 0.0676203C9.94773 3.35308 9.94773 6.63853 9.90614 9.92399C6.61029 9.94479 3.31444 9.95518 0.0185829 9.91359C-0.00221118 6.63853 -0.0126082 3.35308 0.0601709 0.0780173Z" fill="white"/>
<path d="M14.2729 0.0676203C17.4856 0.0572233 20.7086 0.0572233 23.9317 0.0780173C23.9837 3.35308 23.9733 6.63853 23.9629 9.92399C20.7294 9.95518 17.496 9.94479 14.2521 9.92399C14.2417 6.63853 14.2417 3.35308 14.2729 0.0676203Z" fill="white"/>
<path d="M28.9743 0.0675922C32.187 0.254739 35.5972 -0.389876 38.6955 0.421091C39.153 3.58178 38.8826 6.79446 38.6747 9.96555C35.4204 9.93436 32.1766 9.96555 28.9223 9.88237C28.9119 6.60731 28.9015 3.34265 28.9743 0.0675922Z" fill="white"/>
<path d="M50.205 13.6773C53.4385 9.68481 60.3005 9.58084 63.6483 13.4797C63.0557 13.9892 61.8912 14.9977 61.2986 15.5071C58.9073 13.303 55.4243 13.3965 53.033 15.5383C52.6795 16.6924 52.326 17.8361 51.9725 18.9797C52.5859 20.4665 52.8562 22.338 54.499 23.097C56.7031 24.6669 59.2816 23.3257 61.3506 22.2652C61.9744 22.7539 63.2013 23.7208 63.8147 24.2094C60.3733 27.5989 54.343 28.1187 50.7976 24.6149C47.8865 21.8389 47.5849 16.7444 50.205 13.6773Z" fill="white"/>
<path d="M66.0188 10.8703C70.188 11.1406 75.4489 9.68504 78.5992 13.2304C80.897 16.1104 79.5142 20.0509 76.603 21.8495C77.7571 23.4923 78.9215 25.1246 80.0964 26.7569C78.7344 26.7569 77.3724 26.7673 76.0104 26.7673C75.0331 25.2806 74.0141 23.825 73.0264 22.3486C72.1947 22.3278 70.5415 22.2758 69.7098 22.2446C69.7202 23.7522 69.7306 25.2494 69.741 26.7569C68.4933 26.7673 67.2457 26.7777 65.998 26.7985C66.0188 21.4856 65.998 16.1728 66.0188 10.8703ZM69.7306 13.9166C69.7306 15.7673 69.7306 17.6284 69.7306 19.4894C71.9555 19.3647 75.7192 19.9573 75.9896 16.8278C76.0831 13.3448 72.0699 14.031 69.7306 13.9166Z" fill="white"/>
<path d="M80.0548 10.891C81.396 10.8806 82.7372 10.8806 84.0888 10.9014C85.4509 13.2407 86.8441 15.5697 88.3204 17.8466C89.6824 15.4969 91.086 13.1679 92.4792 10.8286C93.7061 10.8598 94.9433 10.8806 96.1702 10.9118C94.1428 14.3116 91.8866 17.5971 90.0879 21.1217C89.8592 22.9827 89.984 24.875 89.9632 26.7464C89.0274 26.7568 87.1664 26.7776 86.241 26.788C86.2098 24.9062 86.3554 23.0035 86.1163 21.1321C84.38 17.5659 82.0302 14.322 80.0548 10.891Z" fill="white"/>
<path d="M97.397 10.8597C100.766 10.9845 104.269 10.4022 107.545 11.4315C111.131 12.5752 112.431 17.6074 109.821 20.3314C107.617 22.8578 103.958 22.2236 100.984 22.4316C100.994 23.8768 101.005 25.3323 101.015 26.7775C99.7987 26.7775 98.5927 26.7775 97.3866 26.7775C97.4074 21.4646 97.3866 16.1622 97.397 10.8597ZM101.005 13.958C101.005 15.7671 101.005 17.5762 101.015 19.3748C102.554 19.3437 104.103 19.4372 105.631 19.1669C107.638 18.5951 107.804 15.923 106.567 14.5402C104.831 13.7085 102.855 14.062 101.005 13.958Z" fill="white"/>
<path d="M111.412 10.9013C116.06 10.8181 120.707 10.8493 125.365 10.8701C125.344 11.8994 125.334 12.9287 125.323 13.958C123.639 13.9684 121.965 13.9684 120.281 13.9788C120.291 18.2312 120.291 22.4939 120.27 26.7567C119.345 26.7567 117.484 26.7671 116.548 26.7775C116.548 22.5043 116.548 18.2416 116.548 13.9684C114.833 13.9684 113.128 13.9684 111.412 13.958C111.412 13.199 111.412 11.6602 111.412 10.9013Z" fill="white"/>
<path d="M130.844 11.3485C135.783 9.1339 142.842 12.0035 143.248 17.8258C144.09 22.858 139.349 27.4223 134.421 27.0168C130.012 27.1415 125.885 23.3466 125.864 18.8967C125.822 15.6736 127.943 12.6689 130.844 11.3485ZM132.123 14.426C129.16 16.0895 128.973 20.8098 131.603 22.8476C134.348 25.0309 139.245 23.357 139.484 19.6869C140.42 15.6632 135.648 12.2218 132.123 14.426Z" fill="white"/>
<path d="M172.453 11.7745C172.734 10.5996 174.148 11.0051 175.011 10.7036C177.402 16.0893 179.856 21.4437 182.299 26.7982C179.149 28.1186 179.18 24.4485 178.036 22.7849C175.281 22.7642 172.526 22.7642 169.76 22.8057C168.689 24.4797 168.575 27.6611 165.653 27.0373C167.67 21.8388 170.072 16.8067 172.453 11.7745ZM170.623 20.8095C172.827 20.7887 175.032 20.7783 177.236 20.7159C176.082 18.283 174.98 15.8397 173.898 13.3756C172.848 15.8709 171.715 18.335 170.623 20.8095Z" fill="white"/>
<path d="M184.503 10.8701C185.106 10.8701 186.302 10.8493 186.895 10.8389C186.895 16.1413 186.884 21.4438 186.905 26.7359C186.302 26.7567 185.096 26.7983 184.493 26.8295C184.493 21.5062 184.472 16.1933 184.503 10.8701Z" fill="white"/>
<path d="M200.743 10.9948C201.378 10.9532 202.656 10.8596 203.291 10.8076C204.881 13.646 206.586 16.422 208.333 19.1668C210.069 16.474 211.463 13.5213 213.469 11.0156C214.031 10.9428 215.143 10.8076 215.705 10.7349C213.241 15.9854 207.99 20.4145 209.175 26.7567C208.645 26.7567 207.585 26.7671 207.054 26.7775C208.364 20.5392 203.54 15.975 200.743 10.9948Z" fill="white"/>
<path d="M149.59 10.8493C153.614 11.078 158.188 10.0071 161.723 12.4816C165.726 15.2264 165.945 21.8077 162.139 24.8125C158.594 27.6404 153.77 26.5696 149.59 26.7671C149.59 21.4646 149.59 16.1621 149.59 10.8493ZM151.846 12.8871C151.877 16.8068 151.857 20.716 151.877 24.6253C154.768 24.4798 158.105 25.2283 160.559 23.2841C163.262 21.1007 163.293 16.5988 160.621 14.3739C158.126 12.44 154.778 13.0534 151.846 12.8871Z" fill="white"/>
<path d="M191.511 10.8389C192.103 10.8493 193.289 10.8805 193.881 10.8909C193.871 15.4655 193.871 20.0402 193.881 24.6045C196.73 24.6253 199.579 24.6253 202.428 24.6253C202.428 25.166 202.417 26.2265 202.417 26.7671C198.778 26.7671 195.139 26.7671 191.511 26.7671C191.5 21.4542 191.5 16.1517 191.511 10.8389Z" fill="white"/>
<path d="M0.00819511 14.2283C3.30405 14.1347 6.6103 14.1555 9.91655 14.1867C9.94774 17.441 9.94774 20.7057 9.89576 23.9703C6.6103 23.9807 3.33524 23.9807 0.0497831 23.9495C-0.012599 20.7161 -0.0022019 17.4722 0.00819511 14.2283Z" fill="white"/>
<path d="M14.2521 14.1659C17.4856 14.1659 20.7191 14.1555 23.9629 14.1763C23.9733 17.441 23.9733 20.7057 23.9525 23.9599C20.7295 23.9807 17.496 23.9807 14.2625 23.9599C14.2417 20.6953 14.2521 17.4306 14.2521 14.1659Z" fill="white"/>
<path d="M28.9431 14.1971C32.1973 14.1556 35.4516 14.1659 38.7059 14.1659C38.945 17.3994 38.9242 20.6433 38.8826 23.8872C35.5764 24.0119 32.2701 24.0015 28.9743 23.9287C28.9015 20.6849 28.9015 17.441 28.9431 14.1971Z" fill="white"/>
<path d="M0.0289843 28.1394C3.32484 28.1082 6.62069 28.1082 9.91655 28.129C9.93734 31.4145 9.93734 34.6999 9.91655 37.9854C6.63109 38.0062 3.33524 38.0062 0.0497783 37.975C-0.0126038 34.6895 -0.0126037 31.4145 0.0289843 28.1394Z" fill="white"/>
<path d="M14.2313 28.1396C17.4856 28.1084 20.7294 28.1084 23.9733 28.1396C23.9629 31.4147 23.9733 34.6897 23.9733 37.9648C20.7294 38.0064 17.4856 38.0064 14.2313 37.9752C14.2521 34.7001 14.2521 31.4147 14.2313 28.1396Z" fill="white"/>
<path d="M28.9119 28.2019C32.2597 28.0772 35.6284 27.9524 38.9554 28.4099C38.8826 31.581 38.893 34.7625 38.893 37.9335C35.5764 38.0167 32.2597 38.0063 28.9535 37.9647C28.9119 34.7105 28.9223 31.4562 28.9119 28.2019Z" fill="white"/>
</svg>
