<svg xmlns="http://www.w3.org/2000/svg" width="16.407" height="16.404" viewBox="0 0 16.407 16.404">
  <path id="mobile-icon-6" d="M11.577,3.375h-.028a8.2,8.2,0,0,0,0,16.4h.028a8.2,8.2,0,1,0,0-16.4Zm7.106,7.65h-3.06a15.528,15.528,0,0,0-.386-3,12.012,12.012,0,0,0,1.96-.828A7.064,7.064,0,0,1,18.682,11.025Zm-7.658,0H8.588A14.016,14.016,0,0,1,8.935,8.3a12,12,0,0,0,2.09.28Zm0,1.1V14.57a12.047,12.047,0,0,0-2.09.28,14.014,14.014,0,0,1-.347-2.721Zm1.1,0h2.417a13.933,13.933,0,0,1-.347,2.717,11.77,11.77,0,0,0-2.07-.276Zm0-1.1V8.58A12.048,12.048,0,0,0,14.2,8.3a13.974,13.974,0,0,1,.347,2.721Zm4.314-4.649a10.954,10.954,0,0,1-1.5.611A8.142,8.142,0,0,0,13.9,4.838,7.135,7.135,0,0,1,16.443,6.376Zm-2.539.9a11.1,11.1,0,0,1-1.774.237V4.613A4.778,4.778,0,0,1,13.9,7.271ZM11.025,4.6V7.5a10.906,10.906,0,0,1-1.794-.241A4.775,4.775,0,0,1,11.025,4.6Zm-1.8.252A8.206,8.206,0,0,0,8.19,6.983a11.2,11.2,0,0,1-1.479-.607A7.029,7.029,0,0,1,9.227,4.85ZM5.958,7.2a11.774,11.774,0,0,0,1.94.82,14.9,14.9,0,0,0-.386,3H4.475A7.028,7.028,0,0,1,5.958,7.2ZM4.471,12.129H7.507a15.488,15.488,0,0,0,.386,3,12.493,12.493,0,0,0-1.94.82A7.065,7.065,0,0,1,4.471,12.129Zm2.236,4.649a11.035,11.035,0,0,1,1.483-.607,8.235,8.235,0,0,0,1.037,2.137A7.2,7.2,0,0,1,6.707,16.778Zm2.524-.891a10.963,10.963,0,0,1,1.794-.241v2.91A4.768,4.768,0,0,1,9.231,15.887Zm2.9,2.654v-2.9a11.1,11.1,0,0,1,1.774.237A4.776,4.776,0,0,1,12.129,18.54Zm1.774-.225a8.142,8.142,0,0,0,1.045-2.149,10.774,10.774,0,0,1,1.5.615A7.217,7.217,0,0,1,13.9,18.316ZM17.2,15.958a12.012,12.012,0,0,0-1.96-.828,15.447,15.447,0,0,0,.386-3h3.06A7.034,7.034,0,0,1,17.2,15.958Z" transform="translate(-3.375 -3.375)" fill="#929292"/>
</svg>
