<svg xmlns="http://www.w3.org/2000/svg" width="17.98" height="15.732" viewBox="0 0 17.98 15.732">
  <path id="mobile-icon-8" d="M18.558,8.5,16.916,5.655a.527.527,0,0,0,.061-.237.5.5,0,0,0-.483-.492L14.677,1.783a.512.512,0,0,0,.035-.158.5.5,0,0,0-.887-.316H10.332a.479.479,0,0,0-.755,0H6.1a.5.5,0,0,0-.887.316.462.462,0,0,0,.035.158L3.414,4.97a.491.491,0,0,0-.3.448c0,.018.009.035.009.053L1.377,8.491a.5.5,0,0,0-.413.492.507.507,0,0,0,.4.492L3.168,12.6a.459.459,0,0,0-.026.158.49.49,0,0,0,.4.483l1.694,2.941a.567.567,0,0,0-.035.176.5.5,0,0,0,.5.5.485.485,0,0,0,.378-.176h3.5a.494.494,0,0,0,.755,0h3.512a.49.49,0,0,0,.36.158.5.5,0,0,0,.5-.5.364.364,0,0,0-.026-.14l1.694-2.959a.49.49,0,0,0,.4-.483.5.5,0,0,0-.026-.158l1.8-3.125a.5.5,0,0,0,.4-.492.491.491,0,0,0-.386-.483ZM5.547,15.374,4.116,12.889H5.547Zm0-2.748H4.116a.539.539,0,0,0-.044-.105l1.475-1.554Zm0-2.046L3.9,12.327a.821.821,0,0,0-.132-.053L1.939,9.114a.342.342,0,0,0,.018-.132.464.464,0,0,0-.009-.114l1.7-2.95a.553.553,0,0,0,.255-.088l1.642,1.7V10.58Zm0-3.354-1.5-1.554a.48.48,0,0,0,.07-.255c0-.009-.009-.026-.009-.035l1.44-.518V7.226Zm0-2.643L4.116,5.1,5.547,2.626Zm10.7,1.282.026.044-1.159,5.478-2.089-2.2L16.24,5.857l.009.009Zm-6.172,6.374.378.386H9.708Zm-.009-.369-2.73-2.8L9.945,6.3l2.722,2.871Zm.176.193,2.6-2.7L15.055,11.7l-.193.922H10.8l-.553-.562ZM13.966,2.056a.44.44,0,0,0,.114.044l1.9,3.3v.018a.48.48,0,0,0,.07.255l-3.2,3.319L10.13,6.12Zm-.3-.07L9.945,5.927,8.075,3.952l5.452-1.967h.141Zm-4.047,0a.466.466,0,0,0,.667,0h2.458L7.882,3.741,6.214,1.985H9.621ZM5.81,2.17l.035-.07q.044-.011.088-.026L7.61,3.838l-1.8.65Zm0,2.6L7.8,4.048,9.761,6.12,7.154,8.877,5.81,7.5V4.768Zm0,3.038L7,9.044,5.81,10.3V7.806Zm0,2.88L7.189,9.228,9.9,12.046l-.562.579H5.81v-1.94ZM6.039,16a.472.472,0,0,0-.193-.114L5.81,15.83V12.889H9.085L6.083,16H6.039ZM10.3,16a.488.488,0,0,0-.685,0H6.451l3-3.108h1.255l3,3.108H10.3Zm3.933-.386-.14.246a.441.441,0,0,0-.114.044l-2.923-3.011H14.8l-.571,2.722Zm.421-.729.421-1.993h.72l-1.141,1.993Zm1.141-2.256h-.667l.149-.694.562.6a.325.325,0,0,0-.044.1Zm2.168-3.52-1.817,3.169a.885.885,0,0,0-.132.061l-.676-.72,1.133-5.373,1.5,2.6a.667.667,0,0,0-.026.14A.593.593,0,0,0,17.961,9.105Z" transform="translate(-0.964 -1.125)" fill="#929292"/>
</svg>
