<svg xmlns="http://www.w3.org/2000/svg" width="22.337" height="14.892" viewBox="0 0 22.337 14.892">
  <path id="mobile-icon-7" d="M21.718,18.646H20.38q.136-.359.64-1.735l.029-.087q.039-.1.1-.252t.087-.252l.116.533Zm-14-.63-.562-2.86a.643.643,0,0,0-.727-.524h-2.6l-.019.126a5.143,5.143,0,0,1,3.907,3.258Zm1.735-3.384L7.883,18.879l-.165-.863a3.525,3.525,0,0,0-.824-1.256,3.76,3.76,0,0,0-1.27-.858l1.309,4.944h1.7l2.53-6.215H9.454ZM10.8,20.857h1.609l1.008-6.224H11.81Zm7.446-6.069a3.929,3.929,0,0,0-1.445-.262,3.142,3.142,0,0,0-1.949.572,1.8,1.8,0,0,0-.766,1.483q-.01.989,1.406,1.687a2.681,2.681,0,0,1,.65.4.516.516,0,0,1,.184.378.485.485,0,0,1-.291.446,1.4,1.4,0,0,1-.669.155,3.5,3.5,0,0,1-1.512-.32l-.213-.107-.223,1.4a4.3,4.3,0,0,0,1.794.33,3.2,3.2,0,0,0,2.021-.572,1.906,1.906,0,0,0,.78-1.551q0-1.028-1.357-1.687a4.685,4.685,0,0,1-.688-.407.467.467,0,0,1-.213-.368.453.453,0,0,1,.238-.373,1.221,1.221,0,0,1,.684-.16,2.737,2.737,0,0,1,1.2.233l.145.078Zm4.12-.155H21.127a.824.824,0,0,0-.843.524l-2.385,5.7h1.687l.339-.931H21.98q.048.213.194.931h1.493Zm2.54-3.1V23.94a1.258,1.258,0,0,1-1.241,1.241H3.812a1.193,1.193,0,0,1-.873-.368,1.193,1.193,0,0,1-.368-.873V11.53a1.258,1.258,0,0,1,1.241-1.241H23.667a1.258,1.258,0,0,1,1.241,1.241Z" transform="translate(-2.571 -10.289)" fill="#929292"/>
</svg>
