<svg xmlns="http://www.w3.org/2000/svg" width="16.616" height="14.242" viewBox="0 0 16.616 14.242">
  <g id="mobile-icon-3" transform="translate(-2.25 -4.5)">
    <path id="Path_3682" data-name="Path 3682" d="M18.272,4.5H8.184a.611.611,0,0,0-.593.612V6.28H3.808A1.562,1.562,0,0,0,2.25,7.838v7.7a3.215,3.215,0,0,0,3.19,3.208H15.813A3.06,3.06,0,0,0,18.866,15.7V5.093A.6.6,0,0,0,18.272,4.5ZM7.591,7.467v7.121H6.033V8.179a1.811,1.811,0,0,0-.122-.712ZM6.96,16.94a2.19,2.19,0,0,1-1.5.616,2.026,2.026,0,0,1-2.021-2.021V8.179a.7.7,0,1,1,1.409,0v7a.6.6,0,0,0,.593.593H7.572A1.951,1.951,0,0,1,6.96,16.94ZM17.679,15.7a1.874,1.874,0,0,1-1.866,1.854H8.01a3.1,3.1,0,0,0,.768-2.021V5.724h8.9Z" transform="translate(0 0)" fill="#929292"/>
    <path id="Path_3683" data-name="Path 3683" d="M17.438,9.563h5.934v2.077H17.438Z" transform="translate(-7.176 -2.392)" fill="#929292"/>
    <path id="Path_3684" data-name="Path 3684" d="M17.438,15.75h5.934v1.187H17.438Z" transform="translate(-7.176 -5.316)" fill="#929292"/>
    <path id="Path_3685" data-name="Path 3685" d="M17.438,20.25h5.934v1.187H17.438Z" transform="translate(-7.176 -7.442)" fill="#929292"/>
    <path id="Path_3686" data-name="Path 3686" d="M23.106,24.75H17.172s0,1.187-.3,1.187H22.39C23.106,25.937,23.106,25.158,23.106,24.75Z" transform="translate(-6.911 -9.568)" fill="#929292"/>
  </g>
</svg>
