<svg xmlns="http://www.w3.org/2000/svg" width="14.616" height="14.611" viewBox="0 0 14.616 14.611">
  <g id="mobile-icon-1" transform="translate(-3.374 -3.375)">
    <path id="Path_163" data-name="Path 163" d="M12.457,7.288a.138.138,0,0,0-.176,0L6.8,11.671a.148.148,0,0,0-.053.109v8.078a.07.07,0,0,0,.07.07h3.793a.07.07,0,0,0,.07-.07V14.941a.07.07,0,0,1,.07-.07h3.231a.07.07,0,0,1,.07.07v4.917a.07.07,0,0,0,.07.07h3.793a.07.07,0,0,0,.07-.07V11.78a.142.142,0,0,0-.053-.109Z" transform="translate(-1.69 -1.943)" fill="#929292"/>
    <path id="Path_164" data-name="Path 164" d="M17.8,8.861,11.161,3.544a.771.771,0,0,0-.962,0L7.308,5.893V4.411a.07.07,0,0,0-.07-.07H5.13a.07.07,0,0,0-.07.07V7.649l-1.5,1.233a.491.491,0,0,0-.042.734.489.489,0,0,0,.348.144.5.5,0,0,0,.309-.109l6.459-5.2a.063.063,0,0,1,.046-.014.085.085,0,0,1,.046.014L17.184,9.63a.5.5,0,0,0,.309.109.5.5,0,0,0,.5-.52A.5.5,0,0,0,17.8,8.861Z" fill="#929292"/>
  </g>
</svg>
