<svg xmlns="http://www.w3.org/2000/svg" width="17.407" height="13.926" viewBox="0 0 17.407 13.926">
  <path id="mobile-icon-4" d="M13.491,6.093a3.917,3.917,0,1,0,3.917,3.917A3.915,3.915,0,0,0,13.491,6.093Zm1.741,4.088a.265.265,0,0,1-.264.264H13.32a.265.265,0,0,1-.264-.264V8.1a.265.265,0,0,1,.264-.264h.342a.265.265,0,0,1,.264.264V9.574h1.041a.265.265,0,0,1,.264.264ZM13.491,5.222c.147,0,.292.009.435.022V3.917A1.339,1.339,0,0,0,12.62,2.611H10.444V1.306A1.339,1.339,0,0,0,9.139,0H4.787A1.339,1.339,0,0,0,3.481,1.306V2.611H1.306A1.339,1.339,0,0,0,0,3.917V6.093H10.747A4.758,4.758,0,0,1,13.491,5.222ZM8.7,2.611H5.222v-.87H8.7ZM8.889,8.7H5.657a.435.435,0,0,1-.435-.435V6.963H0V10.88a1.339,1.339,0,0,0,1.306,1.306H9.232A4.723,4.723,0,0,1,8.889,8.7Z" fill="#929292"/>
</svg>
