<svg xmlns="http://www.w3.org/2000/svg" width="17.822" height="16.451" viewBox="0 0 17.822 16.451">
  <g id="mobile-icon-9" transform="translate(-3.375 -4.499)">
    <path id="Path_3687" data-name="Path 3687" d="M18.626,11.25H5.945a2.572,2.572,0,0,0-2.57,2.57v7.2a2.572,2.572,0,0,0,2.57,2.57H18.626a2.572,2.572,0,0,0,2.57-2.57v-7.2A2.572,2.572,0,0,0,18.626,11.25Z" transform="translate(0 -2.638)" fill="#929292"/>
    <path id="Path_3688" data-name="Path 3688" d="M16.448,4.543,6.385,6.509C5.614,6.68,4.5,7.456,4.5,8.4a2.7,2.7,0,0,1,2.1-.814h12.3V6.706A2.46,2.46,0,0,0,18.3,5.1h0A2.026,2.026,0,0,0,16.448,4.543Z" transform="translate(-0.44)" fill="#929292"/>
  </g>
</svg>
