<svg width="306" height="845" viewBox="0 0 306 845" fill="none" xmlns="http://www.w3.org/2000/svg">
<g clip-path="url(#clip0_1329_55)">
<g opacity="0.581">
<path opacity="0.581" d="M119.78 613.066C117.653 611.838 114.713 609.676 112.79 606.354C109.6 600.841 109.108 591.928 109.084 591.448L109.129 320.908C109.174 320.371 109.796 313.432 112.569 308.239C115.31 303.105 120.268 299.473 120.712 299.155L356.566 162.941L356.615 162.912L356.66 162.879C356.725 162.831 363.298 158.044 369.74 158.087C371.563 158.099 373.578 158.499 375.728 159.277C377.325 159.854 378.961 160.623 380.589 161.563C382.026 162.393 382.926 163.055 382.935 163.062L382.98 163.096L383.029 163.124L614.709 296.889L614.74 296.906L614.771 296.922C614.777 296.925 615.406 297.232 616.382 297.796C617.714 298.565 619.728 299.83 621.756 301.486C624.125 303.422 625.937 305.417 627.143 307.415C630.898 313.64 630.102 322.165 630.094 322.25L630.089 322.3L630.089 322.349L630.044 591.963C630.037 592.235 629.811 599.289 627.13 604.39C624.485 609.426 619.35 612.758 619.061 612.942L383.369 749.063C382.895 749.289 376.398 752.324 369.737 752.29C363.085 752.256 356.035 749.177 355.437 748.911L122.3 614.305L122.227 614.263L122.148 614.234C122.14 614.231 121.152 613.858 119.78 613.066Z" fill="url(#paint0_linear_1329_55)"/>
<path opacity="0.581" d="M120.281 612.2C121.546 612.931 122.46 613.282 122.499 613.297L122.65 613.352L355.892 748.018C356.69 748.371 363.415 751.258 369.743 751.29C376.059 751.322 382.265 748.478 382.903 748.177L618.542 612.086C618.932 611.836 623.753 608.668 626.245 603.925C628.785 599.092 629.032 592.356 629.045 591.952L629.089 322.25L629.099 322.151C629.107 322.069 629.872 313.875 626.287 307.932C625.141 306.031 623.403 304.123 621.123 302.26C619.147 300.646 617.182 299.412 615.882 298.662C614.942 298.119 614.338 297.823 614.334 297.82L614.27 297.79L382.431 163.933L382.341 163.866C382.332 163.86 381.469 163.226 380.089 162.429C377.947 161.193 373.753 159.114 369.734 159.087C363.636 159.046 357.316 163.638 357.254 163.683L357.164 163.75L357.066 163.806L121.255 299.996C120.666 300.424 116.024 303.891 113.452 308.71C110.825 313.628 110.192 320.227 110.129 320.949L110.084 591.424C110.119 592.083 110.626 600.618 113.656 605.853C115.468 608.984 118.258 611.033 120.281 612.2ZM119.281 613.932C117.096 612.671 113.972 610.393 111.925 606.855C108.496 600.93 108.084 591.472 108.084 591.472L108.129 320.867C108.129 320.867 108.677 313.406 111.687 307.768C114.698 302.129 120.171 298.313 120.171 298.313L356.066 162.074C356.066 162.074 362.881 157.041 369.747 157.087C376.613 157.133 383.53 162.258 383.53 162.258L615.209 296.022C615.209 296.022 624.029 300.317 627.999 306.899C631.969 313.48 631.089 322.349 631.089 322.349L631.044 591.977C631.044 591.977 630.882 599.4 628.016 604.855C625.149 610.31 619.579 613.797 619.579 613.797L383.837 749.947C383.837 749.947 376.946 753.326 369.732 753.29C362.519 753.253 354.981 749.802 354.981 749.802L121.801 615.171C121.801 615.171 120.754 614.783 119.281 613.932Z" fill="#FD8605"/>
</g>
<path opacity="0.733" d="M412.289 890.289L36.948 700.724C36.948 700.724 24.7681 695.631 17.2161 686.262C9.66406 676.893 6.73804 663.245 6.73804 663.245L6.53833 278.245C6.53833 278.245 8.86425 262.714 16.9583 252.462C25.0523 242.21 38.9119 237.235 38.9119 237.235L285.596 111.97L309.325 99.9199" stroke="#FD8604" stroke-width="5"/>
<path opacity="0.28" d="M482.056 -96.8359L195.885 68.2881C195.885 68.2881 185.306 72.6021 179.128 81.4951C172.95 90.3881 171.175 103.858 171.175 103.858L171.331 437.782C171.331 437.782 173.563 449.619 179.331 457.745C185.099 465.871 194.393 470.289 194.393 470.289L480.883 634.704" stroke="#FD8604" stroke-width="5"/>
</g>
<defs>
<linearGradient id="paint0_linear_1329_55" x1="619.667" y1="307.426" x2="165.033" y2="655.143" gradientUnits="userSpaceOnUse">
<stop stop-color="#A8743A"/>
<stop offset="1"/>
</linearGradient>
<clipPath id="clip0_1329_55">
<rect width="306" height="845" fill="white"/>
</clipPath>
</defs>
</svg>
