<svg width="225" height="988" viewBox="0 0 225 988" fill="none" xmlns="http://www.w3.org/2000/svg">
<g clip-path="url(#clip0_2033_729)">
<path opacity="0.587" d="M313.381 985.807L27.2098 820.683C27.2098 820.683 16.631 816.369 10.453 807.476C4.275 798.583 2.49988 785.113 2.49988 785.113L2.65613 451.189C2.65613 451.189 4.88813 439.352 10.6561 431.226C16.4241 423.1 25.7181 418.682 25.7181 418.682L312.208 254.267" stroke="#FD8604" stroke-width="5"/>
<path d="M93.25 394.787C100.706 394.787 106.75 388.743 106.75 381.287C106.75 373.831 100.706 367.787 93.25 367.787C85.7942 367.787 79.75 373.831 79.75 381.287C79.75 388.743 85.7942 394.787 93.25 394.787Z" fill="#CB7D00"/>
<path opacity="0.28" d="M403.413 733.709L117.242 568.585C117.242 568.585 106.663 564.271 100.485 555.378C94.3071 546.485 92.532 533.015 92.532 533.015L92.6882 199.091C92.6882 199.091 94.9202 187.254 100.688 179.128C106.456 171.002 115.75 166.584 115.75 166.584L402.24 2.16895" stroke="#FD8604" stroke-width="5"/>
</g>
<defs>
<clipPath id="clip0_2033_729">
<rect width="225" height="988" fill="white"/>
</clipPath>
</defs>
</svg>
