<svg xmlns="http://www.w3.org/2000/svg" xmlns:xlink="http://www.w3.org/1999/xlink" width="783.778" height="167.902" viewBox="0 0 783.778 167.902">
  <defs>
    <filter id="Rectangle_9126" x="32.845" y="53.592" width="735" height="66" filterUnits="userSpaceOnUse">
      <feOffset dy="3" input="SourceAlpha"/>
      <feGaussianBlur stdDeviation="3" result="blur"/>
      <feFlood flood-opacity="0.161"/>
      <feComposite operator="in" in2="blur"/>
      <feComposite in="SourceGraphic"/>
    </filter>
    <filter id="Ellipse_2178" x="40.845" y="60.592" width="51" height="51" filterUnits="userSpaceOnUse">
      <feOffset dy="3" input="SourceAlpha"/>
      <feGaussianBlur stdDeviation="3" result="blur-2"/>
      <feFlood flood-opacity="0.161"/>
      <feComposite operator="in" in2="blur-2"/>
      <feComposite in="SourceGraphic"/>
    </filter>
    <filter id="Ellipse_2197" x="208.845" y="60.592" width="51" height="51" filterUnits="userSpaceOnUse">
      <feOffset dy="3" input="SourceAlpha"/>
      <feGaussianBlur stdDeviation="3" result="blur-3"/>
      <feFlood flood-opacity="0.161"/>
      <feComposite operator="in" in2="blur-3"/>
      <feComposite in="SourceGraphic"/>
    </filter>
    <filter id="Ellipse_2199" x="375.845" y="60.592" width="51" height="51" filterUnits="userSpaceOnUse">
      <feOffset dy="3" input="SourceAlpha"/>
      <feGaussianBlur stdDeviation="3" result="blur-4"/>
      <feFlood flood-opacity="0.161"/>
      <feComposite operator="in" in2="blur-4"/>
      <feComposite in="SourceGraphic"/>
    </filter>
    <filter id="Ellipse_2201" x="541.845" y="60.592" width="51" height="51" filterUnits="userSpaceOnUse">
      <feOffset dy="3" input="SourceAlpha"/>
      <feGaussianBlur stdDeviation="3" result="blur-5"/>
      <feFlood flood-opacity="0.161"/>
      <feComposite operator="in" in2="blur-5"/>
      <feComposite in="SourceGraphic"/>
    </filter>
    <filter id="Ellipse_2203" x="707.845" y="60.592" width="51" height="51" filterUnits="userSpaceOnUse">
      <feOffset dy="3" input="SourceAlpha"/>
      <feGaussianBlur stdDeviation="3" result="blur-6"/>
      <feFlood flood-opacity="0.161"/>
      <feComposite operator="in" in2="blur-6"/>
      <feComposite in="SourceGraphic"/>
    </filter>
  </defs>
  <g id="Group_5226" data-name="Group 5226" transform="translate(-5693.564 1293.402)">
    <g id="Group_5225" data-name="Group 5225" transform="translate(5735.592 -1266.368)">
      <line id="Line_127" data-name="Line 127" y2="114.448" transform="translate(24.583 0)" fill="none" stroke="#707070" stroke-linecap="round" stroke-width="2"/>
      <line id="Line_128" data-name="Line 128" y2="114.448" transform="translate(192.467 0)" fill="none" stroke="#707070" stroke-linecap="round" stroke-width="2"/>
      <line id="Line_129" data-name="Line 129" y2="114.448" transform="translate(359.151 0)" fill="none" stroke="#707070" stroke-linecap="round" stroke-width="2"/>
      <line id="Line_130" data-name="Line 130" y2="114.448" transform="translate(525.836 0)" fill="none" stroke="#707070" stroke-linecap="round" stroke-width="2"/>
      <line id="Line_131" data-name="Line 131" y2="114.448" transform="translate(692.52 0)" fill="none" stroke="#707070" stroke-linecap="round" stroke-width="2"/>
      <g transform="matrix(1, 0, 0, 1, -42.03, -27.03)" filter="url(#Rectangle_9126)">
        <rect id="Rectangle_9126-2" data-name="Rectangle 9126" width="717" height="48" rx="21" transform="translate(41.85 59.59)" fill="#555"/>
      </g>
      <g id="Ellipse_2173" data-name="Ellipse 2173" transform="translate(-0.183 32.558)" fill="#1c1c1c" stroke="#707070" stroke-width="1">
        <ellipse cx="24.5" cy="24" rx="24.5" ry="24" stroke="none"/>
        <ellipse cx="24.5" cy="24" rx="24" ry="23.5" fill="none"/>
      </g>
      <rect id="Rectangle_9127" data-name="Rectangle 9127" width="13" height="4" rx="2" transform="translate(142.817 55.558)" fill="#1c1c1c"/>
      <rect id="Rectangle_9127-2" data-name="Rectangle 9127" width="13" height="4" rx="2" transform="translate(309.817 55.558)" fill="#1c1c1c"/>
      <rect id="Rectangle_9127-3" data-name="Rectangle 9127" width="14" height="4" rx="2" transform="translate(393.817 55.558)" fill="#1c1c1c"/>
      <rect id="Rectangle_9127-4" data-name="Rectangle 9127" width="13" height="4" rx="2" transform="translate(422.817 55.558)" fill="#1c1c1c"/>
      <rect id="Rectangle_9127-5" data-name="Rectangle 9127" width="13" height="4" rx="2" transform="translate(449.817 55.558)" fill="#1c1c1c"/>
      <rect id="Rectangle_9127-6" data-name="Rectangle 9127" width="13" height="4" rx="2" transform="translate(477.817 55.558)" fill="#1c1c1c"/>
      <rect id="Rectangle_9127-7" data-name="Rectangle 9127" width="13" height="4" rx="2" transform="translate(561.817 55.558)" fill="#1c1c1c"/>
      <rect id="Rectangle_9127-8" data-name="Rectangle 9127" width="13" height="4" rx="2" transform="translate(588.817 55.558)" fill="#1c1c1c"/>
      <rect id="Rectangle_9127-9" data-name="Rectangle 9127" width="13" height="4" rx="2" transform="translate(616.817 55.558)" fill="#1c1c1c"/>
      <rect id="Rectangle_9127-10" data-name="Rectangle 9127" width="13" height="4" rx="2" transform="translate(643.817 55.558)" fill="#1c1c1c"/>
      <g transform="matrix(1, 0, 0, 1, -42.03, -27.03)" filter="url(#Ellipse_2178)">
        <circle id="Ellipse_2178-2" data-name="Ellipse 2178" cx="16.5" cy="16.5" r="16.5" transform="translate(49.85 66.59)" fill="#008e0b"/>
      </g>
      <rect id="Rectangle_9139" data-name="Rectangle 9139" width="13" height="4" rx="2" transform="translate(114.817 55.558)" fill="#1c1c1c"/>
    </g>
    <g id="Ellipse_2196" data-name="Ellipse 2196" transform="translate(5904.409 -1233.81)" fill="#1c1c1c" stroke="#707070" stroke-width="1">
      <circle cx="24" cy="24" r="24" stroke="none"/>
      <circle cx="24" cy="24" r="23.5" fill="none"/>
    </g>
    <g transform="matrix(1, 0, 0, 1, 5693.56, -1293.4)" filter="url(#Ellipse_2197)">
      <circle id="Ellipse_2197-2" data-name="Ellipse 2197" cx="16.5" cy="16.5" r="16.5" transform="translate(217.85 66.59)" fill="#008e0b"/>
    </g>
    <g id="Ellipse_2198" data-name="Ellipse 2198" transform="translate(6070.409 -1233.81)" fill="#1c1c1c" stroke="#707070" stroke-width="1">
      <ellipse cx="24.5" cy="24" rx="24.5" ry="24" stroke="none"/>
      <ellipse cx="24.5" cy="24" rx="24" ry="23.5" fill="none"/>
    </g>
    <g transform="matrix(1, 0, 0, 1, 5693.56, -1293.4)" filter="url(#Ellipse_2199)">
      <circle id="Ellipse_2199-2" data-name="Ellipse 2199" cx="16.5" cy="16.5" r="16.5" transform="translate(384.85 66.59)" fill="#2b2b2b"/>
    </g>
    <g id="Ellipse_2200" data-name="Ellipse 2200" transform="translate(6236.409 -1233.81)" fill="#1c1c1c" stroke="#707070" stroke-width="1">
      <ellipse cx="24.5" cy="24" rx="24.5" ry="24" stroke="none"/>
      <ellipse cx="24.5" cy="24" rx="24" ry="23.5" fill="none"/>
    </g>
    <g transform="matrix(1, 0, 0, 1, 5693.56, -1293.4)" filter="url(#Ellipse_2201)">
      <circle id="Ellipse_2201-2" data-name="Ellipse 2201" cx="16.5" cy="16.5" r="16.5" transform="translate(550.85 66.59)" fill="#2b2b2b"/>
    </g>
    <g id="Ellipse_2202" data-name="Ellipse 2202" transform="translate(6403.409 -1233.81)" fill="#1c1c1c" stroke="#707070" stroke-width="1">
      <circle cx="24" cy="24" r="24" stroke="none"/>
      <circle cx="24" cy="24" r="23.5" fill="none"/>
    </g>
    <g transform="matrix(1, 0, 0, 1, 5693.56, -1293.4)" filter="url(#Ellipse_2203)">
      <circle id="Ellipse_2203-2" data-name="Ellipse 2203" cx="16.5" cy="16.5" r="16.5" transform="translate(716.85 66.59)" fill="#2b2b2b"/>
    </g>
    <path id="Path_3743" data-name="Path 3743" d="M5.008.192c3.2,0,4.752-1.6,4.752-3.472,0-4.112-6.512-2.688-6.512-4.752,0-.7.592-1.28,2.128-1.28a6.326,6.326,0,0,1,3.1.88l.8-1.968a7.513,7.513,0,0,0-3.888-.992C2.208-11.392.672-9.808.672-7.9c0,4.16,6.512,2.72,6.512,4.816,0,.688-.624,1.2-2.16,1.2a6.588,6.588,0,0,1-3.7-1.168L.448-1.1A7.983,7.983,0,0,0,5.008.192ZM19.792-4.272a4.261,4.261,0,0,0-4.48-4.464A4.382,4.382,0,0,0,10.72-4.3c0,2.56,1.936,4.432,4.912,4.432a4.508,4.508,0,0,0,3.552-1.392L17.856-2.7a2.918,2.918,0,0,1-2.16.832A2.3,2.3,0,0,1,13.232-3.6h6.512C19.76-3.808,19.792-4.08,19.792-4.272ZM15.328-6.848A2.045,2.045,0,0,1,17.44-5.056H13.2A2.038,2.038,0,0,1,15.328-6.848Zm14.56,2.576a4.261,4.261,0,0,0-4.48-4.464A4.382,4.382,0,0,0,20.816-4.3c0,2.56,1.936,4.432,4.912,4.432A4.508,4.508,0,0,0,29.28-1.264L27.952-2.7a2.918,2.918,0,0,1-2.16.832A2.3,2.3,0,0,1,23.328-3.6H29.84C29.856-3.808,29.888-4.08,29.888-4.272ZM25.424-6.848a2.045,2.045,0,0,1,2.112,1.792H23.3A2.038,2.038,0,0,1,25.424-6.848Zm12.4-5.024V-7.7a3.307,3.307,0,0,0-2.576-1.04,4.184,4.184,0,0,0-4.3,4.432,4.184,4.184,0,0,0,4.3,4.432,3.311,3.311,0,0,0,2.688-1.12V0H40.32V-11.872ZM35.68-1.92A2.184,2.184,0,0,1,33.472-4.3,2.184,2.184,0,0,1,35.68-6.688,2.181,2.181,0,0,1,37.872-4.3,2.181,2.181,0,0,1,35.68-1.92Z" transform="translate(5738.409 -1280.81)" fill="#fff"/>
    <path id="Path_3748" data-name="Path 3748" d="M-49.972-1.95V-4.38H-45.1V-6.27h-4.875V-8.55h5.52V-10.5h-7.935V0h8.13V-1.95Zm10.68-6.24a6.2,6.2,0,0,0-3.48.975l.84,1.635a3.88,3.88,0,0,1,2.325-.75c1.26,0,1.86.585,1.86,1.59h-1.86c-2.46,0-3.465.99-3.465,2.415C-43.072-.93-41.947.12-40.057.12A2.648,2.648,0,0,0-37.6-1V0h2.19V-4.605C-35.407-7.05-36.832-8.19-39.292-8.19Zm-.18,6.735c-.825,0-1.32-.39-1.32-.975,0-.54.345-.945,1.44-.945h1.6v.825A1.724,1.724,0,0,1-39.472-1.455Zm8.415-5.55V-8.07h-2.235V0h2.34V-3.81a1.983,1.983,0,0,1,2.145-2.25c.18,0,.33.015.525.03V-8.19A3.257,3.257,0,0,0-31.057-7.005ZM-26.887,0h2.34V-11.13h-2.34Zm10.275-8.07L-18.892-2.6-21.157-8.07h-2.415l3.5,8.13-.03.075c-.315.72-.675,1.005-1.32,1.005a2.075,2.075,0,0,1-1.32-.51L-23.6,2.3a3.583,3.583,0,0,0,2.25.735c1.455,0,2.565-.585,3.345-2.535l3.645-8.565ZM-8.992,0h2.43V-10.5h-2.43ZM.668-8.19A3.533,3.533,0,0,0-2-7.125V-8.07H-4.237V0H-1.9V-3.99c0-1.485.81-2.175,1.935-2.175,1.035,0,1.635.6,1.635,1.9V0h2.34V-4.62C4.013-7.08,2.573-8.19.668-8.19Zm11.07.12L9.428-2.58,7.193-8.07H4.778L8.168,0h2.415l3.405-8.07Zm10.89,4.065a4,4,0,0,0-4.2-4.185,4.108,4.108,0,0,0-4.305,4.155c0,2.4,1.815,4.155,4.6,4.155a4.227,4.227,0,0,0,3.33-1.305l-1.245-1.35a2.736,2.736,0,0,1-2.025.78,2.152,2.152,0,0,1-2.31-1.62h6.105C22.6-3.57,22.628-3.825,22.628-4.005ZM18.443-6.42a1.918,1.918,0,0,1,1.98,1.68H16.448A1.91,1.91,0,0,1,18.443-6.42ZM26.9.12c2.415,0,3.81-1.065,3.81-2.565,0-3.18-4.875-1.845-4.875-3.225,0-.42.45-.75,1.5-.75a4.634,4.634,0,0,1,2.325.6l.78-1.665a6.636,6.636,0,0,0-3.105-.705c-2.355,0-3.735,1.08-3.735,2.61,0,3.225,4.875,1.875,4.875,3.195,0,.45-.405.735-1.485.735a5.521,5.521,0,0,1-2.805-.78l-.78,1.68A6.928,6.928,0,0,0,26.9.12Zm9.825-2.16a1.577,1.577,0,0,1-.945.3.941.941,0,0,1-1-1.065V-6.09h2.01v-1.8h-2.01V-9.855h-2.34V-7.89H31.193v1.8h1.245v3.315c0,1.92,1.11,2.9,3.015,2.9a3.344,3.344,0,0,0,1.9-.51ZM42.263.12a4.142,4.142,0,0,0,4.425-4.155A4.142,4.142,0,0,0,42.263-8.19a4.154,4.154,0,0,0-4.44,4.155A4.154,4.154,0,0,0,42.263.12Zm0-1.92a2.048,2.048,0,0,1-2.07-2.235,2.048,2.048,0,0,1,2.07-2.235,2.037,2.037,0,0,1,2.055,2.235A2.037,2.037,0,0,1,42.263-1.8Zm8.22-5.205V-8.07H48.248V0h2.34V-3.81a1.983,1.983,0,0,1,2.145-2.25c.18,0,.33.015.525.03V-8.19A3.257,3.257,0,0,0,50.482-7.005Z" transform="translate(5927.409 -1280.81)" fill="#fff"/>
    <path id="Path_3750" data-name="Path 3750" d="M-40,.18A5.4,5.4,0,0,0-35.663-1.7l-1.56-1.44a3.346,3.346,0,0,1-2.64,1.245,3.221,3.221,0,0,1-3.36-3.36,3.221,3.221,0,0,1,3.36-3.36,3.378,3.378,0,0,1,2.64,1.23l1.56-1.44a5.421,5.421,0,0,0-4.32-1.86,5.4,5.4,0,0,0-5.7,5.43A5.391,5.391,0,0,0-40,.18Zm9.36-.06a4.142,4.142,0,0,0,4.425-4.155A4.142,4.142,0,0,0-30.638-8.19a4.154,4.154,0,0,0-4.44,4.155A4.154,4.154,0,0,0-30.638.12Zm0-1.92a2.048,2.048,0,0,1-2.07-2.235,2.048,2.048,0,0,1,2.07-2.235,2.037,2.037,0,0,1,2.055,2.235A2.037,2.037,0,0,1-30.638-1.8Zm16.32-6.39a3.629,3.629,0,0,0-2.91,1.32,3.012,3.012,0,0,0-2.655-1.32,3.268,3.268,0,0,0-2.535,1.05v-.93h-2.235V0h2.34V-4.05c0-1.44.735-2.115,1.77-2.115.975,0,1.53.6,1.53,1.9V0h2.34V-4.05c0-1.44.735-2.115,1.785-2.115.945,0,1.53.6,1.53,1.9V0h2.34V-4.62C-11.018-7.08-12.4-8.19-14.318-8.19Zm15.735,0a3.629,3.629,0,0,0-2.91,1.32A3.012,3.012,0,0,0-4.148-8.19,3.268,3.268,0,0,0-6.683-7.14v-.93H-8.918V0h2.34V-4.05c0-1.44.735-2.115,1.77-2.115.975,0,1.53.6,1.53,1.9V0h2.34V-4.05c0-1.44.735-2.115,1.785-2.115.945,0,1.53.6,1.53,1.9V0h2.34V-4.62C4.717-7.08,3.337-8.19,1.417-8.19Zm11.19.12v3.99c0,1.485-.78,2.175-1.86,2.175-1.035,0-1.635-.6-1.635-1.95V-8.07H6.772v4.56C6.772-1.02,8.2.12,10.222.12a3.265,3.265,0,0,0,2.5-1.08V0h2.22V-8.07Zm9.42-.12a3.533,3.533,0,0,0-2.67,1.065V-8.07H17.122V0h2.34V-3.99c0-1.485.81-2.175,1.935-2.175,1.035,0,1.635.6,1.635,1.9V0h2.34V-4.62C25.373-7.08,23.932-8.19,22.028-8.19ZM28.658-9.2a1.346,1.346,0,0,0,1.455-1.35,1.314,1.314,0,0,0-1.455-1.26A1.338,1.338,0,0,0,27.2-10.5,1.338,1.338,0,0,0,28.658-9.2ZM27.488,0h2.34V-8.07h-2.34Zm9.09-2.04a1.577,1.577,0,0,1-.945.3.941.941,0,0,1-1-1.065V-6.09h2.01v-1.8h-2.01V-9.855h-2.34V-7.89H31.043v1.8h1.245v3.315c0,1.92,1.11,2.9,3.015,2.9a3.344,3.344,0,0,0,1.9-.51Zm7.56-6.03L41.858-2.6,39.592-8.07H37.178L40.673.06l-.03.075c-.315.72-.675,1.005-1.32,1.005A2.075,2.075,0,0,1,38,.63L37.147,2.3a3.583,3.583,0,0,0,2.25.735c1.455,0,2.565-.585,3.345-2.535L46.388-8.07Z" transform="translate(6094.409 -1280.81)" fill="#fff"/>
    <path id="Path_3755" data-name="Path 3755" d="M-21.93-10.5h-4.545V0h2.43V-2.895h2.115c2.805,0,4.56-1.455,4.56-3.8C-17.37-9.045-19.125-10.5-21.93-10.5Zm-.135,5.625h-1.98V-8.52h1.98c1.485,0,2.235.675,2.235,1.83C-19.83-5.55-20.58-4.875-22.065-4.875Zm8.49-2.13V-8.07H-15.81V0h2.34V-3.81a1.983,1.983,0,0,1,2.145-2.25c.18,0,.33.015.525.03V-8.19A3.257,3.257,0,0,0-13.575-7.005Zm5.34-2.19a1.346,1.346,0,0,0,1.455-1.35,1.314,1.314,0,0,0-1.455-1.26A1.338,1.338,0,0,0-9.69-10.5,1.338,1.338,0,0,0-8.235-9.2ZM-9.405,0h2.34V-8.07h-2.34ZM.87-8.07-1.44-2.58-3.675-8.07H-6.09L-2.7,0H-.285L3.12-8.07Zm6.2-.12a6.2,6.2,0,0,0-3.48.975l.84,1.635A3.88,3.88,0,0,1,6.75-6.33c1.26,0,1.86.585,1.86,1.59H6.75c-2.46,0-3.465.99-3.465,2.415C3.285-.93,4.41.12,6.3.12A2.648,2.648,0,0,0,8.76-1V0h2.19V-4.605C10.95-7.05,9.525-8.19,7.065-8.19Zm-.18,6.735c-.825,0-1.32-.39-1.32-.975,0-.54.345-.945,1.44-.945h1.6v.825A1.724,1.724,0,0,1,6.885-1.455ZM17.64-2.04a1.577,1.577,0,0,1-.945.3.941.941,0,0,1-1-1.065V-6.09H17.7v-1.8H15.69V-9.855H13.35V-7.89H12.105v1.8H13.35v3.315c0,1.92,1.11,2.9,3.015,2.9a3.344,3.344,0,0,0,1.9-.51Zm9.6-1.965a4,4,0,0,0-4.2-4.185,4.108,4.108,0,0,0-4.305,4.155c0,2.4,1.815,4.155,4.6,4.155a4.227,4.227,0,0,0,3.33-1.305l-1.245-1.35a2.736,2.736,0,0,1-2.025.78,2.152,2.152,0,0,1-2.31-1.62H27.2C27.21-3.57,27.24-3.825,27.24-4.005ZM23.055-6.42a1.918,1.918,0,0,1,1.98,1.68H21.06A1.91,1.91,0,0,1,23.055-6.42Z" transform="translate(6263.409 -1280.81)" fill="#fff"/>
    <path id="Path_3756" data-name="Path 3756" d="M-20.24-11.2h-4.848V0H-22.5V-3.088h2.256c2.992,0,4.864-1.552,4.864-4.048C-15.376-9.648-17.248-11.2-20.24-11.2Zm-.144,6H-22.5V-9.088h2.112c1.584,0,2.384.72,2.384,1.952C-18-5.92-18.8-5.2-20.384-5.2ZM-7.376-8.608v4.256c0,1.584-.832,2.32-1.984,2.32-1.1,0-1.744-.64-1.744-2.08v-4.5h-2.5v4.864c0,2.656,1.52,3.872,3.68,3.872A3.483,3.483,0,0,0-7.248-1.024V0H-4.88V-8.608Zm9.9-.128A3.342,3.342,0,0,0-.064-7.7v-4.176h-2.5V0H-.176V-.992a3.345,3.345,0,0,0,2.7,1.12A4.181,4.181,0,0,0,6.816-4.3,4.181,4.181,0,0,0,2.528-8.736ZM2.1-1.92A2.172,2.172,0,0,1-.1-4.3,2.172,2.172,0,0,1,2.1-6.688,2.172,2.172,0,0,1,4.288-4.3,2.172,2.172,0,0,1,2.1-1.92ZM8.48,0h2.5V-11.872H8.48Zm6.064-9.808a1.435,1.435,0,0,0,1.552-1.44,1.4,1.4,0,0,0-1.552-1.344A1.427,1.427,0,0,0,12.992-11.2,1.427,1.427,0,0,0,14.544-9.808ZM13.3,0h2.5V-8.608H13.3Zm8.976.128a3.993,3.993,0,0,0,3.856-2.176L24.192-3.1A2.118,2.118,0,0,1,22.256-1.92,2.2,2.2,0,0,1,20-4.3a2.2,2.2,0,0,1,2.256-2.384A2.146,2.146,0,0,1,24.192-5.5l1.936-1.04a3.954,3.954,0,0,0-3.856-2.192c-2.8,0-4.8,1.84-4.8,4.432S19.472.128,22.272.128Z" transform="translate(6427.409 -1280.81)" fill="#fff"/>
    <path id="Path_3741" data-name="Path 3741" d="M7.5,0,5.676-2.585A2.43,2.43,0,0,0,7.37-5.016C7.37-6.688,6.16-7.7,4.158-7.7h-3V0h1.1V-2.343h1.9c.165,0,.33-.011.484-.022L6.3,0ZM4.125-3.278H2.255V-6.743h1.87c1.408,0,2.145.627,2.145,1.727S5.533-3.278,4.125-3.278ZM11.495.066A2.9,2.9,0,0,0,14.52-2.915a2.892,2.892,0,0,0-3.025-2.97,2.9,2.9,0,0,0-3.036,2.97A2.91,2.91,0,0,0,11.495.066Zm0-.924A1.93,1.93,0,0,1,9.526-2.915a1.921,1.921,0,0,1,1.969-2.046,1.913,1.913,0,0,1,1.958,2.046A1.922,1.922,0,0,1,11.495-.858ZM20.361-5.83v3.014a1.716,1.716,0,0,1-1.8,1.936c-1,0-1.573-.572-1.573-1.716V-5.83H15.928v3.355A2.291,2.291,0,0,0,18.436.066a2.372,2.372,0,0,0,1.98-.946V0h1V-5.83Zm6.182-.055a2.5,2.5,0,0,0-2.1.935v-.88H23.43V0h1.056V-3a1.732,1.732,0,0,1,1.848-1.936c1,0,1.573.561,1.573,1.705V0h1.056V-3.355A2.259,2.259,0,0,0,26.543-5.885ZM35.4-8.162V-4.95a2.481,2.481,0,0,0-2.035-.935,2.83,2.83,0,0,0-2.948,2.97A2.839,2.839,0,0,0,33.363.066a2.463,2.463,0,0,0,2.079-.99V0h1.012V-8.162Zm-1.947,7.3a1.93,1.93,0,0,1-1.969-2.057,1.921,1.921,0,0,1,1.969-2.046,1.919,1.919,0,0,1,1.958,2.046A1.928,1.928,0,0,1,33.451-.858Zm6.677.924c1.551,0,2.519-.671,2.519-1.727,0-2.266-3.7-1.144-3.7-2.519,0-.462.451-.8,1.375-.8a3.045,3.045,0,0,1,1.683.462l.451-.836a4.242,4.242,0,0,0-2.123-.528c-1.5,0-2.431.7-2.431,1.749,0,2.321,3.685,1.188,3.685,2.5,0,.5-.407.792-1.386.792a3.746,3.746,0,0,1-2.046-.6l-.44.836A4.208,4.208,0,0,0,40.128.066Z" transform="translate(5692.409 -1246.81)" fill="#fff"/>
    <path id="Path_3742" data-name="Path 3742" d="M6.336-3.993A1.825,1.825,0,0,0,7.37-5.709C7.37-6.952,6.38-7.7,4.609-7.7H1.155V0H4.829C6.776,0,7.777-.759,7.777-2.079A1.861,1.861,0,0,0,6.336-3.993ZM4.51-6.809c1.122,0,1.76.418,1.76,1.232S5.632-4.345,4.51-4.345H2.255V-6.809ZM4.785-.891H2.255V-3.454h2.53c1.221,0,1.881.4,1.881,1.287S6.006-.891,4.785-.891ZM13.706-5.83v3.014A1.716,1.716,0,0,1,11.9-.88c-1,0-1.573-.572-1.573-1.716V-5.83H9.273v3.355A2.291,2.291,0,0,0,11.781.066a2.372,2.372,0,0,0,1.98-.946V0h1V-5.83Zm4.081.979V-5.83H16.775V0h1.056V-2.9a1.74,1.74,0,0,1,1.837-1.969,1.865,1.865,0,0,1,.242.011V-5.885A2.225,2.225,0,0,0,17.787-4.851Zm6.534-1.034a2.5,2.5,0,0,0-2.1.935v-.88H21.208V0h1.056V-3a1.732,1.732,0,0,1,1.848-1.936c1,0,1.573.561,1.573,1.705V0h1.056V-3.355A2.259,2.259,0,0,0,24.321-5.885ZM30.371.066c1.551,0,2.519-.671,2.519-1.727,0-2.266-3.7-1.144-3.7-2.519,0-.462.451-.8,1.375-.8a3.045,3.045,0,0,1,1.683.462l.451-.836a4.242,4.242,0,0,0-2.123-.528c-1.5,0-2.431.7-2.431,1.749,0,2.321,3.685,1.188,3.685,2.5,0,.5-.407.792-1.386.792a3.746,3.746,0,0,1-2.046-.6l-.44.836A4.208,4.208,0,0,0,30.371.066Z" transform="translate(5692.409 -1164.81)" fill="#fff"/>
    <path id="Path_3744" data-name="Path 3744" d="M.119-11.9v2.21H2.5V0H5.253V-11.9Z" transform="translate(5756.409 -1203.81)" fill="#fff"/>
    <path id="Path_3759" data-name="Path 3759" d="M4.176-2.112,6.752-4.544C8.32-6,8.624-6.992,8.624-8.08c0-2.032-1.664-3.312-4.16-3.312A5.2,5.2,0,0,0,.016-9.312L1.9-8.1a2.739,2.739,0,0,1,2.32-1.12c1.184,0,1.792.512,1.792,1.392,0,.544-.176,1.12-1.168,2.064L.528-1.68V0H8.992V-2.112Z" transform="translate(5923.409 -1204.81)" fill="#fff"/>
    <path id="Path_3751" data-name="Path 3751" d="M5.856-6.64,8.384-9.52V-11.2H.544v2.08H5.312l-2.3,2.608V-4.8H4.192c1.472,0,2.1.528,2.1,1.376,0,.912-.8,1.44-2.1,1.44a5.439,5.439,0,0,1-3.2-1.008L-.016-1.008A7.7,7.7,0,0,0,4.256.192C7.44.192,8.9-1.536,8.9-3.424A3.182,3.182,0,0,0,5.856-6.64Z" transform="translate(6090.409 -1204.81)" fill="#fff"/>
    <path id="Path_3754" data-name="Path 3754" d="M10.2-4.185H8.49V-6.15H6.2v1.965H3.375L7.965-10.5H5.415L.465-3.84V-2.2H6.12V0H8.49V-2.2H10.2Z" transform="translate(6255.409 -1204.81)" fill="#fff"/>
    <path id="Path_3757" data-name="Path 3757" d="M4.185-6.555H3.33l.165-2h4.38V-10.5H1.47L.93-4.59H3.615c1.905,0,2.445.54,2.445,1.365C6.06-2.37,5.31-1.86,4.1-1.86A5.053,5.053,0,0,1,1.11-2.805L.15-.945A7.255,7.255,0,0,0,4.155.18c3,0,4.365-1.62,4.365-3.48S7.29-6.555,4.185-6.555Z" transform="translate(6422.409 -1204.81)" fill="#fff"/>
    <path id="Path_3746" data-name="Path 3746" d="M-51.3-1.98l2.415-2.28c1.47-1.365,1.755-2.3,1.755-3.315,0-1.905-1.56-3.105-3.9-3.105A4.877,4.877,0,0,0-55.2-8.73l1.77,1.14a2.567,2.567,0,0,1,2.175-1.05c1.11,0,1.68.48,1.68,1.3,0,.51-.165,1.05-1.095,1.935l-4.05,3.825V0h7.935V-1.98Zm7.065-.81A1.39,1.39,0,0,0-45.69-1.35a1.3,1.3,0,0,0,.81,1.275l-.66,2.385h1.485L-43.2.15a3.487,3.487,0,0,0,.405-1.5A1.378,1.378,0,0,0-44.235-2.79Zm12.15-1.4h-1.71V-6.15h-2.3v1.965h-2.82l4.59-6.315h-2.55l-4.95,6.66V-2.2h5.655V0h2.37V-2.2h1.71Zm4.02,2.205,2.415-2.28c1.47-1.365,1.755-2.3,1.755-3.315,0-1.905-1.56-3.105-3.9-3.105a4.877,4.877,0,0,0-4.17,1.95l1.77,1.14A2.567,2.567,0,0,1-28.02-8.64c1.11,0,1.68.48,1.68,1.3,0,.51-.165,1.05-1.095,1.935l-4.05,3.825V0h7.935V-1.98Zm9.99,2.16c2.6,0,4.5-1.965,4.5-5.43s-1.905-5.43-4.5-5.43c-2.58,0-4.5,1.965-4.5,5.43S-20.655.18-18.075.18Zm0-2.055c-1.2,0-2.04-.99-2.04-3.375s.84-3.375,2.04-3.375c1.215,0,2.055.99,2.055,3.375S-16.86-1.875-18.075-1.875Zm6.885-.915a1.39,1.39,0,0,0-1.455,1.44,1.3,1.3,0,0,0,.81,1.275l-.66,2.385h1.485l.855-2.16a3.487,3.487,0,0,0,.4-1.5A1.378,1.378,0,0,0-11.19-2.79ZM-4.35.18c2.6,0,4.5-1.965,4.5-5.43s-1.905-5.43-4.5-5.43c-2.58,0-4.5,1.965-4.5,5.43S-6.93.18-4.35.18Zm0-2.055c-1.2,0-2.04-.99-2.04-3.375s.84-3.375,2.04-3.375c1.215,0,2.055.99,2.055,3.375S-3.135-1.875-4.35-1.875ZM5.835.18c2.6,0,4.5-1.965,4.5-5.43s-1.905-5.43-4.5-5.43c-2.58,0-4.5,1.965-4.5,5.43S3.255.18,5.835.18Zm0-2.055c-1.2,0-2.04-.99-2.04-3.375s.84-3.375,2.04-3.375c1.215,0,2.055.99,2.055,3.375S7.05-1.875,5.835-1.875ZM16.02.18c2.6,0,4.5-1.965,4.5-5.43s-1.905-5.43-4.5-5.43c-2.58,0-4.5,1.965-4.5,5.43S13.44.18,16.02.18Zm0-2.055c-1.2,0-2.04-.99-2.04-3.375s.84-3.375,2.04-3.375c1.215,0,2.055.99,2.055,3.375S17.235-1.875,16.02-1.875ZM22.9-2.79A1.39,1.39,0,0,0,21.45-1.35a1.3,1.3,0,0,0,.81,1.275L21.6,2.31h1.485L23.94.15a3.487,3.487,0,0,0,.405-1.5A1.378,1.378,0,0,0,22.9-2.79ZM29.745.18c2.6,0,4.5-1.965,4.5-5.43s-1.905-5.43-4.5-5.43c-2.58,0-4.5,1.965-4.5,5.43S27.165.18,29.745.18Zm0-2.055c-1.2,0-2.04-.99-2.04-3.375s.84-3.375,2.04-3.375c1.215,0,2.055.99,2.055,3.375S30.96-1.875,29.745-1.875ZM39.93.18c2.6,0,4.5-1.965,4.5-5.43s-1.905-5.43-4.5-5.43c-2.58,0-4.5,1.965-4.5,5.43S37.35.18,39.93.18Zm0-2.055c-1.2,0-2.04-.99-2.04-3.375s.84-3.375,2.04-3.375,2.055.99,2.055,3.375S41.145-1.875,39.93-1.875ZM50.115.18c2.6,0,4.5-1.965,4.5-5.43s-1.905-5.43-4.5-5.43c-2.58,0-4.5,1.965-4.5,5.43S47.535.18,50.115.18Zm0-2.055c-1.2,0-2.04-.99-2.04-3.375s.84-3.375,2.04-3.375,2.055.99,2.055,3.375S51.33-1.875,50.115-1.875Z" transform="translate(5756.409 -1127.81)" fill="#fff"/>
    <path id="Path_3747" data-name="Path 3747" d="M-50.362-1.98l2.415-2.28c1.47-1.365,1.755-2.3,1.755-3.315,0-1.905-1.56-3.105-3.9-3.105a4.877,4.877,0,0,0-4.17,1.95l1.77,1.14a2.567,2.567,0,0,1,2.175-1.05c1.11,0,1.68.48,1.68,1.3,0,.51-.165,1.05-1.095,1.935l-4.05,3.825V0h7.935V-1.98Zm7.065-.81a1.39,1.39,0,0,0-1.455,1.44,1.3,1.3,0,0,0,.81,1.275L-44.6,2.31h1.485l.855-2.16a3.487,3.487,0,0,0,.405-1.5A1.378,1.378,0,0,0-43.3-2.79Zm2.1-7.71v3.69h2.16V-8.52h3.48L-39.322,0h2.64l3.9-8.925V-10.5Zm14.25,3.915a3.544,3.544,0,0,0-2.595.93c.075-2.01,1.2-3.045,2.955-3.045a3.458,3.458,0,0,1,1.965.525l.9-1.785a5.669,5.669,0,0,0-2.925-.72C-29.812-10.68-32-8.655-32-5.025c0,3.39,1.8,5.205,4.7,5.205,2.22,0,3.975-1.35,3.975-3.5A3.331,3.331,0,0,0-26.947-6.585Zm-.495,4.95c-1.17,0-1.845-.66-1.845-1.56A1.642,1.642,0,0,1-27.472-4.77,1.583,1.583,0,0,1-25.687-3.2,1.57,1.57,0,0,1-27.442-1.635Zm8.6-4.92H-19.7l.165-2h4.38V-10.5h-6.405l-.54,5.91h2.685c1.905,0,2.445.54,2.445,1.365,0,.855-.75,1.365-1.965,1.365a5.053,5.053,0,0,1-2.985-.945l-.96,1.86A7.255,7.255,0,0,0-18.877.18c3,0,4.365-1.62,4.365-3.48S-15.742-6.555-18.847-6.555Zm6.72,3.765a1.39,1.39,0,0,0-1.455,1.44,1.3,1.3,0,0,0,.81,1.275l-.66,2.385h1.485l.855-2.16a3.487,3.487,0,0,0,.4-1.5A1.378,1.378,0,0,0-12.127-2.79ZM-5.287.18c2.6,0,4.5-1.965,4.5-5.43s-1.905-5.43-4.5-5.43c-2.58,0-4.5,1.965-4.5,5.43S-7.867.18-5.287.18Zm0-2.055c-1.2,0-2.04-.99-2.04-3.375s.84-3.375,2.04-3.375c1.215,0,2.055.99,2.055,3.375S-4.072-1.875-5.287-1.875ZM4.9.18c2.6,0,4.5-1.965,4.5-5.43s-1.905-5.43-4.5-5.43C2.318-10.68.4-8.715.4-5.25S2.318.18,4.9.18Zm0-2.055c-1.2,0-2.04-.99-2.04-3.375S3.7-8.625,4.9-8.625c1.215,0,2.055.99,2.055,3.375S6.113-1.875,4.9-1.875ZM15.083.18c2.6,0,4.5-1.965,4.5-5.43s-1.905-5.43-4.5-5.43c-2.58,0-4.5,1.965-4.5,5.43S12.5.18,15.083.18Zm0-2.055c-1.2,0-2.04-.99-2.04-3.375s.84-3.375,2.04-3.375,2.055.99,2.055,3.375S16.3-1.875,15.083-1.875Zm6.885-.915a1.39,1.39,0,0,0-1.455,1.44,1.3,1.3,0,0,0,.81,1.275l-.66,2.385h1.485L23,.15a3.487,3.487,0,0,0,.405-1.5A1.378,1.378,0,0,0,21.967-2.79ZM28.807.18c2.6,0,4.5-1.965,4.5-5.43s-1.905-5.43-4.5-5.43c-2.58,0-4.5,1.965-4.5,5.43S26.228.18,28.807.18Zm0-2.055c-1.2,0-2.04-.99-2.04-3.375s.84-3.375,2.04-3.375c1.215,0,2.055.99,2.055,3.375S30.022-1.875,28.807-1.875ZM38.992.18c2.6,0,4.5-1.965,4.5-5.43s-1.905-5.43-4.5-5.43c-2.58,0-4.5,1.965-4.5,5.43S36.412.18,38.992.18Zm0-2.055c-1.2,0-2.04-.99-2.04-3.375s.84-3.375,2.04-3.375,2.055.99,2.055,3.375S40.207-1.875,38.992-1.875ZM49.177.18c2.6,0,4.5-1.965,4.5-5.43s-1.905-5.43-4.5-5.43c-2.58,0-4.5,1.965-4.5,5.43S46.6.18,49.177.18Zm0-2.055c-1.2,0-2.04-.99-2.04-3.375s.84-3.375,2.04-3.375,2.055.99,2.055,3.375S50.392-1.875,49.177-1.875Z" transform="translate(5927.409 -1127.81)" fill="#fff"/>
    <path id="Path_3752" data-name="Path 3752" d="M-50.692-1.98l2.415-2.28c1.47-1.365,1.755-2.3,1.755-3.315,0-1.905-1.56-3.105-3.9-3.105a4.877,4.877,0,0,0-4.17,1.95l1.77,1.14a2.567,2.567,0,0,1,2.175-1.05c1.11,0,1.68.48,1.68,1.3,0,.51-.165,1.05-1.095,1.935l-4.05,3.825V0h7.935V-1.98Zm7.065-.81a1.39,1.39,0,0,0-1.455,1.44,1.3,1.3,0,0,0,.81,1.275l-.66,2.385h1.485l.855-2.16a3.487,3.487,0,0,0,.405-1.5A1.378,1.378,0,0,0-43.627-2.79Zm6.84,2.97c2.6,0,4.5-1.965,4.5-5.43s-1.905-5.43-4.5-5.43c-2.58,0-4.5,1.965-4.5,5.43S-39.367.18-36.787.18Zm0-2.055c-1.2,0-2.04-.99-2.04-3.375s.84-3.375,2.04-3.375,2.055.99,2.055,3.375S-35.572-1.875-36.787-1.875Zm5.43-8.625v3.69h2.16V-8.52h3.48L-29.482,0h2.64l3.9-8.925V-10.5Zm12.84,3.945h-.855l.165-2h4.38V-10.5h-6.405l-.54,5.91h2.685c1.905,0,2.445.54,2.445,1.365,0,.855-.75,1.365-1.965,1.365a5.053,5.053,0,0,1-2.985-.945l-.96,1.86A7.255,7.255,0,0,0-18.547.18c3,0,4.365-1.62,4.365-3.48S-15.412-6.555-18.517-6.555ZM-11.8-2.79a1.39,1.39,0,0,0-1.455,1.44,1.3,1.3,0,0,0,.81,1.275L-13.1,2.31h1.485l.855-2.16a3.487,3.487,0,0,0,.4-1.5A1.378,1.378,0,0,0-11.8-2.79ZM-4.957.18c2.6,0,4.5-1.965,4.5-5.43s-1.905-5.43-4.5-5.43c-2.58,0-4.5,1.965-4.5,5.43S-7.537.18-4.957.18Zm0-2.055c-1.2,0-2.04-.99-2.04-3.375s.84-3.375,2.04-3.375c1.215,0,2.055.99,2.055,3.375S-3.742-1.875-4.957-1.875ZM5.228.18c2.6,0,4.5-1.965,4.5-5.43s-1.905-5.43-4.5-5.43c-2.58,0-4.5,1.965-4.5,5.43S2.648.18,5.228.18Zm0-2.055c-1.2,0-2.04-.99-2.04-3.375s.84-3.375,2.04-3.375c1.215,0,2.055.99,2.055,3.375S6.443-1.875,5.228-1.875ZM15.413.18c2.6,0,4.5-1.965,4.5-5.43s-1.905-5.43-4.5-5.43c-2.58,0-4.5,1.965-4.5,5.43S12.833.18,15.413.18Zm0-2.055c-1.2,0-2.04-.99-2.04-3.375s.84-3.375,2.04-3.375,2.055.99,2.055,3.375S16.628-1.875,15.413-1.875ZM22.3-2.79a1.39,1.39,0,0,0-1.455,1.44,1.3,1.3,0,0,0,.81,1.275l-.66,2.385h1.485L23.333.15a3.487,3.487,0,0,0,.405-1.5A1.378,1.378,0,0,0,22.3-2.79ZM29.138.18c2.6,0,4.5-1.965,4.5-5.43s-1.905-5.43-4.5-5.43c-2.58,0-4.5,1.965-4.5,5.43S26.558.18,29.138.18Zm0-2.055c-1.2,0-2.04-.99-2.04-3.375s.84-3.375,2.04-3.375c1.215,0,2.055.99,2.055,3.375S30.353-1.875,29.138-1.875ZM39.322.18c2.6,0,4.5-1.965,4.5-5.43s-1.905-5.43-4.5-5.43c-2.58,0-4.5,1.965-4.5,5.43S36.743.18,39.322.18Zm0-2.055c-1.2,0-2.04-.99-2.04-3.375s.84-3.375,2.04-3.375,2.055.99,2.055,3.375S40.537-1.875,39.322-1.875ZM49.507.18c2.6,0,4.5-1.965,4.5-5.43s-1.905-5.43-4.5-5.43c-2.58,0-4.5,1.965-4.5,5.43S46.927.18,49.507.18Zm0-2.055c-1.2,0-2.04-.99-2.04-3.375s.84-3.375,2.04-3.375,2.055.99,2.055,3.375S50.722-1.875,49.507-1.875Z" transform="translate(6094.409 -1127.81)" fill="#fff"/>
    <path id="Path_3753" data-name="Path 3753" d="M-51.3-1.98l2.415-2.28c1.47-1.365,1.755-2.3,1.755-3.315,0-1.905-1.56-3.105-3.9-3.105A4.877,4.877,0,0,0-55.2-8.73l1.77,1.14a2.567,2.567,0,0,1,2.175-1.05c1.11,0,1.68.48,1.68,1.3,0,.51-.165,1.05-1.095,1.935l-4.05,3.825V0h7.935V-1.98Zm7.065-.81A1.39,1.39,0,0,0-45.69-1.35a1.3,1.3,0,0,0,.81,1.275l-.66,2.385h1.485L-43.2.15a3.487,3.487,0,0,0,.405-1.5A1.378,1.378,0,0,0-44.235-2.79Zm12.15-1.4h-1.71V-6.15h-2.3v1.965h-2.82l4.59-6.315h-2.55l-4.95,6.66V-2.2h5.655V0h2.37V-2.2h1.71Zm4.02,2.205,2.415-2.28c1.47-1.365,1.755-2.3,1.755-3.315,0-1.905-1.56-3.105-3.9-3.105a4.877,4.877,0,0,0-4.17,1.95l1.77,1.14A2.567,2.567,0,0,1-28.02-8.64c1.11,0,1.68.48,1.68,1.3,0,.51-.165,1.05-1.095,1.935l-4.05,3.825V0h7.935V-1.98Zm9.99,2.16c2.6,0,4.5-1.965,4.5-5.43s-1.905-5.43-4.5-5.43c-2.58,0-4.5,1.965-4.5,5.43S-20.655.18-18.075.18Zm0-2.055c-1.2,0-2.04-.99-2.04-3.375s.84-3.375,2.04-3.375c1.215,0,2.055.99,2.055,3.375S-16.86-1.875-18.075-1.875Zm6.885-.915a1.39,1.39,0,0,0-1.455,1.44,1.3,1.3,0,0,0,.81,1.275l-.66,2.385h1.485l.855-2.16a3.487,3.487,0,0,0,.4-1.5A1.378,1.378,0,0,0-11.19-2.79ZM-4.35.18c2.6,0,4.5-1.965,4.5-5.43s-1.905-5.43-4.5-5.43c-2.58,0-4.5,1.965-4.5,5.43S-6.93.18-4.35.18Zm0-2.055c-1.2,0-2.04-.99-2.04-3.375s.84-3.375,2.04-3.375c1.215,0,2.055.99,2.055,3.375S-3.135-1.875-4.35-1.875ZM5.835.18c2.6,0,4.5-1.965,4.5-5.43s-1.905-5.43-4.5-5.43c-2.58,0-4.5,1.965-4.5,5.43S3.255.18,5.835.18Zm0-2.055c-1.2,0-2.04-.99-2.04-3.375s.84-3.375,2.04-3.375c1.215,0,2.055.99,2.055,3.375S7.05-1.875,5.835-1.875ZM16.02.18c2.6,0,4.5-1.965,4.5-5.43s-1.905-5.43-4.5-5.43c-2.58,0-4.5,1.965-4.5,5.43S13.44.18,16.02.18Zm0-2.055c-1.2,0-2.04-.99-2.04-3.375s.84-3.375,2.04-3.375c1.215,0,2.055.99,2.055,3.375S17.235-1.875,16.02-1.875ZM22.9-2.79A1.39,1.39,0,0,0,21.45-1.35a1.3,1.3,0,0,0,.81,1.275L21.6,2.31h1.485L23.94.15a3.487,3.487,0,0,0,.405-1.5A1.378,1.378,0,0,0,22.9-2.79ZM29.745.18c2.6,0,4.5-1.965,4.5-5.43s-1.905-5.43-4.5-5.43c-2.58,0-4.5,1.965-4.5,5.43S27.165.18,29.745.18Zm0-2.055c-1.2,0-2.04-.99-2.04-3.375s.84-3.375,2.04-3.375c1.215,0,2.055.99,2.055,3.375S30.96-1.875,29.745-1.875ZM39.93.18c2.6,0,4.5-1.965,4.5-5.43s-1.905-5.43-4.5-5.43c-2.58,0-4.5,1.965-4.5,5.43S37.35.18,39.93.18Zm0-2.055c-1.2,0-2.04-.99-2.04-3.375s.84-3.375,2.04-3.375,2.055.99,2.055,3.375S41.145-1.875,39.93-1.875ZM50.115.18c2.6,0,4.5-1.965,4.5-5.43s-1.905-5.43-4.5-5.43c-2.58,0-4.5,1.965-4.5,5.43S47.535.18,50.115.18Zm0-2.055c-1.2,0-2.04-.99-2.04-3.375s.84-3.375,2.04-3.375,2.055.99,2.055,3.375S51.33-1.875,50.115-1.875Z" transform="translate(6261.409 -1127.81)" fill="#fff"/>
    <path id="Path_3758" data-name="Path 3758" d="M-51.427-10.5v1.95h2.1V0h2.43V-10.5Zm7.755,7.71a1.39,1.39,0,0,0-1.455,1.44,1.3,1.3,0,0,0,.81,1.275l-.66,2.385h1.485l.855-2.16a3.487,3.487,0,0,0,.405-1.5A1.378,1.378,0,0,0-43.672-2.79Zm6.015.81,2.415-2.28c1.47-1.365,1.755-2.3,1.755-3.315,0-1.905-1.56-3.105-3.9-3.105a4.877,4.877,0,0,0-4.17,1.95l1.77,1.14a2.567,2.567,0,0,1,2.175-1.05c1.11,0,1.68.48,1.68,1.3,0,.51-.165,1.05-1.1,1.935l-4.05,3.825V0h7.935V-1.98Zm5.04-8.52v1.95h2.1V0h2.43V-10.5ZM-21.757.18c2.595,0,4.5-1.965,4.5-5.43s-1.905-5.43-4.5-5.43-4.5,1.965-4.5,5.43S-24.337.18-21.757.18Zm0-2.055c-1.2,0-2.04-.99-2.04-3.375s.84-3.375,2.04-3.375,2.055.99,2.055,3.375S-20.542-1.875-21.757-1.875Zm6.885-.915a1.39,1.39,0,0,0-1.455,1.44,1.3,1.3,0,0,0,.81,1.275l-.66,2.385h1.485l.855-2.16a3.487,3.487,0,0,0,.4-1.5A1.378,1.378,0,0,0-14.872-2.79ZM-8.032.18c2.6,0,4.5-1.965,4.5-5.43s-1.905-5.43-4.5-5.43c-2.58,0-4.5,1.965-4.5,5.43S-10.612.18-8.032.18Zm0-2.055c-1.2,0-2.04-.99-2.04-3.375s.84-3.375,2.04-3.375c1.215,0,2.055.99,2.055,3.375S-6.817-1.875-8.032-1.875ZM2.153.18c2.6,0,4.5-1.965,4.5-5.43s-1.905-5.43-4.5-5.43c-2.58,0-4.5,1.965-4.5,5.43S-.427.18,2.153.18Zm0-2.055c-1.2,0-2.04-.99-2.04-3.375s.84-3.375,2.04-3.375c1.215,0,2.055.99,2.055,3.375S3.368-1.875,2.153-1.875ZM12.338.18c2.6,0,4.5-1.965,4.5-5.43s-1.905-5.43-4.5-5.43c-2.58,0-4.5,1.965-4.5,5.43S9.758.18,12.338.18Zm0-2.055c-1.2,0-2.04-.99-2.04-3.375s.84-3.375,2.04-3.375c1.215,0,2.055.99,2.055,3.375S13.553-1.875,12.338-1.875Zm6.885-.915a1.39,1.39,0,0,0-1.455,1.44,1.3,1.3,0,0,0,.81,1.275l-.66,2.385H19.4L20.257.15a3.487,3.487,0,0,0,.405-1.5A1.378,1.378,0,0,0,19.222-2.79ZM26.063.18c2.6,0,4.5-1.965,4.5-5.43s-1.905-5.43-4.5-5.43c-2.58,0-4.5,1.965-4.5,5.43S23.483.18,26.063.18Zm0-2.055c-1.2,0-2.04-.99-2.04-3.375s.84-3.375,2.04-3.375c1.215,0,2.055.99,2.055,3.375S27.278-1.875,26.063-1.875ZM36.247.18c2.6,0,4.5-1.965,4.5-5.43s-1.9-5.43-4.5-5.43c-2.58,0-4.5,1.965-4.5,5.43S33.667.18,36.247.18Zm0-2.055c-1.2,0-2.04-.99-2.04-3.375s.84-3.375,2.04-3.375S38.3-7.635,38.3-5.25,37.462-1.875,36.247-1.875ZM46.432.18c2.6,0,4.5-1.965,4.5-5.43s-1.9-5.43-4.5-5.43c-2.58,0-4.5,1.965-4.5,5.43S43.852.18,46.432.18Zm0-2.055c-1.2,0-2.04-.99-2.04-3.375s.84-3.375,2.04-3.375,2.055.99,2.055,3.375S47.647-1.875,46.432-1.875Z" transform="translate(6426.409 -1127.81)" fill="#fff"/>
    <path id="Path_3745" data-name="Path 3745" d="M6.12-5.7V-7H.83V0H2.45V-2.55H5.69v-1.3H2.45V-5.7Zm1.67-.43a.9.9,0,0,0,.97-.9.876.876,0,0,0-.97-.84A.892.892,0,0,0,6.82-7,.892.892,0,0,0,7.79-6.13ZM7.01,0H8.57V-5.38H7.01Zm6.28-5.46a2.355,2.355,0,0,0-1.78.71v-.63H10.02V0h1.56V-2.66c0-.99.54-1.45,1.29-1.45.69,0,1.09.4,1.09,1.27V0h1.56V-3.08A2.109,2.109,0,0,0,13.29-5.46Zm4.42-.67a.9.9,0,0,0,.97-.9.876.876,0,0,0-.97-.84.892.892,0,0,0-.97.87A.892.892,0,0,0,17.71-6.13ZM16.93,0h1.56V-5.38H16.93Zm4.82.08c1.61,0,2.54-.71,2.54-1.71,0-2.12-3.25-1.23-3.25-2.15,0-.28.3-.5,1-.5a3.09,3.09,0,0,1,1.55.4l.52-1.11a4.424,4.424,0,0,0-2.07-.47c-1.57,0-2.49.72-2.49,1.74,0,2.15,3.25,1.25,3.25,2.13,0,.3-.27.49-.99.49a3.681,3.681,0,0,1-1.87-.52L19.42-.5A4.619,4.619,0,0,0,21.75.08Zm6.77-5.54a2.365,2.365,0,0,0-1.71.64v-2.6H25.25V0h1.56V-2.66c0-.99.54-1.45,1.29-1.45.69,0,1.09.4,1.09,1.27V0h1.56V-3.08A2.109,2.109,0,0,0,28.52-5.46Zm8.97,2.79a2.663,2.663,0,0,0-2.8-2.79,2.739,2.739,0,0,0-2.87,2.77A2.793,2.793,0,0,0,34.89.08a2.818,2.818,0,0,0,2.22-.87l-.83-.9a1.824,1.824,0,0,1-1.35.52,1.435,1.435,0,0,1-1.54-1.08h4.07C37.47-2.38,37.49-2.55,37.49-2.67ZM34.7-4.28a1.278,1.278,0,0,1,1.32,1.12H33.37A1.274,1.274,0,0,1,34.7-4.28Zm7.75-3.14v2.61a2.067,2.067,0,0,0-1.61-.65,2.615,2.615,0,0,0-2.69,2.77A2.615,2.615,0,0,0,40.84.08a2.069,2.069,0,0,0,1.68-.7V0h1.49V-7.42ZM41.11-1.2a1.365,1.365,0,0,1-1.38-1.49,1.365,1.365,0,0,1,1.38-1.49,1.363,1.363,0,0,1,1.37,1.49A1.363,1.363,0,0,1,41.11-1.2Z" transform="translate(5789.409 -1205.81)" fill="#fff"/>
    <path id="Path_3749" data-name="Path 3749" d="M.83,0H2.45V-7H.83ZM7.27-5.46a2.355,2.355,0,0,0-1.78.71v-.63H4V0H5.56V-2.66c0-.99.54-1.45,1.29-1.45.69,0,1.09.4,1.09,1.27V0H9.5V-3.08A2.109,2.109,0,0,0,7.27-5.46Zm9.65,0a2.09,2.09,0,0,0-1.69.7v-.62H13.74V1.94H15.3V-.57a2.089,2.089,0,0,0,1.62.65A2.613,2.613,0,0,0,19.6-2.69,2.613,2.613,0,0,0,16.92-5.46ZM16.65-1.2a1.358,1.358,0,0,1-1.37-1.49,1.358,1.358,0,0,1,1.37-1.49,1.358,1.358,0,0,1,1.37,1.49A1.358,1.358,0,0,1,16.65-1.2Zm5.48-3.47v-.71H20.64V0H22.2V-2.54a1.322,1.322,0,0,1,1.43-1.5c.12,0,.22.01.35.02V-5.46A2.171,2.171,0,0,0,22.13-4.67ZM27.42.08a2.761,2.761,0,0,0,2.95-2.77,2.761,2.761,0,0,0-2.95-2.77,2.77,2.77,0,0,0-2.96,2.77A2.77,2.77,0,0,0,27.42.08Zm0-1.28a1.365,1.365,0,0,1-1.38-1.49,1.365,1.365,0,0,1,1.38-1.49,1.358,1.358,0,0,1,1.37,1.49A1.358,1.358,0,0,1,27.42-1.2Zm8.06-4.18v.69a2.16,2.16,0,0,0-1.78-.77,2.561,2.561,0,0,0-2.69,2.6A2.561,2.561,0,0,0,33.7-.26a2.215,2.215,0,0,0,1.7-.67V-.7c0,.97-.48,1.47-1.58,1.47a3.215,3.215,0,0,1-1.9-.61L31.3,1.28a4.432,4.432,0,0,0,2.64.74c1.94,0,3.02-.92,3.02-2.92V-5.38ZM34.01-1.54a1.315,1.315,0,0,1-1.42-1.32,1.315,1.315,0,0,1,1.42-1.32,1.306,1.306,0,0,1,1.41,1.32A1.306,1.306,0,0,1,34.01-1.54ZM39.9-4.67v-.71H38.41V0h1.56V-2.54a1.322,1.322,0,0,1,1.43-1.5c.12,0,.22.01.35.02V-5.46A2.171,2.171,0,0,0,39.9-4.67Zm8,2a2.663,2.663,0,0,0-2.8-2.79,2.739,2.739,0,0,0-2.87,2.77A2.793,2.793,0,0,0,45.3.08a2.818,2.818,0,0,0,2.22-.87l-.83-.9a1.824,1.824,0,0,1-1.35.52A1.435,1.435,0,0,1,43.8-2.25h4.07C47.88-2.38,47.9-2.55,47.9-2.67ZM45.11-4.28a1.278,1.278,0,0,1,1.32,1.12H43.78A1.274,1.274,0,0,1,45.11-4.28ZM50.75.08c1.61,0,2.54-.71,2.54-1.71,0-2.12-3.25-1.23-3.25-2.15,0-.28.3-.5,1-.5a3.09,3.09,0,0,1,1.55.4l.52-1.11a4.424,4.424,0,0,0-2.07-.47c-1.57,0-2.49.72-2.49,1.74,0,2.15,3.25,1.25,3.25,2.13,0,.3-.27.49-.99.49a3.681,3.681,0,0,1-1.87-.52L48.42-.5A4.619,4.619,0,0,0,50.75.08Zm5.31,0c1.61,0,2.54-.71,2.54-1.71,0-2.12-3.25-1.23-3.25-2.15,0-.28.3-.5,1-.5a3.09,3.09,0,0,1,1.55.4l.52-1.11a4.424,4.424,0,0,0-2.07-.47c-1.57,0-2.49.72-2.49,1.74,0,2.15,3.25,1.25,3.25,2.13,0,.3-.27.49-.99.49a3.681,3.681,0,0,1-1.87-.52L53.73-.5A4.619,4.619,0,0,0,56.06.08Z" transform="translate(5959.409 -1206.81)" fill="#fff"/>
  </g>
</svg>
