<svg width="57" height="345" viewBox="0 0 57 345" fill="none" xmlns="http://www.w3.org/2000/svg">
<g clip-path="url(#clip0_2149_1288)">
<path opacity="0.587" d="M109.609 344.509L9.6333 286.822C7.32077 285.808 5.30571 284.22 3.7793 282.208C2.33842 279.817 1.39333 277.16 1.00098 274.396L1.05518 157.737C1.55249 155.262 2.49909 152.898 3.84814 150.763C5.24981 148.925 7.04877 147.427 9.11035 146.381L109.197 88.9414" stroke="#FD8604" stroke-width="2"/>
<path d="M32.5122 137.48C35.1002 137.48 37.1982 135.382 37.1982 132.794C37.1982 130.206 35.1002 128.108 32.5122 128.108C29.9242 128.108 27.8262 130.206 27.8262 132.794C27.8262 135.382 29.9242 137.48 32.5122 137.48Z" fill="#CB7D00"/>
<path opacity="0.28" d="M141.062 256.436L41.0864 198.749C38.7739 197.735 36.7588 196.147 35.2324 194.135C33.7915 191.744 32.8465 189.087 32.4541 186.323L32.5083 69.6641C33.0056 67.1883 33.9522 64.8247 35.3013 62.6901C36.7029 60.8518 38.5019 59.3539 40.5635 58.3081L140.65 0.868164" stroke="#FD8604" stroke-width="2"/>
</g>
<defs>
<clipPath id="clip0_2149_1288">
<rect width="57" height="345" fill="white"/>
</clipPath>
</defs>
</svg>
