<svg width="158" height="875" viewBox="0 0 158 875" fill="none" xmlns="http://www.w3.org/2000/svg">
<g clip-path="url(#clip0_2034_735)">
<path opacity="0.28" d="M396.386 873.027L110.215 707.903C110.215 707.903 99.636 703.589 93.458 694.696C87.28 685.803 85.5049 672.333 85.5049 672.333L85.6611 338.409C85.6611 338.409 87.8931 326.572 93.6611 318.446C99.4291 310.32 108.723 305.902 108.723 305.902L395.213 141.487" stroke="#FD8604" stroke-width="5"/>
<g opacity="0.28">
<path d="M240.947 563.26L21.453 436.609C21.453 436.609 13.339 433.3 8.59998 426.479C3.86098 419.658 2.49988 409.327 2.49988 409.327L2.62 153.207C2.62 153.207 4.33178 144.128 8.75378 137.895C11.8309 133.859 15.78 130.57 20.306 128.274L240.044 2.16699" fill="url(#paint0_linear_2034_735)"/>
<path d="M240.947 563.26L21.453 436.609C21.453 436.609 13.339 433.3 8.59998 426.479C3.86098 419.658 2.49988 409.327 2.49988 409.327L2.62 153.207C2.62 153.207 4.33178 144.128 8.75378 137.895C11.8309 133.859 15.78 130.57 20.306 128.274L240.044 2.16699" stroke="#FD8604" stroke-width="5"/>
</g>
</g>
<defs>
<linearGradient id="paint0_linear_2034_735" x1="224.017" y1="514.445" x2="-78.2844" y2="404.151" gradientUnits="userSpaceOnUse">
<stop stop-color="#FF9300"/>
<stop offset="1"/>
</linearGradient>
<clipPath id="clip0_2034_735">
<rect width="158" height="875" fill="white"/>
</clipPath>
</defs>
</svg>
