<svg xmlns="http://www.w3.org/2000/svg" xmlns:xlink="http://www.w3.org/1999/xlink" width="58" height="169.496" viewBox="0 0 58 169.496">
  <defs>
    <clipPath id="clip-path">
      <rect width="58" height="169.496" fill="none"/>
    </clipPath>
    <linearGradient id="linear-gradient" x1="0.739" y1="0.987" x2="0.279" y2="0.016" gradientUnits="objectBoundingBox">
      <stop offset="0" stop-color="#a8743a"/>
      <stop offset="1"/>
    </linearGradient>
  </defs>
  <g id="roadmap-orange-mbl" clip-path="url(#clip-path)">
    <g transform="translate(-332 -3272.504)">
      <g id="Path_3719" data-name="Path 3719" transform="translate(352.606 3271.938) rotate(10)" opacity="0.43" fill="url(#linear-gradient)">
        <path d="M 48.07676315307617 142.1567687988281 C 47.44401550292969 142.1567687988281 46.25318145751953 142.0832214355469 45.38666152954102 141.5906219482422 C 44.06961822509766 140.8418884277344 43.254638671875 139.0204162597656 43.24655532836914 139.0021057128906 L 43.2247428894043 138.9526672363281 L 43.19682693481445 138.9037933349609 L 5.930650234222412 74.33405303955078 C 5.834067821502686 74.11319732666016 5.276280403137207 72.77410888671875 5.321306228637695 71.419189453125 C 5.362322330474854 70.18458557128906 5.924717903137207 68.75033569335938 6.157252311706543 68.25825500488281 L 43.16938781738281 4.128757953643799 C 43.291015625 3.942763566970825 44.50958251953125 2.112631797790527 45.83245086669922 1.350749135017395 C 46.60424423217773 0.9062491059303284 47.46274185180664 0.8129366040229797 48.04701614379883 0.8129366040229797 C 48.410888671875 0.8129366040229797 48.64897155761719 0.8503949642181396 48.65134811401367 0.850790798664093 L 48.73455810546875 0.8649366497993469 L 48.81436920166016 0.8641657829284668 L 122.4997024536133 0.8641657829284668 C 122.7966995239258 0.8980683088302612 124.6503143310547 1.136068344116211 126.0336608886719 1.925478339195251 C 127.4144439697266 2.713425636291504 128.4302825927734 4.115969181060791 128.57080078125 4.315993785858154 L 165.8063201904297 68.83248901367188 C 165.8735809326172 68.96579742431641 166.5136566162109 70.27236938476562 166.4612274169922 71.58895874023438 C 166.4141235351562 72.77159881591797 165.7875518798828 74.15969085693359 165.54345703125 74.60791015625 L 128.6385955810547 138.5514984130859 L 128.6138916015625 138.5943145751953 L 128.5935363769531 138.6393585205078 C 128.5856628417969 138.6565399169922 127.6924285888672 140.578369140625 126.1729507446289 141.4172058105469 C 124.9999694824219 142.0647735595703 123.3216400146484 142.1346893310547 122.6544952392578 142.1346893310547 C 122.3760147094727 142.1346893310547 122.2041625976562 142.1232757568359 122.2024765014648 142.1231384277344 L 122.1687469482422 142.1208801269531 L 122.1334533691406 142.1207733154297 L 48.86932754516602 142.1207733154297 L 48.81220245361328 142.1207733154297 L 48.75545120239258 142.1272735595703 C 48.75476455688477 142.1273498535156 48.48363876342773 142.1567687988281 48.07676315307617 142.1567687988281 Z" stroke="none"/>
        <path d="M 48.04700469970703 1.812942504882812 C 47.66853332519531 1.812942504882812 46.94239807128906 1.865478515625 46.33150482177734 2.217300415039062 C 45.48184204101562 2.7066650390625 44.47507476806641 3.9556884765625 44.02336883544922 4.64959716796875 L 7.044998168945312 68.72057342529297 C 6.841033935546875 69.16342163085938 6.355072021484375 70.41928863525391 6.32073974609375 71.452392578125 C 6.288894653320312 72.41141510009766 6.648834228515625 73.47032928466797 6.824142456054688 73.88168334960938 L 44.11917877197266 138.5013885498047 L 44.16413879394531 138.6045532226562 C 44.30377197265625 138.9248962402344 45.00431060791016 140.2229614257812 45.88089752197266 140.7212829589844 C 46.36772918701172 140.998046875 47.16807556152344 141.1567687988281 48.07674407958984 141.1567687988281 C 48.39225006103516 141.1567687988281 48.61011505126953 141.1367645263672 48.64499664306641 141.1333465576172 L 48.74655151367188 141.1207580566406 L 122.1980133056641 141.119873046875 L 122.2710037231445 141.12548828125 C 122.2914886474609 141.126708984375 122.4333038330078 141.1346740722656 122.6544418334961 141.1346740722656 C 123.8824615478516 141.1346740722656 125.0171356201172 140.9130249023438 125.6896591186523 140.541748046875 C 126.6984786987305 139.9848175048828 127.4685668945312 138.6849060058594 127.6839752197266 138.2236480712891 L 127.7181167602539 138.1458587646484 L 127.7725067138672 138.0516357421875 L 164.6684417724609 74.12348937988281 C 164.8852081298828 73.71669006347656 165.4235534667969 72.51486206054688 165.4620056152344 71.54915618896484 C 165.4974975585938 70.65824127197266 165.1002655029297 69.65745544433594 164.9263458251953 69.30831909179688 L 127.7281494140625 4.856460571289062 C 127.5526123046875 4.612213134765625 126.6761932373047 3.443511962890625 125.5379867553711 2.79400634765625 C 124.5056610107422 2.204879760742188 123.0266723632812 1.932876586914062 122.44580078125 1.864151000976562 L 48.81435394287109 1.864151000976562 L 48.66509246826172 1.87139892578125 L 48.48886871337891 1.837722778320312 C 48.44825744628906 1.8323974609375 48.28368377685547 1.812942504882812 48.04700469970703 1.812942504882812 M 48.04701232910156 -0.18707275390625 C 48.51312255859375 -0.18707275390625 48.81435394287109 -0.1358489990234375 48.81435394287109 -0.1358489990234375 L 122.5529861450195 -0.1358489990234375 C 122.5529861450195 -0.1358489990234375 124.8133544921875 0.077728271484375 126.5292663574219 1.05694580078125 C 128.2451782226562 2.0361328125 129.4166412353516 3.780975341796875 129.4166412353516 3.780975341796875 L 166.6839904785156 68.35267639160156 C 166.6839904785156 68.35267639160156 167.527587890625 69.94248199462891 167.4604187011719 71.62876129150391 C 167.3932647705078 73.31502532958984 166.4153289794922 75.09776306152344 166.4153289794922 75.09776306152344 L 129.5046997070312 139.0513763427734 C 129.5046997070312 139.0513763427734 128.4990692138672 141.2753143310547 126.6562652587891 142.2926483154297 C 124.8134460449219 143.3099975585938 122.1334381103516 143.1207580566406 122.1334381103516 143.1207580566406 L 48.86931610107422 143.1207580566406 C 48.86932373046875 143.1207580566406 46.52709197998047 143.3892364501953 44.89246368408203 142.4599609375 C 43.25779724121094 141.5306701660156 42.33071899414062 139.4036560058594 42.33071899414062 139.4036560058594 L 5.03924560546875 74.79011535644531 C 5.03924560546875 74.79011535644531 4.26373291015625 73.13552856445312 4.321853637695312 71.38597869873047 C 4.379989624023438 69.63641357421875 5.27178955078125 67.79189300537109 5.27178955078125 67.79189300537109 L 42.31602478027344 3.606781005859375 C 42.31602478027344 3.606781005859375 43.70877075195312 1.419845581054688 45.33335876464844 0.48419189453125 C 46.30340576171875 -0.074493408203125 47.35621643066406 -0.18707275390625 48.04701232910156 -0.18707275390625 Z" stroke="none" fill="#fd8605"/>
      </g>
    </g>
  </g>
</svg>
