<svg width="204" height="296" viewBox="0 0 204 296" fill="none" xmlns="http://www.w3.org/2000/svg">
<g clip-path="url(#clip0_2161_1380)">
<path opacity="0.43" d="M158.588 107.516C159.195 109.259 159.443 111.106 159.319 112.947L143.201 214.609C142.864 216.143 142.174 217.577 141.188 218.798C140.008 219.999 138.602 220.955 137.052 221.612L41.8808 258.165C40.0555 259.041 38.0209 259.388 36.0081 259.167C33.9314 258.621 32.019 257.577 30.4363 256.126L-48.1712 192.471C-49.7548 191.441 -51.0308 190.002 -51.8646 188.307C-52.4025 186.515 -52.4347 184.61 -51.9576 182.801L-35.8267 81.0705C-35.4011 79.5092 -34.6559 78.0532 -33.6383 76.7949C-32.4491 75.546 -31.0463 74.5197 -29.4959 73.7644L66.0162 37.0837C67.9322 36.4505 69.9546 36.2029 71.9668 36.3552C73.6025 36.6768 75.0968 37.5017 76.2405 38.7144L155.354 102.779C156.712 104.148 157.807 105.753 158.588 107.516V107.516Z" fill="#191919"/>
</g>
<defs>
<clipPath id="clip0_2161_1380">
<rect width="204" height="296" fill="white"/>
</clipPath>
</defs>
</svg>
