<svg width="330" height="1623" viewBox="0 0 330 1623" fill="none" xmlns="http://www.w3.org/2000/svg">
<g clip-path="url(#clip0_526_300)">
<path d="M115.852 422.404C117.98 423.633 120.92 425.794 122.843 429.116C126.034 434.63 126.525 443.543 126.549 444.023L126.508 714.569C126.463 715.106 125.84 722.045 123.067 727.238C120.327 732.372 115.368 736.004 114.925 736.322L-120.933 872.543L-120.982 872.571L-121.027 872.604C-121.092 872.652 -127.665 877.44 -134.107 877.397C-135.93 877.385 -137.945 876.984 -140.095 876.207C-141.693 875.63 -143.328 874.86 -144.956 873.92C-146.394 873.09 -147.293 872.428 -147.302 872.422L-147.347 872.388L-147.397 872.359L-379.083 738.595L-379.114 738.578L-379.145 738.562C-379.151 738.559 -379.78 738.252 -380.756 737.688C-382.088 736.919 -384.102 735.654 -386.13 733.998C-388.499 732.062 -390.312 730.067 -391.518 728.068C-395.273 721.843 -394.477 713.318 -394.469 713.233L-394.464 713.184L-394.464 713.134L-394.423 443.514C-394.415 443.243 -394.189 436.188 -391.509 431.087C-388.863 426.051 -383.728 422.719 -383.439 422.535L-147.744 286.408C-147.269 286.182 -140.773 283.147 -134.112 283.181C-127.459 283.214 -120.409 286.293 -119.811 286.56L113.332 421.165L113.405 421.207L113.484 421.237C113.493 421.24 114.481 421.612 115.852 422.404Z" fill="url(#paint0_linear_526_300)"/>
<path d="M115.352 423.27C114.087 422.54 113.173 422.188 113.133 422.173L112.983 422.118L-120.266 287.452C-121.064 287.099 -127.789 284.213 -134.117 284.181C-140.434 284.149 -146.64 286.993 -147.277 287.294L-382.921 423.39C-383.31 423.641 -388.131 426.809 -390.623 431.552C-393.163 436.385 -393.41 443.122 -393.423 443.525L-393.464 713.233L-393.473 713.332C-393.482 713.414 -394.247 721.608 -390.661 727.552C-389.515 729.452 -387.777 731.36 -385.497 733.223C-383.521 734.837 -381.556 736.071 -380.256 736.822C-379.316 737.365 -378.712 737.661 -378.708 737.663L-378.644 737.694L-146.798 871.551L-146.708 871.617C-146.699 871.624 -145.836 872.258 -144.456 873.054C-142.314 874.291 -138.12 876.37 -134.101 876.397C-128.002 876.437 -121.682 871.845 -121.621 871.8L-121.53 871.733L-121.433 871.677L114.382 735.481C114.971 735.053 119.613 731.587 122.185 726.767C124.812 721.848 125.445 715.249 125.508 714.527L125.549 444.047C125.514 443.388 125.007 434.852 121.977 429.617C120.165 426.487 117.374 424.438 115.352 423.27ZM116.352 421.538C118.537 422.799 121.661 425.078 123.708 428.615C127.137 434.54 127.549 443.999 127.549 443.999L127.508 714.609C127.508 714.609 126.96 722.07 123.95 727.709C120.939 733.348 115.466 737.165 115.466 737.165L-120.433 873.409C-120.433 873.409 -127.248 878.443 -134.114 878.397C-140.98 878.351 -147.897 873.225 -147.897 873.225L-379.583 739.461C-379.583 739.461 -388.404 735.167 -392.374 728.585C-396.344 722.003 -395.464 713.134 -395.464 713.134L-395.423 443.5C-395.423 443.5 -395.26 436.077 -392.394 430.622C-389.527 425.167 -383.957 421.679 -383.957 421.679L-148.211 285.523C-148.211 285.523 -141.321 282.144 -134.107 282.181C-126.893 282.217 -119.355 285.669 -119.355 285.669L113.832 420.299C113.832 420.299 114.878 420.687 116.352 421.538Z" fill="#FD8605"/>
<path opacity="0.733" d="M-29.2866 206.346L301.026 395.911C301.026 395.911 311.746 401.004 318.392 410.373C325.038 419.742 327.613 433.39 327.613 433.39L327.792 818.39C327.792 818.39 325.746 833.921 318.623 844.173C311.5 854.425 299.303 859.4 299.303 859.4L82.2104 984.665L61.3276 996.715C49.9896 1003.26 50.6855 1036.75 50.6855 1036.75L52.1187 1563.39C52.1187 1563.39 54.8655 1593.35 42.6855 1607.63C30.5055 1621.91 3.40137 1620.51 3.40137 1620.51H-61.4243L-115.987 1417.66" stroke="#FF8500" stroke-width="5"/>
<path opacity="0.28" d="M-72.2754 733.708L213.896 568.584C213.896 568.584 224.475 564.27 230.653 555.377C236.831 546.484 238.605 533.014 238.605 533.014L238.45 199.09C238.45 199.09 236.218 187.253 230.45 179.127C224.682 171.001 215.388 166.583 215.388 166.583L-71.1021 2.16797" stroke="#FD8604" stroke-width="5"/>
<path d="M126.542 631.786C133.998 631.786 140.042 625.742 140.042 618.286C140.042 610.83 133.998 604.786 126.542 604.786C119.086 604.786 113.042 610.83 113.042 618.286C113.042 625.742 119.086 631.786 126.542 631.786Z" fill="#CB7D00"/>
<path d="M238.542 370.786C245.998 370.786 252.042 364.742 252.042 357.286C252.042 349.83 245.998 343.786 238.542 343.786C231.086 343.786 225.042 349.83 225.042 357.286C225.042 364.742 231.086 370.786 238.542 370.786Z" fill="#CB7D00"/>
</g>
<defs>
<linearGradient id="paint0_linear_526_300" x1="-384.042" y1="728.057" x2="70.5984" y2="380.327" gradientUnits="userSpaceOnUse">
<stop stop-color="#A8743A"/>
<stop offset="1"/>
</linearGradient>
<clipPath id="clip0_526_300">
<rect width="330" height="1623" fill="white"/>
</clipPath>
</defs>
</svg>
