<svg width="306" height="988" viewBox="0 0 306 988" fill="none" xmlns="http://www.w3.org/2000/svg">
<g clip-path="url(#clip0_527_309)">
<path opacity="0.28" d="M403.413 733.708L117.242 568.584C117.242 568.584 106.663 564.27 100.485 555.377C94.3071 546.484 92.532 533.014 92.532 533.014L92.6882 199.09C92.6882 199.09 94.9202 187.253 100.688 179.127C106.456 171.001 115.75 166.583 115.75 166.583L402.24 2.16797" stroke="#FD8604" stroke-width="5"/>
<path opacity="0.587" d="M313.381 985.806L27.21 820.682C27.21 820.682 16.6311 816.368 10.4531 807.475C4.27513 798.582 2.5 785.112 2.5 785.112L2.65625 451.188C2.65625 451.188 4.88825 439.351 10.6562 431.225C16.4243 423.099 25.7183 418.681 25.7183 418.681L312.208 254.266" stroke="#FD8604" stroke-width="5"/>
<path d="M93.25 394.786C100.706 394.786 106.75 388.742 106.75 381.286C106.75 373.83 100.706 367.786 93.25 367.786C85.7942 367.786 79.75 373.83 79.75 381.286C79.75 388.742 85.7942 394.786 93.25 394.786Z" fill="#CB7D00"/>
</g>
<defs>
<clipPath id="clip0_527_309">
<rect width="306" height="988" fill="white"/>
</clipPath>
</defs>
</svg>
