<svg width="79" height="345" viewBox="0 0 79 345" fill="none" xmlns="http://www.w3.org/2000/svg">
<g clip-path="url(#clip0_2160_1373)">
<path opacity="0.587" d="M-31.0479 0.865723L68.9282 58.5527C71.2408 59.5669 73.2558 61.1552 74.7822 63.1667C76.2232 65.5582 77.1678 68.2153 77.5601 70.9797L77.5063 187.639C77.009 190.115 76.0624 192.478 74.7134 194.613C73.3117 196.451 71.5128 197.949 69.4512 198.995L-30.6357 256.435" stroke="#FD8604" stroke-width="2"/>
<path d="M46.0512 217.267C48.6392 217.267 50.7372 215.169 50.7372 212.581C50.7372 209.993 48.6392 207.895 46.0512 207.895C43.4632 207.895 41.3652 209.993 41.3652 212.581C41.3652 215.169 43.4632 217.267 46.0512 217.267Z" fill="#CB7D00"/>
<path opacity="0.28" d="M-62.502 88.939L37.4741 146.626C39.7867 147.64 41.8017 149.228 43.3281 151.24C44.7691 153.631 45.7137 156.289 46.106 159.053L46.0522 275.712C45.5549 278.188 44.6083 280.551 43.2593 282.686C41.8576 284.524 40.0587 286.022 37.9971 287.068L-62.0898 344.508" stroke="#FD8604" stroke-width="2"/>
</g>
<defs>
<clipPath id="clip0_2160_1373">
<rect width="79" height="345" fill="white"/>
</clipPath>
</defs>
</svg>
