<svg width="361" height="1052" viewBox="0 0 361 1052" fill="none" xmlns="http://www.w3.org/2000/svg">
<g clip-path="url(#clip0_1286_9)">
<path opacity="0.28" d="M402.566 733.708L116.395 568.584C116.395 568.584 105.816 564.27 99.6381 555.377C93.4601 546.484 91.6849 533.014 91.6849 533.014L91.8412 199.09C91.8412 199.09 94.0732 187.253 99.8412 179.127C105.609 171.001 114.903 166.583 114.903 166.583L401.393 2.16797" stroke="#FD8604" stroke-width="5"/>
<path opacity="0.28" d="M360.935 1049.79L30.9911 859.404C30.9911 859.404 18.7908 854.43 11.6708 844.177C4.55078 833.924 2.50085 818.394 2.50085 818.394L2.68103 433.394C2.68103 433.394 5.25522 419.747 11.9022 410.377C18.5492 401.007 29.267 395.915 29.267 395.915L359.58 206.35" stroke="#FD8604" stroke-width="5"/>
<path d="M475.248 873.92C473.62 874.86 471.984 875.629 470.387 876.207C468.237 876.984 466.222 877.384 464.399 877.396C457.941 877.439 451.384 872.652 451.319 872.604L451.273 872.57L451.225 872.542L215.367 736.322C214.927 736.006 209.966 732.373 207.224 727.238C204.452 722.044 203.829 715.107 203.784 714.568L203.743 444.023C203.767 443.545 204.258 434.63 207.449 429.116C209.372 425.794 212.312 423.632 214.439 422.404C215.811 421.612 216.799 421.239 216.808 421.236L216.886 421.207L216.96 421.165L450.103 286.559C450.699 286.294 457.762 283.214 464.404 283.18C471.064 283.146 477.561 286.181 478.036 286.408L713.73 422.534C714.014 422.716 719.161 426.064 721.8 431.086C724.479 436.183 724.707 443.23 724.714 443.513L724.756 713.134L724.755 713.183L724.76 713.232C724.763 713.253 724.969 715.424 724.7 718.343C724.455 721 723.754 724.843 721.809 728.068C720.604 730.067 718.791 732.061 716.422 733.997C714.394 735.653 712.38 736.918 711.048 737.687C710.072 738.251 709.443 738.559 709.437 738.562L709.406 738.577L709.375 738.595L477.689 872.359L477.639 872.387L477.593 872.421C477.585 872.428 476.686 873.09 475.248 873.92Z" fill="url(#paint0_linear_1286_9)"/>
<path d="M214.939 423.27C212.917 424.437 210.126 426.486 208.314 429.617C205.283 434.855 204.777 443.398 204.743 444.047L204.784 714.527C204.847 715.258 205.482 721.851 208.106 726.767C210.682 731.59 215.329 735.059 215.91 735.481L451.822 871.733L451.913 871.8C451.976 871.846 458.263 876.437 464.392 876.396C468.412 876.369 472.606 874.291 474.748 873.054C476.128 872.257 476.991 871.623 476.998 871.618L477.09 871.55L708.936 737.694L708.998 737.663C709.004 737.66 709.608 737.364 710.548 736.821C711.849 736.071 713.813 734.837 715.789 733.223C718.069 731.36 719.807 729.452 720.953 727.551C724.52 721.637 723.773 713.411 723.765 713.331L723.756 713.233L723.755 713.134L723.714 443.525C723.702 443.113 723.453 436.382 720.915 431.552C718.436 426.833 713.59 423.634 713.211 423.389L477.568 287.293C476.925 286.988 470.751 284.148 464.409 284.18C458.102 284.212 451.352 287.101 450.557 287.452L217.318 422.114L217.159 422.173C217.12 422.187 216.205 422.539 214.939 423.27ZM213.939 421.538C215.413 420.687 216.46 420.299 216.46 420.299L449.647 285.668C449.647 285.668 457.185 282.217 464.399 282.18C471.613 282.144 478.503 285.523 478.503 285.523L714.249 421.679C714.249 421.679 719.819 425.166 722.686 430.621C725.552 436.076 725.714 443.5 725.714 443.5L725.755 713.134C725.755 713.134 726.636 722.003 722.666 728.584C718.695 735.166 709.875 739.461 709.875 739.461L478.188 873.225C478.189 873.225 471.272 878.35 464.406 878.396C457.54 878.442 450.724 873.408 450.724 873.408L214.826 737.164C214.826 737.164 209.353 733.348 206.342 727.709C203.332 722.07 202.784 714.609 202.784 714.609L202.743 443.999C202.743 443.999 203.154 434.54 206.583 428.615C208.631 425.077 211.755 422.799 213.939 421.538Z" fill="#FD8605"/>
<path d="M91.6851 374.938C99.1409 374.938 105.185 368.894 105.185 361.438C105.185 353.982 99.1409 347.938 91.6851 347.938C84.2292 347.938 78.1851 353.982 78.1851 361.438C78.1851 368.894 84.2292 374.938 91.6851 374.938Z" fill="#CB7D00"/>
</g>
<defs>
<linearGradient id="paint0_linear_1286_9" x1="714.333" y1="728.057" x2="259.693" y2="380.326" gradientUnits="userSpaceOnUse">
<stop stop-color="#A8743A"/>
<stop offset="1"/>
</linearGradient>
<clipPath id="clip0_1286_9">
<rect width="361" height="1052" fill="white"/>
</clipPath>
</defs>
</svg>
