<svg width="384" height="627" viewBox="0 0 384 627" fill="none" xmlns="http://www.w3.org/2000/svg">
<g clip-path="url(#clip0_1287_18)">
<g opacity="0.5">
<path opacity="0.269" d="M-44.467 596.013C-46.3124 596.372 -48.1093 596.567 -49.8077 596.593C-52.0937 596.628 -54.1288 596.35 -55.8563 595.768C-61.9768 593.706 -66.6177 587.046 -66.6639 586.979L-66.6958 586.932L-66.7327 586.89L-245.391 381.303C-245.705 380.861 -249.213 375.811 -250.133 370.063C-251.064 364.25 -249.394 357.488 -249.261 356.963L-161.219 101.144C-161.041 100.701 -157.674 92.4309 -152.862 88.2562C-149.962 85.7412 -146.479 84.6543 -144.067 84.1855C-142.512 83.8833 -141.457 83.8528 -141.447 83.8526L-141.363 83.8504L-141.281 83.8345L122.984 32.4667C123.634 32.4098 131.315 31.7968 137.606 33.9276C143.915 36.0643 149.069 41.0489 149.444 41.4176L327.98 246.862C328.189 247.126 331.966 251.968 332.826 257.576C333.698 263.267 331.62 270.004 331.535 270.275L243.794 525.219L243.778 525.266L243.767 525.314C243.762 525.334 243.25 527.454 242.045 530.127C240.949 532.559 239.035 535.965 236.146 538.38C234.356 539.878 231.992 541.174 229.122 542.232C226.666 543.138 224.35 543.679 222.84 543.972C221.733 544.187 221.038 544.273 221.031 544.274L220.997 544.279L220.962 544.285L-41.651 595.332L-41.7071 595.343L-41.7615 595.36C-41.7716 595.363 -42.8373 595.697 -44.467 596.013Z" fill="url(#paint0_linear_1287_18)"/>
<path opacity="0.269" d="M-143.876 85.1669C-146.168 85.6125 -149.474 86.6411 -152.206 89.0112C-156.778 92.9773 -160.038 100.89 -160.281 101.493L-248.302 357.25C-248.48 357.962 -250.027 364.402 -249.146 369.904C-248.281 375.304 -245.016 380.096 -244.604 380.684L-65.9042 586.318L-65.8404 586.411C-65.796 586.475 -61.3457 592.864 -55.5371 594.82C-51.7279 596.104 -47.0858 595.504 -44.6578 595.032C-43.0932 594.727 -42.0709 594.409 -42.0628 594.406L-41.9539 594.372L220.841 543.29L220.909 543.282C220.916 543.281 221.584 543.197 222.649 542.99C224.123 542.704 226.382 542.177 228.776 541.294C231.538 540.275 233.802 539.037 235.505 537.613C240.803 533.182 242.775 525.161 242.794 525.083L242.816 524.987L242.848 524.893L330.586 269.96C330.708 269.566 332.664 263.12 331.837 257.727C331.029 252.458 327.488 247.856 327.21 247.501L148.714 42.1015C148.205 41.6044 143.292 36.9092 137.285 34.8744C131.312 32.8512 123.989 33.3858 123.122 33.4583L-141.25 84.8489L-141.421 84.8521C-141.462 84.8534 -142.441 84.888 -143.876 85.1669ZM-144.258 83.2037C-142.587 82.8789 -141.471 82.8527 -141.471 82.8527L122.843 31.4752C122.843 31.4752 131.094 30.6658 137.927 32.9801C144.76 35.2945 150.174 40.7327 150.174 40.7327L328.748 246.222C328.748 246.222 332.88 251.333 333.814 257.424C334.748 263.515 332.485 270.587 332.485 270.587L244.74 525.544C244.74 525.544 242.685 534.216 236.788 539.147C230.891 544.078 221.153 545.267 221.153 545.267L-41.4602 596.314C-41.4602 596.314 -49.6688 598.908 -56.1756 596.716C-62.6825 594.524 -67.4876 587.545 -67.4876 587.545L-246.177 381.923C-246.177 381.923 -250.11 376.532 -251.121 370.221C-252.131 363.909 -250.22 356.676 -250.22 356.676L-162.157 100.796C-162.157 100.796 -158.688 91.9863 -153.517 87.5004C-150.429 84.822 -146.734 83.685 -144.258 83.2037Z" fill="#FD8605"/>
</g>
</g>
<defs>
<linearGradient id="paint0_linear_1287_18" x1="229.081" y1="535.936" x2="-87.5794" y2="59.1339" gradientUnits="userSpaceOnUse">
<stop stop-color="#A8743A"/>
<stop offset="1"/>
</linearGradient>
<clipPath id="clip0_1287_18">
<rect width="384" height="627" fill="white"/>
</clipPath>
</defs>
</svg>
